<?xml version="1.0" ?><!DOCTYPE svg  PUBLIC '-//W3C//DTD SVG 1.1//EN'  'http://www.w3.org/Graphics/SVG/1.1/DTD/svg11.dtd'><svg enable-background="new 0 0 512 512" height="512px" id="Layer_1" version="1.1" viewBox="0 0 512 512" width="512px" xml:space="preserve" xmlns="http://www.w3.org/2000/svg" xmlns:xlink="http://www.w3.org/1999/xlink"><g><path d="M384,280c0,4.422-3.578,8-8,8h-88v88c0,4.422-3.578,8-8,8h-48c-4.422,0-8-3.578-8-8v-88h-88   c-4.422,0-8-3.578-8-8v-48c0-4.422,3.578-8,8-8h88v-88c0-4.422,3.578-8,8-8h48c4.422,0,8,3.578,8,8v88h88c4.422,0,8,3.578,8,8V280z    M400,32H112c-44.18,0-80,35.813-80,80v288c0,44.188,35.82,80,80,80h288c44.18,0,80-35.813,80-80V112C480,67.813,444.18,32,400,32z    M432,400.009C432,417.662,417.648,432,400.002,432H111.998C94.354,432,80,417.661,80,400.009V111.992   C80,94.338,94.354,80,111.998,80h288.004C417.648,80,432,94.339,432,111.992V400.009z" fill="#ff0000"/></g></svg>
