<svg id="Layer_1" xmlns="http://www.w3.org/2000/svg" viewBox="0 0 512 512" width="36" height="36">
  <style>.st0{fill:#ff0000}</style>
  <path class="st0" d="M402.3 283.4c0 5.1-4.1 9.1-9.1 9.1H292.6v100.6c0 5.1-4.1 9.1-9.1 9.1h-54.9c-5.1 0-9.1-4.1-9.1-9.1V292.6H118.9c-5.1 0-9.1-4.1-9.1-9.1v-54.9c0-5.1 4.1-9.1 9.1-9.1h100.6V118.9c0-5.1 4.1-9.1 9.1-9.1h54.9c5.1 0 9.1 4.1 9.1 9.1v100.6h100.6c5.1 0 9.1 4.1 9.1 9.1v54.8zM420.6 0H91.4C40.9 0 0 40.9 0 91.4v329.1C0 471.1 40.9 512 91.4 512h329.1c50.5 0 91.4-40.9 91.4-91.4V91.4C512 40.9 471.1 0 420.6 0zm36.5 420.6c0 20.2-16.4 36.6-36.6 36.6H91.4c-20.2 0-36.6-16.4-36.6-36.6V91.4c0-20.2 16.4-36.6 36.6-36.6h329.1c20.2 0 36.6 16.4 36.6 36.6v329.2z"/>
</svg>