<svg version="1.1"
	 xmlns="http://www.w3.org/2000/svg" xmlns:xlink="http://www.w3.org/1999/xlink" xmlns:a="http://ns.adobe.com/AdobeSVGViewerExtensions/3.0/"
	 x="0px" y="0px" width="16px" height="16px" viewBox="0 0 16 16" enable-background="new 0 0 16 16" xml:space="preserve">
<defs>
</defs>
<g id="Plus_3_1_">
	<path d="M15,0H1C0.4,0,0,0.4,0,1v14c0,0.6,0.4,1,1,1h14c0.6,0,1-0.4,1-1V1C16,0.4,15.6,0,15,0z M14,14H2V2h12V14z" fill="#ff0000"/>
	<path d="M4.5,9H7v2.5C7,11.8,7.2,12,7.5,12h1C8.8,12,9,11.8,9,11.5V9h2.5C11.8,9,12,8.8,12,8.5v-1C12,7.2,11.8,7,11.5,7H9V4.5
		C9,4.2,8.8,4,8.5,4h-1C7.2,4,7,4.2,7,4.5V7H4.5C4.2,7,4,7.2,4,7.5v1C4,8.8,4.2,9,4.5,9z" fill="#ff0000" />
</g>
</svg>
