<?xml version="1.0" ?><!DOCTYPE svg  PUBLIC '-//W3C//DTD SVG 1.1//EN'  'http://www.w3.org/Graphics/SVG/1.1/DTD/svg11.dtd'><svg height="16px" id="Layer_1" style="enable-background:new 0 0 16 16;" version="1.1" viewBox="0 0 16 16" width="16px" xml:space="preserve" xmlns="http://www.w3.org/2000/svg" xmlns:xlink="http://www.w3.org/1999/xlink"><g><path d="M14.5,1.957h-13c-0.851,0-1.543,0.692-1.543,1.543v9c0,0.851,0.692,1.543,1.543,1.543h13c0.851,0,1.543-0.692,1.543-1.543   v-9C16.043,2.649,15.351,1.957,14.5,1.957z M14.957,12.5c0,0.252-0.205,0.457-0.457,0.457h-13c-0.252,0-0.457-0.205-0.457-0.457v-9   c0-0.252,0.205-0.457,0.457-0.457h13c0.252,0,0.457,0.205,0.457,0.457V12.5z"/><circle cx="3.5" cy="5.5" r="1.5"/><polygon points="7,10 5,8 2,11 2,12 14,12 14,11 10,7  "/></g></svg>