<svg height="512" width="512" xmlns="http://www.w3.org/2000/svg">
  <path d="M479.999 38H32C14.328 38 0 52.23 0 69.787v381.429C0 468.77 14.328 483 32 483h447.999C497.672 483 512 468.77 512 451.216V69.787C512 52.23 497.672 38 479.999 38zm-15.998 365.536c0 17.554-14.328 31.787-32.001 31.787H80c-17.672 0-32-14.232-32-31.787V117.464C48 99.91 62.328 85.68 80 85.68h352c17.673 0 32.001 14.23 32.001 31.784v286.072zM151.999 228.715c30.93 0 56.001-24.903 56.001-55.625 0-30.721-25.071-55.626-56.001-55.626-30.928 0-55.999 24.905-55.999 55.626s25.071 55.625 55.999 55.625zm88 127.143h-16l-64-79.464L64 403.536h384.001L352 133.358l-112.001 222.5z" fill="#3A3B3B"/>
</svg>
