<svg height="24" width="24" xmlns="http://www.w3.org/2000/svg">
   <path d="M8.189 22.024c-4.378 0-7.808-3.559-7.808-8.102 0-5.157 2.917-8.115 8.005-8.115 3.653 0 5.417 2.889 6.611 5.992V2.476a.5.5 0 0 1 1 0v11.476c0 .229-.009.455-.026.679.863 2.653 1.623 4.92 3.055 4.92 2.482 0 3.594-1.854 3.594-3.69 0-.274.225-.5.5-.5s.5.226.5.5c0 2.762-1.889 4.69-4.594 4.69-1.741 0-2.644-1.693-3.445-3.942-1.041 3.182-3.918 5.415-7.392 5.415zm.197-15.216c-6.095 0-7.005 4.458-7.005 7.115 0 3.98 2.991 7.102 6.808 7.102 3.559 0 6.399-2.7 6.768-6.28-1.214-3.736-2.604-7.937-6.571-7.937z"/>
</svg>
