<svg viewBox="0 0 512 512" xmlns="http://www.w3.org/2000/svg" fill="#ff0000" width="36" height="36">
  <g class="svgGrid" stroke="#ff0000">
    <path d="M32 0v512M64 0v512M96 0v512M128 0v512M160 0v512M192 0v512M224 0v512M256 0v512M288 0v512M320 0v512M352 0v512M384 0v512M416 0v512M448 0v512M480 0v512M0 32h512M0 64h512M0 96h512M0 128h512M0 160h512M0 192h512M0 224h512M0 256h512M0 288h512M0 320h512M0 352h512M0 384h512M0 416h512M0 448h512M0 480h512"/>
    <path fill="none" d="M0 0h512v512H0z"/>
  </g>
  <path d="M384 224v64H224V96h64v128zM256 0C114.615 0 0 114.615 0 256s114.615 256 256 256 256-114.615 256-256S397.385 0 256 0zm0 448c-106.039 0-192-85.961-192-192S149.961 64 256 64s192 85.961 192 192-85.961 192-192 192z"/>
</svg>