<svg height="128" viewBox="0 0 128 128" width="128" xmlns="http://www.w3.org/2000/svg">
  <path fill="#ff0000" d="M63.997.001C28.709.001 0 28.711-.001 64.002 0 99.291 28.709 128 63.997 128c35.291 0 64.002-28.709 64.002-63.998 0-35.29-28.711-64.001-64.002-64.001zm0 119.999C33.121 120 8 94.879 7.999 64.002 8 33.123 33.121 8.001 63.997 8.001c30.88 0 56.002 25.122 56.002 56.001 0 30.877-25.122 55.998-56.002 55.998z"/>
  <path fill="#ff0000" d="M94.999 60.001L42.656 60 62.37 40.288a4 4 0 0 0-5.657-5.657l-26.542 26.54a4.002 4.002 0 0 0-.001 5.657l26.543 26.543c.781.781 1.805 1.172 2.829 1.172s2.047-.391 2.829-1.172a4 4 0 0 0 0-5.656L42.656 68l52.343.001a4 4 0 0 0 0-8z"/>
</svg>
