<svg height="512" id="svg2" overflow="visible" viewBox="0 0 409.60008 409.60002" width="512" xmlns="http://www.w3.org/2000/svg" fill-rule="evenodd" stroke-width=".501" stroke-linejoin="bevel">
  <script id="script3301"/>
  <script id="script3299"/>
  <defs id="defs4">
    <marker id="DefaultArrow2" markerHeight="1" markerWidth="1" orient="auto" overflow="visible" viewBox="0 0 1 1">
      <g id="g7" transform="scale(.00926)">
        <path d="M-9 54V-54L117 0z" id="path9"/>
      </g>
    </marker>
    <marker id="DefaultArrow3" markerHeight="1" markerWidth="1" orient="auto" overflow="visible" viewBox="0 0 1 1">
      <g id="g12" transform="scale(.00926)">
        <path d="M-27 54L-9 0l-18-54L135 0z" id="path14"/>
      </g>
    </marker>
    <marker id="DefaultArrow4" markerHeight="1" markerWidth="1" orient="auto" overflow="visible" viewBox="0 0 1 1">
      <g id="g17" transform="scale(.00926)">
        <path d="M-9 0v-45c0-6.708 11.808-11.58 18-9L117-9c3.916 1.631 9 4.758 9 9s-5.084 7.369-9 9L9 54c-6.192 2.58-18-2.292-18-9z" id="path19"/>
      </g>
    </marker>
    <marker id="DefaultArrow5" markerHeight="1" markerWidth="1" orient="auto" overflow="visible" viewBox="0 0 1 1">
      <g id="g22" transform="scale(.00926)">
        <path d="M-54 0c0 29.807 24.193 54 54 54S54 29.807 54 0 29.807-54 0-54-54-29.807-54 0z" id="path24"/>
      </g>
    </marker>
    <marker id="DefaultArrow6" markerHeight="1" markerWidth="1" orient="auto" overflow="visible" viewBox="0 0 1 1">
      <g id="g27" transform="scale(.00926)">
        <path d="M-63 0L0 63 63 0 0-63z" id="path29"/>
      </g>
    </marker>
    <marker id="DefaultArrow7" markerHeight="1" markerWidth="1" orient="auto" overflow="visible" viewBox="0 0 1 1">
      <g id="g32" transform="scale(.00926)">
        <path d="M18-54h90L63 0l45 54H18L-36 0z" id="path34"/>
      </g>
    </marker>
    <marker id="DefaultArrow8" markerHeight="1" markerWidth="1" orient="auto" overflow="visible" viewBox="0 0 1 1">
      <g id="g37" transform="scale(.00926)">
        <path d="M-36 0l54-54h36L18-18h9l36-36h36L63-18h9l36-36h36L90 0l54 54h-36L72 18h-9l36 36H63L27 18h-9l36 36H18z" id="path39"/>
      </g>
    </marker>
    <marker id="DefaultArrow9" markerHeight="1" markerWidth="1" orient="auto" overflow="visible" viewBox="0 0 1 1">
      <g id="g42" transform="scale(.00926)">
        <path d="M0 45L-45 0 0-45 45 0zm0 18L-63 0 0-63 63 0z" id="path44"/>
      </g>
    </marker>
    <filter color-interpolation-filters="sRGB" id="StainedFilter">
      <feBlend id="feBlend47" in="SourceGraphic" in2="BackgroundImage" mode="multiply" result="blend"/>
      <feComposite id="feComposite49" in="blend" in2="SourceAlpha" operator="in" result="comp"/>
    </filter>
    <filter color-interpolation-filters="sRGB" id="BleachFilter">
      <feBlend id="feBlend52" in="SourceGraphic" in2="BackgroundImage" mode="screen" result="blend"/>
      <feComposite id="feComposite54" in="blend" in2="SourceAlpha" operator="in" result="comp"/>
    </filter>
    <filter color-interpolation-filters="sRGB" id="InvertTransparencyBitmapFilter">
      <feComponentTransfer id="feComponentTransfer57">
        <feFuncR amplitude="1.055" exponent=".417" id="feFuncR59" offset="-.055" type="gamma"/>
        <feFuncG amplitude="1.055" exponent=".417" id="feFuncG61" offset="-.055" type="gamma"/>
        <feFuncB amplitude="1.055" exponent=".417" id="feFuncB63" offset="-.055" type="gamma"/>
      </feComponentTransfer>
      <feComponentTransfer id="feComponentTransfer65">
        <feFuncR id="feFuncR67" intercept="1" slope="-1" type="linear"/>
        <feFuncG id="feFuncG69" intercept="1" slope="-1" type="linear"/>
        <feFuncB id="feFuncB71" intercept="1" slope="-1" type="linear"/>
        <feFuncA id="feFuncA73" type="linear"/>
      </feComponentTransfer>
      <feComponentTransfer id="feComponentTransfer75">
        <feFuncR exponent="2.4" id="feFuncR77" type="gamma"/>
        <feFuncG exponent="2.4" id="feFuncG79" type="gamma"/>
        <feFuncB exponent="2.4" id="feFuncB81" type="gamma"/>
      </feComponentTransfer>
    </filter>
    <radialGradient cx="0" cy="0" gradientTransform="matrix(0 -1 .88605 0 172.174 122.358)" gradientUnits="userSpaceOnUse" id="RadialGradient" r="237.428">
      <stop id="stop84" offset="0" stop-color="#473600"/>
      <stop id="stop86" offset=".792" stop-color="#3d2f00"/>
      <stop id="stop88" offset=".99" stop-color="#3a2c00"/>
      <stop id="stop90" offset="1" stop-color="#3a2c00"/>
    </radialGradient>
    <radialGradient cx="0" cy="0" gradientTransform="matrix(0 -1 .88605 0 170.916 119.88)" gradientUnits="userSpaceOnUse" id="RadialGradient_1" r="237.428">
      <stop id="stop93" offset="0" stop-color="#553e00"/>
      <stop id="stop95" offset=".792" stop-color="#403200"/>
      <stop id="stop97" offset=".99" stop-color="#3b2b00"/>
      <stop id="stop99" offset="1" stop-color="#3b2b00"/>
    </radialGradient>
    <radialGradient cx="0" cy="0" gradientTransform="matrix(0 -1 .88605 0 169.66 117.403)" gradientUnits="userSpaceOnUse" id="RadialGradient_2" r="237.428">
      <stop id="stop102" offset="0" stop-color="#634700"/>
      <stop id="stop104" offset=".792" stop-color="#443400"/>
      <stop id="stop106" offset=".99" stop-color="#3c2a00"/>
      <stop id="stop108" offset="1" stop-color="#3c2a00"/>
    </radialGradient>
    <radialGradient cx="0" cy="0" gradientTransform="matrix(0 -1 .88605 0 168.403 114.925)" gradientUnits="userSpaceOnUse" id="RadialGradient_3" r="237.428">
      <stop id="stop111" offset="0" stop-color="#724f00"/>
      <stop id="stop113" offset=".792" stop-color="#473600"/>
      <stop id="stop115" offset=".99" stop-color="#3c2900"/>
      <stop id="stop117" offset="1" stop-color="#3c2900"/>
    </radialGradient>
    <radialGradient cx="0" cy="0" gradientTransform="matrix(0 -1 .88605 0 167.146 112.448)" gradientUnits="userSpaceOnUse" id="RadialGradient_4" r="237.428">
      <stop id="stop120" offset="0" stop-color="#805800"/>
      <stop id="stop122" offset=".792" stop-color="#4b3800"/>
      <stop id="stop124" offset=".99" stop-color="#3d2800"/>
      <stop id="stop126" offset="1" stop-color="#3d2800"/>
    </radialGradient>
    <radialGradient cx="0" cy="0" gradientTransform="matrix(0 -1 .88605 0 165.889 109.97)" gradientUnits="userSpaceOnUse" id="RadialGradient_5" r="237.428">
      <stop id="stop129" offset="0" stop-color="#8e6000"/>
      <stop id="stop131" offset=".792" stop-color="#4e3b00"/>
      <stop id="stop133" offset=".99" stop-color="#3e2700"/>
      <stop id="stop135" offset="1" stop-color="#3e2700"/>
    </radialGradient>
    <radialGradient cx="0" cy="0" gradientTransform="matrix(0 -1 .88605 0 164.632 107.493)" gradientUnits="userSpaceOnUse" id="RadialGradient_6" r="237.428">
      <stop id="stop138" offset="0" stop-color="#9c6900"/>
      <stop id="stop140" offset=".792" stop-color="#523d00"/>
      <stop id="stop142" offset=".99" stop-color="#3f2600"/>
      <stop id="stop144" offset="1" stop-color="#3f2600"/>
    </radialGradient>
    <linearGradient gradientTransform="translate(218.601 165.399)" gradientUnits="userSpaceOnUse" id="LinearGradient" x2="42.75" y2="36.75">
      <stop id="stop147" offset="0" stop-color="#5c5c5c"/>
      <stop id="stop149" offset="1"/>
    </linearGradient>
    <linearGradient gradientTransform="translate(181.122 157.792)" gradientUnits="userSpaceOnUse" id="LinearGradient_1" x2="-9.672" y2="-141.858">
      <stop id="stop152" offset="0" stop-color="#fff"/>
      <stop id="stop154" offset="1" stop-color="#cfd1d2"/>
    </linearGradient>
    <linearGradient gradientTransform="translate(259.851 172.899)" gradientUnits="userSpaceOnUse" id="LinearGradient_2" x2="69.75" y2="-189.75">
      <stop id="stop157" offset="0" stop-color="#b5b5b5"/>
      <stop id="stop159" offset="1"/>
    </linearGradient>
    <linearGradient gradientTransform="translate(204.11 87.059)" gradientUnits="userSpaceOnUse" id="LinearGradient_3" x2="-51.527" y2="-64.41">
      <stop id="stop162" offset="0" stop-color="#df9000"/>
      <stop id="stop164" offset=".73" stop-color="#7f5200"/>
      <stop id="stop166" offset=".99" stop-color="#3f2600"/>
      <stop id="stop168" offset="1" stop-color="#3f2600"/>
    </linearGradient>
    <linearGradient gradientTransform="translate(199.945 96.333)" gradientUnits="userSpaceOnUse" id="LinearGradient_4" x2="19.041" y2="85.19">
      <stop id="stop171" offset="0" stop-color="#ba7d00"/>
      <stop id="stop173" offset=".792" stop-color="#7f5200"/>
      <stop id="stop175" offset=".99" stop-color="#3f2600"/>
      <stop id="stop177" offset="1" stop-color="#3f2600"/>
    </linearGradient>
    <linearGradient gradientTransform="translate(129.134 111.014)" gradientUnits="userSpaceOnUse" id="LinearGradient_5" x2="-1.007" y2="-63.536">
      <stop id="stop180" offset="0" stop-color="#df9000"/>
      <stop id="stop182" offset=".792" stop-color="#7f5200"/>
      <stop id="stop184" offset=".99" stop-color="#3f2600"/>
      <stop id="stop186" offset="1" stop-color="#3f2600"/>
    </linearGradient>
    <linearGradient gradientTransform="translate(129.286 104.867)" gradientUnits="userSpaceOnUse" id="LinearGradient_6" x2="15.098" y2="58.375">
      <stop id="stop189" offset="0" stop-color="#df9000"/>
      <stop id="stop191" offset=".792" stop-color="#7f5200"/>
      <stop id="stop193" offset=".99" stop-color="#3f2600"/>
      <stop id="stop195" offset="1" stop-color="#3f2600"/>
    </linearGradient>
    <radialGradient cx="0" cy="0" gradientTransform="matrix(.69736 -.71673 1.23192 1.19862 183.351 196.899)" gradientUnits="userSpaceOnUse" id="RadialGradient_7" r="38.717">
      <stop id="stop198" offset="0" stop-color="#6b4c29"/>
      <stop id="stop200" offset="1" stop-color="#a57348"/>
    </radialGradient>
    <radialGradient cx="0" cy="0" gradientTransform="matrix(0 -1 .97394 0 134.346 314.993)" gradientUnits="userSpaceOnUse" id="RadialGradient_8" r="120.999">
      <stop id="stop203" offset="0" stop-color="#e0bf9e"/>
      <stop id="stop205" offset=".017" stop-color="#e0bf9e"/>
      <stop id="stop207" offset=".202" stop-color="#e6b891"/>
      <stop id="stop209" offset="1" stop-color="#7b5d39"/>
    </radialGradient>
    <radialGradient cx="0" cy="0" gradientTransform="matrix(-.01429 -.9999 1.20614 -.01724 146.601 370.899)" gradientUnits="userSpaceOnUse" id="RadialGradient_9" r="87.054">
      <stop id="stop212" offset="0" stop-color="#9a9a9a"/>
      <stop id="stop214" offset="1" stop-color="#313131"/>
    </radialGradient>
    <linearGradient gradientTransform="translate(213.351 257.649)" gradientUnits="userSpaceOnUse" id="LinearGradient_7" x2="-54" y2="-87">
      <stop id="stop217" offset="0" stop-color="#484848"/>
      <stop id="stop219" offset="1"/>
    </linearGradient>
    <linearGradient gradientTransform="translate(133.101 343.149)" gradientUnits="userSpaceOnUse" id="LinearGradient_8" x2="10.5" y2="-85.5">
      <stop id="stop222" offset="0" stop-color="#8d8d8d"/>
      <stop id="stop224" offset="1"/>
    </linearGradient>
    <linearGradient gradientTransform="translate(239.24 380.259)" gradientUnits="userSpaceOnUse" id="LinearGradient_9" x2="3.6" y2="-129">
      <stop id="stop227" offset="0" stop-color="#fff"/>
      <stop id="stop229" offset="1"/>
    </linearGradient>
    <linearGradient gradientTransform="translate(115.007 352.336)" gradientUnits="userSpaceOnUse" id="LinearGradient_10" x2="108" y2="-33.75">
      <stop id="stop232" offset="0" stop-color="#fff"/>
      <stop id="stop234" offset="1"/>
    </linearGradient>
    <linearGradient gradientTransform="translate(226.61 87.059)" gradientUnits="userSpaceOnUse" id="LinearGradient_11" x2="-51.527" y2="-64.41">
      <stop id="stop237" offset="0" stop-color="#df9000"/>
      <stop id="stop239" offset=".73" stop-color="#7f5200"/>
      <stop id="stop241" offset=".99" stop-color="#3f2600"/>
      <stop id="stop243" offset="1" stop-color="#3f2600"/>
    </linearGradient>
  </defs>
  <g id="g3813" transform="matrix(20.49614 0 0 20.49009 0 409.6)" fill="#333">
    <path d="M0-3.806v-14.875c0-.721.586-1.307 1.307-1.307l8.685-.002 4.996 4.997v1.62a4.71 4.71 0 0 0-1.873-.37c-.215 0-.423.013-.625.035l.002-.034H2.498v1.248h7.388a3.947 3.947 0 0 0-.823 1.25H2.496v1.247h6.257c-.008.13-.008.248-.008.342 0 .273.018.581.058.91H2.496v1.247h6.552c.116.423.266.848.46 1.251h-7.01v1.248h5.559c-.49.236-.918.495-1.286.783-.646.506-1.08 1.08-1.362 1.717H1.307A1.309 1.309 0 0 1 0-3.806zm13.74-11.187L9.991-18.74v2.767c0 .542.44.981.981.981h2.766z" id="path3815"/>
    <path d="M6.245-.65c0-.04.005-.081.013-.12L6.245-.78c.235-2.076 1.409-3.077 5.44-4.165v-.488c-1.148-.813-1.691-2.872-1.691-4.221 0-.095.001-.187.01-.28l.011-.107h.005c.219-1.434 1.306-2.452 3.095-2.452 1.788 0 2.88 1.136 3.094 2.569h.007a2.857 2.857 0 0 1 .021.388c0 1.294-.544 3.29-1.692 3.98v.611c3.759 1.048 5.29 2.102 5.44 4.165l-.014.011c.008.039.013.08.013.12 0 .36-.318.65-.714.65a.858.858 0 0 1-.132-.012L19.127 0H7.104l-.013-.012A.858.858 0 0 1 6.96 0c-.395 0-.715-.29-.715-.65z" id="path3817"/>
  </g>
</svg>
