<svg height="512" overflow="visible" viewBox="0 0 409.6 409.6" width="512" xmlns="http://www.w3.org/2000/svg" fill-rule="evenodd" stroke-width=".501" stroke-linejoin="bevel">
  <g fill="red">
    <path d="M0 331.615V26.825C0 12.05 12.01.045 26.788.045l178.01-.042 102.398 102.39v33.193a96.537 96.508 0 0 0-38.39-7.581c-4.406 0-8.669.266-12.81.717l.042-.697H51.199v25.572h151.426a80.898 80.874 0 0 0-16.868 25.612H51.158v25.552h128.245c-.164 2.663-.164 5.081-.164 7.007 0 5.594.369 11.905 1.189 18.646H51.158v25.551H185.45c2.378 8.668 5.452 17.376 9.428 25.633H51.2v25.572h113.938c-10.043 4.836-18.815 10.143-26.358 16.044-13.24 10.368-22.135 22.13-27.915 35.181H26.788A26.83 26.822 0 0 1 0 331.615zm281.617-229.223l-76.84-76.776v56.696c0 11.105 9.018 20.1 20.107 20.1h56.692z"/>
    <path d="M127.998 396.281c0-.82.103-1.66.267-2.458l-.267-.205c4.817-42.538 28.88-63.048 111.5-85.341v-10c-23.53-16.658-34.66-58.847-34.66-86.488 0-1.947.02-3.832.205-5.738l.226-2.192h.102c4.489-29.383 26.768-50.242 63.436-50.242 36.647 0 59.029 23.277 63.415 52.64h.143a58.557 58.54 0 0 1 .43 7.95c0 26.514-11.15 67.412-34.679 81.55v12.52c77.045 21.473 108.425 43.07 111.5 85.34l-.288.226c.164.8.267 1.64.267 2.459 0 7.376-6.518 13.318-14.634 13.318a17.586 17.58 0 0 1-2.706-.245l-.225.225H145.605l-.267-.246a17.586 17.58 0 0 1-2.685.246c-8.096 0-14.655-5.942-14.655-13.319z"/>
  </g>
</svg>
