<svg height="512" id="svg2" overflow="visible" viewBox="0 0 409.60008 409.60002" width="512" xmlns="http://www.w3.org/2000/svg" fill-rule="evenodd" stroke-width=".501" stroke-linejoin="bevel">
  <g id="g3813" transform="matrix(20.49614 0 0 20.49009 0 409.6)" fill="#333">
    <path fill="#ff0000" d="M0-3.806v-14.875c0-.721.586-1.307 1.307-1.307l8.685-.002 4.996 4.997v1.62a4.71 4.71 0 0 0-1.873-.37c-.215 0-.423.013-.625.035l.002-.034H2.498v1.248h7.388a3.947 3.947 0 0 0-.823 1.25H2.496v1.247h6.257c-.008.13-.008.248-.008.342 0 .273.018.581.058.91H2.496v1.247h6.552c.116.423.266.848.46 1.251h-7.01v1.248h5.559c-.49.236-.918.495-1.286.783-.646.506-1.08 1.08-1.362 1.717H1.307A1.309 1.309 0 0 1 0-3.806zm13.74-11.187L9.991-18.74v2.767c0 .542.44.981.981.981h2.766z" />
    <path fill="#ff0000" d="M6.245-.65c0-.04.005-.081.013-.12L6.245-.78c.235-2.076 1.409-3.077 5.44-4.165v-.488c-1.148-.813-1.691-2.872-1.691-4.221 0-.095.001-.187.01-.28l.011-.107h.005c.219-1.434 1.306-2.452 3.095-2.452 1.788 0 2.88 1.136 3.094 2.569h.007a2.857 2.857 0 0 1 .021.388c0 1.294-.544 3.29-1.692 3.98v.611c3.759 1.048 5.29 2.102 5.44 4.165l-.014.011c.008.039.013.08.013.12 0 .36-.318.65-.714.65a.858.858 0 0 1-.132-.012L19.127 0H7.104l-.013-.012A.858.858 0 0 1 6.96 0c-.395 0-.715-.29-.715-.65z" />
  </g>
</svg>
