<svg xmlns="http://www.w3.org/2000/svg" width="24" height="24" viewBox="0 0 24 24"><g stroke="#ff0000" stroke-linejoin="round" stroke-miterlimit="10" fill="none"><path d="M.5 7.5h23v4h-23zM1.5 11.5h21v12h-21zM8.5 7.5v16M15.5 23.5v-16"/><path stroke-linecap="round" d="M17.657 5.268c-.976.977-5.657 2.121-5.657 2.121s1.145-4.681 2.121-5.657 2.56-.976 3.536 0 .976 2.56 0 3.536zM6.343 5.268c.976.977 5.657 2.121 5.657 2.121s-1.146-4.681-2.121-5.657c-.977-.976-2.56-.976-3.536 0s-.977 2.56 0 3.536z"/></g></svg>