<svg viewBox="0 0 72 72" xmlns="http://www.w3.org/2000/svg">
  <g fill="#010101">
    <path d="M31.5 30.6H6.3c-.2 0-.4.2-.4.4v39.6c-.1.2.1.4.4.4h25.2c.2 0 .4-.2.4-.4V31c.1-.2-.1-.4-.4-.4zM40 31v39.6c0 .2.2.4.4.4h25.3c.2 0 .4-.2.4-.4V31c0-.2-.2-.4-.4-.4H40.5c-.3 0-.5.2-.5.4zM70.6 16.6H50.5c-.2 0-.2-.3 0-.3 1.5-.3 3-.7 4.5-1.3 1.8-.6 3.8-1.6 4.5-3.4.4-1.1.3-2.4-.1-3.5-.5-1.4-1.3-2.7-2.5-3.7-1.1-1-2.4-1.7-3.8-2.2-2.4-1-5.2-1.7-7.6-.8-2.2.8-3.6 2.7-5 4.5-.9 1.2-1.9 2.5-2.8 3.7-.3.4-.6.8-.9 1.1-.2.2-.5.4-.8.7-.3-.2-.5-.4-.8-.7-.3-.3-.6-.7-.9-1.1-.9-1.2-1.9-2.5-2.8-3.7-1.4-1.8-2.9-3.7-5-4.5-2.4-.9-5.2-.2-7.6.8-1.4.6-2.7 1.3-3.8 2.2-1.1 1-2 2.3-2.5 3.7-.4 1.1-.5 2.4-.1 3.5.7 1.8 2.7 2.7 4.5 3.4 1.5.5 3 .9 4.5 1.3.2 0 .2.3 0 .3H1.4c-.2 0-.4.2-.4.4v9.4c0 .2.2.4.4.4h30.1c.2 0 .4-.2.4-.4v-9.1-.1h.7c1 0 2-.1 2.9-.4h.7c.9.3 1.9.4 2.9.4h.7v9.2c0 .2.2.4.4.4h30.1c.2 0 .4-.2.4-.4V17c.3-.2.1-.4-.1-.4zm-32.2-3c.2-.3.4-.7.7-1 1.7-2.5 3.4-5.2 6.2-6.5.4-.2.8-.4 1.3-.5 1.1-.4 2.3-.8 3.5-.6 1 .1 1.9.6 2.8 1.1.7.4 1.4.9 1.7 1.6.4.8.4 1.8 0 2.6-.3.8-.9 1.6-1.5 2.3-.4.4-1.2.6-1.7.9-.5.3-1.1.5-1.7.6-3.7.9-7.2 1.1-10.9.5-.2 0-.5-.1-.6-.3 0-.3.1-.5.2-.7zm-17.8-.1c-.5-.3-1.3-.5-1.7-.9-.6-.7-1.2-1.4-1.5-2.3-.3-.8-.4-1.8 0-2.6.4-.7 1-1.2 1.7-1.6.9-.5 1.8-1 2.8-1.1 1.2-.1 2.4.2 3.5.6.4.2.8.3 1.3.5 2.8 1.3 4.6 4 6.2 6.5.2.3.4.7.7 1 .1.2.2.4.2.6-.1.2-.3.3-.6.3-3.7.6-7.2.4-10.9-.5-.6-.1-1.2-.3-1.7-.5z"/>
  </g>
</svg>
