<?xml version="1.0" ?><svg contentScriptType="text/ecmascript" contentStyleType="text/css" height="60.000000px" preserveAspectRatio="xMidYMid meet" version="1.0" viewBox="0 0 60.000000 60.000000" width="60.000000px" xmlns="http://www.w3.org/2000/svg" xmlns:xlink="http://www.w3.org/1999/xlink" zoomAndPan="magnify"><g><rect fill="none" height="10" stroke="#ff0000" stroke-miterlimit="10" stroke-width="2" width="58" x="1.0" y="19.0"/><rect fill="none" height="30" stroke="#ff0000" stroke-miterlimit="10" stroke-width="2" width="54" x="3.0" y="29.0"/><line fill="none" stroke="#ff0000" stroke-miterlimit="10" stroke-width="2" x1="21.0" x2="21.0" y1="19.0" y2="59.0"/><line fill="none" stroke="#ff0000" stroke-miterlimit="10" stroke-width="2" x1="39.0" x2="39.0" y1="59.0" y2="19.0"/><path d="M 44.15503 13.65 c -2.462 2.462 -14.266 5.35 -14.266 5.35 s 2.887 -11.803 5.349 -14.265 c 2.463 -2.462 6.455 -2.462 8.917 0.0 C 46.61499 7.197 46.61499 11.188 44.15503 13.65 z" fill="none" stroke="#ff0000" stroke-linecap="round" stroke-linejoin="round" stroke-miterlimit="10" stroke-width="2"/><path d="M 15.622986 13.65 c 2.462 2.462 14.266 5.35 14.266 5.35 S 27.0 7.197 24.539978 4.735 c -2.463 -2.462 -6.455 -2.462 -8.917 0.0 C 13.163025 7.197 13.159973 11.188 15.622986 13.65 z" fill="none" stroke="#ff0000" stroke-linecap="round" stroke-linejoin="round" stroke-miterlimit="10" stroke-width="2"/></g></svg>