<svg contentScriptType="text/ecmascript" version="1" viewBox="0 0 60 60" xmlns="http://www.w3.org/2000/svg" width="36" height="36">
  <g fill="none" stroke="red" stroke-miterlimit="10" stroke-width="2">
    <path d="M1 19h58v10H1zm2 10h54v30H3zm18-10v40m18 0V19"/>
    <path d="M44.155 13.65C41.693 16.112 29.889 19 29.889 19s2.887-11.803 5.349-14.265a6.306 6.306 0 0 1 8.917 0 6.307 6.307 0 0 1 0 8.915zm-28.532 0C18.085 16.112 29.889 19 29.889 19S27 7.197 24.54 4.735a6.304 6.304 0 1 0-8.917 8.915z" stroke-linecap="round" stroke-linejoin="round"/>
  </g>
</svg>
