<?xml version="1.0" ?><!DOCTYPE svg  PUBLIC '-//W3C//DTD SVG 1.0//EN'  'http://www.w3.org/TR/2001/REC-SVG-20010904/DTD/svg10.dtd'><svg enable-background="new 0 0 32 32" height="32px" id="Layer_1" version="1.0" viewBox="0 0 32 32" width="32px" xml:space="preserve" xmlns="http://www.w3.org/2000/svg" xmlns:xlink="http://www.w3.org/1999/xlink"><g><path d="M18,6h12c1.105,0,2-0.895,2-2s-0.895-2-2-2H18c-1.105,0-2,0.895-2,2S16.895,6,18,6z"/><path d="M30,10H18c-1.105,0-2,0.895-2,2s0.895,2,2,2h12c1.105,0,2-0.895,2-2S31.105,10,30,10z"/><path d="M30,18H2c-1.105,0-2,0.895-2,2s0.895,2,2,2h28c1.105,0,2-0.895,2-2S31.105,18,30,18z"/><path d="M30,26H2c-1.105,0-2,0.895-2,2s0.895,2,2,2h28c1.105,0,2-0.895,2-2S31.105,26,30,26z"/><path d="M12,4c0-1.104-0.895-2-2-2H2C0.895,2,0,2.896,0,4v8c0,1.104,0.895,2,2,2h8c1.105,0,2-0.896,2-2V4z"/></g><g/><g/><g/><g/><g/><g/><g/><g/><g/><g/><g/><g/><g/><g/><g/></svg>