<svg viewBox="0 0 16 16" xmlns="http://www.w3.org/2000/svg" width="36" height="36">
  <path d="M13.5 11.999h-11a.5.5 0 0 0 0 1h11a.5.5 0 0 0 0-1zm0-2h-11a.5.5 0 0 0 0 1h11a.5.5 0 0 0 0-1zm0-2h-11a.5.5 0 0 0 0 1h11a.5.5 0 0 0 0-1zm-10.5-1h4a1 1 0 0 0 1-1v-3a1 1 0 0 0-1-1H3a1 1 0 0 0-1 1v3a1 1 0 0 0 1 1zm0-3.501a.5.5 0 0 1 .5-.499h3a.5.5 0 0 1 .5.499v2.001a.5.5 0 0 1-.5.5h-3a.5.5 0 0 1-.5-.5V3.498zm10.5 2.501h-4a.5.5 0 0 0 0 1h4a.5.5 0 0 0 0-1zm0-4h-4a.5.5 0 0 0 0 1h4a.5.5 0 0 0 0-1zm1.5-2H1a1 1 0 0 0-1 1v14a1 1 0 0 0 1 1h14a1 1 0 0 0 1-1v-14a1 1 0 0 0-1-1zm0 14.5a.5.5 0 0 1-.5.5h-13a.5.5 0 0 1-.5-.5v-13a.5.5 0 0 1 .5-.5h13a.5.5 0 0 1 .5.5v13zm-1.5-10.5h-4a.5.5 0 0 0 0 1h4a.5.5 0 0 0 0-1z" fill="red"/>
</svg>
