<svg viewBox="0 0 64 64" xmlns="http://www.w3.org/2000/svg" width="36" height="36">
  <path clip-rule="evenodd" d="M62 36H52a2 2 0 0 1-2-2v-4a2 2 0 0 1 2-2h10a2 2 0 0 1 2 2v4a2 2 0 0 1-2 2zM48.971 20.687a2 2 0 0 1-2.828 0l-2.829-2.829a2 2 0 0 1 0-2.829l7.071-7.071a2 2 0 0 1 2.828 0l2.829 2.828c.78.781.78 2.047 0 2.829l-7.071 7.072zM32 46c-7.732 0-14-6.268-14-14s6.268-14 14-14 14 6.268 14 14-6.268 14-14 14zm0-21a7 7 0 1 0 0 14 7 7 0 0 0 0-14zm2-11h-4a2 2 0 0 1-2-2V2a2 2 0 0 1 2-2h4a2 2 0 0 1 2 2v10a2 2 0 0 1-2 2zm-16.143 6.687a2 2 0 0 1-2.828 0l-7.071-7.071a2 2 0 0 1 0-2.829l2.829-2.828a2 2 0 0 1 2.828 0l7.071 7.071c.78.781.78 2.047 0 2.829l-2.829 2.828zM14 30v4a2 2 0 0 1-2 2H2a2 2 0 0 1-2-2v-4a2 2 0 0 1 2-2h10a2 2 0 0 1 2 2zm1.029 13.313a2 2 0 0 1 2.828 0l2.829 2.829c.78.78.78 2.047 0 2.828l-7.071 7.071c-.781.78-2.047.78-2.828 0l-2.829-2.829a2 2 0 0 1 0-2.828l7.071-7.071zM30 50h4a2 2 0 0 1 2 2v10a2 2 0 0 1-2 2h-4a2 2 0 0 1-2-2V52a2 2 0 0 1 2-2zm16.143-6.687a2 2 0 0 1 2.828 0l7.071 7.071c.78.781.78 2.048 0 2.828l-2.829 2.829c-.78.78-2.047.78-2.828 0l-7.071-7.071a2 2 0 0 1 0-2.828l2.829-2.829z" fill-rule="evenodd" fill="red"/>
</svg>
