<?xml version="1.0" ?><!DOCTYPE svg  PUBLIC '-//W3C//DTD SVG 1.1//EN'  'http://www.w3.org/Graphics/SVG/1.1/DTD/svg11.dtd'><svg enable-background="new 0 0 64 64" height="64px" id="图层_1" version="1.1" viewBox="0 0 64 64" width="64px" xml:space="preserve" xmlns="http://www.w3.org/2000/svg" xmlns:xlink="http://www.w3.org/1999/xlink"><g><path clip-rule="evenodd" d="M62,36H52c-1.104,0-2-0.896-2-2v-4c0-1.104,0.896-2,2-2h10c1.104,0,2,0.896,2,2    v4C64,35.104,63.104,36,62,36z M48.971,20.687c-0.781,0.781-2.048,0.781-2.828,0l-2.829-2.829c-0.781-0.781-0.781-2.047,0-2.829    l7.071-7.071c0.781-0.781,2.048-0.781,2.828,0l2.829,2.828c0.78,0.781,0.78,2.047,0,2.829L48.971,20.687z M32,46    c-7.732,0-14-6.268-14-14c0-7.732,6.268-14,14-14s14,6.268,14,14C46,39.732,39.732,46,32,46z M32,25c-3.866,0-7,3.134-7,7    s3.134,7,7,7s7-3.134,7-7S35.866,25,32,25z M34,14h-4c-1.104,0-2-0.896-2-2V2c0-1.104,0.896-2,2-2h4c1.104,0,2,0.896,2,2v10    C36,13.104,35.104,14,34,14z M17.857,20.687c-0.781,0.781-2.047,0.781-2.828,0l-7.071-7.071c-0.781-0.781-0.781-2.047,0-2.829    l2.829-2.828c0.781-0.781,2.047-0.781,2.828,0l7.071,7.071c0.78,0.781,0.78,2.047,0,2.829L17.857,20.687z M14,30v4    c0,1.104-0.896,2-2,2H2c-1.104,0-2-0.896-2-2v-4c0-1.104,0.896-2,2-2h10C13.104,28,14,28.896,14,30z M15.029,43.313    c0.781-0.781,2.047-0.781,2.828,0l2.829,2.829c0.78,0.78,0.78,2.047,0,2.828l-7.071,7.071c-0.781,0.78-2.047,0.78-2.828,0    l-2.829-2.829c-0.781-0.78-0.781-2.047,0-2.828L15.029,43.313z M30,50h4c1.104,0,2,0.896,2,2v10c0,1.104-0.896,2-2,2h-4    c-1.104,0-2-0.896-2-2V52C28,50.896,28.896,50,30,50z M46.143,43.313c0.78-0.781,2.047-0.781,2.828,0l7.071,7.071    c0.78,0.781,0.78,2.048,0,2.828l-2.829,2.829c-0.78,0.78-2.047,0.78-2.828,0l-7.071-7.071c-0.781-0.781-0.781-2.048,0-2.828    L46.143,43.313z" fill-rule="evenodd"/></g></svg>