<svg viewBox="0 0 32 32" xmlns="http://www.w3.org/2000/svg" width="36" height="36">
  <path clip-rule="evenodd" d="M16 32C7.164 32 0 24.836 0 16 0 7.163 7.164 0 16 0s16 7.163 16 16c0 8.836-7.164 16-16 16zM4 16c0 6.627 5.373 12 12 12 .321 0 .636-.023.951-.048.085-.12.178-.232.229-.376-.015.038.107-.44.04-.734-.144-.635.051-.805.218-1.393.175-.597.158-1.373.271-2.02.051-.307.139-.951.031-1.241-.119-.328-.631-.587-.863-.81-.336-.313-.515-.652-.758-1.042-.127-.193-.271-.386-.365-.6-.212-.459 0-.188.034-.457.034-.263-.031-.497.068-.769.113-.302.392-.49.48-.799.186-.683-.718-.664-.718-.664-.73.096-3.254-1.625-3.902-1.966-.464-.245-1.817-.245-2.003-.749-.164-.423-.402-.621-.676-.98-.286-.357-.385-.62-.809-.761a1.374 1.374 0 0 1-.656-.507c-.146-.187-.388-.242-.56-.403-.605-.568-.721-1.323-.65-2.133.025-.26.208-.536.166-.788l-.04-.057A11.942 11.942 0 0 0 4 16zm19.107-9.654l-.071.023c-.667.234-.503 1.471-1.386 1.246-.413-.103-.721-.398-.973-.692-1.151-1.364-.223-.954.088-1.34.25-.314-.006-.515-.308-.719a11.921 11.921 0 0 0-2.162-.64c-.068.379.544.276.536.571-.013.287-.637 0-.647.138-.011.219.393.102.393.36s-.67-.146-1.032-.398c-.418-.286-1.154-.097-1.154-.26 0-.153.67-.276.832-.573C16.82 4.021 16.413 4 16 4c-.345 0-.685.023-1.023.052-.2.202-.4.405-.583.577.062-.059-1.096.625-1.272.981-.399.781.891 1.03 1.38 1.255.221.105.865.249.984.421.164.229-.173.649.201.615.402-.047.412-.348.56-.846.137-.475.302-.313.161-.784-.065-.22-.311-.831-.096-.989.283-.213.917.005 1.089.138.704.548.704.622 1.227.45.456-.142.495.1.647.48.147.356.286.488.545.717.122.105.651.488.603.723-.034.158-.642.397-.8.451-3.938 1.293-.663.356-.741.272.406.454.635.465 1.069.134.172-.135.298-.689.707-.322.049.049.461.676.311.65-.486-.103-.953-.091-1.357.187-.234.158-.441.517-.735.478-.332-.034-.689-.091-.849-.021-.628.17-1.456 1.438-1.431 1.393-.085.155.079.301.042.415-.048.152-.268.286-.437.405.087-.077-.378.265-.534.514l-.011-.076c.003.029.006.056.006.085.002-.003.005-.006.005-.009.054.261.215.869.17 1.01-.147.462-.441-.252-.56-.436-.407-.635-1.091-.351-1.568-.049-.587.375-.544.715-.479 1.347.048.438.604.179 1.084.162.625-.017.014.635-.04.876-.054.222.187.094.299.298.309.55.822.861 1.686 1.273.504.245.225-.169.758-.34.727-.229 2.248.049 3.051.723.288.243 1.41.148 1.51 1.051.057.403.256.462 1.026.734.277.101 1.439.191 1.819.62.211.24.064.635-.098.878-.203.319-.514.439-.645.813-.102.296-.025.597-.084.925-.047.261-.83.941-.738.895-.662.33-.63.209-.984.896-.107.228-.26.377-.438.568-.067.073-.687.948-.721.878-.048-.091-.534.09-.557-.038.017.108-.006.073.116.138-.113.72-1.171.128-1.088.831-.173.053-.517.859-.593 1.057-.039.071-.121.194-.191.305C23.879 26.646 28 21.804 28 16c0-3.964-1.93-7.469-4.893-9.654zm-6.904 5.485c-.02.018-.06.05-.149.119.037-.038.09-.077.149-.119zm2.391 15.622c.006-.012.019-.031.022-.039-.045.107-.047.103-.022.039z" fill="#ff0000" fill-rule="evenodd"/>
</svg>