<?xml version="1.0" ?><!DOCTYPE svg  PUBLIC '-//W3C//DTD SVG 1.1//EN'  'http://www.w3.org/Graphics/SVG/1.1/DTD/svg11.dtd'><svg height="24px" style="enable-background:new 0 0 24 24;" version="1.1" viewBox="0 0 24 24" width="24px" xml:space="preserve" xmlns="http://www.w3.org/2000/svg" xmlns:xlink="http://www.w3.org/1999/xlink"><g id="Frame_-_24px"><rect height="24" style="fill:none;" width="24"/></g><g id="Line_Icons"><g><path d="M21,3h-3V1h-2v6h2V5h3v15H3V5h2V3H3C1.896,3,1,3.895,1,5v15c0,1.104,0.896,2,2,2h18    c1.104,0,2-0.896,2-2V5C23,3.895,22.104,3,21,3z" style="fill:#757575;"/><polygon points="8,5 15,5 15,3 8,3 8,1 6,1 6,7 8,7   " style="fill:#757575;"/><rect height="4" style="fill:#757575;" width="4" x="5" y="9"/><rect height="4" style="fill:#757575;" width="4" x="10" y="9"/><rect height="4" style="fill:#757575;" width="4" x="15" y="9"/><rect height="4" style="fill:#757575;" width="4" x="5" y="14"/><rect height="4" style="fill:#757575;" width="4" x="10" y="14"/></g></g></svg>