<?xml version="1.0" ?><!DOCTYPE svg  PUBLIC '-//W3C//DTD SVG 1.1//EN'  'http://www.w3.org/Graphics/SVG/1.1/DTD/svg11.dtd'><svg enable-background="new 0 0 128 128" height="128px" id="Layer_1" version="1.1" viewBox="0 0 128 128" width="128px" xml:space="preserve" xmlns="http://www.w3.org/2000/svg" xmlns:xlink="http://www.w3.org/1999/xlink"><g><g><path d="M126.626,43.331c-0.048-8.997-4.902-13.757-14.056-13.971c-4.95-0.121-9.937,0.274-14.838-0.19    c-1.739-0.169-4.014-1.824-4.809-3.417c-2.643-5.225-6.286-8.642-12.353-8.678C75.046,17.043,69.523,16.91,64,16.885    c-5.523,0.024-11.046,0.157-16.565,0.19c-6.072,0.036-9.715,3.453-12.357,8.678c-0.795,1.594-3.07,3.248-4.805,3.417    c-4.906,0.464-9.892,0.069-14.843,0.19C6.276,29.574,1.423,34.334,1.374,43.331C1.289,61.365,1.277,79.394,1.386,97.424    c0.048,8.666,5.035,13.58,13.757,13.64c16.283,0.097,32.574,0.024,48.857,0.024c16.283,0,32.574,0.073,48.856-0.024    c8.722-0.061,13.713-4.974,13.757-13.64C126.723,79.394,126.711,61.365,126.626,43.331z M19.359,91.284    c0,2.63-2.134,4.765-4.765,4.765H7.103V45.881h7.492c2.63,0,4.765,2.134,4.765,4.769V91.284z M63.931,97.956    C48.52,97.944,36.05,85.422,36.062,69.97c0.016-15.549,12.333-27.833,27.898-27.825c15.488,0.012,27.962,12.426,27.979,27.849    C91.954,85.28,79.242,97.969,63.931,97.956z M112.34,49.088c-2.945,0-5.337-2.388-5.337-5.337c0-2.945,2.392-5.333,5.337-5.333    c2.949,0,5.338,2.388,5.338,5.333C117.678,46.7,115.289,49.088,112.34,49.088z" fill="#333333"/><g><g><path d="M64.065,48.978c-11.75-0.026-21.143,9.246-21.278,21.003c-0.134,11.638,9.576,21.392,21.264,21.359      c11.599-0.033,21.165-9.627,21.165-21.227C85.216,58.432,75.781,49.004,64.065,48.978z M50.75,71.33      c-2.119,0.284-3.513-0.654-2.29-4.555c1.158-3.693,6.031-9.774,9.718-11.239c0.706-0.28,1.405-0.478,2.084-0.58      c1.769-0.265,3.134,0.101,3.973,0.973c0.42,0.436,0.707,0.998,0.842,1.672c1.048,5.293-4.521,9.19-8.486,11.406      C54.904,69.95,52.562,71.087,50.75,71.33z" fill="#333333"/></g></g></g></g></svg>