<svg height="128" width="128" xmlns="http://www.w3.org/2000/svg">
  <path d="M116 30H91l-4.318-5.979C85.086 21.809 81.578 20 78.891 20H49.112c-2.687 0-6.196 1.809-7.792 4.021L37 30H12C5.4 30 0 35.4 0 42v60c0 6.6 5.4 12 12 12h104c6.6 0 12-5.4 12-12V42c0-6.6-5.4-12-12-12zM92.461 79.295a28.644 28.644 0 0 1-7.779 14.294C79.259 99.013 72.049 102 64.38 102c-7.562 0-14.675-2.91-20.07-8.191l-5.913 5.914L32 75.854l23.871 6.393-5.899 5.9C53.856 91.916 58.955 94 64.38 94a20.577 20.577 0 0 0 14.645-6.066 20.664 20.664 0 0 0 5.612-10.309 3.999 3.999 0 0 1 4.747-3.078 4.002 4.002 0 0 1 3.077 4.748zM72.129 61.188l5.899-5.898c-8.094-7.847-21.051-7.784-29.051.214a20.64 20.64 0 0 0-5.612 10.308 4.002 4.002 0 0 1-4.747 3.078 4 4 0 0 1-3.077-4.746 28.633 28.633 0 0 1 7.779-14.296c11.12-11.117 29.16-11.188 40.37-.219l5.915-5.915L96 67.581l-23.871-6.393z" fill="red"/>
</svg>
