<?xml version="1.0" ?><!DOCTYPE svg  PUBLIC '-//W3C//DTD SVG 1.1//EN'  'http://www.w3.org/Graphics/SVG/1.1/DTD/svg11.dtd'><svg enable-background="new 0 0 512 512" height="512px" id="Layer_1" version="1.1" viewBox="0 0 512 512" width="512px" xml:space="preserve" xmlns="http://www.w3.org/2000/svg" xmlns:xlink="http://www.w3.org/1999/xlink"><g><path d="M259.91,208.914l-1.788,1.788l-0.915,0.916c-0.391,0.391-1.023,0.391-1.414,0l-0.915-0.915l-1.789-1.789   c-0.781-0.781-0.781-2.047,0-2.828c0.781-0.781,2.047-0.781,2.829,0l0.582,0.582l0.582-0.582c0.781-0.781,2.047-0.781,2.828,0   C260.691,206.867,260.691,208.133,259.91,208.914z" fill="none"/></g><g><path d="M387.844,282.527L171.063,499.435C156.125,514.372,128,514.372,128,483.247v-455.5c0-31.125,28.125-31.125,43.063-16.156   l216.781,216.781C402.781,243.341,402.781,267.591,387.844,282.527z"/></g></svg>