<?xml version="1.0" ?><!DOCTYPE svg  PUBLIC '-//W3C//DTD SVG 1.1//EN'  'http://www.w3.org/Graphics/SVG/1.1/DTD/svg11.dtd'><svg enable-background="new 0 0 512 512" height="512px" id="Layer_1" version="1.1" viewBox="0 0 512 512" width="512px" xml:space="preserve" xmlns="http://www.w3.org/2000/svg" xmlns:xlink="http://www.w3.org/1999/xlink"><g><path d="M259.91,208.914l-1.788,1.788l-0.915,0.916c-0.391,0.391-1.023,0.391-1.414,0l-0.915-0.915l-1.789-1.789   c-0.781-0.781-0.781-2.047,0-2.828c0.781-0.781,2.047-0.781,2.829,0l0.582,0.582l0.582-0.582c0.781-0.781,2.047-0.781,2.828,0   C260.691,206.867,260.691,208.133,259.91,208.914z" fill="none"/></g><g><path d="M482.734,216.383l-181,181c-25,25-65.5,25-90.5,0l-181-181c-25-25-25-65.531,0-90.5c24.938-25,65.5-25,90.5,0   l135.75,135.75l135.75-135.75c25-25,65.5-25,90.5,0C507.734,150.852,507.734,191.383,482.734,216.383z"/></g></svg>