<?xml version="1.0" ?><!DOCTYPE svg  PUBLIC '-//W3C//DTD SVG 1.1//EN'  'http://www.w3.org/Graphics/SVG/1.1/DTD/svg11.dtd'><svg enable-background="new 0 0 512 512" height="512px" id="Layer_1" version="1.1" viewBox="0 0 512 512" width="512px" xml:space="preserve" xmlns="http://www.w3.org/2000/svg" xmlns:xlink="http://www.w3.org/1999/xlink"><g><path d="M365.609,319.453c3.188,3.203,3.188,8.344,0,11.547l-34.617,34.609c-3.188,3.188-8.353,3.188-11.531,0   L256,302.141l-63.461,63.469c-3.18,3.188-8.344,3.188-11.531,0L146.398,331c-3.195-3.203-3.195-8.344,0-11.547L209.844,256   l-63.445-63.453c-3.195-3.203-3.195-8.344,0-11.531l34.609-34.625c3.188-3.188,8.352-3.188,11.531,0L256,209.859l63.461-63.469   c3.18-3.188,8.344-3.188,11.531,0l34.617,34.625c3.188,3.188,3.188,8.328,0,11.531L302.156,256L365.609,319.453z M256,16   C123.453,16,16,123.453,16,256s107.453,240,240,240s240-107.453,240-240S388.547,16,256,16z M256,449.594   C149.25,449.594,62.398,362.75,62.398,256S149.25,62.406,256,62.406S449.602,149.25,449.602,256S362.75,449.594,256,449.594z" fill="#ff0000"/></g></svg>
