<svg id="Layer_1" xmlns="http://www.w3.org/2000/svg" viewBox="0 0 512 512" width="36" height="36">
  <style>.st0{fill:#ff0000}</style>
  <path class="st0" d="M372.9 323.7c3.4 3.4 3.4 8.9 0 12.3L336 372.9c-3.4 3.4-8.9 3.4-12.3 0L256 305.2l-67.7 67.7c-3.4 3.4-8.9 3.4-12.3 0L139.1 336c-3.4-3.4-3.4-8.9 0-12.3l67.7-67.7-67.7-67.7c-3.4-3.4-3.4-8.9 0-12.3l36.9-36.9c3.4-3.4 8.9-3.4 12.3 0l67.7 67.7 67.7-67.7c3.4-3.4 8.9-3.4 12.3 0l36.9 36.9c3.4 3.4 3.4 8.9 0 12.3L305.2 256l67.7 67.7zM256 0C114.6 0 0 114.6 0 256s114.6 256 256 256 256-114.6 256-256S397.4 0 256 0zm0 462.5c-113.9 0-206.5-92.6-206.5-206.5S142.1 49.5 256 49.5 462.5 142.1 462.5 256 369.9 462.5 256 462.5z"/>
</svg>