<svg height="48" width="48" xmlns="http://www.w3.org/2000/svg">
  <path d="M45.51 10.02h-3.67V6.27c0-1.13-.95-2.04-2.11-2.04H2.49c-1.17 0-2.11.91-2.11 2.04v29.67c0 1.13.95 2.04 2.11 2.04h3.67v3.74c0 1.13.95 2.04 2.11 2.04h37.24c1.17 0 2.11-.91 2.11-2.04V12.06c.01-1.13-.94-2.04-2.11-2.04zM6.16 12.06v22.07H4.23V8.09h33.75v1.93H8.27c-1.16 0-2.11.91-2.11 2.04zm37.61 27.85H10.02V13.88h33.75v26.03zm-1.96-7.03L33.4 21.73c-.19-.27-.46-.42-.73-.43-.28-.01-.55.14-.74.4l-6.64 8.73c-.4.53-1.05.53-1.46 0L21 26.71c-.2-.26-.47-.41-.76-.4-.28.01-.55.17-.74.45l-7.55 10.88h29.89l-.03-4.76zm-23.53-9.92c1.86 0 3.38-1.51 3.38-3.38 0-1.86-1.51-3.38-3.38-3.38-1.86 0-3.37 1.51-3.37 3.38 0 1.87 1.51 3.38 3.37 3.38z"/>
</svg>
