<svg viewBox="0 0 299.998 299.998" xmlns="http://www.w3.org/2000/svg">
   <path d="M149.997 0C67.157 0 .001 67.158.001 149.995s67.156 150.003 149.995 150.003 150-67.163 150-150.003S232.836 0 149.997 0zM40.732 206.496c0-46.858 41.152-46.848 50.284-59.1l1.045-5.587c-12.83-6.505-21.887-22.178-21.887-40.514 0-24.154 15.712-43.738 35.089-43.738 15.258 0 28.205 12.164 33.037 29.118-19.41 6.168-33.768 27.214-33.768 52.232 0 17.224 6.79 33.06 17.937 43.121-1.79.918-3.781 1.854-5.493 2.656-8.989 4.217-21.449 10.079-30.438 21.812H40.732zm109.721 37.609v-.002H85.466c0-46.856 41.152-46.843 50.284-59.095l1.045-5.587c-12.83-6.505-21.887-22.178-21.887-40.514 0-24.154 15.712-43.738 35.089-43.738s35.089 19.584 35.089 43.738c0 18.178-8.896 33.758-21.555 40.361l1.19 6.352c10.019 11.658 49.802 12.418 49.802 58.485h-64.07zm62.999-37.607v-.002c-8.992-11.731-21.452-17.592-30.441-21.809-1.769-.83-3.73-1.751-5.483-2.651 11.137-10.074 17.935-25.944 17.935-43.129 0-25.015-14.353-46.057-33.758-52.227 4.829-16.957 17.776-29.121 33.037-29.121 19.379 0 35.089 19.584 35.089 43.738 0 18.178-8.896 33.756-21.555 40.361l1.19 6.352c10.019 11.656 49.802 12.415 49.802 58.488h-45.816z"/>
</svg>
