<svg xmlns="http://www.w3.org/2000/svg" viewBox="0 0 50 50" width="36" height="36">
  <path d="M38.9 15.4c4.2 0 7.7-3.4 7.7-7.7 0-4.2-3.4-7.7-7.7-7.7-4.2 0-7.7 3.4-7.7 7.7 0 1 .2 1.9.6 2.8l-15.3 8.9c-1.4-1.4-3.3-2.3-5.4-2.3-4.2 0-7.7 3.4-7.7 7.7 0 4.2 3.4 7.7 7.7 7.7 2.2 0 4.1-.9 5.5-2.3l15.1 9.5c-.3.8-.5 1.7-.5 2.6 0 4.2 3.4 7.7 7.7 7.7 4.2 0 7.7-3.4 7.7-7.7 0-4.2-3.4-7.7-7.7-7.7-2.2 0-4.2.9-5.6 2.4l-15.1-9.5c.3-.8.5-1.7.5-2.7 0-1-.2-1.9-.5-2.8l15.3-8.9c1.4 1.5 3.3 2.3 5.4 2.3zm0 22.3c2.5 0 4.6 2 4.6 4.6 0 2.5-2 4.6-4.6 4.6-2.5 0-4.6-2-4.6-4.6 0-.8.2-1.6.6-2.3v-.1c1-1.3 2.4-2.2 4-2.2zm-27.8-8.3c-2.5 0-4.6-2-4.6-4.6 0-2.5 2-4.6 4.6-4.6 1.5 0 2.8.7 3.6 1.8 0 0 0 .1.1.1l.3.3c.4.7.6 1.4.6 2.2 0 .9-.3 1.7-.7 2.4-.9 1.5-2.3 2.4-3.9 2.4zM38.9 3.2c2.5 0 4.6 2 4.6 4.6 0 2.5-2 4.6-4.6 4.6-2.5 0-4.6-2-4.6-4.6.1-2.6 2.1-4.6 4.6-4.6z" fill="red"/>
</svg>
