<svg viewBox="0 0 32 32" xmlns="http://www.w3.org/2000/svg">
  <path d="M26 9H6a1 1 0 0 1 0-2h20a1 1 0 1 1 0 2zm0 4H6a1 1 0 0 1 0-2h20a1 1 0 1 1 0 2zm-9 4H6a1 1 0 0 1 0-2h11a1 1 0 1 1 0 2zm-7 15a.999.999 0 0 1-1-1v-7H2.505A2.508 2.508 0 0 1 0 21.495V2.505A2.508 2.508 0 0 1 2.505 0h26.99A2.508 2.508 0 0 1 32 2.505v18.99A2.508 2.508 0 0 1 29.495 24H20.35l-9.726 7.781A.993.993 0 0 1 10 32zM2.505 2A.506.506 0 0 0 2 2.505v18.99c0 .278.227.505.505.505H10a1 1 0 0 1 1 1v5.919l8.375-6.7A1 1 0 0 1 20 22h9.495a.506.506 0 0 0 .505-.505V2.505A.506.506 0 0 0 29.495 2H2.505z"/>
</svg>
