<?xml version="1.0" ?><!DOCTYPE svg  PUBLIC '-//W3C//DTD SVG 1.1//EN'  'http://www.w3.org/Graphics/SVG/1.1/DTD/svg11.dtd'><svg enable-background="new 0 0 128 128" height="128px" id="Layer_1" version="1.1" viewBox="0 0 128 128" width="128px" xml:space="preserve" xmlns="http://www.w3.org/2000/svg" xmlns:xlink="http://www.w3.org/1999/xlink"><g><path d="M116,4H12C5.383,4,0,9.383,0,16v68c0,6.617,5.383,12,12,12h20v24c0,1.618,0.975,3.076,2.469,3.695   c0.495,0.205,1.015,0.305,1.53,0.305c1.041,0,2.064-0.406,2.83-1.172L65.656,96H116c6.617,0,12-5.383,12-12V16   C128,9.383,122.617,4,116,4z M120,84c0,2.206-1.794,4-4,4H62.344L40,110.343V88H12c-2.206,0-4-1.794-4-4V16c0-2.206,1.794-4,4-4   h104c2.206,0,4,1.794,4,4V84z"/><path d="M104,24H24c-2.209,0-4,1.791-4,4s1.791,4,4,4h80c2.209,0,4-1.791,4-4S106.209,24,104,24z"/><path d="M104,40H24c-2.209,0-4,1.791-4,4s1.791,4,4,4h80c2.209,0,4-1.791,4-4S106.209,40,104,40z"/><path d="M64,56H24c-2.209,0-4,1.791-4,4s1.791,4,4,4h40c2.209,0,4-1.791,4-4S66.209,56,64,56z"/></g></svg>