<svg height="512" width="512" xmlns="http://www.w3.org/2000/svg">
  <path d="M485.825 243.788c-.535-6.376-5.905-13.346-11.933-15.49l-22.902-8.144c-6.028-2.144-20.544-9.914-23.416-14.125-2.872-4.21-6.621-11.047-8.33-15.194-1.71-4.147-3.888-11.634-4.842-16.638-.954-5.004 3.81-20.761 6.556-26.539l10.433-21.947c2.746-5.779 1.502-14.407-2.765-19.173L409.238 87.15c-4.766-4.268-13.394-5.512-19.173-2.765l-21.947 10.432c-5.779 2.747-14.611 5.719-19.628 6.604-5.017.885-19.402-3.181-23.549-4.89-4.146-1.709-10.983-5.458-15.194-8.329-4.21-2.872-11.982-17.388-14.125-23.416l-8.144-22.902c-2.144-6.028-9.114-11.399-15.489-11.934 0 0-5.168-.433-13.729-.433-8.56 0-13.729.433-13.729.433-6.376.535-13.345 5.905-15.489 11.934l-8.144 22.902c-2.144 6.028-6.287 14.378-9.208 18.555-2.92 4.177-15.965 11.482-20.111 13.191-4.146 1.71-11.633 3.889-16.638 4.842-5.004.954-20.76-3.809-26.539-6.556l-21.947-10.432c-5.779-2.747-14.407-1.503-19.173 2.765l-19.388 19.388c-4.267 4.767-5.511 13.395-2.765 19.173l10.433 21.947c2.746 5.778 5.718 14.61 6.603 19.628.885 5.017-3.18 19.402-4.889 23.549-1.71 4.146-5.458 10.983-8.33 15.194-2.872 4.21-17.388 11.981-23.416 14.125l-22.902 8.144c-6.028 2.144-11.398 9.114-11.933 15.49 0 0-.434 5.168-.434 13.729 0 8.56.434 13.729.434 13.729.535 6.376 5.905 13.345 11.933 15.489l22.902 8.144c6.028 2.144 14.377 6.287 18.554 9.208 4.177 2.92 11.482 15.965 13.192 20.111 1.709 4.146 3.888 11.633 4.842 16.637.954 5.004-3.81 20.761-6.556 26.539l-10.433 21.947c-2.746 5.778-1.502 14.406 2.765 19.173l19.388 19.388c4.766 4.267 13.394 5.511 19.173 2.765l21.947-10.433c5.779-2.746 14.611-5.718 19.628-6.603 5.017-.885 19.402 3.18 23.549 4.889 4.146 1.71 10.983 5.458 15.194 8.33 4.21 2.872 11.982 17.387 14.125 23.416l8.144 22.902c2.144 6.028 9.114 11.398 15.489 11.933 0 0 5.168.434 13.729.434 8.56 0 13.729-.434 13.729-.434 6.376-.535 13.345-5.905 15.489-11.933l8.144-22.902c2.144-6.028 6.287-14.378 9.208-18.555 2.92-4.177 15.965-11.481 20.111-13.191 4.146-1.71 11.633-3.888 16.638-4.842 5.004-.954 20.76 3.81 26.539 6.556l21.947 10.433c5.779 2.746 14.407 1.502 19.173-2.765l19.388-19.388c4.267-4.767 5.511-13.395 2.765-19.173l-10.433-21.947c-2.746-5.779-5.718-14.611-6.603-19.628s3.181-19.402 4.889-23.549c1.71-4.146 5.458-10.984 8.33-15.194 2.872-4.21 17.388-11.981 23.416-14.125l22.902-8.144c6.028-2.144 11.398-9.114 11.933-15.489 0 0 .434-5.169.434-13.729 0-8.56-.434-13.729-.434-13.729zM258.259 371.517c-62.96 0-114-51.04-114-114 0-62.961 51.04-114 114-114s114 51.039 114 114c0 62.96-51.04 114-114 114zm68.444-114c0 37.74-30.704 68.445-68.445 68.445s-68.445-30.704-68.445-68.445 30.704-68.445 68.445-68.445 68.445 30.705 68.445 68.445z"/>
</svg>
