<svg viewBox="0 0 512 512" xmlns="http://www.w3.org/2000/svg" fill="red" width="36" height="36">
  <g class="svgGrid" stroke="red">
    <path d="M32 0v512M64 0v512M96 0v512M128 0v512M160 0v512M192 0v512M224 0v512M256 0v512M288 0v512M320 0v512M352 0v512M384 0v512M416 0v512M448 0v512M480 0v512M0 32h512M0 64h512M0 96h512M0 128h512M0 160h512M0 192h512M0 224h512M0 256h512M0 288h512M0 320h512M0 352h512M0 384h512M0 416h512M0 448h512M0 480h512"/>
    <path fill="none" d="M0 0h512v512H0z"/>
  </g>
  <path d="M512 304.047v-96.094l-73.387-12.231a190.982 190.982 0 0 0-10.847-26.25l43.227-60.517-67.948-67.949-60.413 43.152a191.02 191.02 0 0 0-26.384-10.951L304.047 0h-96.094l-12.201 73.208a190.956 190.956 0 0 0-26.383 10.951l-60.414-43.152-67.949 67.949 43.227 60.518a191.038 191.038 0 0 0-10.846 26.249L0 207.953v96.094l73.559 12.26a190.888 190.888 0 0 0 10.821 26.015l-43.374 60.724 67.949 67.948 60.827-43.447a190.86 190.86 0 0 0 25.882 10.717L207.953 512h96.094l12.289-73.737a191.05 191.05 0 0 0 25.883-10.716l60.826 43.446 67.948-67.948-43.372-60.723a190.97 190.97 0 0 0 10.82-26.016L512 304.047zM256 320c-35.346 0-64-28.653-64-64 0-35.346 28.654-64 64-64 35.347 0 64 28.654 64 64 0 35.347-28.653 64-64 64z"/>
</svg>
