<svg height="512" width="512" xmlns="http://www.w3.org/2000/svg">
  <path d="M256 225.975a102.06 102.06 0 0 0 39.422-7.887l45.198 78.288c13.663-10.264 29.608-17.616 47.002-20.992l-23.417-40.559-27.096-46.932h-1.48c14.22-17.584 22.771-39.942 22.771-64.318 0-56.554-45.846-102.4-102.4-102.4s-102.4 45.846-102.4 102.4 45.846 102.4 102.4 102.4zm0-153.6c28.237 0 51.2 22.969 51.2 51.2s-22.963 51.2-51.2 51.2c-28.231 0-51.2-22.969-51.2-51.2s22.969-51.2 51.2-51.2zm153.6 213.65c-50.614 0-92.544 36.758-100.816 85.013h-92.641c.867 5.687 1.457 11.462 1.457 17.387 0 11.766-1.791 23.116-5.084 33.816h100.519c13.981 39.913 51.879 68.584 96.565 68.584 56.554 0 102.4-45.846 102.4-102.4s-45.846-102.4-102.4-102.4zm0 153.6c-28.238 0-51.2-22.962-51.2-51.2 0-28.237 22.962-51.2 51.2-51.2 28.237 0 51.2 22.962 51.2 51.2 0 28.238-22.963 51.2-51.2 51.2zM168.732 198.561l-20.937 36.264-30.276 52.438c-4.947-.734-9.969-1.238-15.12-1.238-56.554 0-102.4 45.846-102.4 102.4s45.846 102.4 102.4 102.4 102.4-45.846 102.4-102.4c0-32.966-15.642-62.212-39.838-80.941l45.196-78.28c-16.043-6.992-30.157-17.549-41.425-30.643zM102.4 439.625c-28.231 0-51.2-22.962-51.2-51.2 0-28.237 22.969-51.2 51.2-51.2s51.2 22.962 51.2 51.2c0 28.238-22.969 51.2-51.2 51.2z"/>
</svg>
