<svg height="1605.5" viewBox="168.277 197.25 1663.445 1605.5" width="1663.445" xmlns="http://www.w3.org/2000/svg">
  <path d="M1296.581 1239.105c-4.14 3.656-11.039 4.136-15.538.932l-215.73-153.652c-4.499-3.204-8.146-10.279-8.146-15.802v-224c0-5.523 4.415-10.752 9.823-11.869 146.555-30.25 256.843-159.72 256.843-315.241 0-177.956-144.267-322.223-322.222-322.223-177.956 0-322.223 144.267-322.223 322.223 0 155.521 110.289 284.991 256.843 315.241 5.409 1.117 9.824 6.346 9.824 11.869v223.267c0 5.522-3.638 12.609-8.125 15.829l-212.838 152.676c-4.488 3.22-11.311 2.682-15.372-1.062-40.935-37.725-91.779-64.854-148.243-76.91-223.222-47.644-418.333 136.111-390.555 356.534 18.089 143.622 134.066 259.577 277.688 277.688 220.422 27.778 404.178-167.333 356.533-390.578-4.466-20.951-11.099-41.093-19.513-60.281-2.218-5.059-.517-11.705 3.971-14.925l203.149-145.742c4.488-3.22 11.775-3.236 16.278-.037l205.251 145.827c4.503 3.199 6.107 9.775 3.753 14.771-19.592 41.576-30.757 87.89-30.757 136.887 0 177.956 144.268 322.223 322.223 322.223s322.223-144.267 322.223-322.223c0-177.955-144.268-322.222-322.223-322.222-81.713.001-156.131 30.644-212.917 80.8zM490.5 1263.961c53.578 0 97.022 43.444 97.022 97.022s-43.444 97.022-97.022 97.022-97.022-43.444-97.022-97.022c0-53.599 43.444-97.022 97.022-97.022zm134.444 377.733H356.056c-5.523 0-10-4.478-10-10v-33.556c0-59.533 41.777-112 101.333-112h86.245c59.533 0 101.311 52.467 101.311 112v33.556c-.001 5.523-4.478 10-10.001 10zM1000 308.405c53.577 0 97.022 43.445 97.022 97.022 0 53.578-43.445 97.022-97.022 97.022-53.578 0-97.022-43.444-97.022-97.022 0-53.599 43.444-97.022 97.022-97.022zM855.556 676.139v-33.556c0-59.533 41.777-112 101.333-112h86.244c59.533 0 101.312 52.467 101.312 112v33.556c0 5.523-4.478 10-10 10H865.556c-5.523 0-10-4.477-10-10zm653.944 593.322c53.578 0 97.022 43.444 97.022 97.022s-43.444 97.022-97.022 97.022-97.022-43.444-97.022-97.022c0-53.599 43.444-97.022 97.022-97.022zm134.444 377.733h-268.889c-5.522 0-10-4.478-10-10v-33.556c0-59.533 41.777-112 101.333-112h86.244c59.534 0 101.312 52.467 101.312 112v33.556c0 5.523-4.477 10-10 10z" fill="red"/>
</svg>
