<?xml version="1.0" ?><!DOCTYPE svg  PUBLIC '-//W3C//DTD SVG 1.1//EN'  'http://www.w3.org/Graphics/SVG/1.1/DTD/svg11.dtd'><svg height="40px" id="co_x5F_multimedia" style="enable-background:new 0 0 40 40;" version="1.1" viewBox="0 0 40 40" width="40px" xml:space="preserve" xmlns="http://www.w3.org/2000/svg" xmlns:xlink="http://www.w3.org/1999/xlink"><path d="M32.673,7.273c-7.011-7.012-18.382-7.012-25.393,0  c-7.011,7.01-7.011,18.381,0,25.393c7.011,7.011,18.382,7.011,25.393,0C39.685,25.654,39.685,14.283,32.673,7.273z M19.992,32.778  c0,0.643-0.552,1.15-1.192,1.097c-3.17-0.267-6.267-1.612-8.691-4.037c-5.45-5.45-5.45-14.288,0-19.737  c2.425-2.425,5.521-3.771,8.691-4.037c0.64-0.054,1.192,0.454,1.192,1.096V32.778z" style="fill-rule:evenodd;clip-rule:evenodd;"/></svg>