<svg height="128" width="128" xmlns="http://www.w3.org/2000/svg">
  <path d="M96.279 83.42c-2.217-3.426-8.192-5.615-11.649-6.859s-4.604-1.985-5.517-3.185c-.911-1.196-.526-6.298-.526-6.298s1.914-2.634 2.535-4.292c.622-1.66.745-4.847.745-4.847s1.628-1.085 2.044-2.398c.409-1.314.758-3.548.481-4.522-.274-.976-1.531-.688-1.531-.688s.003-1.768.054-3.171C82.979 45.286 82.439 36 71.609 36c-10.828 0-11.368 9.286-11.302 11.159.05 1.402.051 3.171.051 3.171s-1.257-.29-1.531.688c-.277.974.07 3.208.482 4.522.417 1.313 2.044 2.397 2.044 2.397s.124 3.187.745 4.847c.623 1.659 2.535 4.293 2.535 4.293s.385 5.104-.527 6.3c-.911 1.195-2.059 1.939-5.516 3.182-3.457 1.246-9.435 3.438-11.65 6.86-2.216 3.427-1.79 7.613-1.426 8.115.369.503 2.084.467 3.306.465 4.022-.004 13.248.004 22.79 0V92c9.543.004 18.769-.004 22.791 0 1.222.001 2.937.037 3.306-.466.361-.502.792-4.686-1.428-8.114z" fill="red"/>
  <path d="M110 0H26c-4.411 0-8 3.589-8 8v12h-4a4 4 0 0 0 0 8h4v8h-4a4 4 0 0 0 0 8h4v8h-4a4 4 0 0 0 0 8h4v8h-4a4 4 0 0 0 0 8h4v8h-4a4 4 0 0 0 0 8h4v8h-4a4 4 0 0 0 0 8h4v12c0 4.411 3.589 8 8 8h84c4.411 0 8-3.589 8-8V8c0-4.411-3.589-8-8-8zM26 120v-12h4a4 4 0 0 0 0-8h-4v-8h4a4 4 0 0 0 0-8h-4v-8h4a4 4 0 0 0 0-8h-4v-8h4a4 4 0 0 0 0-8h-4v-8h4a4 4 0 0 0 0-8h-4v-8h4a4 4 0 0 0 0-8h-4V8h84l.001 112H26z" fill="red"/>
</svg>
