<?xml version="1.0" ?><!DOCTYPE svg  PUBLIC '-//W3C//DTD SVG 1.1//EN'  'http://www.w3.org/Graphics/SVG/1.1/DTD/svg11.dtd'><svg enable-background="new 0 0 128 128" height="128px" id="Layer_1" version="1.1" viewBox="0 0 128 128" width="128px" xml:space="preserve" xmlns="http://www.w3.org/2000/svg" xmlns:xlink="http://www.w3.org/1999/xlink"><g><path d="M96.279,83.42c-2.217-3.426-8.192-5.615-11.649-6.859s-4.604-1.985-5.517-3.185   c-0.911-1.196-0.526-6.298-0.526-6.298s1.914-2.634,2.535-4.292c0.622-1.66,0.745-4.847,0.745-4.847s1.628-1.085,2.044-2.398   c0.409-1.314,0.758-3.548,0.481-4.522c-0.274-0.976-1.531-0.688-1.531-0.688s0.003-1.768,0.054-3.171   C82.979,45.286,82.439,36,71.609,36c-10.828,0-11.368,9.286-11.302,11.159c0.05,1.402,0.051,3.171,0.051,3.171   s-1.257-0.29-1.531,0.688c-0.277,0.974,0.07,3.208,0.482,4.522c0.417,1.313,2.044,2.397,2.044,2.397s0.124,3.187,0.745,4.847   c0.623,1.659,2.535,4.293,2.535,4.293s0.385,5.104-0.527,6.3c-0.911,1.195-2.059,1.939-5.516,3.182   c-3.457,1.246-9.435,3.438-11.65,6.86c-2.216,3.427-1.79,7.613-1.426,8.115c0.369,0.503,2.084,0.467,3.306,0.465   c4.022-0.004,13.248,0.004,22.79,0V92c9.543,0.004,18.769-0.004,22.791,0c1.222,0.001,2.937,0.037,3.306-0.466   C98.068,91.032,98.499,86.848,96.279,83.42z" fill="#010101"/></g><path d="M110,0H26c-4.411,0-8,3.589-8,8v12h-4c-2.209,0-4,1.791-4,4s1.791,4,4,4h4v8h-4c-2.209,0-4,1.791-4,4  s1.791,4,4,4h4v8h-4c-2.209,0-4,1.791-4,4s1.791,4,4,4h4v8h-4c-2.209,0-4,1.791-4,4s1.791,4,4,4h4v8h-4c-2.209,0-4,1.791-4,4  s1.791,4,4,4h4v8h-4c-2.209,0-4,1.791-4,4s1.791,4,4,4h4v12c0,4.411,3.589,8,8,8h84c4.411,0,8-3.589,8-8V8  C118,3.589,114.411,0,110,0z M26,120v-12h4c2.209,0,4-1.791,4-4s-1.791-4-4-4h-4v-8h4c2.209,0,4-1.791,4-4s-1.791-4-4-4h-4v-8h4  c2.209,0,4-1.791,4-4s-1.791-4-4-4h-4v-8h4c2.209,0,4-1.791,4-4s-1.791-4-4-4h-4v-8h4c2.209,0,4-1.791,4-4s-1.791-4-4-4h-4v-8h4  c2.209,0,4-1.791,4-4s-1.791-4-4-4h-4V8h84l0.001,112H26z" fill="#020202"/></svg>