<?xml version="1.0" ?><!DOCTYPE svg  PUBLIC '-//W3C//DTD SVG 1.1//EN'  'http://www.w3.org/Graphics/SVG/1.1/DTD/svg11.dtd'><svg height="96" version="1.1" viewBox="0 0 96 96" width="96" xmlns="http://www.w3.org/2000/svg" xmlns:xlink="http://www.w3.org/1999/xlink"><path d="M92 72h-16v-46.144l14.196-14.136c1.572-1.56 1.572-4.088 0.012-5.656s-4.088-1.572-5.656-0.016l-14.008 13.952h-46.544v-16c0-2.208-1.792-4-4-4s-4 1.792-4 4v16h-12c-2.208 0-4 1.792-4 4 0 2.212 1.792 4 4 4h12v48c0 2.212 1.792 4 4 4h48v12c0 2.212 1.792 4 4 4s4-1.788 4-4v-12h16c2.208 0 4-1.788 4-4 0-2.208-1.792-4-4-4zM62.512 28l-38.512 38.356v-38.356h38.512zM29.668 72l38.332-38.176v38.176h-38.332z" fill="#000000"/></svg>