<?xml version="1.0" ?><!DOCTYPE svg  PUBLIC '-//W3C//DTD SVG 1.1//EN'  'http://www.w3.org/Graphics/SVG/1.1/DTD/svg11.dtd'><svg enable-background="new 0 0 512 512" id="Layer_1" version="1.1" viewBox="0 0 512 512" xml:space="preserve" xmlns="http://www.w3.org/2000/svg" xmlns:xlink="http://www.w3.org/1999/xlink"><g><path d="M484.6,2H27.4C13.4,2,2,13.4,2,27.4v457.2c0,14,11.4,25.4,25.4,25.4h457.2c14,0,25.4-11.4,25.4-25.4V27.4   C510,13.4,498.6,2,484.6,2z M78.2,139.2c0-5.6,4.5-10.2,10.2-10.2H129V88.4c0-5.6,4.5-10.2,10.2-10.2h30.5   c5.6,0,10.2,4.5,10.2,10.2V129h40.6c5.6,0,10.2,4.5,10.2,10.2v30.5c0,5.6-4.5,10.2-10.2,10.2h-40.6v40.6c0,5.6-4.5,10.2-10.2,10.2   h-30.5c-5.6,0-10.2-4.5-10.2-10.2v-40.6H88.4c-5.6,0-10.2-4.5-10.2-10.2V139.2z M459.2,459.2H52.8L459.2,52.8V459.2z"/><path d="M266.2,408.4h132.1c5.6,0,10.2-4.5,10.2-10.2v-30.5c0-5.6-4.5-10.2-10.2-10.2H266.2c-5.6,0-10.2,4.5-10.2,10.2v30.5   C256,403.9,260.6,408.4,266.2,408.4z"/></g></svg>