<svg viewBox="0 0 512 512" xmlns="http://www.w3.org/2000/svg" width="36" height="36">
  <g fill="red">
    <path d="M484.6 2H27.4C13.4 2 2 13.4 2 27.4v457.2c0 14 11.4 25.4 25.4 25.4h457.2c14 0 25.4-11.4 25.4-25.4V27.4c0-14-11.4-25.4-25.4-25.4zM78.2 139.2c0-5.6 4.5-10.2 10.2-10.2H129V88.4c0-5.6 4.5-10.2 10.2-10.2h30.5c5.6 0 10.2 4.5 10.2 10.2V129h40.6c5.6 0 10.2 4.5 10.2 10.2v30.5c0 5.6-4.5 10.2-10.2 10.2h-40.6v40.6c0 5.6-4.5 10.2-10.2 10.2h-30.5c-5.6 0-10.2-4.5-10.2-10.2v-40.6H88.4c-5.6 0-10.2-4.5-10.2-10.2v-30.5zm381 320H52.8L459.2 52.8v406.4z"/>
    <path d="M266.2 408.4h132.1c5.6 0 10.2-4.5 10.2-10.2v-30.5c0-5.6-4.5-10.2-10.2-10.2H266.2c-5.6 0-10.2 4.5-10.2 10.2v30.5c0 5.7 4.6 10.2 10.2 10.2z"/>
  </g>
</svg>
