<svg height="512" version="1" width="512" xmlns="http://www.w3.org/2000/svg">
  <path d="M50.322 314.354H9.864C-5.184 387.71 2.34 470.492 2.34 470.492h40.458c-7.063-42.338 7.524-156.138 7.524-156.138zM57.248 334.964c-11.081 53.986-5.54 114.896-5.54 114.896h14.314c-1.195-33.08 9.698-114.896 9.698-114.896H57.248zM498.995 415.225c5.665-3.127 17.568-8.52 10.219-16.455-3.527-3.86-8.186-5.583-13.35-5.834-14.732-.715-33.58 10.58-41.766 18.385-17.841 17-38.01 22.878-62.547 25.711-28.316 3.276-56.419 5.857-84.125-2.917-10.032-3.168-33.698-14.818-38.874-14.778-4.092.043-39.048-9.655-39.048-9.655l5.646-10.701s25.398.962 32.92 0c7.524-.925 24.452-3.737 40.448-1.869 15.992 1.89 63.973 8.458 84.672 12.236 20.672 3.758 30.076-25.396 22.562-35.766-7.536-10.326-36.688-15.972-60.385-19.73-23.718-3.778-42.147-2.834-61.906-6.59-19.743-3.756-45.139-28.21-95.933-32.91-50.803-4.702-102.531 15.028-102.531 15.028L84.649 434.746l20.696 2.812c20.684 2.836 147.68 72.434 172.129 74.302 24.452 1.89 111.936-15.991 131.686-16.916 16.182-.776 34.234-15.406 47.162-23.76 15.74-10.22 33.08-20.776 46.763-33.793 6.97-6.633 10.623-19.939-4.09-22.166zM308.078 78.216c91.618 0 165.877-17.516 165.877-39.103C473.955 17.516 399.695 0 308.078 0c-91.595 0-165.845 17.516-165.845 39.113 0 21.587 74.247 39.103 165.845 39.103z"/>
  <path d="M325.688 323.861c9.949.693 21.219 1.491 33.877 3.505 38.89 6.172 65.486 13.433 77.87 30.457 5.184 7.156 7.743 16.14 7.722 25.668.881-.337 1.701-.672 2.561-.966 5.792-3.904 12.635-7.808 20.316-10.85 3.737-3.253 5.9-6.653 5.9-10.202v-78.29c0 21.576-74.198 39.06-165.75 39.101 5.54.633 11.205 1.135 17.504 1.577zM308.078 293.111c91.618 0 165.855-17.504 165.855-39.1v-78.279c0 21.588-74.237 39.092-165.855 39.092-91.595 0-165.857-17.507-165.857-39.092v78.278c0 21.597 74.26 39.101 165.857 39.101z"/>
  <path d="M308.078 185.657c91.618 0 165.855-17.494 165.855-39.09v-78.29c0 21.599-74.237 39.112-165.855 39.112-91.595 0-165.857-17.516-165.857-39.113v78.29c0 21.6 74.26 39.091 165.857 39.091z"/>
</svg>
