<svg viewBox="0 0 24 24" xmlns="http://www.w3.org/2000/svg">
  <path d="M10 14c1.406 0 2.758-.103 4.018-.304a.503.503 0 0 0 .247-.115A6.493 6.493 0 0 1 18.5 12l.268.015a.551.551 0 0 0 .321-.101c.604-.455.911-.931.911-1.414V8.024a.499.499 0 0 0-.799-.4C17.211 9.111 13.771 10 10 10S2.789 9.111.8 7.624a.502.502 0 0 0-.8.4V10.5C0 12.19 4.019 14 10 14zm0-5c5.607 0 10-1.977 10-4.5S15.607 0 10 0 0 1.977 0 4.5 4.393 9 10 9zm0 10c.53 0 1.035-.019 1.53-.047a.5.5 0 0 0 .472-.495 6.426 6.426 0 0 1 .678-2.832.502.502 0 0 0-.034-.502.497.497 0 0 0-.454-.218c-.797.063-1.514.094-2.192.094-3.786 0-7.238-.743-9.235-1.988a.502.502 0 0 0-.765.425V15.5C0 17.19 4.019 19 10 19zm2.259 1.299a.477.477 0 0 0-.512-.36c-.579.036-1.162.061-1.747.061-3.786 0-7.238-.743-9.235-1.988a.503.503 0 0 0-.765.425v1.254c0 2.349 4.299 4.119 10 4.119 1.108 0 2.217-.075 3.297-.224a.5.5 0 0 0 .308-.823 6.473 6.473 0 0 1-1.346-2.464zM18.5 13a5.506 5.506 0 0 0-5.5 5.5c0 3.033 2.467 5.5 5.5 5.5s5.5-2.467 5.5-5.5-2.467-5.5-5.5-5.5zm2.354 7.853a.5.5 0 0 1-.708.001L18.5 19.207l-1.646 1.646a.5.5 0 1 1-.708-.706l1.646-1.646-1.646-1.646a.5.5 0 0 1 .707-.707l1.646 1.646 1.646-1.646a.5.5 0 0 1 .707.707L19.207 18.5l1.647 1.646a.5.5 0 0 1 0 .707z"/>
</svg>
