<svg viewBox="0 0 30 30" xmlns="http://www.w3.org/2000/svg" width="36" height="36">
  <path clip-rule="evenodd" fill="#ff0000" d="M15 30C6.716 30 0 23.284 0 14.999 0 6.715 6.716 0 15 0s15 6.715 15 14.999C30 23.284 23.284 30 15 30zm0-28C7.82 2 2 7.82 2 14.999 2 22.179 7.82 28 15 28s13-5.821 13-13.001C28 7.82 22.18 2 15 2zm-4.659 18.989l-1.331-1.33 4.659-4.66-4.659-4.657 1.331-1.332L15 13.669l4.658-4.659 1.332 1.332-4.659 4.657 4.659 4.66-1.332 1.33L15 16.331l-4.659 4.658z" fill-rule="evenodd"/>
</svg>