<svg viewBox="0 0 24 24" xmlns="http://www.w3.org/2000/svg">
  <path d="M10 14a25.63 25.63 0 0 0 4.018-.304.515.515 0 0 0 .248-.115A6.487 6.487 0 0 1 18.501 12l.268.015a.534.534 0 0 0 .321-.101c.604-.455.911-.931.911-1.414V8.024a.5.5 0 0 0-.799-.4C17.211 9.111 13.771 10 10 10S2.789 9.111.799 7.624a.5.5 0 0 0-.799.4V10.5C0 12.19 4.018 14 10 14zm0-5c5.607 0 10-1.977 10-4.5S15.607 0 10 0 0 1.977 0 4.5 4.393 9 10 9zm2.259 11.299a.502.502 0 0 0-.512-.36c-.58.036-1.162.061-1.747.061-3.787 0-7.239-.743-9.235-1.987a.496.496 0 0 0-.507-.014.501.501 0 0 0-.257.438v1.254c0 2.349 4.299 4.119 10 4.119a24.17 24.17 0 0 0 3.296-.224.496.496 0 0 0 .4-.319.502.502 0 0 0-.091-.504 6.448 6.448 0 0 1-1.347-2.464zM10 15c-3.787 0-7.239-.743-9.235-1.987a.498.498 0 0 0-.764.424V15.5C0 17.19 4.018 19 10 19c.53 0 1.036-.019 1.531-.047a.5.5 0 0 0 .472-.496 6.403 6.403 0 0 1 .677-2.83.5.5 0 0 0-.488-.721c-.797.063-1.514.094-2.192.094zm8.5-2a5.506 5.506 0 0 0-5.5 5.5c0 3.033 2.468 5.5 5.5 5.5s5.5-2.467 5.5-5.5-2.468-5.5-5.5-5.5zm2.355 6.853l-1.999 1.999a.504.504 0 0 1-.708 0l-1.999-1.999a.5.5 0 0 1 .707-.707l1.146 1.146V15.5a.5.5 0 0 1 1 0v4.793l1.146-1.146a.5.5 0 0 1 .707.706z"/>
</svg>
