<?xml version="1.0" ?><!DOCTYPE svg  PUBLIC '-//W3C//DTD SVG 1.1//EN'  'http://www.w3.org/Graphics/SVG/1.1/DTD/svg11.dtd'><svg enable-background="new 0 0 64 64" height="64px" id="Layer_1" version="1.1" viewBox="0 0 64 64" width="64px" xml:space="preserve" xmlns="http://www.w3.org/2000/svg" xmlns:xlink="http://www.w3.org/1999/xlink"><g><path d="M31.998,44.102L45.999,30.1c1.393-1.361,1.087-2.32-0.865-2.32h-7.814V12.765c0-2.94-2.379-5.323-5.321-5.323   c-2.94,0-5.321,2.384-5.321,5.323L26.676,27.78h-7.818c-1.945-0.004-2.254,0.959-0.858,2.322L31.998,44.102z"/><path d="M52.999,48.559H11.001c-2.209,0-4,1.791-4,4s1.791,4,4,4h41.998c2.209,0,4-1.791,4-4S55.208,48.559,52.999,48.559z"/></g></svg>