<?xml version="1.0" ?><!DOCTYPE svg  PUBLIC '-//W3C//DTD SVG 1.1//EN'  'http://www.w3.org/Graphics/SVG/1.1/DTD/svg11.dtd'><svg height="512px" style="shape-rendering:geometricPrecision; text-rendering:geometricPrecision; image-rendering:optimizeQuality; fill-rule:evenodd; clip-rule:evenodd" version="1.1" viewBox="0 0 512000 512000" width="512px" xml:space="preserve" xmlns="http://www.w3.org/2000/svg" xmlns:xlink="http://www.w3.org/1999/xlink"><defs><style type="text/css">
   <![CDATA[
    .fil0 {fill:black}
   ]]>
  </style></defs><g id="Layer_x0020_1"><path class="fil0" d="M227731 262188l-42949 0 0 45924 -56208 -52022 56208 -52201 0 45924 42949 0c2401,-11021 11085,-19695 22110,-22087l0 -42972 -45924 0 52203 -56208 52022 56208 -45924 0c0,14485 157,28683 263,43043 10871,2489 19408,11102 21787,22016l42949 0 0 -45924 56208 52201 -56208 52022 0 -45924 -42949 0c-2370,10882 -10865,19478 -21692,21995l0 43064 45506 0 -52023 56208 -52201 -56208 45924 0 0 -42985c-10997,-2409 -19654,-11073 -22050,-22074z"/></g></svg>