<svg id="Layer_1" xmlns="http://www.w3.org/2000/svg" viewBox="0 0 512 512" width="36" height="36">
  <style>.st0{fill:#ff0000}.st1{fill:#ff0000}.st2{fill:#ff0000}.st3{fill:#ff0000}</style>
  <path class="st0" d="M499.5 448.4c0 35.1-28.5 63.6-63.6 63.6H76.5C41.4 512 13 483.5 13 448.4V89.1C13 54 41.4 25.5 76.5 25.5h359.4c35.1 0 63.6 28.5 63.6 63.6v359.3z"/>
  <path class="st1" d="M499.5 423c0 35.1-28.5 63.6-63.6 63.6H76.5C41.4 486.6 13 458.1 13 423V63.6C13 28.5 41.4.1 76.5.1h359.4c35.1 0 63.6 28.5 63.6 63.6V423z"/>
  <path class="st2" d="M499.5 283.8l-.5-.5c.2.2.3.4.5.5zM499 283.4c-15.8-15.9-31.6-31.7-47.5-47.5-15.8-15.9-31.6-31.7-47.5-47.5-15.7-15.9-31.5-31.7-47.4-47.4-14-13.9-30.8-24.9-49.1-32.3-18.8-7.5-39-11.1-59.3-10.5-17.3.5-34.5 4.1-50.5 10.6-15.5 6.3-30 15.2-42.5 26.3-12.5 11-23.1 24.2-31.2 38.8-8.3 14.9-14 31.1-16.7 47.9-3.1 19.1-2.4 38.7 2.1 57.5 4.6 19.4 13.2 37.7 25.2 53.7 6.1 8.2 13.2 15.4 20.4 22.6 7.9 7.9 15.9 15.8 23.8 23.8 15.8 15.9 31.7 31.6 47.5 47.5 15.8 15.9 31.7 31.6 47.5 47.5 3.9 4 7.9 7.9 11.9 11.9l.4.4h149.8c35.1 0 63.6-28.5 63.6-63.6V283.9c-.2-.2-.3-.4-.5-.5z"/>
  <g>
    <path class="st3" d="M252.8 98.2c-81.2 0-147.3 66-147.3 147.1s66.1 147.1 147.3 147.1c81.2 0 147.3-66 147.3-147.1 0-81.2-66.1-147.1-147.3-147.1zm97.4 67.8c17.5 21.4 28.1 48.6 28.4 78.3-4.1-.9-45.7-9.3-87.6-4-.9-2.1-1.8-4.3-2.7-6.5-2.6-6.1-5.4-12.2-8.3-18.2 46.5-19 67.6-46 70.2-49.6zm-97.4-46.2c32 0 61.2 12 83.4 31.7-2.3 3.2-21.2 28.6-65.9 45.4-20.6-37.8-43.5-68.9-46.9-73.5 9.4-2.4 19.3-3.6 29.4-3.6zm-53.4 11.9c3.3 4.5 25.8 35.7 46.6 72.7-58.8 15.6-110.7 15.4-116.3 15.3 8.1-39 34.5-71.4 69.7-88zM127 245.4c0-1.3 0-2.6.1-3.8 5.5.1 66.5.9 129.3-17.9 3.6 7 7 14.2 10.2 21.3-1.7.5-3.3 1-5 1.5-64.9 20.9-99.4 78-102.3 82.9-20-22.2-32.3-51.7-32.3-84zm125.8 125.7c-29.1 0-55.9-9.9-77.2-26.5 2.3-4.6 27.7-53.8 98.7-78.5.3-.1.6-.2.8-.3 17.7 45.8 25 84.2 26.8 95.3-15 6.4-31.6 10-49.1 10zm70.3-21.5c-1.3-7.6-8-44.4-24.4-89.6 39.4-6.3 74.1 4 78.4 5.4-5.7 34.9-25.8 65.1-54 84.2z"/>
    <path class="st3" d="M252.8 98.2c-81.2 0-147.3 66-147.3 147.1s66.1 147.1 147.3 147.1c81.2 0 147.3-66 147.3-147.1 0-81.2-66.1-147.1-147.3-147.1zm97.4 67.8c17.5 21.4 28.1 48.6 28.4 78.3-4.1-.9-45.7-9.3-87.6-4-.9-2.1-1.8-4.3-2.7-6.5-2.6-6.1-5.4-12.2-8.3-18.2 46.5-19 67.6-46 70.2-49.6zm-97.4-46.2c32 0 61.2 12 83.4 31.7-2.3 3.2-21.2 28.6-65.9 45.4-20.6-37.8-43.5-68.9-46.9-73.5 9.4-2.4 19.3-3.6 29.4-3.6zm-53.4 11.9c3.3 4.5 25.8 35.7 46.6 72.7-58.8 15.6-110.7 15.4-116.3 15.3 8.1-39 34.5-71.4 69.7-88zM127 245.4c0-1.3 0-2.6.1-3.8 5.5.1 66.5.9 129.3-17.9 3.6 7 7 14.2 10.2 21.3-1.7.5-3.3 1-5 1.5-64.9 20.9-99.4 78-102.3 82.9-20-22.2-32.3-51.7-32.3-84zm125.8 125.7c-29.1 0-55.9-9.9-77.2-26.5 2.3-4.6 27.7-53.8 98.7-78.5.3-.1.6-.2.8-.3 17.7 45.8 25 84.2 26.8 95.3-15 6.4-31.6 10-49.1 10zm70.3-21.5c-1.3-7.6-8-44.4-24.4-89.6 39.4-6.3 74.1 4 78.4 5.4-5.7 34.9-25.8 65.1-54 84.2z"/>
  </g>
</svg>