<?xml version="1.0" ?><!DOCTYPE svg  PUBLIC '-//W3C//DTD SVG 1.1//EN'  'http://www.w3.org/Graphics/SVG/1.1/DTD/svg11.dtd'><svg enable-background="new 0 0 512 512" height="512px" id="Layer_1" version="1.1" viewBox="0 0 512 512" width="512px" xml:space="preserve" xmlns="http://www.w3.org/2000/svg" xmlns:xlink="http://www.w3.org/1999/xlink"><path d="M493.271,442.957c0,34.171-27.701,61.872-61.873,61.872H81.655c-34.171,0-61.873-27.701-61.873-61.872  V93.212c0-34.171,27.702-61.873,61.873-61.873h349.743c34.172,0,61.873,27.701,61.873,61.873V442.957z" fill="#601C44"/><path d="M493.271,418.213c0,34.172-27.701,61.873-61.873,61.873H81.655c-34.171,0-61.873-27.701-61.873-61.873  V68.468c0-34.171,27.702-61.872,61.873-61.872h349.743c34.172,0,61.873,27.701,61.873,61.872V418.213z" fill="#CF5C9F"/><g><path d="M493.271,282.768c-0.313-0.311-0.484-0.479-0.457-0.453C492.971,282.471,493.118,282.615,493.271,282.768   L493.271,282.768z" fill="#A73571"/><path d="M492.814,282.314c-15.355-15.469-30.761-30.896-46.24-46.239c-15.355-15.468-30.76-30.895-46.238-46.239   c-15.317-15.43-30.692-30.81-46.124-46.125c-13.618-13.516-29.929-24.275-47.741-31.418c-18.268-7.327-38.002-10.773-57.672-10.173   c-16.826,0.513-33.53,3.999-49.14,10.304c-15.115,6.105-29.152,14.815-41.361,25.614c-12.155,10.752-22.478,23.555-30.382,37.729   c-8.064,14.456-13.577,30.304-16.206,46.647c-2.983,18.545-2.289,37.679,2.07,55.951c4.495,18.846,12.893,36.699,24.482,52.223   c5.958,7.979,12.877,14.957,19.885,21.996c7.689,7.725,15.431,15.396,23.12,23.12c15.378,15.448,30.861,30.79,46.239,46.239   c15.378,15.448,30.861,30.791,46.24,46.239c3.844,3.862,7.698,7.715,11.56,11.56c0.114,0.114,0.228,0.229,0.342,0.344h145.751   c34.172,0,61.873-27.701,61.873-61.873V282.785C493.117,282.631,492.969,282.469,492.814,282.314z" fill="#A73571"/></g><g><path clip-rule="evenodd" d="M253.231,102.053c-79.035,0-143.335,64.219-143.335,143.149   c0,78.927,64.301,143.146,143.335,143.146c79.036,0,143.337-64.219,143.337-143.146   C396.568,166.271,332.268,102.053,253.231,102.053z M348.002,168.069c17.054,20.806,27.374,47.303,27.646,76.166   c-4.035-0.852-44.515-9.053-85.253-3.938c-0.858-2.091-1.735-4.197-2.636-6.309c-2.541-5.961-5.272-11.888-8.125-17.708   C324.906,197.823,345.422,171.554,348.002,168.069z M253.231,123.122c31.11,0,59.54,11.65,81.159,30.807   c-2.201,3.132-20.632,27.871-64.169,44.167c-20.061-36.815-42.296-67.055-45.68-71.579   C233.748,124.303,243.355,123.122,253.231,123.122z M201.181,134.737c3.228,4.418,25.104,34.697,45.391,70.714   c-57.269,15.185-107.708,14.966-113.185,14.894C141.323,182.404,166.929,150.87,201.181,134.737z M130.8,245.39   c0-1.253,0.025-2.499,0.064-3.739c5.357,0.11,64.684,0.872,125.826-17.4c3.504,6.85,6.851,13.805,9.923,20.75   c-1.617,0.458-3.226,0.942-4.822,1.452c-63.146,20.385-96.744,75.945-99.517,80.684C142.72,305.463,130.8,276.791,130.8,245.39z    M253.231,367.659c-28.304,0-54.39-9.649-75.149-25.812c2.204-4.499,26.992-52.328,96.048-76.359c0.268-0.09,0.539-0.18,0.805-0.27   c17.191,44.607,24.301,81.992,26.119,92.72C286.354,364.193,270.188,367.659,253.231,367.659z M321.642,346.747   c-1.255-7.437-7.777-43.234-23.787-87.177c38.365-6.133,72.072,3.904,76.257,5.229   C368.657,298.813,349.105,328.195,321.642,346.747z" fill="#FFFFFF" fill-rule="evenodd"/><path clip-rule="evenodd" d="M253.231,102.053c-79.035,0-143.335,64.219-143.335,143.149   c0,78.927,64.301,143.146,143.335,143.146c79.036,0,143.337-64.219,143.337-143.146   C396.568,166.271,332.268,102.053,253.231,102.053z M348.002,168.069c17.054,20.806,27.374,47.303,27.646,76.166   c-4.035-0.852-44.515-9.053-85.253-3.938c-0.858-2.091-1.735-4.197-2.636-6.309c-2.541-5.961-5.272-11.888-8.125-17.708   C324.906,197.823,345.422,171.554,348.002,168.069z M253.231,123.122c31.11,0,59.54,11.65,81.159,30.807   c-2.201,3.132-20.632,27.871-64.169,44.167c-20.061-36.815-42.296-67.055-45.68-71.579   C233.748,124.303,243.355,123.122,253.231,123.122z M201.181,134.737c3.228,4.418,25.104,34.697,45.391,70.714   c-57.269,15.185-107.708,14.966-113.185,14.894C141.323,182.404,166.929,150.87,201.181,134.737z M130.8,245.39   c0-1.253,0.025-2.499,0.064-3.739c5.357,0.11,64.684,0.872,125.826-17.4c3.504,6.85,6.851,13.805,9.923,20.75   c-1.617,0.458-3.226,0.942-4.822,1.452c-63.146,20.385-96.744,75.945-99.517,80.684C142.72,305.463,130.8,276.791,130.8,245.39z    M253.231,367.659c-28.304,0-54.39-9.649-75.149-25.812c2.204-4.499,26.992-52.328,96.048-76.359c0.268-0.09,0.539-0.18,0.805-0.27   c17.191,44.607,24.301,81.992,26.119,92.72C286.354,364.193,270.188,367.659,253.231,367.659z M321.642,346.747   c-1.255-7.437-7.777-43.234-23.787-87.177c38.365-6.133,72.072,3.904,76.257,5.229   C368.657,298.813,349.105,328.195,321.642,346.747z" fill="#FFFFFF" fill-rule="evenodd"/></g></svg>