<?xml version="1.0" ?><!DOCTYPE svg  PUBLIC '-//W3C//DTD SVG 1.1//EN'  'http://www.w3.org/Graphics/SVG/1.1/DTD/svg11.dtd'><svg enable-background="new 0 0 512 512" height="512px" id="Layer_1" version="1.1" viewBox="0 0 512 512" width="512px" xml:space="preserve" xmlns="http://www.w3.org/2000/svg" xmlns:xlink="http://www.w3.org/1999/xlink"><path d="M172.931,336.948l110.961-31.5l-79.259-78.753L172.931,336.948z M469.291,121.214l-79.259-78.752  L215.664,215.717l79.258,78.753L469.291,121.214z M446.194,412.864c0,27.376-22.197,49.569-49.577,49.569H99.155  c-27.38,0-49.577-22.193-49.577-49.569V115.453c0-27.376,22.197-49.568,49.577-49.568h198.307l49.578-49.569H82.628  C36.997,16.316,0,53.305,0,98.929v330.457C0,475.013,36.997,512,82.628,512h330.514c45.633,0,82.629-36.987,82.629-82.613V165.022  l-49.577,49.569V412.864z M506.123,55.059L456.586,5.84c-8.207-8.155-21.957-7.715-30.713,0.984l-23.776,23.624l79.259,78.754  l23.778-23.627C513.887,76.877,514.331,63.215,506.123,55.059z" fill="#3A3B3B"/></svg>