<?xml version="1.0" ?><!DOCTYPE svg  PUBLIC '-//W3C//DTD SVG 1.1//EN'  'http://www.w3.org/Graphics/SVG/1.1/DTD/svg11.dtd'><svg enable-background="new 0 0 512 512" height="512px" id="Layer_1" version="1.1" viewBox="0 0 512 512" width="512px" xml:space="preserve" xmlns="http://www.w3.org/2000/svg" xmlns:xlink="http://www.w3.org/1999/xlink"><path d="M257.287,317.875l48.636,48.65l149.841-149.924l-48.594-48.622L257.287,317.875z M213.344,405.029  c-0.563,1.55-0.197,3.297,0.958,4.48c0.817,0.79,1.888,1.213,2.959,1.213c0.507,0,1.015-0.084,1.522-0.282l68.818-26.129  c0.564-0.226,1.071-0.536,1.466-0.958l5.017-4.989l-48.636-48.622l-4.989,4.989c-0.451,0.423-0.761,0.901-0.987,1.466  L213.344,405.029z M470.195,153.604c-6.483-6.483-14.826-9.668-23.396-9.668c-9.696,0-19.675,4.059-27.623,12.036l-0.169,0.169  l48.65,48.622l0.112-0.169C483.273,189.147,484.288,167.697,470.195,153.604z M344.877,443.758c0,3.016-1.24,6.06-3.439,8.258  c-2.197,2.143-5.186,3.383-8.286,3.383H70.099c-3.101,0-6.116-1.24-8.315-3.383c-2.17-2.198-3.439-5.242-3.439-8.258V68.311  c0-3.101,1.269-6.145,3.439-8.315c2.199-2.17,5.214-3.411,8.315-3.411h190.049c-0.396,1.325-1.185,2.508-1.185,3.946v69.847  c0,7.977,6.427,14.432,14.432,14.432h70.917c0.227,0.902,0.564,1.776,0.564,2.706v52.032l25.594-25.593v-26.439  c0-9.781-3.946-19.364-10.824-26.298l-71.594-78.415c-7.667-7.78-17.307-11.811-27.172-11.811H70.099  c-9.809,0-19.392,3.946-26.354,10.88c-6.99,6.99-10.964,16.602-10.964,26.439v375.447c0,9.695,3.946,19.279,10.823,26.241  c7.188,7.075,16.771,10.993,26.496,10.993h263.052c9.753,0,19.279-3.918,26.214-10.739c7.159-7.188,11.105-16.771,11.105-26.495  V332.477l-25.594,25.594V443.758z" fill="#4D4D4D"/></svg>