<svg viewBox="0 0 128 128" xmlns="http://www.w3.org/2000/svg" width="36" height="36">
  <g fill="red">
    <path d="M23.653 65.256v16.281h.018c.074 1.805 1.126 3.938 2.938 6.147l2.454-19.825-5.41-2.603zm40.351 18.369c-2.151 0-4.063-.894-4.063-.894L37.164 71.768l3.229 26c6.582 3.128 14.62 5.348 23.354 5.348 21.937 0 39.752-13.84 40.074-21.578h.024V65.461L68.077 82.717s-1.92.908-4.073.908zm-35.803 21.773s.822 3.973 4.679 3.973 4.679-3.973 4.679-3.973L32.88 69.73l-4.679 35.668z"/>
    <path d="M126.353 47.242l-58.36-27.828c-2.196-1.047-5.79-1.047-7.986 0L1.646 47.231c-2.195 1.049-2.195 2.762 0 3.809l25.516 12.161c1.134.541 2.161.995 2.897 1.291.69.277 1.138.561 1.138.488 0-.671.312-1.103.537-1.284.099-.082.554-.345 1.205-.7l3.767-1.957 20.485-10.644c-.183-.385-.306-.786-.306-1.211 0-2.455 3.184-4.444 7.111-4.444 3.926 0 7.111 1.99 7.111 4.444 0 2.455-3.185 4.445-7.111 4.445-1.207 0-2.325-.207-3.316-.539L35.929 65.95s-.358.265-.358.671c0 .422.219.625.219.625.917.512 1.85.958 3.094 1.559L60.009 78.87c2.196 1.056 5.787 1.056 7.984 0l58.359-27.815c2.197-1.053 2.197-2.766.001-3.813z"/>
  </g>
</svg>
