<svg viewBox="0 0 24 24" xmlns="http://www.w3.org/2000/svg" width="36" height="36">
  <g fill="red">
    <path d="M16.3 5c-1.2 0-2.3.2-3.3.7 0 0-.1.1-.4.2.2-.7.3-1.8-.2-3.1C11.3.2 9.2 0 9.2 0s-1.4 1.6-.3 4.2c.1.4.3.7.5.9-.5 0-.9-.1-1.4-.1-3.9 0-7 3.1-7 7 0 8 5.2 10.8 5.2 10.8S7.8 24 9 24c.7 0 1.4-.2 2-.6.6-.4 1-.4 1-.4s.5 0 1.1.4c.6.3 1.4.6 2.2.6 1.4 0 3.1-1.2 3.1-1.2S23 20 23 12c0-3.9-2.5-7-6.7-7zM9.7 1.1c.5.2 1.3.8 1.8 2 .5 1.3.3 2.2.1 2.8-.5-.2-1.3-.8-1.9-2-.4-1.3-.2-2.3 0-2.8zm7.1 20.3c-.5.3-.9.6-1.5.6-1.2 0-1.7-1-3.3-1-1.5 0-1.9 1-3 1-.6 0-.9-.2-1.4-.6C7.6 21.4 3 19 3 12c0-2.7 2.2-5 5-5 1.1 0 2.2.4 3 1 0 0 .3.3 1 .3.6 0 1-.3 1-.3 1-.6 2.1-1 3.3-1 3 0 4.5 2.3 4.5 5 0 7-4 9.4-4 9.4z"/>
    <path d="M16 8v1c1.7 0 3 1.3 3 3h1c0-2.2-1.8-4-4-4z"/>
  </g>
</svg>
