<?xml version="1.0" ?><!DOCTYPE svg  PUBLIC '-//W3C//DTD SVG 1.1//EN'  'http://www.w3.org/Graphics/SVG/1.1/DTD/svg11.dtd'><svg enable-background="new 0 0 100 100" id="Слой_1" version="1.1" viewBox="0 0 100 100" xml:space="preserve" xmlns="http://www.w3.org/2000/svg" xmlns:xlink="http://www.w3.org/1999/xlink"><path d="M71.25,5H52.5h-5H28.75C15.654,5,5,15.654,5,28.75c0,7.858,3.839,14.833,9.737,19.159l2.786,23.681  C19.093,84.936,30.411,95,43.849,95h12.303c13.438,0,24.755-10.064,26.326-23.41l2.786-23.681C91.161,43.583,95,36.608,95,28.75  C95,15.654,84.346,5,71.25,5z M43.849,90c-10.903,0-20.086-8.166-21.36-18.994l-3.125-26.555  c-1.028-8.741,1.736-17.526,7.584-24.103C32.797,13.772,41.199,10,50,10s17.203,3.772,23.051,10.349  c5.848,6.577,8.613,15.362,7.584,24.103l-3.125,26.555C76.237,81.834,67.055,90,56.151,90H43.849z M28.75,10h3.005  c-3.163,1.87-6.053,4.227-8.542,7.026c-5.786,6.506-8.962,14.873-9.046,23.484C11.566,37.29,10,33.201,10,28.75  C10,18.411,18.411,10,28.75,10z M85.833,40.509c-0.083-8.611-3.26-16.978-9.046-23.484c-2.489-2.799-5.38-5.156-8.542-7.026h3.005  C81.589,10,90,18.411,90,28.75C90,33.201,88.434,37.29,85.833,40.509z" fill="#ff0000"/><path d="M65,55c5.514,0,10-4.486,10-10s-4.486-10-10-10s-10,4.486-10,10S59.486,55,65,55z M60,45  c0-2.757,2.243-5,5-5c2.025,0,3.764,1.216,4.549,2.951C68.922,42.667,68.232,42.5,67.5,42.5c-2.757,0-5,2.243-5,5  c0,0.732,0.167,1.422,0.451,2.049C61.216,48.764,60,47.025,60,45z" fill="#ff0000"/><path d="M45,45c0-5.514-4.486-10-10-10s-10,4.486-10,10s4.486,10,10,10S45,50.514,45,45z M30,45c0-2.757,2.243-5,5-5  c2.025,0,3.764,1.216,4.549,2.951C38.922,42.667,38.232,42.5,37.5,42.5c-2.757,0-5,2.243-5,5c0,0.732,0.167,1.422,0.451,2.049  C31.216,48.764,30,47.025,30,45z" fill="#ff0000"/><path d="M65,72.5c-1.381,0-2.5,1.119-2.5,2.5c0,2.757-2.243,5-5,5s-5-2.243-5-5c0-0.285-0.058-0.555-0.146-0.81  c0.005-0.014,0.013-0.027,0.017-0.041l2.5-7.5c0.254-0.762,0.126-1.601-0.343-2.252c-0.47-0.652-1.225-1.038-2.028-1.038h-5  c-0.804,0-1.558,0.386-2.028,1.038c-0.47,0.652-0.598,1.49-0.343,2.252l2.5,7.5c0.005,0.014,0.013,0.027,0.018,0.041  C47.558,74.445,47.5,74.715,47.5,75c0,2.757-2.243,5-5,5s-5-2.243-5-5c0-1.381-1.119-2.5-2.5-2.5s-2.5,1.119-2.5,2.5  c0,5.514,4.486,10,10,10c2.988,0,5.666-1.324,7.5-3.408C51.834,83.676,54.512,85,57.5,85c5.514,0,10-4.486,10-10  C67.5,73.619,66.381,72.5,65,72.5z" fill="#ff0000"/></svg>
