<svg viewBox="0 0 64 64" xmlns="http://www.w3.org/2000/svg" width="36" height="36">
  <g fill="#ff0000">
    <path d="M51.431 32.797a5.78 5.78 0 1 0 0 11.56 5.78 5.78 0 0 0 0-11.56zm0 8.332a2.553 2.553 0 1 1 .002-5.106 2.553 2.553 0 0 1-.002 5.106zM12.658 32.797a5.78 5.78 0 1 0 0 11.56 5.78 5.78 0 0 0 0-11.56zm0 8.332a2.552 2.552 0 1 1 .002-5.104 2.552 2.552 0 0 1-.002 5.104z"/>
    <path d="M61.696 26.273c-.017-.01-.019-.02-.036-.031-.807-.454-1.11-1.015-1.11-1.015L48.193 4.534c-.024-.046-.489-.89-.865-1.47-.14-.195-.444-.532-.933-.532H17.197s-.726.034-1.514 1.396C14.977 5.139 5.105 22.239 2.905 26.073c-1.6.288-2.828 1.851-2.828 3.749v17.504c0 2.117 1.498 3.799 3.347 3.799H6.77v8.391c0 1.045.673 1.885 1.514 1.885h5.399c.821 0 1.511-.84 1.511-1.885v-8.391h33.698v8.461c0 1.041.673 1.881 1.498 1.881h5.329c.825 0 1.495-.84 1.495-1.881v-8.461h3.362c1.853 0 3.347-1.682 3.347-3.799V29.822c0-1.651-.931-3.029-2.227-3.549zM17.936 6.736s.404-.79 2.286-.79h11.553s.105.002.25 0h12.009c.499.06 1.254.313 1.808 1.239l11.25 18.837H6.77L17.936 6.736zM60.56 45.023c0 1.531-1.326 2.758-2.975 2.758H6.688c-1.648 0-2.979-1.227-2.979-2.758V32.344c0-1.511 1.33-2.756 2.979-2.756h50.897c1.648 0 2.975 1.245 2.975 2.756v12.679z"/>
  </g>
</svg>