<?xml version="1.0" ?><svg enable-background="new 0 0 48 48" id="Layer_1" version="1.1" viewBox="0 0 48 48" xml:space="preserve" xmlns="http://www.w3.org/2000/svg" xmlns:xlink="http://www.w3.org/1999/xlink"><g><g><g>
  <rect fill="#ff0000" height="12.4" width="2" x="11.8" y="6.5"/></g><g>
  <rect fill="#ff0000" height="2" width="12.4" x="6.5" y="11.8"/></g></g><g><g>
  <rect fill="#ff0000" height="12.4" transform="matrix(-0.7071 -0.7071 0.7071 -0.7071 35.372 85.1504)" width="2" x="34.3" y="29"/></g><g>
  <rect fill="#ff0000" height="2" transform="matrix(-0.7071 -0.7071 0.7071 -0.7071 35.1254 85.0487)" width="12.4" x="29" y="34.2"/></g></g><g>
  <rect fill="#ff0000" height="2" width="12.4" x="29" y="11.7"/></g><g>
  <path fill="#ff0000" d="M25,25H0.5V0.5H25V25z M2.5,23H23V2.5H2.5V23z"/></g><g>
  <path fill="#ff0000" d="M47.5,25H23V0.5h24.5V25z M25,23h20.5V2.5H25V23z"/></g><g>
  <path fill="#ff0000" d="M25,47.5H0.5V23H25V47.5z M2.5,45.5H23V25H2.5V45.5z"/></g><g>
  <path fill="#ff0000" d="M47.5,47.5H23V23h24.5V47.5z M25,45.5h20.5V25H25V45.5z"/></g><g><g>
  <rect fill="#ff0000" height="2" width="12.4" x="6.5" y="34.2"/></g><g><g>
  <rect fill="#ff0000" height="2" width="2.1" x="11.7" y="30.4"/></g><g>
  <rect fill="#ff0000" height="2" width="2.1" x="11.7" y="38.1" /></g></g></g></g></svg>
