<svg id="Слой_1" xmlns="http://www.w3.org/2000/svg" viewBox="0 0 100 100" width="36" height="36">
  <style>.st0{fill:#ff0000}</style>
  <path class="st0" d="M73.6 0H26.4C11.8 0 0 11.8 0 26.4c0 8.7 4.3 16.5 10.8 21.3L13.9 74c1.7 14.8 14.3 26 29.3 26h13.7c14.9 0 27.5-11.2 29.3-26l3.1-26.3c6.6-4.8 10.8-12.6 10.8-21.3C100 11.8 88.2 0 73.6 0zM43.2 94.4c-12.1 0-22.3-9.1-23.7-21.1L16 43.8c-1.1-9.7 1.9-19.5 8.4-26.8C30.9 9.7 40.2 5.6 50 5.6s19.1 4.2 25.6 11.5 9.6 17.1 8.4 26.8l-3.5 29.5c-1.4 12-11.6 21.1-23.7 21.1H43.2zM26.4 5.6h3.3c-3.5 2.1-6.7 4.7-9.5 7.8-6.4 7.2-10 16.5-10.1 26.1-2.9-3.6-4.6-8.1-4.6-13.1.1-11.5 9.4-20.8 20.9-20.8zm63.4 33.9c-.1-9.6-3.6-18.9-10.1-26.1-2.8-3.1-6-5.7-9.5-7.8h3.3c11.5 0 20.8 9.3 20.8 20.8.1 4.9-1.6 9.5-4.5 13.1z"/>
  <path class="st0" d="M66.7 55.6c6.1 0 11.1-5 11.1-11.1s-5-11.1-11.1-11.1-11.1 5-11.1 11.1 4.9 11.1 11.1 11.1zm-5.6-11.2c0-3.1 2.5-5.6 5.6-5.6 2.3 0 4.2 1.4 5.1 3.3-.7-.3-1.5-.5-2.3-.5-3.1 0-5.6 2.5-5.6 5.6 0 .8.2 1.6.5 2.3-1.9-.9-3.3-2.8-3.3-5.1zM44.4 44.4c0-6.1-5-11.1-11.1-11.1s-11.1 5-11.1 11.1 5 11.1 11.1 11.1 11.1-4.9 11.1-11.1zm-16.6 0c0-3.1 2.5-5.6 5.6-5.6 2.3 0 4.2 1.4 5.1 3.3-.7-.3-1.5-.5-2.3-.5-3.1 0-5.6 2.5-5.6 5.6 0 .8.2 1.6.5 2.3-2-.9-3.3-2.8-3.3-5.1zM66.7 75c-1.5 0-2.8 1.2-2.8 2.8 0 3.1-2.5 5.6-5.6 5.6-3.1 0-5.6-2.5-5.6-5.6 0-.3-.1-.6-.2-.9l2.8-8.3c.3-.8.1-1.8-.4-2.5s-1.4-1.2-2.3-1.2H47c-.9 0-1.7.4-2.3 1.2-.5.7-.7 1.7-.4 2.5l2.8 8.3c-.1.3-.2.6-.2.9 0 3.1-2.5 5.6-5.6 5.6-3.1 0-5.6-2.5-5.6-5.6 0-1.5-1.2-2.8-2.8-2.8-1.5 0-2.8 1.2-2.8 2.8 0 6.1 5 11.1 11.1 11.1 3.3 0 6.3-1.5 8.3-3.8 2 2.3 5 3.8 8.3 3.8 6.1 0 11.1-5 11.1-11.1.5-1.6-.7-2.8-2.2-2.8z"/>
</svg>