<svg id="Layer_1" xmlns="http://www.w3.org/2000/svg" viewBox="0 0 48 48" width="36" height="36">
  <style>
    .st0{fill:red}
  </style>
  <path class="st0" d="M13.6 6.1h-2.1v5.4H6.1v2.1h5.4v5.2h2.1v-5.2h5.2v-2.1h-5.2zm16.7 33.2l1.5 1.4 3.7-3.6 3.6 3.6 1.5-1.4-3.7-3.7 3.8-3.8-1.4-1.5-3.8 3.9-3.9-3.9-1.4 1.5 3.8 3.8zm-1.2-27.9h12.7v2H29.1z"/>
  <path class="st0" d="M25 0H0v48h48V0H25zM2 2h21v21H2V2zm21 44H2V25h21v21zm23 0H25V25h21v21zM25 23V2h21v21H25z"/>
  <path class="st0" d="M6.1 34.4h12.7v2H6.1zm5.3-3.9h2.1v2h-2.1zm0 7.9h2.1v2h-2.1z"/>
</svg>
