<svg id="Layer_1" xmlns="http://www.w3.org/2000/svg" viewBox="0 0 128 128" width="36" height="36">
  <style>.st0{fill:#ff0000}</style>
  <path class="st0" d="M82.8 114.6H44.6c-1.3 0-2.4 1.1-2.4 2.4 0 1.3 1.1 2.4 2.4 2.4h9.5c.5 4.8 4.6 8.6 9.6 8.6s9.1-3.8 9.6-8.6h9.5c1.3 0 2.4-1.1 2.4-2.4 0-1.3-1.1-2.4-2.4-2.4zm-19.1 8.6c-2.3 0-4.3-1.7-4.7-3.8h9.5c-.5 2.2-2.5 3.8-4.8 3.8zM82.8 102.8H44.6c-1.3 0-2.4 1.1-2.4 2.4 0 1.3 1.1 2.4 2.4 2.4h38.2c1.3 0 2.4-1.1 2.4-2.4 0-1.3-1.1-2.4-2.4-2.4zM63.7 0c-22 0-39.9 17.9-39.9 39.9 0 14.1 7.4 27.1 19.4 34.3v21.6h41V74.2c12-7.2 19.4-20.2 19.4-34.3 0-22-17.9-39.9-39.9-39.9zm17 70.7l-1.2.7V91H66.1V50.1c1.7 1.1 3.8 1.8 6 1.8 5.9 0 10.7-4.8 10.7-10.7 0-1.3-1.1-2.4-2.4-2.4S78 39.9 78 41.2c0 3.3-2.7 6-6 6s-6-2.7-6-6v-.8c0-1.3-1.1-2.4-2.4-2.4-1.3 0-2.4 1.1-2.4 2.4 0 3.3-2.7 6-6 6s-6-2.7-6-6c0-1.3-1.1-2.4-2.4-2.4-1.3 0-2.4 1.1-2.4 2.4 0 5.9 4.8 10.7 10.7 10.7 2.2 0 4.3-.7 6-1.8V91H48V71.4l-1.2-.7c-11.2-6.2-18.2-18-18.2-30.8 0-19.4 15.8-35.1 35.1-35.1s35.1 15.8 35.1 35.1c0 12.8-6.9 24.6-18.1 30.8z"/>
</svg>