<?xml version="1.0" ?><!DOCTYPE svg  PUBLIC '-//W3C//DTD SVG 1.1//EN'  'http://www.w3.org/Graphics/SVG/1.1/DTD/svg11.dtd'><svg height="24px" style="enable-background:new 0 0 24 24;" version="1.1" viewBox="0 0 24 24" width="24px" xml:space="preserve" xmlns="http://www.w3.org/2000/svg" xmlns:xlink="http://www.w3.org/1999/xlink"><g id="Frame_-_24px"><rect height="24" style="fill:none;" width="24"/></g><g id="Line_Icons"><g><path d="M17,13H7c-0.552,0-1,0.448-1,1c0,2.617,2.86,5,6,5s6-2.383,6-5C18,13.448,17.552,13,17,13z M12,17    c-1.636,0-3.094-0.951-3.701-2h7.411C15.119,16.052,13.684,17,12,17z" style="fill:#ff0000;"/><path d="M12,2C6.486,2,2,6.486,2,12c0,5.515,4.486,10,10,10s10-4.485,10-10C22,6.486,17.514,2,12,2z M12,20    c-4.411,0-8-3.589-8-8s3.589-8,8-8s8,3.589,8,8S16.411,20,12,20z" style="fill:#ff0000;"/><rect height="4" style="fill:#ff0000;" width="2" x="8" y="7"/><rect height="4" style="fill:#ff0000;" width="2" x="14" y="7"/></g></g></svg>
