<?xml version="1.0" ?><!DOCTYPE svg  PUBLIC '-//W3C//DTD SVG 1.1//EN'  'http://www.w3.org/Graphics/SVG/1.1/DTD/svg11.dtd'><svg enable-background="new 0 0 30 30" height="30px" id="Layer_1" version="1.1" viewBox="0 0 30 30" width="30px" xml:space="preserve" xmlns="http://www.w3.org/2000/svg" xmlns:xlink="http://www.w3.org/1999/xlink"><path clip-rule="evenodd" d="M15,30C6.716,30,0,23.283,0,14.999c0-8.283,6.716-15,15-15s15,6.717,15,15  C30,23.283,23.284,30,15,30z M5.901,24.264c0.962-1.309,2.789-4.283,3.062-8.265H2.048C2.295,19.23,3.724,22.125,5.901,24.264z   M2.048,13.999h6.914C8.687,10.044,6.853,7.085,5.87,5.765C3.71,7.898,2.293,10.783,2.048,13.999z M14,2.05  c-2.471,0.188-4.744,1.073-6.634,2.449c0.918,1.314,3.271,5.078,3.594,9.5H14V2.05z M14,15.999h-3.04  c-0.319,4.471-2.669,8.199-3.591,9.503c1.89,1.375,4.161,2.259,6.631,2.447V15.999z M27.951,15.999h-6.825  c0.276,3.866,2.078,6.776,3.102,8.139C26.332,22.014,27.71,19.166,27.951,15.999z M16,27.949c2.516-0.193,4.822-1.106,6.732-2.525  c-0.995-1.363-3.363-5.031-3.69-9.425H16V27.949z M16,13.999h3.043c0.33-4.344,2.701-8.046,3.693-9.421  C20.825,3.157,18.517,2.241,16,2.05V13.999z M24.257,5.893c-1.045,1.376-2.851,4.27-3.13,8.106h6.824  C27.711,10.848,26.345,8.015,24.257,5.893z" fill-rule="evenodd" fill="#ff0000" /></svg>
