<svg id="el_x5F_culture" xmlns="http://www.w3.org/2000/svg" viewBox="0 0 40 40" width="36" height="36">
  <style>.st0{fill:#ff0000}</style>
  <path class="st0" d="M20.1.1C9 .1.1 9.1.1 20.1S9 40 20.1 40 40 31.1 40 20.1 31.1.1 20.1.1zm-2.3 28.3c0-1.2 1-2.2 2.2-2.2 1.2 0 2.2 1 2.2 2.2 0 1.2-1 2.2-2.2 2.2s-2.2-1-2.2-2.2zm2.5 8.3c4.5-.1 8.1-3.8 8.1-8.3 0-4.6-3.7-8.3-8.3-8.3h-.4c-4.4-.2-7.9-3.9-7.9-8.3 0-4.3 3.3-7.8 7.4-8.3h.8c9.2 0 16.6 7.4 16.6 16.6.1 9.1-7.3 16.5-16.3 16.6z"/>
  <path class="st0" d="M18.9 10.4c-1.1 0-2 .9-2 2s.9 2 2 2 2-.9 2-2-.9-2-2-2z"/>
</svg>