<svg viewBox="0 0 30 30" xmlns="http://www.w3.org/2000/svg" width="36" height="36">
  <path clip-rule="evenodd" d="M15 30C6.716 30 0 23.283 0 14.999c0-8.283 6.716-15 15-15s15 6.717 15 15C30 23.283 23.284 30 15 30zm-9.099-5.736c.962-1.309 2.789-4.283 3.062-8.265H2.048a12.95 12.95 0 0 0 3.853 8.265zM2.048 13.999h6.914c-.275-3.955-2.109-6.914-3.092-8.234a12.935 12.935 0 0 0-3.822 8.234zM14 2.05a12.914 12.914 0 0 0-6.634 2.449c.918 1.314 3.271 5.078 3.594 9.5H14V2.05zm0 13.949h-3.04c-.319 4.471-2.669 8.199-3.591 9.503A12.913 12.913 0 0 0 14 27.949v-11.95zm13.951 0h-6.825c.276 3.866 2.078 6.776 3.102 8.139a12.944 12.944 0 0 0 3.723-8.139zM16 27.949a12.916 12.916 0 0 0 6.732-2.525c-.995-1.363-3.363-5.031-3.69-9.425H16v11.95zm0-13.95h3.043c.33-4.344 2.701-8.046 3.693-9.421A12.899 12.899 0 0 0 16 2.05v11.949zm8.257-8.106c-1.045 1.376-2.851 4.27-3.13 8.106h6.824a12.939 12.939 0 0 0-3.694-8.106z" fill-rule="evenodd" fill="red"/>
</svg>
