<?xml version="1.0" ?><!DOCTYPE svg  PUBLIC '-//W3C//DTD SVG 1.1//EN'  'http://www.w3.org/Graphics/SVG/1.1/DTD/svg11.dtd'><svg enable-background="new 0 0 128 128" height="128px" id="Layer_1" version="1.1" viewBox="0 0 128 128" width="128px" xml:space="preserve" xmlns="http://www.w3.org/2000/svg" xmlns:xlink="http://www.w3.org/1999/xlink"><path fill="#ff0000" d="M64.009,90.152c-1.104,0-2-0.896-2-2V44.391c0-1.104,0.896-2,2-2s2,0.896,2,2v43.762  C66.009,89.256,65.113,90.152,64.009,90.152z"/><path fill="#ff0000" d="M80.009,109.942H48.007c-1.104,0-2-0.896-2-2s0.896-2,2-2h32.002c1.104,0,2,0.896,2,2S81.113,109.942,80.009,109.942z"/><path fill="#ff0000" d="M80.009,100.034H48.007c-1.104,0-2-0.896-2-2s0.896-2,2-2h32.002c1.104,0,2,0.896,2,2S81.113,100.034,80.009,100.034z"/><path fill="#ff0000" d="M81.179,90.152H46.837v-18.11c-10.069-6.034-16.275-16.924-16.275-28.706c0-18.442,15.004-33.447,33.447-33.447  s33.447,15.004,33.447,33.447c0,11.781-6.206,22.671-16.277,28.706V90.152z M50.837,86.152h26.342V69.705l1.033-0.57  c9.403-5.19,15.244-15.076,15.244-25.798c0-16.237-13.21-29.447-29.447-29.447S34.562,27.1,34.562,43.336  c0,10.723,5.841,20.608,15.242,25.798l1.033,0.57V86.152z"/><path fill="#ff0000" d="M64.009,117.163c-4.446,0-8.064-3.618-8.064-8.064c0-1.104,0.896-2,2-2s2,0.896,2,2c0,2.241,1.823,4.064,4.064,4.064  s4.064-1.823,4.064-4.064c0-1.104,0.896-2,2-2s2,0.896,2,2C72.073,113.545,68.455,117.163,64.009,117.163z"/><path d="M71.013,53.396c-2.994,0-5.651-1.469-7.29-3.725c-1.65,1.85-4.052,3.016-6.72,3.016c-4.966,0-9.006-4.04-9.006-9.004  c0-1.104,0.896-2,2-2s2,0.896,2,2c0,2.76,2.246,5.004,5.006,5.004s5.006-2.245,5.006-5.004c0-1.104,0.896-2,2-2s2,0.896,2,2v0.708  c0,2.76,2.245,5.005,5.004,5.005c2.76,0,5.006-2.245,5.006-5.005c0-1.104,0.896-2,2-2s2,0.896,2,2  C80.019,49.356,75.979,53.396,71.013,53.396z" fill="#ff0000"/></svg>
