<?xml version="1.0" ?><!DOCTYPE svg  PUBLIC '-//W3C//DTD SVG 1.1//EN'  'http://www.w3.org/Graphics/SVG/1.1/DTD/svg11.dtd'><svg height="40px" id="el_x5F_culture" style="enable-background:new 0 0 40 40;" version="1.1" viewBox="0 0 40 40" width="40px" xml:space="preserve" xmlns="http://www.w3.org/2000/svg" xmlns:xlink="http://www.w3.org/1999/xlink"><path d="M18.945,1.916c-9.938,0-17.996,8.057-17.996,17.992s8.059,17.993,17.996,17.993  s17.996-8.058,17.996-17.993S28.883,1.916,18.945,1.916z M16.947,27.406c0-1.104,0.895-2,1.998-2s2,0.896,2,2  c0,1.104-0.896,1.998-2,1.998S16.947,28.51,16.947,27.406z M19.129,34.9c4.057-0.098,7.314-3.416,7.314-7.496  c0-4.139-3.357-7.496-7.498-7.496c-0.127,0-0.252,0.004-0.377,0.011l-0.029-0.021c-3.951-0.212-7.092-3.483-7.092-7.486  c0-3.872,2.938-7.061,6.707-7.455l0.025-0.022c0.254-0.013,0.51-0.02,0.766-0.02c8.281,0,14.996,6.715,14.996,14.993  C33.941,28.127,27.324,34.802,19.129,34.9z" style="fill:#ff0000;"/><path d="M18.945,10.413c-1.104,0-1.998,0.896-1.998,1.999s0.895,1.999,1.998,1.999s2-0.896,2-1.999  S20.049,10.413,18.945,10.413z" style="fill:#ff0000;"/></svg>
