<?xml version="1.0" ?><svg enable-background="new 0 0 49 49" id="Layer_1" version="1.1" viewBox="0 0 49 49" xml:space="preserve" xmlns="http://www.w3.org/2000/svg" xmlns:xlink="http://www.w3.org/1999/xlink"><g><g><path d="M12.6,14.1c-1.1,0-2-0.9-2-2V2.5c0-1.1,0.9-2,2-2s2,0.9,2,2v9.6C14.6,13.3,13.7,14.1,12.6,14.1z" fill="#010101"/></g><g><path d="M36.4,14.1c-1.1,0-2-0.9-2-2V2.5c0-1.1,0.9-2,2-2s2,0.9,2,2v9.6C38.4,13.3,37.5,14.1,36.4,14.1z" fill="#010101"/></g><g><path d="M46.5,48.5h-44c-1.1,0-2-0.9-2-2v-39c0-1.1,0.9-2,2-2h44c1.1,0,2,0.9,2,2v39    C48.5,47.6,47.6,48.5,46.5,48.5z M4.5,44.5h40v-35h-40V44.5z" fill="#010101"/></g><g><path d="M46.5,20h-44c-1.1,0-2-0.9-2-2s0.9-2,2-2h44c1.1,0,2,0.9,2,2S47.6,20,46.5,20z" fill="#010101"/></g><g><g><path d="M14.2,23.6h6.4v17.8h-3.4V27h-3V23.6z" fill="#010101"/></g><g><path d="M33.9,23.6V27h-6.2v3c0.5-0.2,1-0.2,1.6-0.2c1.5,0,2.8,0.5,3.9,1.6c1.1,1,1.6,2.4,1.6,4.2     c0,1.8-0.6,3.2-1.7,4.4C32,41,30.6,41.6,29,41.6c-2.1,0-3.9-0.9-5.3-2.7l1.8-2.9c0.1,0.2,0.3,0.3,0.5,0.6     c0.2,0.2,0.6,0.5,1.2,0.9c0.6,0.4,1.2,0.5,1.8,0.5c0.6,0,1.1-0.2,1.6-0.6c0.5-0.4,0.7-1,0.7-1.8c0-0.8-0.3-1.4-0.8-1.8     c-0.5-0.4-1.2-0.6-1.9-0.6c-0.8,0-1.7,0.3-2.8,1l-1.5-1.8v-8.7H33.9z" fill="#010101"/></g></g></g></svg>