<svg id="Layer_1" xmlns="http://www.w3.org/2000/svg" viewBox="0 0 32 32" width="36" height="36">
  <style>
    .st0{fill:red}
  </style>
  <path class="st0" d="M12.8 25.7c.2.2.5.3.7.3.3 0 .5-.1.7-.3l10.1-10.5c.2-.2.3-.5.3-.7 0-.3-.1-.6-.3-.8L23 12.3c-.2-.2-.5-.3-.7-.3s-.5.1-.7.3l-8.1 8-3.4-3.7c-.2-.2-.5-.3-.7-.3s-.5.1-.7.3L7 18.2c-.4.4-.4 1.1 0 1.5l5.8 6z"/>
  <path class="st0" d="M28.7 4h-2V2c0-1.1-.9-2-2-2h-2c-1.1 0-2 .9-2 2v2h-10V2c0-1.1-.9-2-2-2h-2c-1.1 0-2 .9-2 2v2h-2c-1.1 0-2 .9-2 2v24c0 1.1.9 2 2 2h26c1.1 0 2-.9 2-2V6c0-1.1-.9-2-2-2zm-6-1.5c0-.3.2-.5.5-.5h1c.3 0 .5.2.5.5v3c0 .3-.2.5-.5.5h-1c-.3 0-.5-.2-.5-.5v-3zm-16 0c0-.3.2-.5.5-.5h1c.3 0 .5.2.5.5v3c0 .3-.3.5-.5.5h-1c-.3 0-.5-.2-.5-.5v-3zm20 25.5h-22V10h22v18z"/>
</svg>
