<?xml version="1.0" ?><!DOCTYPE svg  PUBLIC '-//W3C//DTD SVG 1.1//EN'  'http://www.w3.org/Graphics/SVG/1.1/DTD/svg11.dtd'><svg enable-background="new 0 0 32 32" version="1.1" viewBox="0 0 32 32" xml:space="preserve" xmlns="http://www.w3.org/2000/svg" xmlns:xlink="http://www.w3.org/1999/xlink"><g id="outline"><g><polygon fill="#414753" points="16.47,16.1 16.47,13.42 22.49,18.11 16.47,22.79 16.47,20.11 10.84,20.11 10.84,16.1   "/></g><g><g><path d="M9.04,0H7.82C7.11,0,6.53,0.58,6.53,1.29V4.6c0,0.71,0.58,1.29,1.29,1.29h1.23     c0.71,0,1.29-0.58,1.29-1.29V1.29C10.33,0.58,9.75,0,9.04,0L9.04,0z" fill="#414753"/></g><g><path d="M24.29,0h-1.23c-0.71,0-1.29,0.58-1.29,1.29V4.6c0,0.71,0.58,1.29,1.29,1.29h1.23     c0.71,0,1.29-0.58,1.29-1.29V1.29C25.58,0.58,25,0,24.29,0L24.29,0z" fill="#414753"/></g><g><path d="M30,6.17V30H2V6.17H30 M32,4.17H0V32h32V4.17L32,4.17z" fill="#414753"/></g></g></g></svg>