<svg viewBox="0 0 512 512" xmlns="http://www.w3.org/2000/svg" fill="#ff0000" width="36" height="36">
  <g class="svgGrid" stroke="#ff0000">
    <path d="M32 0v512M64 0v512M96 0v512M128 0v512M160 0v512M192 0v512M224 0v512M256 0v512M288 0v512M320 0v512M352 0v512M384 0v512M416 0v512M448 0v512M480 0v512M0 32h512M0 64h512M0 96h512M0 128h512M0 160h512M0 192h512M0 224h512M0 256h512M0 288h512M0 320h512M0 352h512M0 384h512M0 416h512M0 448h512M0 480h512"/>
    <path fill="none" d="M0 0h512v512H0z"/>
  </g>
  <path d="M256 0c141.385 0 256 114.615 256 256 0 130.547-97.719 238.265-224 254.013V320h88l8-64h-96v-32c0-17.673 14.327-32 32-32h64v-64h-64c-53.02 0-96 42.98-96 96v32h-48v64h48v190.013C97.719 494.265 0 386.547 0 256 0 114.615 114.615 0 256 0z"/>
</svg>