<?xml version="1.0" standalone="no"?>
<!DOCTYPE svg PUBLIC "-//W3C//DTD SVG 20010904//EN"
 "http://www.w3.org/TR/2001/REC-SVG-20010904/DTD/svg10.dtd">
<svg version="1.0" xmlns="http://www.w3.org/2000/svg"
 width="167.000000pt" height="167.000000pt" viewBox="0 0 167.000000 167.000000"
 preserveAspectRatio="xMidYMid meet">

<g transform="translate(0.000000,167.000000) scale(0.100000,-0.100000)"
fill="#000000" stroke="none">
<path d="M171 1576 c-51 -28 -50 -15 -51 -698 0 -446 3 -644 11 -661 24 -53
13 -52 711 -52 l650 0 29 33 29 32 0 641 c0 695 1 682 -55 707 -40 18 -1291
16 -1324 -2z m1249 -696 l0 -580 -345 0 -345 0 0 580 0 580 345 0 345 0 0
-580z"/>
</g>
</svg>
