<?xml version="1.0" standalone="no"?>
<!DOCTYPE svg PUBLIC "-//W3C//DTD SVG 20010904//EN"
 "http://www.w3.org/TR/2001/REC-SVG-20010904/DTD/svg10.dtd">
<svg version="1.0" xmlns="http://www.w3.org/2000/svg"
 width="128.000000pt" height="128.000000pt" viewBox="0 0 128.000000 128.000000"
 preserveAspectRatio="xMidYMid meet">

<g transform="translate(0.000000,128.000000) scale(0.100000,-0.100000)"
fill="#000000" stroke="none">
<path d="M134 1208 c-43 -20 -44 -37 -44 -542 0 -474 0 -484 21 -510 l20 -26
508 0 c504 0 508 0 527 21 18 20 19 45 22 507 2 336 -1 495 -8 513 -6 15 -23
31 -36 38 -33 15 -979 14 -1010 -1z m956 -533 l0 -445 -450 0 -450 0 0 204 c0
112 3 211 6 220 5 14 35 16 225 16 l219 0 0 225 0 225 225 0 225 0 0 -445z"/>
</g>
</svg>
