<svg id="Layer_1" xmlns="http://www.w3.org/2000/svg" viewBox="0 0 56.7 56.7" width="36" height="36">
  <style>
    .st0{fill:red}
  </style>
  <path class="st0" d="M33.7 30.8H13.4c-.4 0-.7.3-.7.7 0 .4.3.7.7.7h20.3c.4 0 .7-.3.7-.7 0-.4-.3-.7-.7-.7zm0 13.4H13.4c-.4 0-.7.3-.7.7 0 .4.3.7.7.7h20.3c.4 0 .7-.3.7-.7 0-.4-.3-.7-.7-.7zm0-6.7H13.4c-.4 0-.7.3-.7.7 0 .4.3.7.7.7h20.3c.4 0 .7-.3.7-.7 0-.4-.3-.7-.7-.7zM13.4 25.4h8.1c.4 0 .7-.3.7-.7 0-.4-.3-.7-.7-.7h-8.1c-.4 0-.7.3-.7.7 0 .4.3.7.7.7z"/>
  <path class="st0" d="M35.5 10c-.3-.3-.8-.5-1.2-.5H5.7c-1 0-1.7.8-1.7 1.7V55c0 1 .8 1.7 1.7 1.7h35.8c1 0 1.7-.8 1.7-1.7V18.3c0-.5-.2-.9-.5-1.2L35.5 10zm4.3 43.3H7.5V12.9h25.8v5.4c0 .6.5 1 1 1h5.5v34z"/>
  <path class="st0" d="M52.2 7.6L45 .5c-.4-.3-.8-.5-1.3-.5H15.2c-1 0-1.7.8-1.7 1.7v3.9h3.4V3.4h25.8v5.4c0 .6.5 1 1 1h5.5v33.9H47v3.4h3.9c1 0 1.7-.8 1.7-1.7V8.8c.1-.4-.1-.9-.4-1.2z"/>
</svg>
