<svg class="icon" viewBox="0 0 1049 1024" xmlns="http://www.w3.org/2000/svg" width="36" height="36">
  <path fill="red" d="M724.744 349.21s163.218 90.098 320.777 347.036h-19.48c-39.95-43.108-132.682-73.317-240.683-73.317-75.028 0-141.368 15.204-189.083 38.502-37.58 58.837-143.475 101.616-269.838 101.616-47.254 0-91.81-5.923-131.035-16.453l-2.435-274.576s-3.423-.658 2.04-1.514V126.758a494.592 494.592 0 0 0 124.19 15.532c100.96 0 187.505-27.379 229.034-66.801h.658C592.787 30.867 681.636 0 785.293 0s192.571 30.867 236.404 75.423h27.444v1.25c-37.448 7.964-253.252 62.129-324.397 272.536zM0 6.45h131.43V1024H0V6.45z"/>
</svg>
