<?xml version="1.0" ?><!DOCTYPE svg  PUBLIC '-//W3C//DTD SVG 1.1//EN'  'http://www.w3.org/Graphics/SVG/1.1/DTD/svg11.dtd'><svg enable-background="new 0 0 32 32" height="32px" version="1.1" viewBox="0 0 32 32" width="32px" xml:space="preserve" xmlns="http://www.w3.org/2000/svg" xmlns:xlink="http://www.w3.org/1999/xlink"><g id="Guides__x26__Labels"/><g id="Icons_-_V2"><g><polygon points="5.983,6.003 13.093,13.11 20.2,6.001   "/><polygon points="13,19 6,26 20,26   "/><path d="M23.296,22.503l4.646-0.859l-1.213-1.216c1.094-1.086,1.622-2.583,1.622-4.246c0-3.034-2.332-5.536-5.332-5.938v2.024    c2,0.378,3.332,1.986,3.332,3.914c0,1.111-0.382,2.108-1.112,2.833l-1.12-1.159L23.296,22.503z"/><rect height="2" width="2" x="20" y="15"/><rect height="2" width="2" x="16" y="15"/><rect height="2" width="2" x="12" y="15"/><rect height="2" width="2" x="8" y="15"/><rect height="2" width="2" x="4" y="15"/></g></g></svg>