<?xml version="1.0" ?><!DOCTYPE svg  PUBLIC '-//W3C//DTD SVG 1.1//EN'  'http://www.w3.org/Graphics/SVG/1.1/DTD/svg11.dtd'><svg enable-background="new 0 0 32 32" height="32px" version="1.1" viewBox="0 0 32 32" width="32px" xml:space="preserve" xmlns="http://www.w3.org/2000/svg" xmlns:xlink="http://www.w3.org/1999/xlink"><g id="Guides__x26__Labels"/><g id="Icons_-_V2"><g><polygon points="6.002,26.217 13.109,19.107 6,12   "/><polygon points="18.891,19.107 25.998,26.217 26,12   "/><path d="M22.505,8.724l-0.859-4.647L20.43,5.29c-1.086-1.094-2.583-1.622-4.246-1.622C13.149,3.668,10.648,6,10.246,9h2.023    c0.378-2,1.986-3.332,3.914-3.332c1.111,0,2.108,0.382,2.833,1.112L17.857,7.9L22.505,8.724z"/><rect height="2" width="2" x="15" y="10"/><rect height="2" width="2" x="15" y="14"/><rect height="2" width="2" x="15" y="18"/><rect height="2" width="2" x="15" y="22"/><rect height="2" width="2" x="15" y="26"/></g></g></svg>