<?xml version="1.0" ?><!DOCTYPE svg  PUBLIC '-//W3C//DTD SVG 1.0//EN'  'http://www.w3.org/TR/2001/REC-SVG-20010904/DTD/svg10.dtd'><svg enable-background="new 0 0 32 32" height="32px" id="Layer_1" version="1.0" viewBox="0 0 32 32" width="32px" xml:space="preserve" xmlns="http://www.w3.org/2000/svg" xmlns:xlink="http://www.w3.org/1999/xlink"><path d="M29.844,4H15.706l-1.221-2.496C13.894,0.191,12.96,0,11.854,0H1.86C0.755,0,0,0.895,0,2v27.984C0,31.09,0.755,32,1.86,32  h27.983C30.949,32,32,31.09,32,29.984V5.996C32,4.895,30.949,4,29.844,4z M4,28v-5.012l6.352-6.488L21.703,28H4z M22.848,17.988  c-1.656,0-2.996-1.34-2.996-2.996s1.34-3,2.996-3s3,1.344,3,3S24.504,17.988,22.848,17.988z"/><g/><g/><g/><g/><g/><g/><g/><g/><g/><g/><g/><g/><g/><g/><g/></svg>