<svg height="600" width="600" xmlns="http://www.w3.org/2000/svg">
  <path clip-rule="evenodd" d="M536.031 165.439l-137.752 121.58v-82.584s-172.854.572-233.393.402l-.129 63.203-68.881 70.399c-.018-9.825-.784-204.378-.235-204.97.154-.163 302.638-.228 302.638-.228l-.027-88.659 137.779 120.857zM194.545 401.022s179.286-.572 239.828-.402l.131-70.429 66.648-69.316c.021 9.829.785 206.188.235 206.779-.151.166-306.842.224-306.842.224l.03 85.705L61 433.585l133.545-119.428v86.865z" fill="red" fill-rule="evenodd"/>
</svg>
