<?xml version="1.0" ?><!DOCTYPE svg  PUBLIC '-//W3C//DTD SVG 1.1//EN'  'http://www.w3.org/Graphics/SVG/1.1/DTD/svg11.dtd'><svg enable-background="new 0 0 600 600" height="600px" id="Recycle" version="1.1" viewBox="0 0 600 600" width="600px" xml:space="preserve" xmlns="http://www.w3.org/2000/svg" xmlns:xlink="http://www.w3.org/1999/xlink"><path clip-rule="evenodd" d="M536.031,165.439l-137.752,121.58v-82.584  c0,0-172.854,0.572-233.393,0.402l-0.129,63.203l-68.881,70.399c-0.018-9.825-0.784-204.378-0.235-204.97  c0.154-0.163,302.638-0.228,302.638-0.228l-0.027-88.659L536.031,165.439z M194.545,401.022c0,0,179.286-0.572,239.828-0.402  l0.131-70.429l66.648-69.316c0.021,9.829,0.785,206.188,0.235,206.779c-0.151,0.166-306.842,0.224-306.842,0.224l0.03,85.705  L61,433.585l133.545-119.428V401.022z" fill="#ff0000" fill-rule="evenodd"/></svg>
