<?xml version="1.0" ?><!DOCTYPE svg  PUBLIC '-//W3C//DTD SVG 1.1//EN'  'http://www.w3.org/Graphics/SVG/1.1/DTD/svg11.dtd'><svg enable-background="new 0 0 512 512" height="512px" id="Layer_1" version="1.1" viewBox="0 0 512 512" width="512px" xml:space="preserve" xmlns="http://www.w3.org/2000/svg" xmlns:xlink="http://www.w3.org/1999/xlink"><g><path clip-rule="evenodd" d="M427.377,322.834v33.89h33.905c5.69,0,10.575,4.604,10.575,10.57   v23.051c0,5.957-4.885,10.84-10.575,10.84h-33.905v33.62c0,5.966-4.884,10.849-10.854,10.849h-23.051   c-5.7,0-10.585-4.883-10.585-10.849v-33.62h-33.904c-5.96,0-10.576-4.883-10.576-10.84v-23.051c0-5.966,4.616-10.57,10.576-10.57   h33.904v-33.89c0-5.967,4.885-10.58,10.585-10.58h23.051C422.493,312.254,427.377,316.867,427.377,322.834L427.377,322.834z    M135.262,338.287c15.729-7.05,25.767-14.101,32.273-23.05c6.78-9.756,8.68-20.058,8.412-33.612c0-0.814,0-1.898,0.269-3.261   c0-10.839,0-22.225-11.934-33.884c-8.406-8.408-12.476-17.895-15.733-25.487c-2.98-7.319-5.422-13.286-11.118-17.621   c-3.527-2.441-6.511-5.693-8.68-9.492c-1.358-2.983-2.442-6.235-2.442-10.302c0-2.168,0.273-4.067,0.815-5.151   c0.811-1.357,2.438-2.71,5.422-4.609c3.8-2.441,6.238-5.151,7.869-7.861c1.627-2.983,2.438-5.966,2.711-9.491   c0.542-10.571-1.9-21.688-4.342-32.806c-2.438-10.844-4.88-21.688-2.98-27.923c2.98-11.66,11.391-20.877,22.509-27.655   c10.038-5.966,21.971-10.034,34.447-11.66c12.749-1.899,25.767-1.084,37.432,2.168c13.833,4.067,25.498,11.391,32.546,22.777   l4.338,7.05l8.406-0.542c5.701-0.546,7.869,2.71,8.139,7.045c0.815,9.219-1.9,21.962-4.069,33.348   c-2.169,10.844-4.069,20.604-3.522,28.196c0,2.983,0.807,6.235,2.707,9.491c1.9,3.252,4.615,5.693,7.601,7.861   c3.253,1.899,4.875,3.251,5.69,4.609c0.547,1.084,0.547,2.983,0.547,5.151c0.269,4.067-0.815,7.319-2.447,10.302   c-1.899,3.798-5.153,7.05-8.406,9.492c-5.691,4.335-8.138,10.302-11.392,17.621c-2.984,7.592-7.053,17.079-15.455,25.487   c-12.207,11.659-11.933,23.314-11.933,34.163c0,1.084,0,2.168,0,2.982c0,13.555,1.895,23.856,8.68,33.612   c6.238,8.949,16.271,16,32.269,23.05c0.547,0.269,1.084,0.537,1.631,0.815c2.984-8.681,6.775-16.814,11.392-24.402   c-0.815-0.27-1.632-0.815-2.169-0.815c-11.122-5.151-17.629-9.487-21.16-14.369c-2.984-4.067-3.8-9.755-3.8-17.621   c0-1.084,0-2.438,0-3.53c0-5.42,0-10.839,3.8-14.638c12.476-12.197,17.629-24.671,21.697-34.158   c0.278-0.815,2.169-6.235,2.716-6.782c5.691-4.336,11.66-10.302,15.998-18.432c3.531-6.508,5.7-14.101,5.7-23.045   c-0.269-6.24-1.084-11.659-3.8-17.353c-2.707-4.882-6.775-9.218-13.014-13.558c0.269-4.609,1.622-11.386,3.254-18.705   c2.438-13.286,5.422-28.196,4.337-40.94c-1.353-17.894-8.953-30.906-29.288-31.99c-10.854-13.828-26.31-23.045-43.669-27.928   c-15.187-4.335-32.005-5.419-48.007-3.251c-16.275,2.168-32.004,7.319-45.295,15.453c-16.545,10.302-29.294,24.671-34.447,43.381   c-3.795,12.739-0.542,26.839,2.711,41.208c1.9,7.861,3.526,15.995,3.8,22.772c-6.242,4.34-10.307,8.676-13.022,13.558   c-2.979,5.693-3.795,11.113-3.795,17.353c0,8.945,2.169,16.537,5.696,23.045c4.337,8.13,10.307,14.096,16.002,18.432   c0.273,0.547,2.169,5.966,2.711,6.782c3.8,9.487,9.222,21.961,21.702,34.158c3.796,3.53,3.522,9.218,3.522,14.638   c0,1.093,0,2.446,0,3.53c0.273,7.866-0.811,13.554-3.795,17.621c-3.253,4.882-9.765,9.218-21.156,14.369   c-2.169,1.084-6.78,2.714-11.934,4.882c-26.856,10.84-69.978,28.191-92.223,59.646c-8.676,12.47-13.829,24.134-16.813,36.325   c-2.984,11.934-3.527,23.865-2.984,37.42c0,5.151,0.815,9.756,2.169,13.285C7.782,480.348,21.073,485.5,35.448,485.5h174.13   h128.829c-8.138-4.873-15.729-10.839-22.235-17.621c-2.984-2.983-5.969-5.966-8.416-9.219h-98.178H35.448   c-1.089,0-5.969-0.269-7.053-1.352c-1.084-1.085-1.358-4.614-1.358-5.966c-0.542-11.387,0-21.152,2.169-30.37   c2.173-8.672,6.242-17.344,13.022-27.107c17.629-24.94,55.871-40.394,80.011-50.158   C126.583,342.086,130.652,340.455,135.262,338.287L135.262,338.287z M405.133,272.13c-59.125,0-106.867,47.722-106.867,106.829   c0,58.829,47.742,106.541,106.867,106.541C463.989,485.5,512,437.788,512,378.959C512,319.851,463.989,272.13,405.133,272.13   L405.133,272.13z" fill="#050505" fill-rule="evenodd"/></g></svg>