<?xml version="1.0" ?><!DOCTYPE svg  PUBLIC '-//W3C//DTD SVG 1.1//EN'  'http://www.w3.org/Graphics/SVG/1.1/DTD/svg11.dtd'><svg enable-background="new 0 0 128 128" height="128px" id="Layer_1" version="1.1" viewBox="0 0 128 128" width="128px" xml:space="preserve" xmlns="http://www.w3.org/2000/svg" xmlns:xlink="http://www.w3.org/1999/xlink"><g><path fill="#ff0000" d="M117.782,93.805c-11.927-7.079-16.525-7.677-17.755-15.368c-0.385-2.418-0.467-5.408-0.399-7.794   c0.116-0.109,2.601,0.913,7.077,0.913s6.949-2.291,6.949-2.291s-0.883-1.319-2.404-5.104c-3.152-8.43-1.455-12.348-1.488-20.669   c-0.035-8.273-2.896-12.367-6.115-15.493c-3.787-3.676-9.086-6.118-13.797-3.463c-4.166-2.734-9.223-0.214-13.012,3.462   c-3.22,3.125-6.079,7.22-6.115,15.493c-0.035,8.323,1.664,12.24-1.486,20.67c-1.522,3.783-2.407,5.104-2.407,5.104   s2.474,2.291,6.948,2.291c4.479,0,6.182-1.021,6.291-0.913c0.068,2.386-0.014,5.374-0.399,7.794   c-0.608,3.826-2.002,5.895-4.711,7.884c2.438,2.163,4.634,4.712,6.577,7.717c3.646,5.638,4.615,13.305,3.441,17.96   c1.571,0,3.188,0,4.871,0l0.002,0.002c16.148,0,27.203,0,34.584,0c2.823,0,3.521-0.759,3.562-3.639   C128.032,105.655,128.074,99.914,117.782,93.805z"/></g><path fill="#ff0000"  d="M76.494,97.291c-3.799-5.873-8.516-9.631-14.443-11.762c-5.93-2.133-7.898-3.406-9.459-5.454  c-1.564-2.053-0.906-10.799-0.906-10.799s3.283-4.519,4.348-7.358c1.072-2.848,1.277-8.308,1.277-8.308s2.795-1.859,3.51-4.112  c0.705-2.252,1.301-6.079,0.828-7.75c-0.471-1.674-2.625-1.178-2.625-1.178s0.004-3.032,0.09-5.436C59.221,31.92,58.294,16,39.72,16  c-18.574,0-19.498,15.917-19.385,19.127c0.087,2.405,0.088,5.437,0.088,5.437s-2.157-0.496-2.627,1.181  c-0.474,1.667,0.122,5.498,0.826,7.749c0.716,2.25,3.507,4.11,3.507,4.11s0.215,5.463,1.281,8.308  c1.068,2.844,4.349,7.359,4.349,7.359s0.66,8.749-0.907,10.803c-1.562,2.048-3.528,3.324-9.462,5.452  c-5.928,2.129-10.64,5.893-14.441,11.764c-3.802,5.874-3.07,13.052-2.444,13.91c0.632,0.859,3.574,0.796,5.669,0.796  c6.9-0.01,17.182,0.012,33.549,0l0,0c16.366,0.014,26.65-0.006,33.546,0c2.098,0,5.037,0.062,5.674-0.796  C79.562,110.337,80.292,103.165,76.494,97.291z" /></svg>
