<?xml version="1.0" ?><!DOCTYPE svg  PUBLIC '-//W3C//DTD SVG 1.1//EN'  'http://www.w3.org/Graphics/SVG/1.1/DTD/svg11.dtd'><svg enable-background="new 0 0 128 128" height="128px" id="Layer_1" version="1.1" viewBox="0 0 128 128" width="128px" xml:space="preserve" xmlns="http://www.w3.org/2000/svg" xmlns:xlink="http://www.w3.org/1999/xlink"><g><path d="M72.259,38.978c0.148,0.021,0.797-0.38,1.041-0.506s0.979,0.295,1.208,0.38s1.28-0.13,1.45-0.295   c0.17-0.166,0.192-0.507,0.049-0.759s-0.709-0.947-0.935-0.991c-0.225-0.044-0.969-0.158-1.147-0.159s-0.724,0.1-0.81,0.225   c-0.085,0.125-0.345,0.559-0.386,0.685s-0.3,0.494-0.481,0.538c-0.181,0.043-0.628,0.281-0.588,0.428S72.11,38.957,72.259,38.978z"/><path d="M74.428,41.097c-0.13,0.172-0.572,1.036-0.692,1.535c-0.12,0.499,0.012,2.559,0.237,2.423   c0.226-0.136,0.81-0.779,0.799-1.129c-0.011-0.35,0.102-1.443,0.275-1.66s0.969-1.123,1.098-1.25   c0.128-0.127-0.023-0.232-0.336-0.233C75.497,40.782,74.559,40.925,74.428,41.097z"/><path d="M87.878,4.622c-0.026,0-0.293-0.108-0.849-0.334C79.882,1.528,72.121,0,64,0C28.654,0,0,28.654,0,64   c0,35.347,28.654,64,64,64c35.346,0,64-28.653,64-64C128,37.098,111.393,14.088,87.878,4.622z M83.076,6.278   c0.146,0.16,1.074,0.425,1.412,0.481c0.339,0.057,2.473,0.523,2.654,0.659s0.362,0.448,0.401,0.692   c0.039,0.245-1.719,0.042-2.532-0.18c-0.814-0.222-3.471-1.203-3.654-1.373s0.037-0.725,0.421-0.719   C82.162,5.845,82.929,6.118,83.076,6.278z M77.201,4.695c0.193-0.01,1.237-0.052,1.559-0.055c0.32-0.002,1.179,0.073,1.333,0.073   s1.465,0.086,1.528,0.165c0.064,0.079,0.004,0.163-0.134,0.188s-0.703,0.045-0.88,0.033c-0.178-0.012-0.589-0.131-0.475-0.158   c0.115-0.027,0.259-0.108,0.168-0.122c-0.092-0.014-0.423-0.044-0.537-0.042c-0.114,0.003-0.417,0.065-0.419,0.133   c-0.002,0.067-1.258,0.024-1.524-0.052c-0.268-0.076-1.187-0.138-1.117-0.144C76.771,4.706,77.008,4.705,77.201,4.695z    M72.222,4.825c0.531-0.002,0.991-0.01,1.001-0.011c0.009-0.001,0.562-0.014,0.708-0.018c0.146-0.003,0.542-0.009,0.626-0.008   c0.083,0.001,0.098,0.01,0.033,0.018c-0.065,0.008-1.856,0.101-2.477,0.101S71.69,4.828,72.222,4.825z M65.721,5.043   c0.182-0.004,0.916-0.024,1.232-0.037c0.315-0.012,0.872-0.026,0.973-0.027c0.1-0.001,0.491-0.004,0.748-0.011   c0.171-0.005,0.604-0.02,0.914-0.032c-0.034-0.001-0.078-0.004-0.1-0.004c-0.172-0.006,0.082-0.026,0.209-0.028   c0.127-0.002,0.339,0.007,0.217,0.017c-0.041,0.003-0.169,0.009-0.326,0.016c0.234,0.01,0.706,0.035,0.883,0.04   c0.202,0.004,0.832,0.106,0.916,0.088c0.083-0.019,0.609-0.108,0.801-0.127c0.192-0.02,0.917,0.005,0.974,0.033   c0.057,0.027,0.372,0.137,0.578,0.159s1.114-0.007,1.351-0.031c0.235-0.023,0.599-0.102,0.695-0.083   c0.096,0.02,0.47,0.082,0.617,0.087c0.148,0.005,1.246,0.061,1.562,0.082s0.801,0.099,0.901,0.139   c0.101,0.04-0.015,0.235-0.073,0.294c-0.059,0.059,0.196,0.256,0.492,0.355c0.296,0.099,1.132,0.628,0.947,0.654   s-0.472,0.002-0.639-0.051c-0.167-0.054-0.896-0.332-1.132-0.409c-0.236-0.077-1.123-0.247-1.348-0.294S75.937,5.5,75.658,5.413   c-0.278-0.086-0.992-0.208-1.084-0.204s-0.244,0.053-0.135,0.103c0.108,0.049-0.14,0.166-0.258,0.19   c-0.119,0.024-1.206,0.056-2.27,0.077s-2.958-0.071-3.58-0.165c-0.623-0.093-1.512-0.348-1.658-0.352s-0.625-0.01-0.74-0.013   c-0.086-0.002-0.285-0.003-0.391-0.004c-0.052,0-0.08-0.001-0.067-0.001c0.006,0,0.031,0,0.067,0.001   C65.585,5.045,65.641,5.045,65.721,5.043z M13.156,41.313c-0.009,0.027-0.011,0.054-0.011-0.008c0-0.062,0.018-0.136,0.021-0.102   S13.165,41.286,13.156,41.313z M13.367,40.05c-0.027,0.087-0.07,0.178-0.052,0.007c0.018-0.171,0.109-0.616,0.105-0.456   S13.394,39.963,13.367,40.05z M15.071,36.306c-0.396,0.745-1.131,2.144-1.107,1.946s0.142-0.502,0.17-0.522   c0.029-0.02,0.219-0.389,0.355-0.777c0.136-0.388,0.589-1.23,0.759-1.579s0.484-0.594,0.505-0.533   C15.775,34.901,15.468,35.561,15.071,36.306z M88.323,122.139c-0.253,0.126-1.378,0.228-1.232,0.1s1.444-0.466,1.608-0.49   C88.863,121.723,88.577,122.014,88.323,122.139z M102.949,86.24c-0.022,0.335-0.105,1.195-0.184,1.911   c-0.079,0.717-0.553,4.61-0.81,6.39s-0.806,4.162-0.979,4.402s-0.881,1.237-1.128,1.693c-0.246,0.456-0.88,1.484-1.112,1.806   s-0.81,1.846-0.763,1.884s-0.157,0.857-0.562,1.738c-0.404,0.881-1.234,2.521-1.337,2.609s-0.431,0.475-0.498,0.664   s-0.479,1.25-0.82,1.624s-1.835,1.689-1.853,1.821s-0.202,0.772-0.371,1.136c-0.17,0.364-1.824,1.766-2.025,1.85   c-0.202,0.085-0.812,0.407-0.896,0.533c-0.084,0.125-0.661,0.998-0.914,1.059c-0.254,0.06-0.932,0.444-1.026,0.541   c-0.095,0.098-0.19,0.333-0.001,0.314s0.678,0,0.679,0.08s-0.518,0.426-0.688,0.515s-0.479,0.332-0.552,0.497   c-0.073,0.164-1.095,0.892-1.393,1.082c-0.297,0.19-0.394,0.485-0.234,0.51s0.27,0.323-0.104,0.607   c-0.372,0.285-1.368,0.965-1.366,1.045s0.046,0.312,0.103,0.362c0.058,0.05,0.627,0.623,0.838,0.605   c0.211-0.019,0.812,0.205,0.65,0.243c-0.163,0.038-1.248,0.45-1.665,0.487s-1.485-0.207-1.826-0.203   c-0.341,0.005-1.262-0.788-1.544-0.806c-0.281-0.018-0.203-0.342-0.322-0.345s-0.355-0.081-0.257-0.169s0.286-0.374,0.2-0.396   c-0.085-0.023-0.22-0.17-0.104-0.266c0.117-0.097,0.744-0.45,0.812-0.471s0.325-0.182,0.387-0.268   c0.062-0.086-0.275-0.129-0.427-0.122s-0.555-0.081-0.529-0.175s0.529-0.788,0.659-0.877c0.131-0.09,0.511-0.464,0.553-0.627   c0.043-0.163,0.071-0.695-0.027-0.794c-0.098-0.099,0.07-0.776,0.186-0.975c0.114-0.198,0.799-0.903,0.972-1.151   c0.173-0.247,0.595-1.095,0.558-1.3s-0.104-1.044-0.059-1.382c0.045-0.337,0.499-2.082,0.66-2.649   c0.162-0.567,0.675-2.622,0.731-3.188s-0.284-2.2-0.532-2.598c-0.249-0.398-2.226-1.274-2.798-1.459s-1.465-0.615-1.826-0.84   s-1.503-1.317-1.788-1.703c-0.284-0.387-1.137-2.075-1.619-2.468s-1.257-1.458-1.172-1.761c0.085-0.304,1.138-2.479,1.082-3.051   c-0.055-0.573-0.021-2.418,0.198-2.654s1.855-2.153,2.305-2.761s0.704-2.521,0.525-3.306c-0.179-0.783-1.999-1.797-2.097-1.523   c-0.099,0.273-0.794,0.872-1.324,0.722s-3.383-1.343-3.902-1.531c-0.519-0.188-2.025-2.018-2.433-2.546s-2.306-1.296-3.365-1.577   c-1.061-0.281-5.067-1.191-6.517-1.374c-1.45-0.184-4.75-1.017-5.586-1.34s-3.341-2.303-3.393-3.068   c-0.052-0.766-0.899-2.46-1.449-3.165s-2.869-4.339-3.547-5.377c-0.678-1.038-2.225-2.364-2.193-1.812s1.119,3.063,1.476,3.784   c0.356,0.722,1.039,2.416,1.195,2.757c0.155,0.341,0.517,0.683,0.373,0.784c-0.143,0.103-0.882,0.077-1.324-0.281   c-0.442-0.359-1.663-2.329-1.98-2.875c-0.317-0.546-1.048-1.64-1.001-2.058s0.161-1.05-0.164-1.375   c-0.325-0.325-1.022-2.582-1.155-3.212c-0.132-0.63-0.918-2.466-1.459-2.688s-2.041-1.244-2.163-1.792   c-0.122-0.547-0.302-2.742-0.45-2.902s-0.486-0.71-0.569-0.854c-0.083-0.144-0.237-1.465-0.16-2.765   c0.076-1.3,0.643-4.438,0.906-5.312s1.583-4.077,1.64-4.353s0.119-1.635,0.255-1.778c0.137-0.143,0.304-0.863,0.067-1.285   c-0.237-0.422-2.156-1.414-2.092-1.743c0.064-0.33,0.583-0.983,0.759-1.121c0.176-0.138,0.549-1.063,0.438-1.813   c-0.111-0.75-1.356-2.485-1.485-2.387c-0.129,0.099-0.501,0.689-0.539,1.093c-0.039,0.403-0.241,1.209-0.369,0.872   c-0.128-0.338,0.146-1.549,0.352-1.843s1.268-0.709,1.282-0.854s-0.073-0.582-0.225-0.654c-0.153-0.072-0.561-0.755-0.573-1.362   s-0.446-1.994-0.379-2.36c0.067-0.366,0.112-1.052-0.092-1.341s-0.887-1.22-1.433-1.558c-0.546-0.338-2.719-0.801-2.614-0.996   s0.28-0.709,0.15-0.722c-0.13-0.012-1.204,0.643-2.101,1.48c-0.896,0.837-2.993,1.763-3,1.658c-0.008-0.104-0.177-0.284-0.361-0.17   s-0.746,0.803-0.892,1.026c-0.146,0.223-0.745,1.115-1.119,1.525c-0.373,0.411-2.23,2.098-2.912,2.786   c-0.683,0.688-2.835,3.095-3.395,3.719c-0.56,0.624-1.66,1.518-1.588,1.346c0.071-0.171,0.632-1.056,1.083-1.585   c0.451-0.53,1.494-1.661,1.774-1.965c0.281-0.305,1.589-1.819,1.997-2.296c0.409-0.477,1.446-1.814,1.419-1.936   c-0.026-0.121-0.463-0.27-0.913-0.068c-0.45,0.202-1.037,0.041-0.936-0.234s0.281-1.224,0.144-1.412   c-0.137-0.188-0.397-0.74-0.291-0.827c0.106-0.087,0.437-0.438,0.495-0.588s0.004-0.334-0.034-0.358s0.257-0.649,0.739-1.336   c0.482-0.687,1.936-1.902,2.426-2.113c0.49-0.21,1.743-0.985,2.085-1.323c0.342-0.339,0.295-0.822,0.167-0.828   c-0.128-0.006-0.832,0.244-1.037,0.333c-0.206,0.089-0.63,0.036-0.688-0.233c-0.058-0.27,0.887-1.727,1.285-1.958   s1.47-0.967,1.665-1.006s0.679-0.042,0.634,0.077c-0.045,0.119-0.071,0.491-0.006,0.541c0.065,0.05,0.953-0.467,1.206-0.72   s0.351-0.583,0.281-0.607s-0.192-0.217-0.119-0.377c0.073-0.16,0.538-0.987,0.708-1.211c0.169-0.225,1.021-0.689,1.365-0.828   s2.319-0.88,2.89-1.087s1.666-0.606,1.893-0.655c0.227-0.049,1.383-0.334,2.062-0.529c0.679-0.195,1.864-0.279,2.213-0.251   c0.349,0.029,1.977,0.162,2.521,0.208c0.544,0.046,2.54,0.227,2.843,0.232c0.304,0.005,1.541,0.266,1.876,0.351   c0.336,0.086,1.155,0.105,1.501,0.024c0.346-0.082,2.393-0.632,3-0.762c0.607-0.131,2.021-0.153,2.325-0.208   c0.304-0.055,1.099-0.15,1.096-0.097c-0.003,0.053,0.354,0.276,0.8,0.369c0.446,0.093,3.109,1.056,3.81,1.269   c0.701,0.212,2.485,0.315,2.56,0.275c0.076-0.041-0.012-0.287-0.361-0.459c-0.35-0.172-0.901-0.664-0.848-0.732   c0.054-0.068,0.98-0.295,1.054-0.329c0.073-0.034,0.016-0.246-0.286-0.398c-0.303-0.152-0.681-0.564-1.306-0.661   c-0.625-0.098-2.099,0.045-2.291-0.121c-0.192-0.166,0.327-0.525,0.829-0.729s1.981-0.476,2.033-0.534   c0.052-0.059,0.439-0.142,0.716-0.153s1.482-0.009,2.065,0.027c0.582,0.036,1.65,0.238,1.543,0.363   c-0.107,0.125-0.054,0.326,0.085,0.364s1.124,0.185,1.03,0.229c-0.093,0.044-0.028,0.224,0.357,0.293s1.301-0.023,1.721-0.149   c0.421-0.126,1.692-0.426,1.938-0.438c0.246-0.012,0.924,0.136,1.051,0.198c0.127,0.062-0.125,0.524-0.322,0.882   C72.079,7.562,71.776,8.845,72,9.07c0.225,0.225,0.771,0.86,0.581,0.85s-0.74,0.048-0.794,0.145   c-0.055,0.098-0.593,0.306-1.068,0.239c-0.477-0.067-1.899-0.17-2.091-0.028c-0.191,0.141,0.424,0.67,1.164,0.985   c0.74,0.314,3.101,0.549,3.327,0.431c0.228-0.118,0.559-0.49,0.613-0.59c0.054-0.1,0.571-0.512,1.017-0.735   c0.445-0.224,1.097-0.817,1.058-1.012s-0.494-1.091-0.41-1.149c0.085-0.058,0.174-0.473,0.012-0.797   c-0.162-0.325,0.769-1.04,0.939-1.029s0.703,0.081,0.806,0.128c0.103,0.047,0.481,0.166,0.585,0.192   c0.104,0.026,0.904,0.18,1.623,0.327c0.718,0.147,2.086,0.46,2.01,0.569c-0.075,0.108-0.535,0.292-0.721,0.316   s-1.155,0.041-1.41,0.088c-0.254,0.047-0.376,0.955-0.232,1.364c0.144,0.408,0.279,1.168,0.16,1.234   c-0.118,0.066-0.397,0.339-0.348,0.453s0.858,0.466,1.11,0.557s0.705,0.399,0.82,0.567c0.115,0.168,0.304,1.017,0.528,1.071   c0.224,0.054,0.818-0.31,0.959-0.453c0.142-0.143,0.441-0.51,0.508-0.598c0.065-0.087,0.249-0.309,0.297-0.37   c0.047-0.062-0.132-0.412-0.49-0.611c-0.357-0.2-1.418-0.482-1.451-0.585c-0.034-0.104-0.049-0.392,0.043-0.417   s0.197-0.233,0.035-0.407c-0.161-0.174-0.367-0.467-0.406-0.529c-0.04-0.062,0.039-0.421,0.389-0.618   c0.349-0.196,1.245-0.544,1.648-0.619c0.404-0.075,1.786,0.248,1.819,0.313s0.542,0.286,1.06,0.341s2.197,0.799,2.634,1.128   c0.437,0.33,1.465,1.998,1.733,2.19c0.27,0.192,1.131,0.701,1.14,0.885s0.705,0.779,0.812,0.794   c0.107,0.015,0.597,0.359,0.855,0.729s0.67,1.717,0.582,1.751c-0.087,0.034-0.143,0.399,0.078,0.732   c0.22,0.333,0.849,0.717,0.898,0.964c0.049,0.247,0.802,1.397,0.903,1.443s0.227,0.438,0.056,0.765   c-0.171,0.327-0.579,0.982-0.686,0.964c-0.105-0.018-0.65-0.727-0.804-0.943s-0.487-0.451-0.622-0.474s-0.216,0.38,0.122,0.947   c0.338,0.566,0.828,1.716,0.771,2.068c-0.057,0.353-1.132,0.663-1.18,0.706c-0.048,0.042-0.35,0.004-0.566-0.181   s-1.167-1.278-1.446-1.586s-1.194-1.041-1.584-1.38c-0.39-0.338-1.092-1.025-1.428-0.878s-1.432-0.83-1.46-0.975   c-0.028-0.145,0.013-0.542,0.155-0.567c0.144-0.025,1.095,0.134,1.252,0.277c0.157,0.144,0.682,0.306,0.823,0.035   c0.142-0.271,0.467-0.795,0.637-0.955s0.603-0.794,0.595-1.075c-0.008-0.281-0.928-1.371-1.272-1.69s-1.215-1.172-1.204-1.234   c0.01-0.063-0.12-0.228-0.315-0.23c-0.195-0.003-0.944-0.325-1.024-0.385c-0.081-0.06-0.405-0.256-0.545-0.305   s-0.54-0.035-0.627-0.009c-0.086,0.026-0.086,0.279-0.031,0.463s0.103,0.723-0.014,0.768c-0.115,0.045-0.359,0.587-0.281,1.099   c0.079,0.511-0.583,0.983-1.062,0.902c-0.479-0.081-1.723-0.138-1.789,0.014c-0.065,0.153,0.604,0.859,0.832,1.062   c0.228,0.203,0.829,0.816,1.287,1.113c0.459,0.297,1.041,0.747,0.951,0.816s-0.264,0.309-0.182,0.38   c0.083,0.072,0.087,0.224-0.174,0.179s-1.569-0.605-1.941-0.716c-0.372-0.111-1.118,0.269-1.27,0.25   c-0.152-0.019-0.506-0.417-0.445-0.843s0.833-1.616,0.779-1.703c-0.055-0.088-0.512-0.255-0.896-0.181   c-0.384,0.074-1.882,0.902-2.283,1.154s-1.045,0.653-1.103,0.794c-0.059,0.141-0.754,0.779-1.418,1.098s-2.024,1.606-2.189,2.052   c-0.164,0.446-0.524,1.86-0.419,2.103c0.105,0.243,0.396,1.034,0.41,1.209c0.014,0.174,0.447,0.785,0.931,0.963   c0.482,0.178,2.186,1.227,2.989,1.813c0.804,0.586,2.957,2.396,3.042,2.66c0.086,0.264,0.392,2.4,0.529,2.872   s1.148,0.801,1.338,0.669c0.19-0.133,0.42-1.645,0.438-2.102c0.019-0.456,0.431-1.434,0.95-1.836   c0.519-0.402,1.894-1.798,1.866-2.183c-0.027-0.384-1.216-1.496-1.238-1.667s0.152-0.776,0.435-0.966s0.695-0.985,0.633-1.523   c-0.062-0.538-0.039-2.047,0.094-2.138c0.132-0.09,1.283,0.271,1.668,0.432s1.529,0.859,1.771,1.248s0.796,0.877,0.921,0.877   s0.57,0.133,0.719,0.293c0.147,0.16,0.372,1.087,0.175,1.7c-0.197,0.614,0.662,1.702,1.128,1.805   c0.465,0.103,1.316-1.061,1.336-1.376c0.019-0.316,0.39-0.117,0.567,0.358c0.178,0.475,1,3.531,1.325,4.427   c0.326,0.896,1.644,2.559,1.676,2.933s0.667,2.401,0.758,3.216c0.09,0.815,0.452,2.548,0.602,2.703   c0.149,0.155,0.779,0.823,0.834,1.257s0.071,1.673-0.078,1.781c-0.148,0.107-0.267,0.496-0.296,0.38s-0.213-0.47-0.338-0.527   s-0.636-0.042-0.62-0.146c0.017-0.104-0.056-0.542-0.195-0.745s-0.85-0.535-1.07-0.607s-0.444-0.76-0.12-1.276   c0.324-0.517,1.094-1.956,1.087-2.027c-0.006-0.071-0.051-0.324-0.081-0.403s-0.508-0.125-0.988,0.077   c-0.48,0.201-2.045,0.735-2.247,0.646c-0.202-0.089-1.578-0.767-1.977-0.885s-0.724,0.582-0.498,0.75   c0.227,0.168,0.975,0.63,1.079,0.761c0.104,0.131,0.282,0.554,0.165,0.646c-0.116,0.093-0.287,0.489-0.116,0.669   c0.171,0.179,1.005,0.843,1.274,1.042c0.27,0.199,1.104,1.045,1.188,1.419c0.082,0.374-0.379,0.853-0.783,0.939   c-0.403,0.086-1.746,0.544-2.006,0.793s-0.996,0.052-1.33-0.223c-0.333-0.275-2.114-0.449-2.357-0.253   c-0.244,0.195-0.771,1.308-0.884,1.665s-0.533,1.24-0.801,1.229s-1.279,0.232-1.642,0.561s-1.445,2.167-1.733,2.751   s-0.98,2.459-1.011,2.991c-0.029,0.531-0.853,1.796-1.469,2.215c-0.615,0.418-2.251,1.567-2.669,1.912s-1.59,1.945-1.813,2.402   c-0.225,0.457,0.597,2.588,1.416,4.146c0,0,0,0,0,1.331c0,0.337,0,0.337,0,0.337c-0.068,0.3-0.208,0.617-0.309,0.705   s-0.896-0.224-1.17-0.526c-0.272-0.303-1.186-1.584-1.416-2.171c-0.23-0.586-1.058-2.198-1.314-2.275   c-0.258-0.077-0.98-0.395-1.193-0.522s-1.667-0.516-2.598-0.277c-0.932,0.239-2.504,1.727-3.501,1.646s-3.406,0.107-4.268,0.351   c-0.862,0.243-3.037,3.576-3.735,5.662c0,0-0.346,1.032-0.346,2.229c0,0.509,0,0.509,0,0.509c0,0.566,0.141,1.318,0.312,1.671   s0.705,1.447,0.964,1.723s2.382,0.783,3.081,0.83s2.497-0.503,2.691-0.7c0.194-0.198,0.885-1.546,1.093-1.923   s1.006-0.855,1.235-0.918c0.229-0.062,0.969-0.29,1.211-0.366c0.242-0.075,1.15-0.167,1.173,0.062s-0.413,2.034-0.536,2.531   c-0.124,0.496-1.245,1.94-1.418,2.508c-0.172,0.567,1.618,1.366,2.283,1.309s2.511-0.152,2.649-0.074   c0.139,0.079,0.378,0.947,0.224,1.754c-0.155,0.806-0.174,2.649-0.021,3.103c0.151,0.453,2.018,0.96,2.745,0.699   s2.476-0.356,2.907-0.282c0.432,0.075,1.864-0.559,2.795-1.356c0.932-0.798,2.71-2.553,3.176-2.444   c0.466,0.109,2.832,0.324,2.9,0.481s0.612,0.506,1.057,0.429c0.445-0.077,1.982-0.416,2.482-0.574   c0.501-0.159,1.537-0.552,1.577-0.721c0.04-0.17,0.25-0.542,0.38-0.449c0.13,0.094,0.145,0.81,0.127,1.034   c-0.019,0.225,0.399,1.075,0.81,1.562s1.493,1.227,1.806,1.304c0.312,0.076,1.554-0.01,1.862,0.125s1.281,1.809,1.278,2.123   c-0.004,0.314,0.416,1.177,0.941,1.222c0.526,0.045,1.271,0.421,1.383,0.366c0.111-0.054,0.6-0.566,0.719-0.701   c0.12-0.136,0.366-0.107,0.459-0.035C102.896,84.694,102.973,85.905,102.949,86.24z M93.49,73.909   c-0.011,0.329-0.119,0.448-0.241,0.264s-0.337-0.845-0.201-1.053C93.184,72.913,93.501,73.579,93.49,73.909z M90.076,72.218   c-0.396,0.138-1.197,0.202-0.857-0.162c0.341-0.364,1.287-0.409,1.391-0.295S90.474,72.08,90.076,72.218z M79.55,71.355   c-0.219-0.07-1.31-0.951-1.644-1.22c-0.333-0.269-1.74-0.679-2.52-0.757s-2.627,0.117-2.012-0.345   c0.615-0.463,3.881-0.825,4.42-0.593s2.432,0.997,3.039,1.192s2.167,1.056,2.164,1.234s-0.457,0.368-1.01,0.422   C81.435,71.344,79.769,71.426,79.55,71.355z M80.527,73.434c-0.058,0.163-0.652,0.568-0.842,0.655   c-0.189,0.086-0.571,0.033-0.656-0.138c-0.086-0.171,0.621-0.715,0.971-0.75C80.349,73.166,80.586,73.271,80.527,73.434z    M79.275,63.851c0.482-0.031,0.963-0.062,1.438-0.093C79.919,64.142,79.434,64.174,79.275,63.851z M79.75,66.8   c-0.002,0.408-0.074,0.488-0.161,0.177s-0.244-1.216-0.155-1.312C79.522,65.568,79.752,66.391,79.75,66.8z M81.453,65.728   c0.407,0.265,1.005,1.452,1.045,1.766c0.039,0.312-0.204,0.147-0.541-0.366C81.619,66.613,81.045,65.463,81.453,65.728z    M82.911,72.054c0.352-0.503,4.476-0.939,4.69-0.51c0.215,0.431-0.255,0.893-1.043,1.027c-0.788,0.134-2.051,0.6-2.629,0.62   S82.56,72.558,82.911,72.054z M103.025,83.868c-0.006,0.087-0.034-0.007-0.047-0.07c-0.012-0.062-0.016-0.183-0.009-0.268   s0.052-0.15,0.059-0.09C103.035,83.502,103.03,83.781,103.025,83.868z"/><path d="M77.699,41.569c0.05,0.171,0.26,0.798,0.357,1.013c0.097,0.214,0.488,0.644,0.656,0.473s0.596-0.79,0.587-1.002   c-0.009-0.213,0.301-0.989,0.425-1.071c0.125-0.082,0.084-0.221-0.092-0.309c-0.175-0.088-0.819-0.356-1.039-0.402   c-0.221-0.046-0.871-0.133-0.957-0.092c-0.086,0.042-0.27,0.291-0.217,0.46C77.472,40.809,77.648,41.398,77.699,41.569z"/><path d="M57.341,12.109c-0.083-0.006-0.461-0.144-0.664-0.219c-0.204-0.075-0.8-0.296-0.88-0.333s-0.424-0.086-0.588-0.027   c-0.164,0.058-0.533,0.245-0.454,0.282s0.318,0.246,0.354,0.379c0.036,0.133,0.267,0.481,0.431,0.467   c0.165-0.014,1.251-0.104,1.499-0.123c0.247-0.019,0.483-0.085,0.524-0.146C57.604,12.327,57.423,12.115,57.341,12.109z"/></g></svg>