<svg height="128" viewBox="0 0 128 128" width="128" xmlns="http://www.w3.org/2000/svg">
  <path fill="#ff0000" d="M72.259 38.978c.148.021.797-.38 1.041-.506s.979.295 1.208.38 1.28-.13 1.45-.295c.17-.166.192-.507.049-.759s-.709-.947-.935-.991c-.225-.044-.969-.158-1.147-.159s-.724.1-.81.225c-.085.125-.345.559-.386.685s-.3.494-.481.538c-.181.043-.628.281-.588.428s.45.433.599.454zM74.428 41.097c-.13.172-.572 1.036-.692 1.535-.12.499.012 2.559.237 2.423.226-.136.81-.779.799-1.129-.011-.35.102-1.443.275-1.66s.969-1.123 1.098-1.25c.128-.127-.023-.232-.336-.233-.312-.001-1.25.142-1.381.314z"/>
  <path fill="#ff0000" d="M87.878 4.622c-.026 0-.293-.108-.849-.334A63.783 63.783 0 0 0 64 0C28.654 0 0 28.654 0 64c0 35.347 28.654 64 64 64 35.346 0 64-28.653 64-64 0-26.902-16.607-49.912-40.122-59.378zm-4.802 1.656c.146.16 1.074.425 1.412.481.339.057 2.473.523 2.654.659s.362.448.401.692c.039.245-1.719.042-2.532-.18-.814-.222-3.471-1.203-3.654-1.373s.037-.725.421-.719c.384.007 1.151.28 1.298.44zm-5.875-1.583c.193-.01 1.237-.052 1.559-.055.32-.002 1.179.073 1.333.073s1.465.086 1.528.165c.064.079.004.163-.134.188s-.703.045-.88.033c-.178-.012-.589-.131-.475-.158.115-.027.259-.108.168-.122a5.473 5.473 0 0 0-.537-.042c-.114.003-.417.065-.419.133-.002.067-1.258.024-1.524-.052-.268-.076-1.187-.138-1.117-.144.068-.008.305-.009.498-.019zm-4.979.13c.531-.002.991-.01 1.001-.011l.708-.018c.146-.003.542-.009.626-.008.083.001.098.01.033.018-.065.008-1.856.101-2.477.101s-.423-.079.109-.082zm-6.501.218c.182-.004.916-.024 1.232-.037.315-.012.872-.026.973-.027.1-.001.491-.004.748-.011.171-.005.604-.02.914-.032l-.1-.004c-.172-.006.082-.026.209-.028.127-.002.339.007.217.017l-.326.016c.234.01.706.035.883.04.202.004.832.106.916.088.083-.019.609-.108.801-.127.192-.02.917.005.974.033.057.027.372.137.578.159s1.114-.007 1.351-.031c.235-.023.599-.102.695-.083.096.02.47.082.617.087.148.005 1.246.061 1.562.082s.801.099.901.139c.101.04-.015.235-.073.294-.059.059.196.256.492.355.296.099 1.132.628.947.654s-.472.002-.639-.051c-.167-.054-.896-.332-1.132-.409-.236-.077-1.123-.247-1.348-.294s-1.176-.373-1.455-.46c-.278-.086-.992-.208-1.084-.204s-.244.053-.135.103c.108.049-.14.166-.258.19-.119.024-1.206.056-2.27.077s-2.958-.071-3.58-.165c-.623-.093-1.512-.348-1.658-.352s-.625-.01-.74-.013c-.086-.002-.285-.003-.391-.004a.727.727 0 0 1-.067-.001l.067.001c.043 0 .099 0 .179-.002zm-52.565 36.27c-.009.027-.011.054-.011-.008s.018-.136.021-.102-.001.083-.01.11zm.211-1.263c-.027.087-.07.178-.052.007.018-.171.109-.616.105-.456s-.026.362-.053.449zm1.704-3.744c-.396.745-1.131 2.144-1.107 1.946s.142-.502.17-.522c.029-.02.219-.389.355-.777.136-.388.589-1.23.759-1.579s.484-.594.505-.533c.022.06-.285.72-.682 1.465zm73.252 85.833c-.253.126-1.378.228-1.232.1s1.444-.466 1.608-.49c.164-.026-.122.265-.376.39zm14.626-35.899a59.387 59.387 0 0 1-.184 1.911c-.079.717-.553 4.61-.81 6.39s-.806 4.162-.979 4.402-.881 1.237-1.128 1.693c-.246.456-.88 1.484-1.112 1.806s-.81 1.846-.763 1.884-.157.857-.562 1.738c-.404.881-1.234 2.521-1.337 2.609s-.431.475-.498.664-.479 1.25-.82 1.624-1.835 1.689-1.853 1.821-.202.772-.371 1.136c-.17.364-1.824 1.766-2.025 1.85-.202.085-.812.407-.896.533-.084.125-.661.998-.914 1.059-.254.06-.932.444-1.026.541-.095.098-.19.333-.001.314s.678 0 .679.08-.518.426-.688.515-.479.332-.552.497c-.073.164-1.095.892-1.393 1.082-.297.19-.394.485-.234.51s.27.323-.104.607c-.372.285-1.368.965-1.366 1.045s.046.312.103.362c.058.05.627.623.838.605.211-.019.812.205.65.243-.163.038-1.248.45-1.665.487s-1.485-.207-1.826-.203c-.341.005-1.262-.788-1.544-.806-.281-.018-.203-.342-.322-.345s-.355-.081-.257-.169.286-.374.2-.396c-.085-.023-.22-.17-.104-.266.117-.097.744-.45.812-.471s.325-.182.387-.268c.062-.086-.275-.129-.427-.122s-.555-.081-.529-.175.529-.788.659-.877c.131-.09.511-.464.553-.627.043-.163.071-.695-.027-.794-.098-.099.07-.776.186-.975.114-.198.799-.903.972-1.151.173-.247.595-1.095.558-1.3s-.104-1.044-.059-1.382c.045-.337.499-2.082.66-2.649.162-.567.675-2.622.731-3.188s-.284-2.2-.532-2.598c-.249-.398-2.226-1.274-2.798-1.459s-1.465-.615-1.826-.84-1.503-1.317-1.788-1.703c-.284-.387-1.137-2.075-1.619-2.468s-1.257-1.458-1.172-1.761c.085-.304 1.138-2.479 1.082-3.051-.055-.573-.021-2.418.198-2.654s1.855-2.153 2.305-2.761.704-2.521.525-3.306c-.179-.783-1.999-1.797-2.097-1.523-.099.273-.794.872-1.324.722s-3.383-1.343-3.902-1.531c-.519-.188-2.025-2.018-2.433-2.546s-2.306-1.296-3.365-1.577c-1.061-.281-5.067-1.191-6.517-1.374-1.45-.184-4.75-1.017-5.586-1.34s-3.341-2.303-3.393-3.068c-.052-.766-.899-2.46-1.449-3.165s-2.869-4.339-3.547-5.377c-.678-1.038-2.225-2.364-2.193-1.812s1.119 3.063 1.476 3.784c.356.722 1.039 2.416 1.195 2.757.155.341.517.683.373.784-.143.103-.882.077-1.324-.281-.442-.359-1.663-2.329-1.98-2.875-.317-.546-1.048-1.64-1.001-2.058s.161-1.05-.164-1.375c-.325-.325-1.022-2.582-1.155-3.212-.132-.63-.918-2.466-1.459-2.688s-2.041-1.244-2.163-1.792c-.122-.547-.302-2.742-.45-2.902s-.486-.71-.569-.854c-.083-.144-.237-1.465-.16-2.765.076-1.3.643-4.438.906-5.312s1.583-4.077 1.64-4.353.119-1.635.255-1.778c.137-.143.304-.863.067-1.285-.237-.422-2.156-1.414-2.092-1.743.064-.33.583-.983.759-1.121.176-.138.549-1.063.438-1.813-.111-.75-1.356-2.485-1.485-2.387-.129.099-.501.689-.539 1.093-.039.403-.241 1.209-.369.872-.128-.338.146-1.549.352-1.843s1.268-.709 1.282-.854-.073-.582-.225-.654c-.153-.072-.561-.755-.573-1.362s-.446-1.994-.379-2.36c.067-.366.112-1.052-.092-1.341s-.887-1.22-1.433-1.558c-.546-.338-2.719-.801-2.614-.996s.28-.709.15-.722c-.13-.012-1.204.643-2.101 1.48-.896.837-2.993 1.763-3 1.658-.008-.104-.177-.284-.361-.17s-.746.803-.892 1.026c-.146.223-.745 1.115-1.119 1.525-.373.411-2.23 2.098-2.912 2.786-.683.688-2.835 3.095-3.395 3.719-.56.624-1.66 1.518-1.588 1.346.071-.171.632-1.056 1.083-1.585.451-.53 1.494-1.661 1.774-1.965a180.5 180.5 0 0 0 1.997-2.296c.409-.477 1.446-1.814 1.419-1.936-.026-.121-.463-.27-.913-.068s-1.037.041-.936-.234.281-1.224.144-1.412c-.137-.188-.397-.74-.291-.827.106-.087.437-.438.495-.588s.004-.334-.034-.358.257-.649.739-1.336 1.936-1.902 2.426-2.113c.49-.21 1.743-.985 2.085-1.323.342-.339.295-.822.167-.828-.128-.006-.832.244-1.037.333-.206.089-.63.036-.688-.233-.058-.27.887-1.727 1.285-1.958s1.47-.967 1.665-1.006.679-.042.634.077c-.045.119-.071.491-.006.541.065.05.953-.467 1.206-.72s.351-.583.281-.607-.192-.217-.119-.377c.073-.16.538-.987.708-1.211.169-.225 1.021-.689 1.365-.828s2.319-.88 2.89-1.087 1.666-.606 1.893-.655a50.47 50.47 0 0 0 2.062-.529c.679-.195 1.864-.279 2.213-.251.349.029 1.977.162 2.521.208.544.046 2.54.227 2.843.232.304.005 1.541.266 1.876.351.336.086 1.155.105 1.501.024.346-.082 2.393-.632 3-.762.607-.131 2.021-.153 2.325-.208.304-.055 1.099-.15 1.096-.097-.003.053.354.276.8.369.446.093 3.109 1.056 3.81 1.269.701.212 2.485.315 2.56.275.076-.041-.012-.287-.361-.459-.35-.172-.901-.664-.848-.732.054-.068.98-.295 1.054-.329.073-.034.016-.246-.286-.398-.303-.152-.681-.564-1.306-.661-.625-.098-2.099.045-2.291-.121-.192-.166.327-.525.829-.729s1.981-.476 2.033-.534c.052-.059.439-.142.716-.153s1.482-.009 2.065.027c.582.036 1.65.238 1.543.363-.107.125-.054.326.085.364s1.124.185 1.03.229c-.093.044-.028.224.357.293s1.301-.023 1.721-.149c.421-.126 1.692-.426 1.938-.438.246-.012.924.136 1.051.198.127.062-.125.524-.322.882-.197.36-.5 1.643-.276 1.868.225.225.771.86.581.85s-.74.048-.794.145c-.055.098-.593.306-1.068.239-.477-.067-1.899-.17-2.091-.028-.191.141.424.67 1.164.985.74.314 3.101.549 3.327.431.228-.118.559-.49.613-.59.054-.1.571-.512 1.017-.735.445-.224 1.097-.817 1.058-1.012s-.494-1.091-.41-1.149c.085-.058.174-.473.012-.797-.162-.325.769-1.04.939-1.029s.703.081.806.128c.103.047.481.166.585.192.104.026.904.18 1.623.327.718.147 2.086.46 2.01.569-.075.108-.535.292-.721.316s-1.155.041-1.41.088c-.254.047-.376.955-.232 1.364.144.408.279 1.168.16 1.234-.118.066-.397.339-.348.453s.858.466 1.11.557.705.399.82.567c.115.168.304 1.017.528 1.071.224.054.818-.31.959-.453.142-.143.441-.51.508-.598.065-.087.249-.309.297-.37.047-.062-.132-.412-.49-.611-.357-.2-1.418-.482-1.451-.585-.034-.104-.049-.392.043-.417s.197-.233.035-.407a5.015 5.015 0 0 1-.406-.529c-.04-.062.039-.421.389-.618.349-.196 1.245-.544 1.648-.619.404-.075 1.786.248 1.819.313s.542.286 1.06.341 2.197.799 2.634 1.128c.437.33 1.465 1.998 1.733 2.19.27.192 1.131.701 1.14.885s.705.779.812.794c.107.015.597.359.855.729s.67 1.717.582 1.751c-.087.034-.143.399.078.732.22.333.849.717.898.964.049.247.802 1.397.903 1.443s.227.438.056.765-.579.982-.686.964c-.105-.018-.65-.727-.804-.943s-.487-.451-.622-.474-.216.38.122.947c.338.566.828 1.716.771 2.068-.057.353-1.132.663-1.18.706-.048.042-.35.004-.566-.181s-1.167-1.278-1.446-1.586-1.194-1.041-1.584-1.38c-.39-.338-1.092-1.025-1.428-.878s-1.432-.83-1.46-.975c-.028-.145.013-.542.155-.567.144-.025 1.095.134 1.252.277.157.144.682.306.823.035.142-.271.467-.795.637-.955s.603-.794.595-1.075c-.008-.281-.928-1.371-1.272-1.69s-1.215-1.172-1.204-1.234c.01-.063-.12-.228-.315-.23-.195-.003-.944-.325-1.024-.385-.081-.06-.405-.256-.545-.305s-.54-.035-.627-.009c-.086.026-.086.279-.031.463s.103.723-.014.768c-.115.045-.359.587-.281 1.099.079.511-.583.983-1.062.902-.479-.081-1.723-.138-1.789.014-.065.153.604.859.832 1.062.228.203.829.816 1.287 1.113.459.297 1.041.747.951.816s-.264.309-.182.38c.083.072.087.224-.174.179s-1.569-.605-1.941-.716c-.372-.111-1.118.269-1.27.25-.152-.019-.506-.417-.445-.843s.833-1.616.779-1.703c-.055-.088-.512-.255-.896-.181-.384.074-1.882.902-2.283 1.154s-1.045.653-1.103.794c-.059.141-.754.779-1.418 1.098s-2.024 1.606-2.189 2.052c-.164.446-.524 1.86-.419 2.103.105.243.396 1.034.41 1.209.014.174.447.785.931.963.482.178 2.186 1.227 2.989 1.813.804.586 2.957 2.396 3.042 2.66.086.264.392 2.4.529 2.872s1.148.801 1.338.669c.19-.133.42-1.645.438-2.102.019-.456.431-1.434.95-1.836.519-.402 1.894-1.798 1.866-2.183-.027-.384-1.216-1.496-1.238-1.667s.152-.776.435-.966.695-.985.633-1.523c-.062-.538-.039-2.047.094-2.138.132-.09 1.283.271 1.668.432s1.529.859 1.771 1.248.796.877.921.877.57.133.719.293c.147.16.372 1.087.175 1.7-.197.614.662 1.702 1.128 1.805.465.103 1.316-1.061 1.336-1.376.019-.316.39-.117.567.358.178.475 1 3.531 1.325 4.427.326.896 1.644 2.559 1.676 2.933s.667 2.401.758 3.216c.09.815.452 2.548.602 2.703.149.155.779.823.834 1.257s.071 1.673-.078 1.781c-.148.107-.267.496-.296.38s-.213-.47-.338-.527-.636-.042-.62-.146c.017-.104-.056-.542-.195-.745s-.85-.535-1.07-.607-.444-.76-.12-1.276c.324-.517 1.094-1.956 1.087-2.027-.006-.071-.051-.324-.081-.403s-.508-.125-.988.077c-.48.201-2.045.735-2.247.646-.202-.089-1.578-.767-1.977-.885s-.724.582-.498.75c.227.168.975.63 1.079.761.104.131.282.554.165.646-.116.093-.287.489-.116.669.171.179 1.005.843 1.274 1.042.27.199 1.104 1.045 1.188 1.419.082.374-.379.853-.783.939-.403.086-1.746.544-2.006.793s-.996.052-1.33-.223c-.333-.275-2.114-.449-2.357-.253-.244.195-.771 1.308-.884 1.665s-.533 1.24-.801 1.229-1.279.232-1.642.561-1.445 2.167-1.733 2.751-.98 2.459-1.011 2.991c-.029.531-.853 1.796-1.469 2.215-.615.418-2.251 1.567-2.669 1.912s-1.59 1.945-1.813 2.402c-.225.457.597 2.588 1.416 4.146v1.668c-.068.3-.208.617-.309.705s-.896-.224-1.17-.526c-.272-.303-1.186-1.584-1.416-2.171-.23-.586-1.058-2.198-1.314-2.275-.258-.077-.98-.395-1.193-.522s-1.667-.516-2.598-.277c-.932.239-2.504 1.727-3.501 1.646s-3.406.107-4.268.351c-.862.243-3.037 3.576-3.735 5.662 0 0-.346 1.032-.346 2.229v.509c0 .566.141 1.318.312 1.671s.705 1.447.964 1.723 2.382.783 3.081.83 2.497-.503 2.691-.7c.194-.198.885-1.546 1.093-1.923s1.006-.855 1.235-.918c.229-.062.969-.29 1.211-.366.242-.075 1.15-.167 1.173.062s-.413 2.034-.536 2.531c-.124.496-1.245 1.94-1.418 2.508-.172.567 1.618 1.366 2.283 1.309s2.511-.152 2.649-.074c.139.079.378.947.224 1.754-.155.806-.174 2.649-.021 3.103.151.453 2.018.96 2.745.699s2.476-.356 2.907-.282c.432.075 1.864-.559 2.795-1.356.932-.798 2.71-2.553 3.176-2.444.466.109 2.832.324 2.9.481s.612.506 1.057.429c.445-.077 1.982-.416 2.482-.574.501-.159 1.537-.552 1.577-.721.04-.17.25-.542.38-.449.13.094.145.81.127 1.034-.019.225.399 1.075.81 1.562s1.493 1.227 1.806 1.304c.312.076 1.554-.01 1.862.125s1.281 1.809 1.278 2.123c-.004.314.416 1.177.941 1.222.526.045 1.271.421 1.383.366.111-.054.6-.566.719-.701.12-.136.366-.107.459-.035.092.067.169 1.278.145 1.613zM93.49 73.909c-.011.329-.119.448-.241.264s-.337-.845-.201-1.053c.136-.207.453.459.442.789zm-3.414-1.691c-.396.138-1.197.202-.857-.162.341-.364 1.287-.409 1.391-.295s-.136.319-.534.457zm-10.526-.863c-.219-.07-1.31-.951-1.644-1.22-.333-.269-1.74-.679-2.52-.757s-2.627.117-2.012-.345c.615-.463 3.881-.825 4.42-.593s2.432.997 3.039 1.192 2.167 1.056 2.164 1.234-.457.368-1.01.422c-.552.056-2.218.138-2.437.067zm.977 2.079c-.058.163-.652.568-.842.655-.189.086-.571.033-.656-.138-.086-.171.621-.715.971-.75.349-.035.586.07.527.233zm-1.252-9.583l1.438-.093c-.794.384-1.279.416-1.438.093zm.475 2.949c-.002.408-.074.488-.161.177s-.244-1.216-.155-1.312c.088-.097.318.726.316 1.135zm1.703-1.072c.407.265 1.005 1.452 1.045 1.766.039.312-.204.147-.541-.366-.338-.515-.912-1.665-.504-1.4zm1.458 6.326c.352-.503 4.476-.939 4.69-.51.215.431-.255.893-1.043 1.027-.788.134-2.051.6-2.629.62s-1.369-.633-1.018-1.137zm20.114 11.814c-.006.087-.034-.007-.047-.07-.012-.062-.016-.183-.009-.268s.052-.15.059-.09c.007.062.002.341-.003.428z"/>
  <path fill="#ff0000" d="M77.699 41.569c.05.171.26.798.357 1.013.097.214.488.644.656.473s.596-.79.587-1.002c-.009-.213.301-.989.425-1.071.125-.082.084-.221-.092-.309-.175-.088-.819-.356-1.039-.402-.221-.046-.871-.133-.957-.092-.086.042-.27.291-.217.46.053.17.229.759.28.93zM57.341 12.109c-.083-.006-.461-.144-.664-.219-.204-.075-.8-.296-.88-.333s-.424-.086-.588-.027c-.164.058-.533.245-.454.282s.318.246.354.379c.036.133.267.481.431.467.165-.014 1.251-.104 1.499-.123.247-.019.483-.085.524-.146.041-.062-.14-.274-.222-.28z"/>
</svg>
