<svg viewBox="141.1 141.1 417.8 417.8" xmlns="http://www.w3.org/2000/svg" width="36" height="36">
  <path d="M333.124 284.138c0 27.053-21.933 48.986-48.986 48.986h-94.052c-27.053 0-48.986-21.933-48.986-48.986v-94.052c0-27.053 21.933-48.986 48.986-48.986h94.052c27.053 0 48.986 21.933 48.986 48.986v94.052zm225.776 0c0 27.053-21.935 48.986-48.985 48.986h-94.054c-27.055 0-48.985-21.933-48.985-48.986v-94.052c0-27.053 21.933-48.986 48.985-48.986h94.054c27.053 0 48.985 21.933 48.985 48.986v94.052zM333.124 509.915c0 27.053-21.933 48.985-48.986 48.985h-94.052c-27.053 0-48.986-21.935-48.986-48.985v-94.054c0-27.053 21.933-48.985 48.986-48.985h94.052c27.053 0 48.986 21.933 48.986 48.985v94.054zm225.774-.002c0 27.054-21.934 48.985-48.986 48.985h-94.051c-27.055 0-48.985-21.934-48.985-48.985v-94.052c0-27.053 21.933-48.985 48.985-48.985h94.051c27.055 0 48.986 21.933 48.986 48.985v94.052z" fill="#ff0000"/>
</svg>