<svg height="512" width="512" xmlns="http://www.w3.org/2000/svg">
  <g fill="red">
    <path d="M398.459 364.228c.156-15.562-3.619-39.172-26.911-44.911-35.498-8.744-64.944-22.074-64.944-22.074-3.682-4.915-5.45-13.231-6.252-18.675 8.016-10.825 12.083-23.53 14.074-34.847.729.502 1.563.839 2.483.839 3.357 0 7.872-4.489 12.732-21.865 5.034-17.99 1.97-24.019-2.375-25.54h.001c14.134-68.454-18.155-70.749-18.155-70.749s-4.87-9.476-17.702-16.639c-7.431-4.451-17.379-8.044-30.14-8.044a71.14 71.14 0 0 0-6.219.276c-5.114.245-9.945 1.243-14.48 2.794l-.006.003c-5.803 1.986-11.121 4.877-15.925 8.254a85.363 85.363 0 0 0-16.392 13.704c-7.782 8.043-14.717 18.439-17.724 31.422-2.859 11.026-2.771 22.945 1.495 35.058-.36-.034-.725-.053-1.09-.053-5.513 0-11.166 4.339-5.114 25.971 4.715 16.853 9.104 21.582 12.427 21.852 1.863 12.189 6.057 26.384 15.083 38.218-.762 4.91-2.275 11.792-5.167 16.564-.214.104-30.557 14.818-65.928 23.535-23.346 5.745-27.083 29.458-26.907 45.019a93.088 93.088 0 0 0 .147 5.73l-.027-.007s-.011.749-.005 2.012a179.77 179.77 0 0 0 .13 7.522c42.615 19.65 90.482 30.68 141.074 30.68 50.745 0 98.748-11.1 141.46-30.861.126-3.415.129-6.162.122-7.317.002-.253.002-.483.002-.694.151-2.121.25-4.553.233-7.177z"/>
    <path d="M478.197 289.999c-12.89-6.064-19.449-7.276-19.901-7.519-.388-.208-21.978-5.881-31.883-11.268-2.328-1.492-3.789-2.606-3.789-2.606v-1.51h-.007v-9.203s29.072.891 42.865-13.199c0 0-20.074-5.687-16.467-42.228 3.607-36.542-4.499-68.627-33.868-65.911 0 0-12.732-15.321-38.069-5.687-8.7 3.31-32.043 11.671-30.854 62.303.463 19.72-2.165 31.803-5.546 39.208-2.1 6.383-4.333 11.356-6.775 15.088-.263.402-.53.778-.798 1.151 5.839 4.191 17.572 9.757 38.583 9.571v10.29s-1.461 1.114-3.789 2.606c-9.905 5.387-31.495 11.06-31.883 11.268-.408.219-5.813 1.242-16.345 5.9 10.688 4.358 31.561 12.282 55.076 18.074 21.901 5.396 35.077 23.641 36.872 50.538 21.835-1.912 64.125-7.922 80.147-26.282v-21.344c0 .002-.678-13.176-13.569-19.24zm-339.169 16.333c21.694-5.346 41.627-13.141 53.116-18.034-10.411-4.589-15.754-5.6-16.16-5.818-.388-.208-21.978-5.881-31.883-11.268-2.328-1.492-3.789-2.606-3.789-2.606v-1.51h-.007v-9.203s28.183.854 42.214-12.577a31.866 31.866 0 0 1-.856-1.231c-4.597-2.192-17.959-11.247-14.96-41.62 3.607-36.542-4.499-68.627-33.868-65.911 0 0-12.732-15.321-38.069-5.687-8.7 3.31-32.043 11.671-30.854 62.303 1.188 50.633-17.995 50.93-17.995 50.93s9.889 14.388 43.459 14.09v10.29s-1.461 1.114-3.789 2.606c-9.905 5.387-31.495 11.06-31.883 11.268-.452.242-7.011 1.455-19.901 7.519s-13.569 19.242-13.569 19.242v21.344c16.059 18.404 59.567 24.465 81.926 26.399 1.796-26.897 14.968-45.137 36.868-50.526z"/>
  </g>
</svg>
