<?xml version="1.0" ?><!DOCTYPE svg  PUBLIC '-//W3C//DTD SVG 1.1//EN'  'http://www.w3.org/Graphics/SVG/1.1/DTD/svg11.dtd'><svg enable-background="new 0 0 32 32" height="32px" id="stroke_x5F_01" version="1.1" viewBox="0 0 32 32" width="32px" xml:space="preserve" xmlns="http://www.w3.org/2000/svg" xmlns:xlink="http://www.w3.org/1999/xlink"><path clip-rule="evenodd" d="M16,32C7.164,32,0,24.836,0,16C0,7.163,7.164,0,16,0  s16,7.163,16,16C32,24.836,24.836,32,16,32z M4,16c0,6.627,5.373,12,12,12c0.321,0,0.636-0.023,0.951-0.048  c0.085-0.12,0.178-0.232,0.229-0.376c-0.015,0.038,0.107-0.44,0.04-0.734c-0.144-0.635,0.051-0.805,0.218-1.393  c0.175-0.597,0.158-1.373,0.271-2.02c0.051-0.307,0.139-0.951,0.031-1.241c-0.119-0.328-0.631-0.587-0.863-0.81  c-0.336-0.313-0.515-0.652-0.758-1.042c-0.127-0.193-0.271-0.386-0.365-0.6c-0.212-0.459,0-0.188,0.034-0.457  c0.034-0.263-0.031-0.497,0.068-0.769c0.113-0.302,0.392-0.49,0.48-0.799c0.186-0.683-0.718-0.664-0.718-0.664  c-0.73,0.096-3.254-1.625-3.902-1.966c-0.464-0.245-1.817-0.245-2.003-0.749c-0.164-0.423-0.402-0.621-0.676-0.98  c-0.286-0.357-0.385-0.62-0.809-0.761c-0.252-0.099-0.445-0.225-0.656-0.507c-0.146-0.187-0.388-0.242-0.56-0.403  c-0.605-0.568-0.721-1.323-0.65-2.133c0.025-0.26,0.208-0.536,0.166-0.788c0,0-0.015-0.022-0.04-0.057C4.934,10.728,4,13.252,4,16z   M23.107,6.346c-0.022,0.007-0.055,0.018-0.071,0.023c-0.667,0.234-0.503,1.471-1.386,1.246c-0.413-0.103-0.721-0.398-0.973-0.692  c-1.151-1.364-0.223-0.954,0.088-1.34c0.25-0.314-0.006-0.515-0.308-0.719c-0.692-0.277-1.414-0.495-2.162-0.64  c-0.068,0.379,0.544,0.276,0.536,0.571c-0.013,0.287-0.637,0-0.647,0.138c-0.011,0.219,0.393,0.102,0.393,0.36  c0,0.258-0.67-0.146-1.032-0.398c-0.418-0.286-1.154-0.097-1.154-0.26c0-0.153,0.67-0.276,0.832-0.573C16.82,4.021,16.413,4,16,4  c-0.345,0-0.685,0.023-1.023,0.052c-0.2,0.202-0.4,0.405-0.583,0.577c0.062-0.059-1.096,0.625-1.272,0.981  c-0.399,0.781,0.891,1.03,1.38,1.255c0.221,0.105,0.865,0.249,0.984,0.421c0.164,0.229-0.173,0.649,0.201,0.615  c0.402-0.047,0.412-0.348,0.56-0.846c0.137-0.475,0.302-0.313,0.161-0.784c-0.065-0.22-0.311-0.831-0.096-0.989  c0.283-0.213,0.917,0.005,1.089,0.138c0.704,0.548,0.704,0.622,1.227,0.45c0.456-0.142,0.495,0.1,0.647,0.48  c0.147,0.356,0.286,0.488,0.545,0.717c0.122,0.105,0.651,0.488,0.603,0.723c-0.034,0.158-0.642,0.397-0.8,0.451  c-3.938,1.293-0.663,0.356-0.741,0.272c0.406,0.454,0.635,0.465,1.069,0.134c0.172-0.135,0.298-0.689,0.707-0.322  c0.049,0.049,0.461,0.676,0.311,0.65c-0.486-0.103-0.953-0.091-1.357,0.187c-0.234,0.158-0.441,0.517-0.735,0.478  c-0.332-0.034-0.689-0.091-0.849-0.021c-0.628,0.17-1.456,1.438-1.431,1.393c-0.085,0.155,0.079,0.301,0.042,0.415  c-0.048,0.152-0.268,0.286-0.437,0.405c0.087-0.077-0.378,0.265-0.534,0.514c-0.005-0.029-0.008-0.056-0.011-0.076  c0.003,0.029,0.006,0.056,0.006,0.085c0.002-0.003,0.005-0.006,0.005-0.009c0.054,0.261,0.215,0.869,0.17,1.01  c-0.147,0.462-0.441-0.252-0.56-0.436c-0.407-0.635-1.091-0.351-1.568-0.049c-0.587,0.375-0.544,0.715-0.479,1.347  c0.048,0.438,0.604,0.179,1.084,0.162c0.625-0.017,0.014,0.635-0.04,0.876c-0.054,0.222,0.187,0.094,0.299,0.298  c0.309,0.55,0.822,0.861,1.686,1.273c0.504,0.245,0.225-0.169,0.758-0.34c0.727-0.229,2.248,0.049,3.051,0.723  c0.288,0.243,1.41,0.148,1.51,1.051c0.057,0.403,0.256,0.462,1.026,0.734c0.277,0.101,1.439,0.191,1.819,0.62  c0.211,0.24,0.064,0.635-0.098,0.878c-0.203,0.319-0.514,0.439-0.645,0.813c-0.102,0.296-0.025,0.597-0.084,0.925  c-0.047,0.261-0.83,0.941-0.738,0.895c-0.662,0.33-0.63,0.209-0.984,0.896c-0.107,0.228-0.26,0.377-0.438,0.568  c-0.067,0.073-0.687,0.948-0.721,0.878c-0.048-0.091-0.534,0.09-0.557-0.038c0.017,0.108-0.006,0.073,0.116,0.138  c-0.113,0.72-1.171,0.128-1.088,0.831c-0.173,0.053-0.517,0.859-0.593,1.057c-0.039,0.071-0.121,0.194-0.191,0.305  C23.879,26.646,28,21.804,28,16C28,12.036,26.07,8.531,23.107,6.346z M16.203,11.831c-0.02,0.018-0.06,0.05-0.149,0.119  C16.091,11.912,16.144,11.873,16.203,11.831z M18.594,27.453c0.006-0.012,0.019-0.031,0.022-0.039  C18.571,27.521,18.569,27.517,18.594,27.453z" fill="#FF0000" fill-rule="evenodd"/></svg>
