<?xml version="1.0" ?><svg height="100px" version="1.1" viewBox="0 0 100 100" width="100px" xmlns="http://www.w3.org/2000/svg" xmlns:sketch="http://www.bohemiancoding.com/sketch/ns" xmlns:xlink="http://www.w3.org/1999/xlink"><title/><desc/><defs/><g fill="none" fill-rule="evenodd" id="Page-2" stroke="none" stroke-width="1"><g fill="#000000" id="Lock-Check"><path d="M30,42 L21.9803572,42 C17.5704912,42 14,45.586665 14,50.0110405 L14,85.9889595 C14,90.4258294 17.5729276,94 21.9803572,94 L78.0196428,94 C82.4295088,94 86,90.413335 86,85.9889595 L86,50.0110405 C86,45.5741706 82.4270724,42 78.0196428,42 L70,42 L70,25 C70,14.5042825 61.4914975,6 50.9957277,6 L49.0042723,6 C38.5074446,6 30,14.5065898 30,25 L30,42 L30,42 L30,42 Z M38,42 L62,42 L62,25.9973518 C62,19.363876 56.627417,14 50,14 C43.3860685,14 38,19.3713974 38,25.9973518 L38,42 L38,42 L38,42 Z M22,50 L78,50 L78,86 L22,86 L22,50 L22,50 L22,50 Z M39.5824667,63.1606146 L34,68.8303073 L45.9824667,81 L50.1693167,76.7477305 L66,60.6696927 L60.4175333,55 L45.9824667,69.6606146 L39.5824667,63.1606146 L39.5824667,63.1606146 Z" id="Shape"/></g></g></svg>