<?xml version="1.0" ?><!DOCTYPE svg  PUBLIC '-//W3C//DTD SVG 1.1//EN'  'http://www.w3.org/Graphics/SVG/1.1/DTD/svg11.dtd'><svg enable-background="new 0 0 512 512" height="512px" id="Layer_1" version="1.1" viewBox="0 0 512 512" width="512px" xml:space="preserve" xmlns="http://www.w3.org/2000/svg" xmlns:xlink="http://www.w3.org/1999/xlink"><g><path d="M398.459,364.228c0.156-15.562-3.619-39.172-26.911-44.911c-35.498-8.744-64.944-22.074-64.944-22.074   c-3.682-4.915-5.45-13.231-6.252-18.675c8.016-10.825,12.083-23.53,14.074-34.847c0.729,0.502,1.563,0.839,2.483,0.839   c3.357,0,7.872-4.489,12.732-21.865c5.034-17.99,1.97-24.019-2.375-25.54l0.001,0c14.134-68.454-18.155-70.749-18.155-70.749   s-4.87-9.476-17.702-16.639c-7.431-4.451-17.379-8.044-30.14-8.044c-2.003,0-4.076,0.088-6.219,0.276   c-5.114,0.245-9.945,1.243-14.48,2.794l0,0l-0.006,0.003c-5.803,1.986-11.121,4.877-15.925,8.254   c-5.907,3.786-11.476,8.414-16.392,13.704c-7.782,8.043-14.717,18.439-17.724,31.422c-2.859,11.026-2.771,22.945,1.495,35.058   c-0.36-0.034-0.725-0.053-1.09-0.053c-5.513,0-11.166,4.339-5.114,25.971c4.715,16.853,9.104,21.582,12.427,21.852   c1.863,12.189,6.057,26.384,15.083,38.218c-0.762,4.91-2.275,11.792-5.167,16.564c-0.214,0.104-30.557,14.818-65.928,23.535   c-23.346,5.745-27.083,29.458-26.907,45.019c-0.011,2.048,0.048,3.976,0.147,5.73l-0.027-0.007c0,0-0.011,0.749-0.005,2.012   c-0.006,1.16-0.004,3.997,0.13,7.522c42.615,19.65,90.482,30.68,141.074,30.68c50.745,0,98.748-11.1,141.46-30.861   c0.126-3.415,0.129-6.162,0.122-7.317c0.002-0.253,0.002-0.483,0.002-0.694C398.377,369.284,398.476,366.852,398.459,364.228z" fill="#4D4D4D"/><path d="M478.197,289.999c-12.89-6.064-19.449-7.276-19.901-7.519c-0.388-0.208-21.978-5.881-31.883-11.268   c-2.328-1.492-3.789-2.606-3.789-2.606v-1.51h-0.007v-9.203c0,0,29.072,0.891,42.865-13.199c0,0-20.074-5.687-16.467-42.228   c3.607-36.542-4.499-68.627-33.868-65.911c0,0-12.732-15.321-38.069-5.687c-8.7,3.31-32.043,11.671-30.854,62.303   c0.463,19.72-2.165,31.803-5.546,39.208c-2.1,6.383-4.333,11.356-6.775,15.088c-0.263,0.402-0.53,0.778-0.798,1.151   c5.839,4.191,17.572,9.757,38.583,9.571v10.29c0,0-1.461,1.114-3.789,2.606c-9.905,5.387-31.495,11.06-31.883,11.268   c-0.408,0.219-5.813,1.242-16.345,5.9c10.688,4.358,31.561,12.282,55.076,18.074c21.901,5.396,35.077,23.641,36.872,50.538   c21.835-1.912,64.125-7.922,80.147-26.282v-21.344C491.766,309.241,491.088,296.063,478.197,289.999z" fill="#4D4D4D"/><path d="M139.028,306.332c21.694-5.346,41.627-13.141,53.116-18.034c-10.411-4.589-15.754-5.6-16.16-5.818   c-0.388-0.208-21.978-5.881-31.883-11.268c-2.328-1.492-3.789-2.606-3.789-2.606v-1.51h-0.007v-9.203   c0,0,28.183,0.854,42.214-12.577c-0.288-0.393-0.573-0.804-0.856-1.231c-4.597-2.192-17.959-11.247-14.96-41.62   c3.607-36.542-4.499-68.627-33.868-65.911c0,0-12.732-15.321-38.069-5.687c-8.7,3.31-32.043,11.671-30.854,62.303   C65.1,243.803,45.917,244.1,45.917,244.1s9.889,14.388,43.459,14.09v10.29c0,0-1.461,1.114-3.789,2.606   c-9.905,5.387-31.495,11.06-31.883,11.268c-0.452,0.242-7.011,1.455-19.901,7.519c-12.89,6.064-13.569,19.242-13.569,19.242v21.344   c16.059,18.404,59.567,24.465,81.926,26.399C103.956,329.961,117.128,311.721,139.028,306.332z" fill="#4D4D4D"/></g></svg>