<?xml version="1.0" ?><!DOCTYPE svg  PUBLIC '-//W3C//DTD SVG 1.1//EN'  'http://www.w3.org/Graphics/SVG/1.1/DTD/svg11.dtd'><svg enable-background="new 0 0 512 512" height="512px" id="Layer_1" version="1.1" viewBox="0 0 512 512" width="512px" xml:space="preserve" xmlns="http://www.w3.org/2000/svg" xmlns:xlink="http://www.w3.org/1999/xlink"><g><path clip-rule="evenodd" d="M25.701,0h460.897C500.509,0,512,11.492,512,25.707v460.892   c0,13.91-11.491,25.401-25.401,25.401H25.701C11.492,512,0,500.509,0,486.599V25.707C0,11.492,11.492,0,25.701,0L25.701,0z    M185.686,424.903l13-79.533h84.679l-13.001,79.533h43.549l13.311-79.533h74.696v-43.248h-67.752l14.221-85.284h77.424v-43.249   h-70.479l14.22-86.492h-43.549l-14.199,86.492h-84.689l14.209-86.492h-43.848l-14.209,86.492h-73.187v43.249h66.232l-14.22,85.284   H86.188v43.248h68.95l-13.3,79.533H185.686z M205.951,302.122l13.91-85.284h84.668l-13.909,85.284H205.951z" fill="#010101" fill-rule="evenodd"/></g></svg>