<?xml version="1.0" ?><!DOCTYPE svg  PUBLIC '-//W3C//DTD SVG 1.1//EN'  'http://www.w3.org/Graphics/SVG/1.1/DTD/svg11.dtd'><svg enable-background="new 0 0 16 16" height="16px" version="1.1" viewBox="0 0 16 16" width="16px" xml:space="preserve" xmlns="http://www.w3.org/2000/svg" xmlns:xlink="http://www.w3.org/1999/xlink"><g id="Background_xA0_Image_1_"/><g id="Row_5_1_"><g id="hashtag"><g><path d="M15,10h-3.908l0.857-4H15c0.553,0,1-0.448,1-1c0-0.553-0.447-1-1-1h-2.622l0.567-2.729     C12.971,1.183,13,1.096,13,1c0-0.553-0.447-1-1-1c-0.456,0-0.825,0.312-0.945,0.729L10.337,4H7.378l0.567-2.729     C7.971,1.183,8,1.096,8,1c0-0.553-0.447-1-1-1C6.165,0,6.038,0.726,6.038,0.726L5.337,4H1C0.447,4,0,4.447,0,5     c0,0.552,0.447,1,1,1h3.908l-0.857,4H1c-0.553,0-1,0.447-1,1c0,0.552,0.447,1,1,1h2.622l-0.584,2.726C3.038,14.726,3,14.804,3,15     c0,0.552,0.447,1,1,1c0.456,0,0.825-0.312,0.945-0.729L5.663,12h2.959l-0.567,2.729C8.029,14.817,8,14.904,8,15     c0,0.552,0.447,1,1,1c0.456,0,0.825-0.312,0.945-0.729L10.663,12H15c0.553,0,1-0.448,1-1C16,10.447,15.553,10,15,10z M9.051,10     H6.092l0.857-4h2.959L9.051,10z" fill="#212121"/></g></g></g><g id="Row_4_1_"/><g id="Row_3_1_"/><g id="Row_2_1_"/><g id="Row_1_1_"/></svg>