<?xml version="1.0" ?><!DOCTYPE svg  PUBLIC '-//W3C//DTD SVG 1.1//EN'  'http://www.w3.org/Graphics/SVG/1.1/DTD/svg11.dtd'><svg enable-background="new 0 0 128 128" height="128px" fill="#ff0000" id="Layer_1" version="1.1" viewBox="0 0 128 128" width="128px" xml:space="preserve" xmlns="http://www.w3.org/2000/svg" xmlns:xlink="http://www.w3.org/1999/xlink"><g><path d="M76.422,116.385c-0.073,0-0.146-0.003-0.22-0.008c-1.408-0.103-2.554-1.173-2.753-2.57l-11.57-81.493l-9.51,47.037   c-0.234,1.157-1.126,2.07-2.278,2.331c-1.154,0.261-2.35-0.18-3.06-1.123L33.738,62.88l-8.283,15.148   c-0.526,0.962-1.536,1.561-2.632,1.561H3c-1.657,0-3-1.343-3-3s1.343-3,3-3h18.044l9.662-17.671   c0.489-0.895,1.399-1.479,2.416-1.553c1.004-0.078,2,0.374,2.614,1.189l12.076,16.06l11.644-57.593   c0.29-1.431,1.562-2.449,3.028-2.404c1.46,0.042,2.677,1.13,2.882,2.577l12.08,85.087l12.274-41.659   c0.32-1.086,1.224-1.899,2.338-2.103c1.111-0.206,2.247,0.237,2.931,1.138l12.839,16.932H125c1.657,0,3,1.343,3,3s-1.343,3-3,3   h-18.661c-0.938,0-1.823-0.439-2.391-1.188L93.799,65.016l-14.501,49.217C78.92,115.516,77.742,116.385,76.422,116.385z"/></g></svg>