<svg fill="#ff0000" viewBox="0 0 128 128" xmlns="http://www.w3.org/2000/svg" width="36" height="36">
  <path d="M76.422 116.385a3.002 3.002 0 0 1-2.973-2.578l-11.57-81.493-9.51 47.037a3 3 0 0 1-5.338 1.208L33.738 62.88l-8.283 15.148a3.001 3.001 0 0 1-2.632 1.561H3a3 3 0 1 1 0-6h18.044l9.662-17.671a3 3 0 0 1 5.03-.364l12.076 16.06 11.644-57.593a2.994 2.994 0 0 1 3.028-2.404 2.998 2.998 0 0 1 2.882 2.577l12.08 85.087L89.72 57.622a3 3 0 0 1 5.269-.965l12.839 16.932H125a3 3 0 1 1 0 6h-18.661a3 3 0 0 1-2.391-1.188L93.799 65.016l-14.501 49.217a3 3 0 0 1-2.876 2.152z"/>
</svg>