<svg viewBox="0 0 72 72" xmlns="http://www.w3.org/2000/svg" width="36" height="36">
  <g fill="#ff0000">
    <path d="M36 1.2L1.2 32.1c-.1.1-.2.3-.2.5V39c0 .6.7.9 1.1.5L36 9.4c.3-.3.8-.3 1.1 0l33 30.3c.3.3.9.1.9-.4v-6.7c0-.1-.1-.3-.2-.4l-33.7-31c-.3-.3-.8-.3-1.1 0z"/>
    <path d="M63.2 38.8L37.3 15c-.5-.4-1.2-.4-1.6 0L8.8 38.8c-.3.2-.4.6-.4.9v30.1c0 .6.6 1.2 1.2 1.2h16.8c.4 0 .6-.3.6-.7V45.2c0-.4.3-.7.6-.7H44c.4 0 .6.3.6.7v25.1c0 .4.3.7.6.7H62c.7 0 1.2-.6 1.2-1.2V39.7c.4-.4.2-.7 0-.9z"/>
  </g>
</svg>