<?xml version="1.0" ?><!DOCTYPE svg  PUBLIC '-//W3C//DTD SVG 1.1//EN'  'http://www.w3.org/Graphics/SVG/1.1/DTD/svg11.dtd'><svg enable-background="new 0 0 72 72" id="Layer_1" version="1.1" viewBox="0 0 72 72" xml:space="preserve" xmlns="http://www.w3.org/2000/svg" xmlns:xlink="http://www.w3.org/1999/xlink"><g><path d="M36,1.2L1.2,32.1C1.1,32.2,1,32.4,1,32.6V39c0,0.6,0.7,0.9,1.1,0.5L36,9.4c0.3-0.3,0.8-0.3,1.1,0l33,30.3   c0.3,0.3,0.9,0.1,0.9-0.4v-6.7c0-0.1-0.1-0.3-0.2-0.4L37.1,1.2C36.8,0.9,36.3,0.9,36,1.2z" fill="#010101"/><path d="M63.2,38.8L37.3,15c-0.5-0.4-1.2-0.4-1.6,0L8.8,38.8c-0.3,0.2-0.4,0.6-0.4,0.9v30.1C8.4,70.4,9,71,9.6,71   h16.8c0.4,0,0.6-0.3,0.6-0.7V45.2c0-0.4,0.3-0.7,0.6-0.7h16.4c0.4,0,0.6,0.3,0.6,0.7v25.1c0,0.4,0.3,0.7,0.6,0.7h16.8   c0.7,0,1.2-0.6,1.2-1.2V39.7C63.6,39.3,63.4,39,63.2,38.8z" fill="#010101"/></g></svg>