<svg data-name="Layer 1" viewBox="0 0 32 32" xmlns="http://www.w3.org/2000/svg">
  <path d="M30 0H2a2 2 0 0 0-2 2v28a2 2 0 0 0 2 2h28a2 2 0 0 0 2-2V2a2 2 0 0 0-2-2zM3 4a1 1 0 0 1 1-1h4a1 1 0 0 1 0 2H5v3a1 1 0 0 1-2 0zm5 25H4a1 1 0 0 1-1-1v-4a1 1 0 0 1 2 0v3h3a1 1 0 0 1 0 2zm21-1a1 1 0 0 1-1 1h-4a1 1 0 0 1 0-2h3v-3a1 1 0 0 1 2 0zm-.06-11.65A13.76 13.76 0 0 1 16 25a13.76 13.76 0 0 1-12.94-8.65 1.05 1.05 0 0 1 0-.7A13.76 13.76 0 0 1 16 7a13.76 13.76 0 0 1 12.94 8.65 1.05 1.05 0 0 1 0 .7zM29 8a1 1 0 0 1-2 0V5h-3a1 1 0 0 1 0-2h4a1 1 0 0 1 1 1zm-13 4a4 4 0 1 0 4 4 4 4 0 0 0-4-4z"/>
</svg>
