<svg height="512" viewBox="0 0 512 512" width="512" xmlns="http://www.w3.org/2000/svg">
  <path d="M506.789 246.906l-136.586-85.07c-3.586-2.234-8.203-2.445-12.008-.539-3.805 1.898-6.172 5.602-6.172 9.633V224H159.977v-53.07c0-4.031-2.367-7.734-6.172-9.633-3.805-1.906-8.422-1.695-12.008.539L5.211 246.906C1.953 248.938 0 252.352 0 256c0 3.656 1.953 7.063 5.211 9.094l136.586 85.07c3.586 2.234 8.203 2.445 12.008.547 3.805-1.906 6.172-5.609 6.172-9.641V288h192.046v53.07c0 4.03 2.367 7.733 6.172 9.641 3.806 1.898 8.423 1.688 12.009-.547l136.586-85.07c3.258-2.031 5.211-5.438 5.211-9.094-.001-3.648-1.954-7.062-5.212-9.094z" fill="#4D4D4D"/>
</svg>
