<svg viewBox="0 0 128 128" xmlns="http://www.w3.org/2000/svg" width="36" height="36">
  <g fill="red">
    <path d="M116 32h-4v-4c0-6.617-5.383-12-12-12H12C5.383 16 0 21.383 0 28v56c0 6.617 5.383 12 12 12h4v4c0 6.617 5.383 12 12 12h88c6.617 0 12-5.383 12-12V44c0-6.617-5.383-12-12-12zM12 88c-2.206 0-4-1.794-4-4V28c0-2.206 1.794-4 4-4h88c2.206 0 4 1.794 4 4v4H28c-6.617 0-12 5.383-12 12v44h-4zm108 12c0 2.206-1.794 4-4 4H28c-2.206 0-4-1.794-4-4V44c0-2.206 1.794-4 4-4h88c2.206 0 4 1.794 4 4v56z"/>
    <path d="M82.611 61.104c-.664-1.151-1.536-1.725-2.412-1.725s-1.749.574-2.414 1.725L64.296 84.469c-1.246-2.162-5.787-10.023-5.787-10.023-.663-1.146-1.536-1.721-2.411-1.721-.874 0-1.75.573-2.411 1.721 0 0-5.523 9.57-6.854 11.869l-2.026 3.513c-1.326 2.299-.243 4.174 2.413 4.174h49.562c2.649 0 3.733-1.875 2.413-4.174L82.611 61.104z"/>
    <circle cx="58.5" cy="56.705" r="6.705"/>
  </g>
</svg>
