<svg baseProfile="tiny" height="24" version="1.2" width="24" xmlns="http://www.w3.org/2000/svg">
  <path d="M12 5.511c.561 0 1.119.354 1.544 1.062l5.912 9.854C20.307 17.842 19.65 19 18 19H6c-1.65 0-2.307-1.159-1.456-2.573l5.912-9.854c.425-.708.983-1.062 1.544-1.062m0-2c-1.296 0-2.482.74-3.259 2.031l-5.912 9.856c-.786 1.309-.872 2.705-.235 3.83S4.473 21 6 21h12c1.527 0 2.77-.646 3.406-1.771s.551-2.521-.235-3.83l-5.912-9.854C14.482 4.251 13.296 3.511 12 3.511z"/>
  <path d="M13.5 16.748s-.711.361-1.075.182c-.362-.184-.434-.541-.229-1.152l.406-1.221c.403-1.221-.121-2.076-1.082-2.131-1.258-.07-2.02.826-2.02.826s.71-.365 1.075-.182c.362.184.432.541.229 1.152l-.406 1.221c-.405 1.221.119 2.074 1.082 2.131 1.258.071 2.02-.826 2.02-.826z"/>
  <circle cx="12" cy="10" r="1.301"/>
</svg>
