<svg viewBox="0 0 32 32" xmlns="http://www.w3.org/2000/svg" overflow="visible" width="36" height="36">
  <path d="M28 0H4C1.8 0 0 1.8 0 4v8h32V4c0-2.2-1.8-4-4-4z" fill="#ff0000"/>
  <path d="M2 .6V12h2V0c-.7 0-1.4.2-2 .6z" fill="#ff0000"/>
  <path fill="#ff0000" d="M4 0h2v12H4z"/>
  <path fill="#ff0000" d="M6 0h2v12H6z"/>
  <path fill="#ff0000" d="M8 0h2v12H8z"/>
  <path d="M0 12v16c0 2.2 1.8 4 4 4h24c2.2 0 4-1.8 4-4V12H0z" fill="#ff0000"/>
  <path fill="#ff0000" d="M24.7 12l-2.3-2.4V12z"/>
  <path d="M20 12L9.6 22.4l9.6 9.6H28c2.2 0 4-1.8 4-4v-8.7L24.7 12H20z" fill="#ff0000"/>
  <circle cx="26" cy="6" r="3" fill="#ff0000"/>
  <circle cx="26" cy="6" r="1.5" fill="#ff0000"/>
  <circle cx="26" cy="6" r=".5" fill="#ff0000"/>
  <circle cx="16" cy="16" r="9" fill="#ff0000"/>
  <circle cx="16" cy="16" r="7" fill="#ff0000"/>
  <circle cx="16" cy="16" r="4" fill="#ff0000"/>
  <circle cx="16" cy="16" r="2" fill="#ff0000"/>
  <circle cx="18.5" cy="13.5" r="1.5" fill="#ff0000"/>
</svg>