<?xml version="1.0" ?><!DOCTYPE svg  PUBLIC '-//W3C//DTD SVG 1.1//EN'  'http://www.w3.org/Graphics/SVG/1.1/DTD/svg11.dtd'><svg enable-background="new 0 0 56.693 56.693" height="56.693px" id="Layer_1" version="1.1" viewBox="0 0 56.693 56.693" width="56.693px" xml:space="preserve" xmlns="http://www.w3.org/2000/svg" xmlns:xlink="http://www.w3.org/1999/xlink"><path d="M50.979,23.026h-4.792V12.212l-7.655-7.544H9.817v18.357h-4.79c0,0-0.002,0-0.003,0  c-0.948,0-1.716,0.769-1.716,1.717v27.911c0,0.947,0.768,1.717,1.716,1.717h45.954c0.948,0,1.716-0.77,1.716-1.717V24.743  C52.694,23.794,51.927,23.026,50.979,23.026z M17.568,13.116h9.545c0.379,0,0.687,0.309,0.687,0.688s-0.308,0.686-0.687,0.686  h-9.545c-0.379,0-0.688-0.307-0.688-0.686S17.189,13.116,17.568,13.116z M17.568,18.664h20.867c0.38,0,0.688,0.307,0.688,0.687  c0,0.379-0.308,0.686-0.688,0.686H17.568c-0.379,0-0.688-0.307-0.688-0.686C16.881,18.97,17.189,18.664,17.568,18.664z   M17.568,24.341h20.867c0.38,0,0.688,0.308,0.688,0.687s-0.308,0.687-0.688,0.687H17.568c-0.379,0-0.688-0.308-0.688-0.687  S17.189,24.341,17.568,24.341z M49.263,50.937H6.74V26.458h0.836l20.445,13.757l20.411-13.757h0.83V50.937z" fill="#474A56"/></svg>