<svg viewBox="0 0 56.693 56.693" xmlns="http://www.w3.org/2000/svg" width="36" height="36">
  <path d="M50.979 23.026h-4.792V12.212l-7.655-7.544H9.817v18.357H5.024c-.948 0-1.716.769-1.716 1.717v27.911c0 .947.768 1.717 1.716 1.717h45.954c.948 0 1.716-.77 1.716-1.717v-27.91c0-.949-.767-1.717-1.715-1.717zm-33.411-9.91h9.545a.687.687 0 1 1 0 1.374h-9.545a.688.688 0 1 1 0-1.374zm0 5.548h20.867a.687.687 0 1 1 0 1.373H17.568a.688.688 0 1 1 0-1.373zm0 5.677h20.867a.688.688 0 1 1 0 1.374H17.568c-.379 0-.688-.308-.688-.687s.309-.687.688-.687zm31.695 26.596H6.74V26.458h.836l20.445 13.757 20.411-13.757h.83v24.479z" fill="#ff0000"/>
</svg>