<svg height="78" width="78" xmlns="http://www.w3.org/2000/svg">
  <path d="M60.188 39.031c-1.64-.24-3.161.9-3.397 2.541C55.523 50.367 47.875 57 39 57s-16.523-6.633-17.791-15.428a3 3 0 1 0-5.939.855C16.96 54.156 27.162 63 39 63s22.04-8.844 23.729-20.572a3 3 0 0 0-2.541-3.397zM39 0C17.461 0 0 17.461 0 39s17.461 39 39 39 39-17.461 39-39S60.539 0 39 0zm0 70.5C21.604 70.5 7.5 56.396 7.5 39S21.604 7.5 39 7.5 70.5 21.604 70.5 39 56.396 70.5 39 70.5zm-9-36a4.5 4.5 0 1 0 0-9 4.5 4.5 0 0 0 0 9zm18 0a4.5 4.5 0 1 0 0-9 4.5 4.5 0 0 0 0 9z" fill="#333F4F"/>
</svg>
