<svg id="Layer_1" xmlns="http://www.w3.org/2000/svg" viewBox="0 0 24 24" width="36" height="36">
  <style>.st0{fill:#ff0000}</style>
  <path class="st0" d="M17 7c-.4-.4-1-.4-1.4 0l-8.5 8.5c-.4.4-.4 1 0 1.4.4.4 1 .4 1.4 0L17 8.4c.4-.4.4-1 0-1.4z"/>
  <path class="st0" d="M8.6 22.5l3.5-3.5c1.4-1.4 1.8-3.5 1.1-5.3l-1.7 1.7c0 .8-.2 1.6-.9 2.3l-3.5 3.5c-1.2 1.2-3.1 1.2-4.2 0-1.2-1.2-1.2-3.1 0-4.2l3.5-3.5c.6-.6 1.5-.9 2.3-.9l1.7-1.7c-1.8-.7-3.9-.4-5.3 1.1l-3.5 3.5c-1.9 1.9-1.9 5.1 0 7.1 1.8 1.9 5 1.9 7-.1zM13.5 6.3L17 2.7c1.2-1.2 3.1-1.2 4.2 0s1.2 3.1 0 4.2l-3.5 3.5c-.6.6-1.5.9-2.3.9L13.7 13c1.8.7 3.9.3 5.3-1.1l3.5-3.5c1.9-1.9 1.9-5.1 0-7.1s-5.1-1.9-7.1 0L12 4.7c-1.4 1.4-1.8 3.5-1.1 5.3l1.7-1.7c0-.6.3-1.4.9-2z"/>
</svg>