<svg viewBox="131.226 156.808 434.812 387.655" xmlns="http://www.w3.org/2000/svg" width="36" height="36">
  <path d="M522.97 306.932H317.369c-23.786 0-43.069 19.283-43.069 43.069 0 23.785 19.283 43.069 43.069 43.069H522.97c23.786 0 43.068-19.284 43.068-43.069 0-23.786-19.282-43.069-43.068-43.069z" fill="#ff0000"/>
  <path d="M522.97 163.81H317.369c-23.786 0-43.069 19.283-43.069 43.069 0 23.785 19.283 43.069 43.069 43.069H522.97c23.786 0 43.068-19.284 43.068-43.069 0-23.786-19.282-43.069-43.068-43.069z" fill="#ff0000"/>
  <path d="M522.97 450.053H317.369c-23.786 0-43.069 19.283-43.069 43.069 0 23.785 19.283 43.069 43.069 43.069H522.97c23.786 0 43.068-19.284 43.068-43.069 0-23.786-19.282-43.069-43.068-43.069z" fill="#ff0000"/>
  <circle cx="182.569" cy="349.999" fill="#ff0000" r="50.206"/>
  <circle cx="182.569" cy="206.877" fill="#ff0000" r="50.069"/>
  <circle cx="182.569" cy="493.12" fill="#ff0000" r="51.343"/>
</svg>