<svg xmlns="http://www.w3.org/2000/svg" width="508.5" height="407.76">
   <path d="M172.79 143.04a99.29 99.29 0 0 0 0 121.94 25.46 25.46 0 0 1-40.48 30.8 150.19 150.19 0 0 1 0-183.54 25.46 25.46 0 1 1 41.84 29c-.43.64-.89 1.22-1.36 1.8zM414.12 5.88a25.603 25.603 0 1 0-32.33 39.71c87.45 70.73 101 199 30.26 286.41a203.28 203.28 0 0 1-30.26 30.27 25.521 25.521 0 1 0 32.07 39.71c109.38-88.33 126.45-248.6 38.12-358a254.42 254.42 0 0 0-38.12-38.1zm-363.27 198a203.67 203.67 0 0 1 76.41-158.34A25.68 25.68 0 1 0 94.64 5.88C-14.74 94.16-31.81 254.43 56.52 363.81a254.42 254.42 0 0 0 38.12 38.12 25.695 25.695 0 1 0 32.62-39.71 203.67 203.67 0 0 1-76.41-158.34zm356.41 0a150.12 150.12 0 0 0-31.31-91.9 25.45 25.45 0 0 0-40.47 30.8 99.29 99.29 0 0 1 0 121.94 25.45 25.45 0 0 0 40.47 30.8 150.16 150.16 0 0 0 31.31-91.64zM254.5 152.97a50.91 50.91 0 1 0 50.92 50.91 50.91 50.91 0 0 0-50.92-50.91z"/>
</svg>
