<svg viewBox="0 0 512 512" xmlns="http://www.w3.org/2000/svg" width="36" height="36">
  <path d="M430.896 217H421v-50.946C421 74.342 346.707 0 255 0 163.292 0 89 74.342 89 166.054V217h-9.896C64.162 217 52 230.459 52 247.333v234.126C52 498.333 64.162 512 79.104 512h351.793C445.838 512 458 498.333 458 481.459V247.333C458 230.459 445.838 217 430.896 217zM144 166.054c0-61.045 49.959-110.702 111-110.702s111 49.657 111 110.702V217H144v-50.946zm129 205.027V420h-27v-48.919c-16-5.721-27.788-20.919-27.788-38.974 0-22.928 18.529-41.514 41.456-41.514 22.93 0 41.261 18.586 41.261 41.514 0 18.055-10.929 33.253-27.929 38.974z" fill="red"/>
</svg>
