<?xml version="1.0" ?><!DOCTYPE svg  PUBLIC '-//W3C//DTD SVG 1.1//EN'  'http://www.w3.org/Graphics/SVG/1.1/DTD/svg11.dtd'><svg enable-background="new 0 0 512 512" height="512px" id="Capa_1" version="1.1" viewBox="0 0 512 512" width="512px" xml:space="preserve" xmlns="http://www.w3.org/2000/svg" xmlns:xlink="http://www.w3.org/1999/xlink"><g><path d="M43.099,108.052l424.6-0.001c24.058,0,43.302-18.041,43.302-42.098c0-24.057-19.244-43.302-43.302-43.302   h-424.6c-24.057,0-42.098,19.248-42.098,43.303C1.001,90.01,19.042,108.052,43.099,108.052z" fill="#565656"/><path d="M467.698,212.699H43.099c-24.056,0-42.098,19.246-42.098,43.301c0,24.055,18.041,42.098,42.098,42.098   h424.599C491.755,298.098,511,280.057,511,256C511,231.944,491.755,212.699,467.698,212.699z" fill="#565656"/><path d="M467.698,403.948L43.099,403.95c-24.056,0-42.098,18.041-42.098,42.097s18.041,43.302,42.098,43.302   h424.599c24.057,0,43.302-19.247,43.302-43.303C511,421.991,491.755,403.948,467.698,403.948z" fill="#565656"/></g></svg>