<svg height="512" width="512" xmlns="http://www.w3.org/2000/svg">
  <path d="M43.099 108.052l424.6-.001c24.058 0 43.302-18.041 43.302-42.098s-19.244-43.302-43.302-43.302h-424.6c-24.057 0-42.098 19.248-42.098 43.303 0 24.056 18.041 42.098 42.098 42.098zm424.599 104.647H43.099c-24.056 0-42.098 19.246-42.098 43.301 0 24.055 18.041 42.098 42.098 42.098h424.599C491.755 298.098 511 280.057 511 256c0-24.056-19.245-43.301-43.302-43.301zm0 191.249l-424.599.002c-24.056 0-42.098 18.041-42.098 42.097s18.041 43.302 42.098 43.302h424.599c24.057 0 43.302-19.247 43.302-43.303 0-24.055-19.245-42.098-43.302-42.098z" fill="red"/>
</svg>
