<svg height="512.001" viewBox="0 0 13547 13547" width="512.001" xmlns="http://www.w3.org/2000/svg" shape-rendering="geometricPrecision" text-rendering="geometricPrecision" image-rendering="optimizeQuality" fill-rule="evenodd" clip-rule="evenodd">
  <path d="M781 251h11959c291 0 529 238 529 529v11112h-18c-26 120-153 212-306 212-64 0-123-16-173-44-520-289-3121-2412-3830-3079H781c-291 0-529-238-529-529V779c0-291 238-529 529-529zm1652 1569h8656c137 0 249 112 249 249v748c0 137-112 249-249 249H2433c-137 0-249-112-249-249v-748c0-137 112-249 249-249zm0 4298h4166c137 0 249 112 249 249v748c0 137-112 249-249 249H2433c-137 0-249-112-249-249v-748c0-137 112-249 249-249zm0-2124h8656c137 0 249 112 249 249v748c0 137-112 249-249 249H2433c-137 0-249-112-249-249v-748c0-137 112-249 249-249z"/>
</svg>
