<svg height="512.001" viewBox="0 0 13547 13547" width="512.001" xmlns="http://www.w3.org/2000/svg" shape-rendering="geometricPrecision" text-rendering="geometricPrecision" image-rendering="optimizeQuality" fill-rule="evenodd" clip-rule="evenodd">
  <path d="M10342 1270H712c-234 0-426 192-426 426v8949h15c21 97 123 170 246 170 52 0 99-13 139-35 219-122 895-646 1572-1196V2542c0-234 192-426 426-426h8084v-421c0-234-192-426-426-426zM3199 2633h9630c234 0 426 192 426 426v8949h-15c-21 97-123 170-246 170-52 0-99-13-139-35-419-233-2513-1942-3085-2479H3198c-234 0-426-192-426-426V3059c0-234 192-426 426-426zm1330 1264h6970c110 0 201 90 201 201v603c0 110-90 201-201 201H4529c-110 0-201-90-201-201v-603c0-110 90-201 201-201zm0 3461h3355c110 0 201 90 201 201v603c0 110-90 201-201 201H4529c-110 0-201-90-201-201v-603c0-110 90-201 201-201zm0-1710h6970c110 0 201 90 201 201v603c0 110-90 201-201 201H4529c-110 0-201-90-201-201v-603c0-110 90-201 201-201z"/>
</svg>
