<?xml version="1.0" ?><!DOCTYPE svg  PUBLIC '-//W3C//DTD SVG 1.1//EN'  'http://www.w3.org/Graphics/SVG/1.1/DTD/svg11.dtd'><svg height="135.467mm" style="shape-rendering:geometricPrecision; text-rendering:geometricPrecision; image-rendering:optimizeQuality; fill-rule:evenodd; clip-rule:evenodd" version="1.1" viewBox="0 0 13547 13547" width="135.467mm" xml:space="preserve" xmlns="http://www.w3.org/2000/svg" xmlns:xlink="http://www.w3.org/1999/xlink"><defs><style type="text/css">
   <![CDATA[
    .fil0 {fill:black}
   ]]>
  </style></defs><g id="Layer_x0020_1"><path class="fil0" d="M10342 1270l-9630 0c-234,0 -426,192 -426,426l0 3286 0 2893 0 2770 15 0c21,97 123,170 246,170 52,0 99,-13 139,-35 219,-122 895,-646 1572,-1196l0 -863 0 -4800 0 -1379c0,-234 192,-426 426,-426l8084 0 0 -421c0,-234 -192,-426 -426,-426zm-7143 1363l9630 0c234,0 426,192 426,426l0 3286 0 2893 0 2770 -15 0c-21,97 -123,170 -246,170 -52,0 -99,-13 -139,-35 -419,-233 -2513,-1942 -3085,-2479l-6572 0c-234,0 -426,-192 -426,-426l0 -6179c0,-234 192,-426 426,-426zm1330 1264l6970 0c110,0 201,90 201,201l0 603c0,110 -90,201 -201,201l-6970 0c-110,0 -201,-90 -201,-201l0 -603c0,-110 90,-201 201,-201zm0 3461l3355 0c110,0 201,90 201,201l0 603c0,110 -90,201 -201,201l-3355 0c-110,0 -201,-90 -201,-201l0 -603c0,-110 90,-201 201,-201zm0 -1710l6970 0c110,0 201,90 201,201l0 603c0,110 -90,201 -201,201l-6970 0c-110,0 -201,-90 -201,-201l0 -603c0,-110 90,-201 201,-201z"/></g></svg>