<svg xmlns="http://www.w3.org/2000/svg" viewBox="0 0 48 48" width="36" height="36">
  <g fill="#ff0000">
    <path d="M17 28h-2a.996.996 0 0 0-.707.293L8 34.586V29a1 1 0 0 0-1-1H2V6h36v12a1 1 0 1 0 2 0V5a1 1 0 0 0-1-1H1a1 1 0 0 0-1 1v24a1 1 0 0 0 1 1h5v7a1 1 0 0 0 1.707.707L15.414 30H17a1 1 0 1 0 0-2z"/>
    <path d="M47 22H23a1 1 0 0 0-1 1v16a1 1 0 0 0 1 1h10.62l8.716 7.748a.997.997 0 0 0 1.073.164A.998.998 0 0 0 44 47v-7h3a1 1 0 0 0 1-1V23a1 1 0 0 0-1-1zm-1 16h-3a1 1 0 0 0-1 1v5.773l-7.336-6.521A1.002 1.002 0 0 0 34 38H24V24h22v14z"/>
  </g>
</svg>