<?xml version="1.0" encoding="iso-8859-1"?>
<!-- Generator: Adobe Illustrator 14.0.0, SVG Export Plug-In . SVG Version: 6.00 Build 43363)  -->
<!DOCTYPE svg PUBLIC "-//W3C//DTD SVG 1.1//EN" "http://www.w3.org/Graphics/SVG/1.1/DTD/svg11.dtd">
<svg version="1.1" id="Layer_1" xmlns="http://www.w3.org/2000/svg" xmlns:xlink="http://www.w3.org/1999/xlink" x="0px" y="0px"
	 width="30px" height="30px" viewBox="0 0 30 30" style="enable-background:new 0 0 30 30;" xml:space="preserve">
<path d="M25,1H5C2.8,1,1,2.8,1,5v14c0,2.2,1.8,4,4,4h2v6l10-6h8c2.2,0,4-1.8,4-4V5C29,2.8,27.2,1,25,1z M27,19c0,1.104-0.896,2-2,2
	h-8.555L9,25.468V21H5c-1.104,0-2-0.896-2-2V5c0-1.104,0.896-2,2-2h20c1.104,0,2,0.896,2,2V19z M16,6h-2v5H9v2h5v5h2v-5h5v-2h-5V6z"
	/>
</svg>
