<svg xmlns="http://www.w3.org/2000/svg" viewBox="0 0 48 48" width="36" height="36">
  <g fill="#ff0000">
    <path d="M47 0H1a1 1 0 0 0-1 1v46a1 1 0 0 0 1 1h46a1 1 0 0 0 1-1V1a1 1 0 0 0-1-1zm-1 46H2V2h44v44z"/>
    <path d="M13 12h8a1 1 0 0 0 0-2h-8a1 1 0 0 0 0 2zM7 18h14a1 1 0 0 0 0-2H7a1 1 0 0 0 0 2zM7 24h14a1 1 0 0 0 0-2H7a1 1 0 0 0 0 2zM7 30h34a1 1 0 0 0 0-2H7a1 1 0 0 0 0 2zM7 36h24a1 1 0 0 0 0-2H7a1 1 0 0 0 0 2zM25 24h16a1 1 0 0 0 1-1V7a1 1 0 0 0-1-1H25a1 1 0 0 0-1 1v16a1 1 0 0 0 1 1zm1-16h14v14H26V8z"/>
  </g>
</svg>