<svg height="512" viewBox="0 0 512 512" width="512" xmlns="http://www.w3.org/2000/svg">
  <path d="M257.287 317.875l48.636 48.65 149.841-149.924-48.594-48.622-149.883 149.896zm-43.943 87.154a4.312 4.312 0 0 0 .958 4.48 4.275 4.275 0 0 0 2.959 1.213c.507 0 1.015-.084 1.522-.282l68.818-26.129c.564-.226 1.071-.536 1.466-.958l5.017-4.989-48.636-48.622-4.989 4.989a3.965 3.965 0 0 0-.987 1.466l-26.128 68.832zm256.851-251.425c-6.483-6.483-14.826-9.668-23.396-9.668-9.696 0-19.675 4.059-27.623 12.036l-.169.169 48.65 48.622.112-.169c15.504-15.447 16.519-36.897 2.426-50.99zM344.877 443.758c0 3.016-1.24 6.06-3.439 8.258a11.919 11.919 0 0 1-8.286 3.383H70.099a11.99 11.99 0 0 1-8.315-3.383c-2.17-2.198-3.439-5.242-3.439-8.258V68.311c0-3.101 1.269-6.145 3.439-8.315a11.898 11.898 0 0 1 8.315-3.411h190.049c-.396 1.325-1.185 2.508-1.185 3.946v69.847a14.406 14.406 0 0 0 14.432 14.432h70.917c.227.902.564 1.776.564 2.706v52.032l25.594-25.593v-26.439c0-9.781-3.946-19.364-10.824-26.298l-71.594-78.415c-7.667-7.78-17.307-11.811-27.172-11.811H70.099c-9.809 0-19.392 3.946-26.354 10.88-6.99 6.99-10.964 16.602-10.964 26.439v375.447c0 9.695 3.946 19.279 10.823 26.241 7.188 7.075 16.771 10.993 26.496 10.993h263.052c9.753 0 19.279-3.918 26.214-10.739 7.159-7.188 11.105-16.771 11.105-26.495V332.477l-25.594 25.594v85.687z" fill="#ff0000"/>
</svg>
