<svg id="Layer_1" xmlns="http://www.w3.org/2000/svg" viewBox="0 0 64 64" width="36" height="36">
  <style>.st0{fill:#ff0000}</style>
  <path class="st0" d="M60.5 28.6h-9.9L47.1 18c-.5-1.4-1.8-2.4-3.3-2.4-1.5 0-2.9 1-3.3 2.4l-7.9 23.5-7.7-32.6c-.4-1.6-1.8-2.7-3.4-2.7-1.6 0-3 1.1-3.4 2.6l-5.2 19.8H3.5c-1.9 0-3.5 1.6-3.5 3.5s1.6 3.5 3.5 3.5h12.1c1.6 0 3-1.1 3.4-2.6l2.3-8.7 7.3 30.8c.4 1.5 1.7 2.6 3.3 2.7h.2c1.5 0 2.9-1 3.3-2.4l8.4-25.1.9 2.9c.5 1.5 1.8 2.4 3.3 2.4h12.4c1.9 0 3.5-1.6 3.5-3.5.1-1.9-1.5-3.5-3.4-3.5z"/>
</svg>