<?xml version="1.0" ?><!DOCTYPE svg  PUBLIC '-//W3C//DTD SVG 1.1//EN'  'http://www.w3.org/Graphics/SVG/1.1/DTD/svg11.dtd'><svg enable-background="new 0 0 64 64" height="64px" id="Layer_1" version="1.1" viewBox="0 0 64 64" width="64px" xml:space="preserve" xmlns="http://www.w3.org/2000/svg" xmlns:xlink="http://www.w3.org/1999/xlink"><g><path fill="#ff0000" stroke="#ff0000" d="M32.001,53.5c-0.038,0-0.077-0.001-0.115-0.003c-1.116-0.051-2.063-0.836-2.319-1.923l-6.659-28.231l-2.464,9.39   c-0.288,1.099-1.282,1.866-2.418,1.866H7.729c-1.381,0-2.5-1.119-2.5-2.5s1.119-2.5,2.5-2.5h8.369l4.521-17.233   c0.291-1.111,1.307-1.87,2.449-1.866c1.148,0.015,2.139,0.809,2.402,1.926l6.946,29.45l7.25-21.669   c0.342-1.02,1.296-1.707,2.371-1.707c0.003,0,0.006,0,0.009,0c1.078,0.004,2.032,0.699,2.367,1.724l3.064,9.375h8.794   c1.381,0,2.5,1.119,2.5,2.5s-1.119,2.5-2.5,2.5H45.664c-1.081,0-2.04-0.695-2.376-1.724l-1.279-3.912l-7.638,22.83   C34.028,52.816,33.071,53.5,32.001,53.5z"/></g></svg>
