<svg viewBox="0 0 100 100" xmlns="http://www.w3.org/2000/svg" width="36" height="36">
  <path d="M59.746 24.763l15.491 15.491 3.621-3.621a4.593 4.593 0 0 0 0-6.496l-8.996-8.996a4.593 4.593 0 0 0-6.496 0l-3.62 3.622zm-3.121 3.056l-2.828 2.828.032.032-31.149 31.15-2.883 18.374 18.374-2.883L69.32 46.171l.032.032 2.828-2.828-15.555-15.556zM39.462 70.373l-.152-2.378-3.078-1.398L62.989 39.84l3.503 3.503-27.03 27.03zm-12.738-6.932l3.62.458 1.645 4.063 4.442 2.019.206 3.217-.372.372-7.05 1.106-3.891-3.891 1.106-7.05.294-.294zm29.934-29.933l3.503 3.503-26.67 26.67-1.027-2.536-3.056-.387 27.25-27.25z" fill="red"/>
</svg>
