<svg id="Layer_1" xmlns="http://www.w3.org/2000/svg" viewBox="0 0 48 48" width="36" height="36">
  <style>.st0{fill:#ff0000}</style>
  <path class="st0" d="M48 22.3c0-6.6-4.3-10.7-5.5-11.8.6-1 .9-2.1.9-3.3 0-3.6-2.8-6.5-6.3-6.5s-6.3 2.9-6.3 6.5c0 1.2.3 2.3.9 3.3-.3.3-.8.7-1.4 1.4-3.8-1.6-8-1.7-12.2.1-.6-.7-1.1-1.2-1.4-1.4.6-1 .9-2.1.9-3.3 0-3.6-2.8-6.5-6.3-6.5S5 3.7 5 7.3c0 1.2.3 2.3.8 3.2-1.4 1-5.8 5.1-5.8 11.8v1h8.4C8.1 24.8 8 26 8 27.2c0 5.2 2.3 10.1 6.3 13.2-.7 1.7-1.2 3.6-1.2 5.9v1h22v-1c0-2.3-.5-4.3-1.2-5.9 3.9-3.1 6.2-8 6.2-13.1 0-1.4-.1-2.6-.4-3.8H48v-1.2zM6.9 12.1c1.1 1 2.6 1.7 4.2 1.7s3-.6 4.1-1.6c.3.3.8.8 1.4 1.5.1.2.2.3.3.4 1.3 1.6 2.7 4.1 2.9 7.3H1.9c.6-5.2 4-8.5 5-9.3zm17.2 33.2h-8.9c.4-5 3.7-8.3 4.7-9.2 1.1 1 2.6 1.6 4.1 1.6 1.6 0 3-.6 4.1-1.6.6.5 2.1 2 3.2 4.2 0 .2.1.3.2.4 0 0 .1 0 .1.1.6 1.3 1.1 2.8 1.2 4.5h-8.7zm13.8-18.1c0 4.4-1.9 8.5-5.1 11.2-1.2-2.1-2.7-3.4-3.3-4 .6-1 .9-2.1.9-3.3 0-3.6-2.8-6.5-6.3-6.5s-6.3 2.9-6.3 6.5c0 1.2.3 2.3.9 3.3-.7.6-2.1 1.9-3.4 4-3.3-2.7-5.2-6.9-5.2-11.3 0-1.1.2-2.4.5-3.8h11.5v-1c0-3.7-1.4-6.6-2.8-8.7 3.3-1.3 6.6-1.2 9.5-.1-1.4 2.1-2.8 5-2.8 8.8v1h11.5c.3 1.2.4 2.5.4 3.9zm-.9-5.9h-8.9c.4-5 3.7-8.3 4.7-9.2 1.1 1 2.6 1.6 4.1 1.6 1.6 0 3-.6 4.1-1.6 1 .9 4.3 4.2 4.7 9.2H37z"/>
</svg>