<svg viewBox="0 0 512 512" xmlns="http://www.w3.org/2000/svg" fill="red" width="36" height="36">
  <path d="M256 409.5c-74.095 0-140.032-36.302-172.742-57.941-21.921-14.502-42.094-31.101-56.803-46.74C8.654 285.892 0 269.924 0 256.001c0-13.924 8.654-29.892 26.456-48.819 14.709-15.639 34.882-32.238 56.803-46.74C115.968 138.803 181.906 102.5 256 102.5c74.094 0 140.031 36.303 172.741 57.942 21.92 14.502 42.093 31.101 56.803 46.74 17.801 18.926 26.455 34.894 26.456 48.815-.001 13.927-8.655 29.895-26.456 48.822-14.709 15.639-34.882 32.237-56.803 46.739C396.031 373.198 330.095 409.5 256 409.5zM48.817 256c5.511 10.143 28.255 34.967 67.025 59.47 27.2 17.19 81.577 46.029 140.158 46.029 58.582 0 112.959-28.839 140.158-46.03 38.77-24.503 61.514-49.326 67.024-59.469-5.512-10.143-28.255-34.966-67.025-59.47C368.958 179.339 314.581 150.5 256 150.5s-112.958 28.839-140.157 46.03c-38.77 24.503-61.515 49.327-67.026 59.47zM192 256a64 64 2160 1 0 128 0 64 64 2160 1 0-128 0z"/>
</svg>
