<svg viewBox="0 0 128 128" xmlns="http://www.w3.org/2000/svg" width="36" height="36">
  <g fill="#ff0000">
    <path d="M65 96.299v-12.32a1 1 0 1 0-2 0v12.319c-8.288.521-14.875 7.409-14.875 15.825 0 8.754 7.122 15.876 15.876 15.876s15.876-7.122 15.876-15.876c0-8.416-6.589-15.305-14.877-15.824zm8.477 25.935c-.035-.022-.062-.045-.103-.066-3.323-1.975-5.916-2.139-6.258-4.284-.107-.676-.132-.979-.112-1.643.032-.031.977.253 2.225.253 1.246 0 2.467-.639 2.467-.639s-.514-.366-.938-1.422c-.879-2.354-.669-3.979-.68-6.293-.012-2.312-.807-3.979-1.703-4.854-1.057-1.021-2.624-1.948-4.374-1.229-1.75-.721-3.318.205-4.374 1.229-.896.871-1.694 2.542-1.704 4.853-.01 2.316.199 3.939-.68 6.293-.424 1.059-.935 1.424-.935 1.424s1.219.64 2.467.64c1.247 0 2.191-.284 2.224-.253.018.664-.005.967-.113 1.643-.342 2.146-2.936 2.312-6.258 4.284-.037.021-.066.044-.103.063-2.701-2.531-4.401-6.123-4.401-10.107 0-7.648 6.225-13.877 13.876-13.877 7.65 0 13.876 6.229 13.876 13.877.001 3.985-1.698 7.574-4.399 10.108zM79.759 15.758C79.759 7.069 72.689 0 64.001 0c-8.689 0-15.758 7.069-15.758 15.758 0 8.352 6.535 15.188 14.757 15.708v12.523a1 1 0 1 0 2 0V31.466c8.225-.52 14.759-7.356 14.759-15.708zm-29.516 0C50.243 8.172 56.415 2 64.001 2s13.758 6.172 13.758 13.758c0 3.816-1.563 7.272-4.081 9.767-1.203-.909-2.925-1.54-4.041-1.941-1.498-.54-1.996-.861-2.392-1.38-.396-.52-.229-2.73-.229-2.73s.83-1.143 1.104-1.862c.271-.72.319-2.101.319-2.101s.705-.471.891-1.04c.178-.569.324-1.538.209-1.96-.119-.424-.664-.299-.664-.299s.001-.767.021-1.375c.024-.812-.188-4.838-4.897-4.838-4.715 0-4.929 4.026-4.9 4.838.021.608.022 1.375.022 1.375s-.546-.126-.665.298c-.12.422.03 1.391.21 1.96s.885 1.04.885 1.04.054 1.382.323 2.102c.27.719 1.1 1.861 1.1 1.861s.167 2.212-.229 2.731c-.396.518-.893.84-2.392 1.379-1.113.401-2.828 1.03-4.031 1.935a13.696 13.696 0 0 1-4.079-9.76zM47.302 53.323l-10.871-6.276a15.756 15.756 0 0 0 1.67-7.046c0-8.754-7.122-15.876-15.875-15.876C13.472 24.125 6.35 31.246 6.35 40c0 8.755 7.123 15.878 15.876 15.878 5.508 0 10.366-2.822 13.214-7.094l10.861 6.272a.997.997 0 0 0 1.366-.366 1 1 0 0 0-.365-1.367zm-15.6-3.212c-.036-.022-.065-.043-.102-.066-3.323-1.975-5.916-2.139-6.258-4.284a7.311 7.311 0 0 1-.112-1.643c.032-.031.975.254 2.224.254 1.247 0 2.467-.639 2.467-.639s-.513-.367-.937-1.424c-.878-2.35-.669-3.972-.68-6.293-.011-2.306-.806-3.978-1.704-4.85-1.055-1.023-2.624-1.947-4.374-1.228-1.75-.72-3.319.203-4.374 1.229-.897.87-1.694 2.543-1.705 4.85-.009 2.319.199 3.941-.68 6.292-.424 1.056-.935 1.424-.935 1.424s1.219.638 2.467.638c1.247 0 2.19-.285 2.223-.254.018.664-.005.967-.112 1.643-.342 2.146-2.935 2.312-6.258 4.284-.037.022-.066.043-.102.065-2.7-2.532-4.399-6.122-4.4-10.109 0-7.651 6.225-13.875 13.877-13.875 7.651 0 13.875 6.225 13.875 13.876.001 3.987-1.699 7.576-4.4 10.11zM105.531 72.34c-5.465 0-10.283 2.799-13.111 7.033l-10.486-6.055a1 1 0 0 0-1.365.367 1 1 0 0 0 .367 1.358l10.494 6.062a15.608 15.608 0 0 0-1.656 6.987c.002 8.688 7.07 15.759 15.765 15.759s15.758-7.066 15.759-15.759c-.009-8.684-7.077-15.752-15.767-15.752zm9.678 25.524c-1.204-.909-2.926-1.539-4.041-1.94-1.5-.539-1.997-.861-2.393-1.381-.396-.52-.229-2.729-.229-2.729s.83-1.146 1.101-1.863c.271-.719.321-2.102.321-2.102s.706-.477.888-1.039c.185-.569.328-1.537.211-1.961-.121-.429-.664-.304-.664-.304s0-.769.021-1.375c.027-.812-.185-4.839-4.898-4.84-4.715.001-4.932 4.022-4.896 4.839.021.605.021 1.376.021 1.376s-.547-.126-.666.304c-.118.422.031 1.392.211 1.959.184.564.888 1.041.888 1.041s.056 1.381.321 2.102c.271.719 1.103 1.861 1.103 1.861s.166 2.211-.229 2.729c-.396.52-.896.841-2.396 1.38-1.11.399-2.829 1.028-4.026 1.937a13.675 13.675 0 0 1-4.073-9.76c0-7.588 6.173-13.761 13.759-13.761s13.759 6.173 13.76 13.761a13.773 13.773 0 0 1-4.094 9.766zM105.773 24.125c-8.754 0-15.875 7.122-15.877 15.875 0 2.534.606 4.922 1.672 7.049L80.7 53.325a1 1 0 1 0 .999 1.731l10.861-6.27c2.85 4.27 7.705 7.09 13.213 7.09 8.754 0 15.875-7.122 15.875-15.877 0-8.752-7.123-15.874-15.875-15.874zm9.476 25.986c-.036-.022-.065-.044-.103-.066-3.321-1.974-5.918-2.14-6.258-4.284-.106-.676-.138-.978-.113-1.644.033-.031.977.254 2.225.255 1.247-.001 2.467-.639 2.467-.639s-.514-.368-.938-1.423c-.877-2.351-.668-3.973-.68-6.294-.016-2.306-.812-3.977-1.703-4.849-1.062-1.024-2.623-1.948-4.373-1.229-1.75-.72-3.318.204-4.375 1.229-.896.871-1.693 2.543-1.703 4.849-.01 2.32.199 3.942-.68 6.293-.431 1.056-.938 1.424-.938 1.424s1.219.638 2.467.637c1.246.001 2.188-.284 2.226-.254.021.666-.004.969-.108 1.644-.347 2.146-2.938 2.312-6.261 4.285-.037.022-.062.043-.104.065-2.697-2.534-4.398-6.124-4.398-10.111.002-7.65 6.229-13.875 13.877-13.875 7.646 0 13.875 6.226 13.877 13.876-.003 3.987-1.703 7.577-4.404 10.111zM47.434 73.686a.998.998 0 0 0-1.366-.365L35.59 79.369c-2.828-4.235-7.647-7.033-13.112-7.033a15.656 15.656 0 0 0-11.142 4.615 15.651 15.651 0 0 0-4.614 11.143c0 4.209 1.638 8.166 4.614 11.143a15.646 15.646 0 0 0 11.143 4.615c8.689 0 15.758-7.062 15.758-15.758 0-2.512-.605-4.879-1.655-6.986l10.487-6.056c.477-.277.64-.888.365-1.366zM32.155 97.859c-1.204-.908-2.925-1.539-4.042-1.939-1.499-.541-1.996-.861-2.391-1.381s-.229-2.73-.229-2.73.83-1.144 1.099-1.855c.271-.727.323-2.104.323-2.104s.706-.473.887-1.041c.178-.567.328-1.537.21-1.959-.12-.426-.665-.3-.665-.3s.001-.768.022-1.375c.028-.812-.185-4.84-4.9-4.84-4.714.001-4.929 4.024-4.9 4.838.021.606.022 1.375.022 1.375s-.546-.125-.665.302c-.12.422.03 1.392.21 1.959.181.568.886 1.037.886 1.037s.054 1.385.323 2.104c.269.724 1.099 1.862 1.099 1.862s.167 2.211-.229 2.729-.893.84-2.393 1.379c-1.114.398-2.832 1.03-4.035 1.938-.012-.015-.026-.021-.039-.034a13.667 13.667 0 0 1-4.028-9.729c0-3.675 1.43-7.13 4.028-9.729a13.662 13.662 0 0 1 9.729-4.028c7.586 0 13.758 6.173 13.758 13.761a13.7 13.7 0 0 1-4.08 9.76z"/>
  </g>
  <path d="M64.001 42.989c-11.401 0-20.677 9.276-20.677 20.678 0 11.401 9.276 20.681 20.677 20.681S84.68 75.071 84.68 63.667c0-11.401-9.278-20.678-20.679-20.678zm13.158 33.919c-1.607-1.326-4.07-2.239-5.646-2.807-1.998-.724-2.662-1.146-3.188-1.847-.527-.688-.308-3.64-.308-3.64s1.104-1.521 1.467-2.479c.354-.959.431-2.807.431-2.807s.94-.627 1.185-1.387c.234-.76.438-2.05.276-2.613-.159-.564-.886-.397-.886-.397s.002-1.022.029-1.833c.037-1.083-.246-6.452-6.539-6.452-6.288 0-6.573 5.369-6.534 6.452.028.81.03 1.832.03 1.832s-.728-.167-.886.397c-.16.562.04 1.854.279 2.613.24.759 1.181 1.387 1.181 1.387s.071 1.849.431 2.802c.359.959 1.465 2.481 1.465 2.481s.223 2.945-.305 3.643c-.527.693-1.189 1.123-3.188 1.846-1.57.562-4.024 1.477-5.633 2.795-3.399-3.391-5.507-8.063-5.507-13.229 0-10.3 8.378-18.678 18.678-18.678 10.299 0 18.678 8.378 18.678 18.678.011 5.173-2.105 9.856-5.51 13.243z" fill="#ff0000"/>
</svg>