<svg id="Layer_1" xmlns="http://www.w3.org/2000/svg" viewBox="0 0 32 32" width="36" height="36">
  <style>
    .st0{fill:red}
  </style>
  <g id="globe-2">
    <path class="st0" d="M13.2 5.9V6l.1-.1z"/>
    <path class="st0" d="M16 0C7.2 0 0 7.2 0 16s7.2 16 16 16 16-7.2 16-16S24.8 0 16 0zm14.6 16v.8c-.1-.3-.3-.6-.3-.7-.1-.2-.4-1-.4-1s-.3-.4-.6-.6c-.2-.1-.4-.4-.8-.6-.4-.2-.5-.3-.9-.3-.3 0-.7-.4-1-.7-.4-.2-.4-.1-.4-.1s.4.7.4.8.5.4 1 .3c0 0 .3.6.5.8.2.2-.1.3-.4.6-.3.2-.3.2-.4.3-.2.2-.7.4-.9.6-.2.1-.8.4-1.2.1-.2-.2-.1-.5-.2-.7-.1-.2-1.3-1.9-1.8-2.7-.1-.1-.3-.6-.5-.7-.2-.1.4-.1.4-.1s0-.4-.1-.7c-.1-.3.1-.7.1-.7s-.6.3-.7.4c-.2.1-.3-.2-.5-.5s-.4-.6-.5-.9c-.1-.3.3-.4.3-.4l.5-.3s.6-.1 1-.1c.4.1 1 .1 1 .1s.2-.4-.1-.6c-.2-.2-.7-.4-.9-.4-.2.1.1-.3.4-.5l-.6-.1s-.6.3-.7.3c-.2.1-.5.2-.7.4-.2.3.1.7-.1.8-.2.1-.4.2-.5.2-.2.1-.7 0-.7 0-.6 0-.2.5-.1.7l-.4-.5-.3-.8s-.5-.3-.7-.4c-.2-.1-.9-.5-.9-.5v.5l.6.6h.1l.3.4-.7.1v-.1c-.7-.2-.5-.3-.6-.4-.2-.1-.5-.4-.5-.4s-.6.1-.8.2c-.2.1-.2.2-.5.3-.6.2-.7.3-.8.5-.1.2-.5.7-.7.9-.2.2-.6.2-.8.2-.2 0-1-.2-1-.2v-1s.1-.5.1-.7l.5-.1.8-.2.2-.2.3-.4s-.4-.3-.1-.7c.1-.2.6-.2.8-.4.2-.2.6-.3.6-.3s.4-.3.8-.7c0 0 .3-.2.6-.3 0 0 .9.8 1.1.8.2 0 .8-.4.8-.4s.2-.5.1-.7c-.1.1-.3-.5-.3-.5s-.2.3-.3.5c-.2.2-.3.5-.3.5s-.8-.1-.8-.2c-.1-.2-.2-.4-.2-.6-.1-.2-.5-.2-.8 0-.3.1.1-.6.1-.6s.3-.4.6-.4.7-.3.9-.3c.2-.1.9-.3 1.2-.3.3 0 .6.1.8.1h.8L22 3s1 .4.7.6c0 0 .4.2.6.4.2.2.6-.1.8-.3 3.8 2.5 6.5 7.1 6.5 12.3zM4.3 7.4c0 .2-.3.3 0 .8.4.7.1 1 .1 1s-.9.7-1.1.8c-.2.1-.6.7-.3.5.3-.2.6-.3.3.1s-.8 1.2-.9 1.4c-.1.3-.7.9-.7 1.3s-.2 1-.2 1.3c0 .2-.1.8-.2 1 .2-3.1 1.2-5.9 3-8.2zm1.8-2.1C7.5 4 9 3 10.8 2.4l-.4.4s-.4 0-1.1.8c-.7.8-.6.5-.7.8s-.1.2-.5.5-.6.6-.6.6l-.6.2-.5-.2s-.4.2-.4-.1c.1 0 .1-.1.1-.1zm6.6 1.3l-.2-.3.2-.5.5.2V5l.5-.3.4.6.7.7-.4.3-1.1.2V6l-.6.6zm7.2 5.1c.1-.1.5.2.5.2s1.4.3 1.6.4c.2.2.6.3.7.4.1.2.5.7.5.8.1.2.3.8.4 1 .1.2.2.8.4 1 .2.3 1.1 1.5 1.4 2l1-.2s-.1.5-.2.7c-.1.2-.4.6-.6.8-.2.2-.4.6-.7.8-.3.3-.3.5-.5.8-.2.2-.4.7-.4.7s.1 1.1.2 1.3-.4.8-.4.8l-.5.8-.7.9.1.8s-.5.4-.8.6c-.3.2-.2.4-.5.6-.2.2-1.1.6-1.3.7-.2.1-1.4.2-1.4.2v-1.1s-.2-.7-.3-.9c-.2-.2-.1-.6-.4-.8-.3-.3-.4-.5-.4-.7-.1-.2.1-.7.1-.7s.2-.6.3-.8c.1-.2 0-.5-.1-.8-.1-.2-.2-.8-.2-.9 0-.2-.4-.4-.6-.6-.1-.1-.1-.3-.1-.6 0-.2-.2-.7-.1-1.1.1-.4-.5-.1-.8 0-.3.1-.5-.1-.5-.4s-.6-.1-1 .2c-.4.2-.8.2-1.3.4-.4.2-.7-.2-.7-.2s-.4-.3-.7-.5c-.3-.2-.6-.5-.8-.8-.2-.3-.8-1.1-.8-1.4-.1-.3 0-.6 0-.9 0-.4 0-.6.1-.9.1-.3.2-.6.4-.9.2-.3.8-.6.9-.7.2-.1.6-.4.6-.7 0-.2.2-.3.3-.6.1-.2.5-.8 1-.5 0 0 .4-.1.6-.1.2-.1.6-.2.8-.3.2-.1.8-.2.8-.2s.4.2.6.2.7-.1.7-.1.2.8.2 1c0 .2.2.3.4.4.4.1 1.6.4 2.2-.1zm6.3 10.8c0 .2-.1.6-.1.8-.1.2-.2.6-.2.8-.1.2-.3.7-.5.8-.2.1-.4.4-.6.5-.2.1-.3-.4-.2-.6.1-.2.3-.8.3-.8s.1-.3.1-.6c.1-.2.7-.5.7-.5l.4-.8s.1.3.1.4zM1.8 19.2c.1 0 .2.1.3.2.2.2.3.3.6.4.3.1.4.3.7.4.3.2.2.1.7.6.4.5.4.5.5.8.1.3.3.5.4.7.1.2.4.3.6.4.2.1.4.2.6.2.2 0 .7.5.9.5.3.1.3.6.3.6l-.3.8-.2.8.2.7s-.3.3-.5.3-.3.1-.5.1c-2.2-2-3.7-4.6-4.3-7.5z"/>
  </g>
</svg>
