<svg id="Layer_1" xmlns="http://www.w3.org/2000/svg" viewBox="0 0 425 120" width="36" height="36">
  <style>
    .st0{fill:red}
  </style>
  <path class="st0" d="M82.5 25.5c-.4-10.9-9.3-19.4-20.1-19.4H19.8c-1.8.1-3.7.3-5.4.9-4.8 1.4-8.9 4.6-11.5 8.9C1.3 18.6.4 21.6.1 24.7c0 1.1-.1 2.1-.1 3.2v84.6h11.3c1.6-1.7 3.2-3.4 4.8-5 4-4.2 8-8.5 12-12.7 1.4-1.5 2.8-3 4.2-4.4 1.4-1.1 3.2-1.7 5-1.8h25.9c10.5-.5 18.9-9 19.3-19.5.1-.9.1-1.8.1-2.7V30.6c0-1.8.1-3.5-.1-5.1zm-9.1 44c-.4 3.5-2.3 6.6-5.3 8.4-1.9 1.1-4 1.7-6.2 1.6H32.7c-1.7.2-3.3.9-4.6 2.1L12 98.6c-.7.6-1.2 1.5-2 1.9-.6.2-.8-.6-.8-1.1V25.7c.2-5.5 4.4-10 9.9-10.6 6.5-.1 12.9 0 19.4 0H63c5.7.3 10.3 5 10.4 10.7v40.5c0 1.2.1 2.2 0 3.2z"/>
  <path class="st0" d="M32 29.8l14.9 8.6c.4.3.9.4 1.3.2s.5-.7.5-1.1v-9.4c0-1.2-.8-2.3-2-2.7-1.4-.4-2.8-.6-4.2-.6-.8-.1-1.6-.1-2.4 0-3.1.2-6.2 1-8.9 2.4-.3.1-.6.4-.8.6-.1.2-.1.5-.1.7.4.6 1 1 1.7 1.3zm20.7 19.3c.3 0 .6-.1.8-.2l8-4.6c.7-.4 1.2-1.1 1.4-1.9.1-.6 0-1.2-.2-1.8-1.5-4.7-4.5-8.8-8.6-11.7-.5-.4-1.1-.8-1.7-.7-.4.2-.7.6-.6 1.1v18.8c0 .5.4.9.9 1zM37.1 36.6c-.1-.4-.6-.6-.9-.8l-7.8-4.5c-1-.6-2.3-.5-3.2.4-4.2 4.3-6.5 10.2-6.4 16.2 1.2-.4 2.3-1 3.3-1.6 4.8-2.8 9.6-5.6 14.4-8.3.5-.3.7-.9.6-1.4zm-6.8 9.2c-.3-.2-.7-.3-1.1-.1-.5.2-.9.5-1.4.8l-6.9 4c-.8.4-1.3 1.2-1.4 2.1 0 .8.2 1.6.5 2.3 1.7 4.7 4.9 8.7 9.1 11.4.4.3 1 .3 1.3-.1.2-.5.3-1 .3-1.6V47.1c.1-.5-.1-.9-.4-1.3zm30.4 2.5L46 56.8c-.5.2-.7.8-.5 1.3.2.3.5.6.9.8l7.9 4.6c1 .6 2.3.4 3.2-.5 4.2-4.3 6.5-10.1 6.3-16.1-1.2.3-2.1.8-3.1 1.4zM50.8 65l-15.3-8.8c-.3-.2-.7-.2-1-.2-.5.1-.6.7-.6 1.1v9.3c0 1.2.7 2.3 1.9 2.7 5.3 1.4 10.9.7 15.8-1.8.4-.2.8-.6.7-1.1-.2-.5-.9-.8-1.5-1.2zm236.9-46.1h-6.6v21h-7.3v6.6h7.3v23c0 2.4.5 4.8 1.4 7.1 1.9 4.4 5.3 7.8 9.7 9.7 2.2 1 4.6 1.4 7.1 1.4v-6.6c-6.3.1-11.5-5-11.6-11.3V46.6h11.6V40h-11.6V18.9zm60.4 27c-2.1-2.1-4.7-3.8-7.5-5-2.9-1.2-6.1-1.8-9.3-1.8-3.3 0-6.5.6-9.5 1.9-5.8 2.5-10.4 7.1-13 13-1.3 3-1.9 6.1-1.9 9.4 0 3.3.6 6.5 1.9 9.5 2.5 5.8 7.1 10.4 13 12.9 8.9 3.9 19.3 1.9 26.2-4.9v6h6.6V40H348l.1 5.9zm0 23.1c-1.2 3.5-3.3 6.6-6.3 8.8-3 2.3-6.7 3.5-10.5 3.5-2.4 0-4.7-.5-6.9-1.4-4.3-1.8-7.7-5.2-9.5-9.5-.9-2.2-1.4-4.5-1.4-6.9 0-2.3.5-4.7 1.4-6.8 1.8-4.3 5.2-7.6 9.5-9.4 2.2-.9 4.5-1.4 6.9-1.4 3.8-.1 7.5 1.1 10.5 3.4 2.9 2.2 5.1 5.2 6.3 8.7v11zm24.3 8.9c-2.2-2.2-3.4-5.1-3.4-8.2v-58h-6.6v58c0 2.4.5 4.8 1.4 7.1 1.9 4.4 5.3 7.8 9.7 9.7 2.2 1 4.6 1.4 7.1 1.4v-6.6c-3.1-.1-6-1.3-8.2-3.4zM420 40h-9l-16.1 17.3V11.7h-6.6v75.2h6.6V67l4.8-5.1 17.3 25h8L404.3 57zm-226.6 2c-2.4-2.4-5.1-4.2-8.2-5.6-3.2-1.4-6.6-2.1-10.1-2-3.4 0-6.7.6-9.9 1.9-1.9.8-3.7 1.8-5.3 3v-4.1h-9.8V110h9.8V81.2c1.6 1.2 3.4 2.2 5.3 3 6.4 2.6 13.6 2.6 20-.1 6.2-2.7 11.1-7.6 13.8-13.8 1.4-3.2 2.1-6.6 2.1-10.1 0-3.4-.7-6.8-2.1-10-1.3-3.1-3.2-5.8-5.6-8.2zm-18.3 34.4c-3.5.1-6.8-1.1-9.5-3.2-2.6-2-4.6-4.7-5.7-7.8V55c1.1-3.1 3-5.8 5.7-7.7 2.7-2.1 6.1-3.2 9.5-3.1 2.2 0 4.3.4 6.3 1.3 3.9 1.6 6.9 4.7 8.6 8.6.8 2 1.3 4.1 1.3 6.2 0 2.2-.4 4.3-1.3 6.3-1.6 3.9-4.7 7-8.6 8.6-2.1.7-4.2 1.2-6.3 1.2zm31.8-41.3h9.8v50.1h-9.8zm4.9-15.5c-3.4 0-6.2 2.7-6.2 6.1 0 1.7.7 3.3 1.9 4.5 2.4 2.4 6.3 2.4 8.8 0 2.4-2.4 2.4-6.3 0-8.8-1.3-1.1-2.9-1.8-4.5-1.8zm48 52c-4.6 4.6-11.6 6-17.6 3.5-3.9-1.6-7-4.7-8.6-8.6-.8-2-1.3-4.1-1.3-6.3 0-2.1.4-4.2 1.3-6.2 3.4-8.2 12.8-12.1 21-8.6 1.9.8 3.7 2 5.2 3.5l1.1 1.1 7-7-1.1-1.1c-4.9-4.8-11.5-7.5-18.3-7.5-3.5 0-6.9.7-10.1 2.1-6.2 2.7-11.1 7.6-13.8 13.8-1.4 3.2-2.1 6.6-2.1 10 0 3.5.7 6.9 2.1 10.1 2.7 6.2 7.6 11.1 13.8 13.8 6.5 2.7 13.8 2.7 20.2 0 3.1-1.3 5.8-3.2 8.2-5.6l1.1-1.1-7-6.9-1.1 1z"/>
</svg>
