<svg id="Layer_1" data-name="Layer 1" xmlns="http://www.w3.org/2000/svg" viewBox="0 0 282 120" width="36" height="36">
  <defs>
    <style>.st0{fill:#ff0000}</style>
  </defs>
  <title>pictalk-logo2</title>
  <path class="st0" d="M142 23.13h-6.2V43h-6.86v6.2h6.86v21.71a16.53 16.53 0 0 0 1.35 6.65 17.35 17.35 0 0 0 9.14 9.14 16.55 16.55 0 0 0 6.65 1.35v-6.23A10.8 10.8 0 0 1 142 70.91V49.2h10.91V43H142zm57 25.45a21.35 21.35 0 0 0-7.06-4.67 22.79 22.79 0 0 0-8.73-1.66 22.06 22.06 0 0 0-8.93 1.82A23.36 23.36 0 0 0 162 56.27a21.77 21.77 0 0 0-1.82 8.83A22 22 0 0 0 162 74a23.36 23.36 0 0 0 12.21 12.2A22.41 22.41 0 0 0 199 81.61v5.61h6.23V43H199zm0 21.71a17 17 0 0 1-6 8.26 15.75 15.75 0 0 1-9.87 3.27 16.45 16.45 0 0 1-6.49-1.3 16.6 16.6 0 0 1-8.93-8.93 16.43 16.43 0 0 1-1.3-6.49 16.07 16.07 0 0 1 1.3-6.44 16.74 16.74 0 0 1 8.93-8.88 16.48 16.48 0 0 1 6.49-1.3A15.92 15.92 0 0 1 193 51.7a16.71 16.71 0 0 1 6 8.2zm22.86 8.36a10.77 10.77 0 0 1-3.17-7.74V16.28h-6.23v54.63a16.53 16.53 0 0 0 1.35 6.65 17.35 17.35 0 0 0 9.14 9.14 16.55 16.55 0 0 0 6.65 1.35v-6.23a10.77 10.77 0 0 1-7.74-3.17zm30.07-19.68l14.85-16h-8.52L243.1 59.28v-43h-6.24v70.94h6.24v-18.8l4.46-4.78 16.31 23.58h7.58l-19.52-28.25zM53.14 44.88a25.12 25.12 0 0 0-7.73-5.25 23.66 23.66 0 0 0-9.53-1.94 24.39 24.39 0 0 0-9.3 1.77 23.34 23.34 0 0 0-5 2.8v-3.85h-9.23v70.52h9.23V81.82a24 24 0 0 0 5 2.84 24.46 24.46 0 0 0 18.84-.11 24.87 24.87 0 0 0 13-13A23.63 23.63 0 0 0 60.33 62a23.39 23.39 0 0 0-1.94-9.43 25.12 25.12 0 0 0-5.25-7.69zM35.87 77.26a14.16 14.16 0 0 1-9-3A15.59 15.59 0 0 1 21.58 67v-9.91a15.29 15.29 0 0 1 5.33-7.26 14.33 14.33 0 0 1 9-2.92 15.06 15.06 0 0 1 5.91 1.18 15.31 15.31 0 0 1 4.87 3.26 15.48 15.48 0 0 1 3.27 4.83A14.69 14.69 0 0 1 51.1 62a15 15 0 0 1-1.18 5.91 15.1 15.1 0 0 1-8.14 8.14 15 15 0 0 1-5.91 1.21zm29.98-38.85h9.23v47.25h-9.23zm4.61-14.64a5.83 5.83 0 0 0-4.13 10 5.83 5.83 0 1 0 8.25-8.25 5.67 5.67 0 0 0-4.12-1.75zm45.27 49.05a15.08 15.08 0 0 1-16.58 3.26A15.1 15.1 0 0 1 91 67.94 15 15 0 0 1 89.83 62 14.67 14.67 0 0 1 91 56.19a15.15 15.15 0 0 1 24.73-4.83l1.06 1.06 6.59-6.59-1.06-1.06A24.19 24.19 0 0 0 105 37.68a23.64 23.64 0 0 0-9.53 1.94 24.87 24.87 0 0 0-13 13A23.37 23.37 0 0 0 80.59 62a23.61 23.61 0 0 0 1.94 9.53 24.87 24.87 0 0 0 13 13 24.36 24.36 0 0 0 19.07 0 25.09 25.09 0 0 0 7.73-5.25l1.07-1.07-6.61-6.46z"/>
</svg>