<svg xmlns="http://www.w3.org/2000/svg" viewBox="0 0 512 512" width="36" height="36">
  <path d="M78.4 71.8C124.5 27.4 187 0 256 0c14.2 0 28.1 1.5 41.7 3.7l-96.6 160.9-33.5 55.9L78.4 71.8zm165.4 92.8h251.1C467.4 92.7 408.6 36.4 335 12.6l-91.2 152zm-64.6 146.3L53 100.5C19.9 143.6 0 197.4 0 256c0 18.8 2.2 37.2 6 54.9h173.2zm165.2-19.4L214.3 508.3c13.6 2.2 27.5 3.7 41.7 3.7 69 0 131.5-27.4 177.6-71.8l-89.2-148.7zm-76.2 55.9H17.1c27.5 71.8 86.3 128.1 159.9 152l91.2-152zm64.6-146.3L459 411.5c33.1-43.1 53-96.9 53-155.5 0-18.8-2.2-37.2-6-54.9H332.8z" fill="red"/>
</svg>
