<svg id="Layer_1" xmlns="http://www.w3.org/2000/svg" viewBox="0 0 432 432" width="36" height="36">
  <style>
    .st0{fill:red}
  </style>
  <path class="st0" d="M383.7 99.3c-.1-6.9.3-13.8-.3-20.7-.6-20.7-9.7-40.9-24.5-55.3C343.8 8.5 322.8 0 301.6 0H128.9c-7.5.3-14.9 1.3-22.1 3.5-19.4 5.8-36.4 19-46.8 36.3C53.6 50.6 49.7 63 48.8 75.6c0 4.3-.6 8.6-.5 12.9V432h45.9c6.5-6.8 12.8-13.7 19.3-20.4 16.1-17.3 32.6-34.5 48.9-51.7 5.8-5.8 11.2-12.2 17.2-17.8 5.6-4.5 13-7.2 20.3-7.2h105.3c16.5-.6 32.7-6.4 45.8-16.5 19.5-14.6 31.9-38.5 32.3-62.9.4-3.6.3-7.3.3-10.8 0-48.4.1-96.9.1-145.4zm-37.3 158.4c-1.3 13.9-9.5 26.9-21.5 34.1-7.6 4.6-16.5 6.6-25.4 6.5H180.9c-6.9.6-13.6 3.6-18.6 8.4-21.8 23.1-43.6 46.1-65.4 69.2-2.8 2.4-4.7 6.1-8.3 7.8-2.4.7-3.3-2.3-3.3-4.2V80.3c.3-10.4 4.4-20.7 11.5-28.3 7.3-8.3 17.6-13.4 28.6-14.7 26.2-.2 52.5 0 78.7-.1h100c16.8.7 32.5 12 38.9 27.5 2.1 5.1 3.3 10.7 3.5 16.2v164.5c0 4 .4 8.2-.1 12.3z"/>
  <path class="st0" d="M211.1 76.3c3.2-.4 6.5-.4 9.8 0 5.7.2 11.4 1.2 17 2.5 4.8 1 8.3 5.8 8.2 10.7v38.2c0 1.6-.3 3.7-2 4.4-1.7 1-3.7.1-5.2-.7-20.1-11.6-40.3-23.3-60.5-35-2.4-1.5-5.2-2.6-6.9-5.1.1-.9 0-1.9.3-2.7.7-1.2 1.8-2 3-2.6 11.3-5.7 23.7-9.1 36.3-9.7zM261.4 90c2.7-.7 4.9 1.2 7 2.7 16.3 11.4 28.8 28.3 34.8 47.4.7 2.3 1.7 4.8.9 7.3-.8 3.1-2.8 6-5.6 7.6-10.9 6.2-21.8 12.6-32.6 18.8-1 .5-2.1 1.1-3.3 1-2-.2-3.6-2.2-3.5-4.2V94.2c-.2-1.7.5-3.7 2.3-4.2zm-111 13.9c3.3-3.4 9-3.7 13-1.4 10.6 6.1 21.2 12.2 31.7 18.3 1.4.9 3.2 1.7 3.8 3.4 1 2-.6 4.2-2.3 5.1-19.5 11.3-39.1 22.6-58.6 33.9-4.3 2.4-8.6 5.5-13.5 6.6-.8-24.3 8.9-48.7 25.9-65.9zm16.8 57.1c1.3-.5 3.2-.8 4.3.4 1.3 1.3 1.5 3.2 1.6 5v71.2c0 2.2.1 4.5-1.1 6.4-1.2 1.7-3.7 1.7-5.3.6-17-10.7-30.1-27.3-36.9-46.2-1-3-2.3-6-2.1-9.4.2-3.7 2.6-7 5.8-8.8 9.4-5.4 18.8-10.8 28.2-16.3 1.8-.9 3.5-2.1 5.5-2.9zM295 171.6c3.9-2.2 7.8-4.9 12.3-5.9 1 24.1-8.7 48.3-25.5 65.5-3.2 3.5-9 4.2-13.1 1.8-10.7-6.1-21.4-12.4-32-18.5-1.4-.8-2.9-1.7-3.7-3.2-.6-2 .4-4.2 2.2-5.1 19.9-11.7 39.8-23.1 59.8-34.6zM188.2 203c1.4-.5 3 0 4.3.6 20.8 12 41.4 24 62.2 35.9 2.2 1.3 5.1 2.4 5.7 5.2.3 2-1.4 3.5-3 4.4-19.5 10.1-42.8 12.7-64.2 7.2-4.7-1.2-7.8-6.2-7.7-11v-37.7c.2-1.8.8-4.1 2.7-4.6z"/>
</svg>
