<?xml version="1.0" encoding="utf-8"?>
<!-- Generator: Adobe Illustrator 19.2.0, SVG Export Plug-In . SVG Version: 6.00 Build 0)  -->
<svg version="1.1" id="Layer_1" xmlns="http://www.w3.org/2000/svg" xmlns:xlink="http://www.w3.org/1999/xlink" x="0px" y="0px"
	 viewBox="0 0 432 432" style="enable-background:new 0 0 432 432;" xml:space="preserve">
<g>
	<path fill="#ff0000" class="st0" d="M382.5,100.2c-0.1-6.8,0.3-13.7-0.3-20.5c-0.6-20.5-9.6-40.6-24.3-54.9C342.9,10,322,1.6,301,1.6
		c-57.2,0-114.3,0-171.5,0c-7.4,0.3-14.8,1.3-21.9,3.5c-19.2,5.7-36.1,18.8-46.4,36c-6.4,10.7-10.3,23-11.2,35.5
		c0,4.3-0.6,8.5-0.5,12.8c0,113.7,0,227.3,0,341h45.6c6.5-6.7,12.7-13.6,19.2-20.2c16-17.2,32.4-34.2,48.5-51.3
		c5.8-5.8,11.1-12.1,17.1-17.7c5.6-4.5,12.9-7.1,20.1-7.1c34.8,0,69.6,0,104.5,0c16.4-0.6,32.5-6.4,45.5-16.4
		c19.4-14.5,31.7-38.2,32.1-62.4c0.4-3.6,0.3-7.2,0.3-10.7C382.4,196.4,382.5,148.3,382.5,100.2z M345.4,257.4
		c-1.3,13.8-9.4,26.7-21.3,33.8c-7.5,4.6-16.4,6.6-25.2,6.5c-39.2,0-78.5,0-117.7,0c-6.8,0.6-13.5,3.6-18.5,8.3
		c-21.6,22.9-43.3,45.8-64.9,68.7c-2.8,2.4-4.7,6.1-8.2,7.7c-2.4,0.7-3.3-2.3-3.3-4.2c0-99,0-198,0-297c0.3-10.3,4.4-20.5,11.4-28.1
		c7.2-8.2,17.5-13.3,28.4-14.6c26-0.2,52.1,0,78.1-0.1c33.1,0,66.2,0,99.3,0c16.7,0.7,32.3,11.9,38.6,27.3
		c2.1,5.1,3.3,10.6,3.5,16.1c0,54.5,0,108.9,0,163.3C345.5,249.2,345.9,253.3,345.4,257.4z"/>
	<path fill="#ff0000" class="st0" d="M211.1,77.3c3.2-0.4,6.5-0.4,9.7,0c5.7,0.2,11.3,1.2,16.9,2.5c4.8,1,8.2,5.8,8.1,10.6c0,12.6,0,25.2,0,37.9
		c0,1.6-0.3,3.7-2,4.4c-1.7,1-3.7,0.1-5.2-0.7c-20-11.5-40-23.1-60.1-34.7c-2.4-1.5-5.2-2.6-6.8-5.1c0.1-0.9,0-1.9,0.3-2.7
		c0.7-1.2,1.8-2,3-2.6C186.3,81.3,198.6,77.9,211.1,77.3z"/>
	<path fill="#ff0000" class="st0" d="M261.1,90.9c2.7-0.7,4.9,1.2,6.9,2.7c16.2,11.3,28.6,28.1,34.5,47c0.7,2.3,1.7,4.8,0.9,7.2
		c-0.8,3.1-2.8,6-5.6,7.5c-10.8,6.2-21.6,12.5-32.4,18.7c-1,0.5-2.1,1.1-3.3,1c-2-0.2-3.6-2.2-3.5-4.2c0-25.3,0-50.5,0-75.8
		C258.6,93.4,259.3,91.4,261.1,90.9z"/>
	<path fill="#ff0000" class="st0" d="M150.9,104.7c3.3-3.4,8.9-3.7,12.9-1.4c10.5,6.1,21,12.1,31.5,18.2c1.4,0.9,3.2,1.7,3.8,3.4
		c1,2-0.6,4.2-2.3,5.1c-19.4,11.2-38.8,22.4-58.2,33.6c-4.3,2.4-8.5,5.5-13.4,6.6C124.4,146,134,121.8,150.9,104.7z"/>
	<path fill="#ff0000" class="st0" d="M167.6,161.4c1.3-0.5,3.2-0.8,4.3,0.4c1.3,1.3,1.5,3.2,1.6,5c0,23.6,0,47.1,0,70.7c0,2.2,0.1,4.5-1.1,6.4
		c-1.2,1.7-3.7,1.7-5.3,0.6c-16.9-10.6-29.9-27.1-36.6-45.9c-1-3-2.3-6-2.1-9.3c0.2-3.7,2.6-6.9,5.8-8.7c9.3-5.4,18.7-10.7,28-16.2
		C163.9,163.4,165.6,162.2,167.6,161.4z"/>
	<path fill="#ff0000" class="st0" d="M294.4,171.9c3.9-2.2,7.7-4.9,12.2-5.9c1,23.9-8.6,47.9-25.3,65c-3.2,3.5-8.9,4.2-13,1.8
		c-10.6-6.1-21.2-12.3-31.8-18.4c-1.4-0.8-2.9-1.7-3.7-3.2c-0.6-2,0.4-4.2,2.2-5.1C254.8,194.7,274.6,183.3,294.4,171.9z"/>
	<path fill="#ff0000" class="st0" d="M188.4,203.1c1.4-0.5,3,0,4.3,0.6c20.6,11.9,41.1,23.8,61.7,35.6c2.2,1.3,5.1,2.4,5.7,5.2c0.3,2-1.4,3.5-3,4.4
		c-19.4,10-42.5,12.6-63.7,7.1c-4.7-1.2-7.7-6.2-7.6-10.9c0-12.5,0-25,0-37.4C185.9,205.9,186.5,203.6,188.4,203.1z"/>
</g>
</svg>
