<?xml version="1.0" ?><!DOCTYPE svg  PUBLIC '-//W3C//DTD SVG 1.1//EN'  'http://www.w3.org/Graphics/SVG/1.1/DTD/svg11.dtd'><svg enable-background="new 0 0 512 512" height="512px" id="Layer_1" version="1.1" viewBox="0 0 512 512" width="512px" xml:space="preserve" xmlns="http://www.w3.org/2000/svg" xmlns:xlink="http://www.w3.org/1999/xlink"><g>
<path d="M100.625,94.867C140.906,56.016,195.609,32,256,32c12.453,0,24.578,1.273,36.484,3.227L208,176l0,0   l-29.344,48.906L100.625,94.867z M245.328,176h219.703C440.938,113.133,389.515,63.883,325.14,43L245.328,176z M188.797,304   L78.344,119.938C49.406,157.688,32,204.758,32,256c0,16.492,1.906,32.523,5.281,48H188.797z M333.344,287.094L219.516,476.774   C231.422,478.727,243.547,480,256,480c60.391,0,115.094-24.016,155.375-62.867L333.344,287.094z M266.672,336H46.969   c24.094,62.867,75.516,112.117,139.891,133L266.672,336z M323.203,208l110.453,184.063C462.594,354.313,480,307.242,480,256   c0-16.492-1.906-32.523-5.281-48H323.203z" fill="#ff0000"/></g></svg>
