<svg id="Layer_1" data-name="Layer 1" xmlns="http://www.w3.org/2000/svg" viewBox="0 0 425 120">
<defs>
<style>.cls-1{fill:#ff0000;}</style>
</defs>
<title>pictalk-logo2</title>
<path class="cls-1" d="M93.75,30.59a19,19,0,0,0-19-18.27H34.67a20.12,20.12,0,0,0-5.13.81A19,19,0,0,0,18.7,21.56a18.82,18.82,0,0,0-2.61,8.29c0,1-.14,2-.11,3q0,39.86,0,79.73H26.66c1.51-1.56,3-3.17,4.5-4.72,3.75-4,7.57-8,11.34-12,1.35-1.37,2.6-2.82,4-4.14a7.68,7.68,0,0,1,4.7-1.66H75.61A19,19,0,0,0,93.76,71.64a22.52,22.52,0,0,0,.07-2.51q0-16.87,0-33.75C93.8,33.78,93.89,32.18,93.75,30.59ZM85.16,72.12a10.49,10.49,0,0,1-5,7.9,10.94,10.94,0,0,1-5.88,1.51H46.76a7.42,7.42,0,0,0-4.32,1.94L27.27,99.55c-.66.57-1.09,1.42-1.91,1.8-.56.15-.77-.55-.76-1q0-34.72,0-69.43a10.44,10.44,0,0,1,9.29-10c6.09-.05,12.18,0,18.27,0H75.38a10.45,10.45,0,0,1,9.83,10.13V69.25C85.19,70.2,85.27,71.17,85.16,72.12Z"/>
<path class="cls-1" d="M46.15,34.69l14,8.11a1.22,1.22,0,0,0,1.23.17c.39-.17.45-.65.46-1q0-4.43,0-8.85A2.5,2.5,0,0,0,60,30.61,20.48,20.48,0,0,0,56,30a9.51,9.51,0,0,0-2.27,0,21,21,0,0,0-8.43,2.22,1.58,1.58,0,0,0-.71.61,3.08,3.08,0,0,0-.08.64A4.29,4.29,0,0,0,46.15,34.69Z"/>
<path class="cls-1" d="M65.67,52.88a1.5,1.5,0,0,0,.77-.23L74,48.27a2.76,2.76,0,0,0,1.32-1.76,2.86,2.86,0,0,0-.21-1.69,21.24,21.24,0,0,0-8.06-11c-.47-.34-1-.78-1.62-.63a.92.92,0,0,0-.59,1q0,8.86,0,17.72A1,1,0,0,0,65.67,52.88Z"/>
<path class="cls-1" d="M50.94,41.13c-.14-.4-.55-.59-.89-.79l-7.36-4.24a2.54,2.54,0,0,0-3,.33,21.11,21.11,0,0,0-6,15.3,13,13,0,0,0,3.12-1.55c4.54-2.61,9.06-5.24,13.6-7.85A1,1,0,0,0,50.94,41.13Z"/>
<path class="cls-1" d="M44.58,49.76a.9.9,0,0,0-1-.09c-.45.2-.86.47-1.29.71l-6.54,3.78a2.59,2.59,0,0,0-1.35,2,5.4,5.4,0,0,0,.48,2.16A21.18,21.18,0,0,0,43.45,69.1.91.91,0,0,0,44.69,69a2.67,2.67,0,0,0,.26-1.5q0-8.27,0-16.53A1.65,1.65,0,0,0,44.58,49.76Z"/>
<path class="cls-1" d="M73.23,52.13l-13.89,8a1,1,0,0,0-.51,1.19,2.1,2.1,0,0,0,.86.75l7.43,4.29a2.54,2.54,0,0,0,3-.43,20.83,20.83,0,0,0,5.9-15.21A11.24,11.24,0,0,0,73.23,52.13Z"/>
<path class="cls-1" d="M63.89,67.9,49.46,59.57a1.3,1.3,0,0,0-1-.15c-.45.13-.58.66-.58,1.07,0,2.92,0,5.83,0,8.75a2.58,2.58,0,0,0,1.78,2.55,21.2,21.2,0,0,0,14.88-1.66c.36-.21.76-.55.7-1C65.09,68.47,64.4,68.21,63.89,67.9Z"/>
<path class="cls-1" d="M287.14,24.44h-6.23V44.28h-6.86v6.23h6.86V72.22a16.52,16.52,0,0,0,1.35,6.65A17.35,17.35,0,0,0,291.4,88a16.55,16.55,0,0,0,6.65,1.35V83.12a10.8,10.8,0,0,1-10.91-10.91V50.51h10.91V44.28H287.14Z"/>
<path class="cls-1" d="M344.07,49.88A21.35,21.35,0,0,0,337,45.21a22.78,22.78,0,0,0-8.73-1.66,22.06,22.06,0,0,0-8.93,1.82,23.36,23.36,0,0,0-12.21,12.21,21.78,21.78,0,0,0-1.82,8.83,22,22,0,0,0,1.82,8.93,23.36,23.36,0,0,0,12.21,12.2,22.41,22.41,0,0,0,24.72-4.62v5.61h6.23V44.28h-6.23Zm0,21.71a17,17,0,0,1-5.92,8.26,15.75,15.75,0,0,1-9.87,3.27,16.44,16.44,0,0,1-6.49-1.3,16.6,16.6,0,0,1-8.93-8.93,16.44,16.44,0,0,1-1.3-6.49,16.08,16.08,0,0,1,1.3-6.44,16.74,16.74,0,0,1,8.93-8.88,16.48,16.48,0,0,1,6.49-1.3A15.92,15.92,0,0,1,338.15,53a16.71,16.71,0,0,1,5.92,8.21Z"/>
<path class="cls-1" d="M367,80a10.77,10.77,0,0,1-3.17-7.74V17.58h-6.23V72.22a16.52,16.52,0,0,0,1.35,6.65A17.35,17.35,0,0,0,368.06,88a16.55,16.55,0,0,0,6.65,1.35V83.12A10.77,10.77,0,0,1,367,80Z"/>
<polygon class="cls-1" points="411.89 44.27 403.37 44.27 388.21 60.58 388.21 17.58 381.98 17.58 381.98 88.52 388.21 88.52 388.21 69.72 392.68 64.95 408.98 88.52 416.56 88.52 397.04 60.27 411.89 44.27"/>
<path class="cls-1" d="M198.25,46.18a25.12,25.12,0,0,0-7.73-5.25A23.66,23.66,0,0,0,181,39a24.38,24.38,0,0,0-9.29,1.77,23.33,23.33,0,0,0-5,2.8V39.72h-9.23v70.52h9.23V83.13a24,24,0,0,0,5,2.84,24.46,24.46,0,0,0,18.84-.11,24.87,24.87,0,0,0,13-13,23.64,23.64,0,0,0,1.94-9.53,23.4,23.4,0,0,0-1.94-9.43A25.11,25.11,0,0,0,198.25,46.18ZM181,78.56a14.16,14.16,0,0,1-9-3,15.58,15.58,0,0,1-5.33-7.32V58.39A15.29,15.29,0,0,1,172,51.14a14.33,14.33,0,0,1,9-2.92,15.07,15.07,0,0,1,5.91,1.18A15.24,15.24,0,0,1,195,57.49a14.68,14.68,0,0,1,1.18,5.85A15.05,15.05,0,0,1,195,69.25a15.1,15.1,0,0,1-8.14,8.14A15,15,0,0,1,181,78.56Z"/>
<rect class="cls-1" x="210.96" y="39.72" width="9.23" height="47.25"/>
<path class="cls-1" d="M215.57,25.07a5.83,5.83,0,0,0-4.13,10,5.83,5.83,0,1,0,8.25-8.25A5.67,5.67,0,0,0,215.57,25.07Z"/>
<path class="cls-1" d="M260.84,74.12a15.08,15.08,0,0,1-16.58,3.26,15.1,15.1,0,0,1-8.14-8.14,15,15,0,0,1-1.18-5.91,14.67,14.67,0,0,1,1.18-5.85,15.15,15.15,0,0,1,24.73-4.83l1.06,1.06,6.59-6.59-1.06-1.06A24.19,24.19,0,0,0,250.16,39a23.65,23.65,0,0,0-9.53,1.94,24.86,24.86,0,0,0-13,13,23.37,23.37,0,0,0-1.94,9.43,23.62,23.62,0,0,0,1.94,9.53,24.87,24.87,0,0,0,13,13,24.36,24.36,0,0,0,19.07,0,25.1,25.1,0,0,0,7.73-5.25l1.07-1.07-6.61-6.46Z"/>
</svg>
