<svg height="512" width="512" xmlns="http://www.w3.org/2000/svg">
  <path d="M454.204 202.652L310.348 58.796s-16.032-16.927 0-43.151c21.576-21.576 43.161 0 43.161 0l143.847 143.856s21.575 21.575 0 43.151c-24.049 16.181-43.152 0-43.152 0z"/>
  <path d="M475.779 209.844s-57.544-14.384-79.119 7.192l-93.504 93.503-100.695-100.695 93.504-93.503c21.575-21.576 7.191-79.12 7.191-79.12l172.623 172.623z"/>
  <path d="M303.156 440.012L72.988 209.844s7.202-21.575 35.969-21.575 86.312 28.767 115.079 0c64.736 64.736 43.161 43.15 100.695 100.695-28.767 28.767 0 86.312 0 115.079 0 28.776-21.575 35.969-21.575 35.969z"/>
  <path d="M8.262 504.738c-14.383-14.384 93.503-122.271 93.503-122.271l71.928-71.928 28.768 28.768-71.928 71.928c0-.001-107.887 107.886-122.271 93.503z"/>
</svg>
