<?xml version="1.0" ?><!DOCTYPE svg  PUBLIC '-//W3C//DTD SVG 1.1//EN'  'http://www.w3.org/Graphics/SVG/1.1/DTD/svg11.dtd'><svg enable-background="new 0 0 128 128" height="128px" id="Layer_1" version="1.1" viewBox="0 0 128 128" width="128px" xml:space="preserve" xmlns="http://www.w3.org/2000/svg" xmlns:xlink="http://www.w3.org/1999/xlink"><g><path d="M64,128C28.71,128,0,99.29,0,64C0,28.71,28.71,0,64,0c35.29,0,64,28.71,64,64C128,99.29,99.29,128,64,128z M64,10   c-29.776,0-54,24.224-54,54c0,29.775,24.224,54,54,54c29.775,0,54-24.225,54-54C118,34.224,93.775,10,64,10z" fill="#ff0000" /></g><g><path d="M46.001,40.51c0-3.523,2.489-4.954,5.534-3.179L91.718,60.77c3.044,1.775,3.044,4.68,0,6.457L51.534,90.668   C48.49,92.443,46,91.014,46,87.49L46.001,40.51L46.001,40.51z" fill="#ff0000" /></g></svg>
