<svg viewBox="0 0 512 512" xmlns="http://www.w3.org/2000/svg" fill="#ff0000" width="36" height="36">
  <path d="M320 73.294v67.979c18.103 7.902 34.75 19.204 49.137 33.59C399.358 205.083 416 245.263 416 288s-16.643 82.917-46.863 113.137S298.738 448 256 448s-82.917-16.643-113.137-46.863S96 330.737 96 288s16.643-82.917 46.863-113.137c14.387-14.387 31.034-25.689 49.137-33.591V73.294C99.476 100.834 32 186.53 32 288c0 123.712 100.289 224 224 224 123.712 0 224-100.288 224-224 0-101.47-67.475-187.166-160-214.706zM224 0h64v256h-64z"/>
</svg>