<svg height="24" width="24" xmlns="http://www.w3.org/2000/svg">
   <path d="M21 22h-6a1 1 0 0 1-1-1v-3a1 1 0 0 1 1-1h6a1 1 0 0 1 1 1v3a1 1 0 0 1-1 1z"/>
   <path d="M21 19.75h-6v-4A2.753 2.753 0 0 1 17.75 13h.5A2.753 2.753 0 0 1 21 15.75v4zm-4.5-1.5h3v-2.5c0-.69-.56-1.25-1.25-1.25h-.5c-.69 0-1.25.56-1.25 1.25v2.5z"/>
   <path d="M21 17v-1.25A2.753 2.753 0 0 0 18.25 13h-.5A2.753 2.753 0 0 0 15 15.75V17a1 1 0 0 0-1 1v3a1 1 0 0 0 1 1h6a1 1 0 0 0 1-1v-3a1 1 0 0 0-1-1zm-4.5-1.25c0-.69.56-1.25 1.25-1.25h.5c.69 0 1.25.56 1.25 1.25V17h-3v-1.25z"/>
   <path d="M13 15.766v-.016c0-2.62 2.13-4.75 4.75-4.75h.5c.62 0 1.207.127 1.75.344V4a2 2 0 0 0-2-2H4a2 2 0 0 0-2 2v10a2 2 0 0 0 2 2h8.787c.07-.078.134-.164.213-.234zM4 4l7 4 7-4v2l-7 4-7-4V4z"/>
</svg>
