<?xml version="1.0" ?><!DOCTYPE svg  PUBLIC '-//W3C//DTD SVG 1.1//EN'  'http://www.w3.org/Graphics/SVG/1.1/DTD/svg11.dtd'><svg enable-background="new 0 0 80 80" height="80px" id="Layer_1" version="1.1" viewBox="0 0 80 80" width="80px" xml:space="preserve" xmlns="http://www.w3.org/2000/svg" xmlns:xlink="http://www.w3.org/1999/xlink"><path d="M22,19h15v-3H22V19z M58,40V16H43v-1.5C43,7.057,36.945,1,29.5,1C22.056,1,16,7.057,16,14.5V16H1v63h78V40  H58z M22,76H4V19h12v6.416c-0.893,0.521-1.5,1.477-1.5,2.584c0,1.656,1.344,3,3,3s3-1.344,3-3c0-1.107-0.607-2.063-1.5-2.584v-5.273  c0-0.11,0-0.147,0-0.147V14.5C19,8.711,23.71,4,29.5,4S40,8.711,40,14.5v10.916c-0.893,0.521-1.5,1.477-1.5,2.584  c0,1.656,1.344,3,3,3s3-1.344,3-3c0-1.107-0.607-2.063-1.5-2.584V19h12v21H22V76z M62.75,51.584V55c0,7.443-6.056,13.5-13.5,13.5  c-7.445,0-13.5-6.057-13.5-13.5v-3.416c-0.893-0.521-1.5-1.477-1.5-2.584c0-1.656,1.344-3,3-3s3,1.344,3,3  c0,1.107-0.607,2.063-1.5,2.584V55c0,5.789,4.71,10.5,10.5,10.5s10.5-4.711,10.5-10.5v-3.416c-0.893-0.521-1.5-1.477-1.5-2.584  c0-1.656,1.344-3,3-3s3,1.344,3,3C64.25,50.107,63.643,51.063,62.75,51.584z" fill="#333F4F"/></svg>