<svg id="Layer_1" xmlns="http://www.w3.org/2000/svg" viewBox="0 0 128 128" width="36" height="36">
  <style>
    .st0{fill:red}
  </style>
  <path id="svg_2" class="st0" d="M38.5 44.1H0V129h38.4V44.1h.1zM8.2 94.7v-5.3l9.3-8.5c2-1.8 3.3-3.3 4.2-4.3.7-.9 1-1.7 1-2.7 0-.8-.3-1.4-1-2.1-.7-.6-1.6-.9-2.7-.9-2.1 0-3.7 1-5.1 3l-.5.8-5.8-3.2.6-.9c1.4-1.9 2.9-3.4 4.6-4.3 1.8-1 4-1.5 6.6-1.5 2.7 0 5.1.8 7.2 2.4 2.1 1.6 3.1 3.8 3.1 6.6 0 1.5-.4 3.1-1.4 4.5-.8 1.3-2.3 3.1-4.5 5.1l-5.2 4.8h12v6.3H8.2v.2z"/>
  <path id="svg_3" class="st0" d="M42.6 9.4V129h41.1V9.4H42.6zm24.3 56.8H60V43.3h-6v-6h12.8v28.9h.1z"/>
  <path id="svg_4" class="st0" d="M127.9 63.6H86.8V128h41.1V63.6zM116.1 109c-2.2 2.2-5.1 3.3-8.5 3.3s-6.8-1.3-10-3.8l-.8-.6 3.1-6.9.9.9c2.2 1.8 4.6 2.8 7 2.8 1.5 0 2.7-.4 3.6-1.2.8-.7 1.2-1.7 1.2-3s-.4-2.4-1.5-3.2c-1-.9-2.6-1.3-4.6-1.3-.9 0-2 .1-2.8.5l-1.4.5v-6.6l5.6-7.5h-9.5V75H118v6.2l-6 7.8c2 .5 3.6 1.5 5 3.2 1.7 2.1 2.6 4.7 2.6 7.7-.1 3.7-1.2 6.9-3.5 9.1z"/>
</svg>
