<svg id="Layer_1" xmlns="http://www.w3.org/2000/svg" viewBox="0 0 64 64" width="36" height="36">
  <style>.st0{fill:#ff0000}</style>
  <path class="st0" d="M23.8 0h15.9v64H23.8zM4.8 23.4h15.9V64H4.8zM42.7 23.4h15.9V64H42.7z"/>
  <path d="M31.5 21.4l-1.4.8-.3-1.6 1.9-1.1h1.4v9.2h-1.6v-7.3zM47.4 44.5v-1.3l.9-1.1c1.6-1.8 2.3-2.8 2.4-3.9 0-.8-.4-1.3-1.2-1.3-.6 0-1.2.4-1.5.8l-.5-1.5c.5-.5 1.4-1 2.4-1 1.6 0 2.5 1.2 2.5 2.9 0 1.5-.9 2.8-1.9 4l-.7.7h2.7v1.8h-5.1z"/>
  <g>
    <path d="M10.5 42.4c.3.2 1 .6 1.7.6.9 0 1.3-.5 1.3-1.2 0-.9-.7-1.3-1.5-1.3h-.7V39h.7c.6 0 1.3-.3 1.3-1.1 0-.6-.4-1-1.1-1-.6 0-1.2.3-1.5.6l-.3-1.6c.4-.4 1.3-.7 2.2-.7 1.5 0 2.4 1 2.4 2.3 0 1-.4 1.7-1.3 2.1.9.2 1.6 1 1.6 2.2 0 1.6-1.1 2.8-2.9 2.8-.9 0-1.7-.3-2.1-.7l.2-1.5z"/>
  </g>
</svg>