<?xml version="1.0" ?><!DOCTYPE svg  PUBLIC '-//W3C//DTD SVG 1.1//EN'  'http://www.w3.org/Graphics/SVG/1.1/DTD/svg11.dtd'><svg enable-background="new 0 0 128 128" height="128px" id="Layer_1" version="1.1" viewBox="0 0 128 128" width="128px" xml:space="preserve" xmlns="http://www.w3.org/2000/svg" xmlns:xlink="http://www.w3.org/1999/xlink"><g><path d="M80,16H48c-2.2,0-4,1.763-4,3.918v88.164c0,2.154,1.8,3.918,4,3.918h32c2.201,0,4-1.764,4-3.918V19.918   C84,17.763,82.201,16,80,16z M67.859,49.029c0,1.643-1.328,2.972-2.967,2.972c-1.647,0-2.972-1.329-2.972-2.972V30.101   l-2.112,0.548c-0.312,0.078-0.743,0.157-1.055,0.157c-1.409,0-2.62-1.174-2.62-2.581c0-1.213,0.782-2.229,1.995-2.581L62,24.508   C63.134,24.195,63.996,24,64.814,24h0.078c1.645,0,2.967,1.329,2.967,2.972V49.029z"/><path d="M34,40H4c-2.2,0-4,1.8-4,4v64c0,2.2,1.8,4,4,4h30c2.2,0,4-1.8,4-4V44C38,41.8,36.201,40,34,40z M26.811,76.001h-14.99   c-1.894,0-3.273-1.067-3.273-2.879c0-1.183,0.552-2.207,1.578-3.036l7.849-6.436c3.43-2.797,4.772-4.332,4.772-6.627   c0-2.326-1.539-3.588-3.708-3.588c-1.736,0-2.958,0.75-4.497,2.403c-0.394,0.437-1.104,0.871-2.052,0.871   c-1.538,0-2.76-1.226-2.76-2.761c0-0.67,0.276-1.381,0.711-1.895C12.65,49.5,15.253,48,19.435,48c5.719,0,9.505,3.354,9.505,8.52   v0.078c0,4.614-2.367,6.902-7.257,10.689l-4.496,3.47h9.624c1.46,0,2.642,1.185,2.642,2.64   C29.453,74.854,28.27,76.001,26.811,76.001z"/><path d="M124,63.998H94c-2.199,0-4,1.964-4,4.363v39.271c0,2.399,1.801,4.363,4,4.363h30c2.201,0,4-1.964,4-4.363V68.361   C128,65.962,126.201,63.998,124,63.998z M119.02,90.999c0,5.19-3.774,9.007-9.912,9.007c-3.924,0.001-6.875-1.218-9.114-3.146   c-0.552-0.471-1.022-1.299-1.022-2.161c0-1.575,1.338-2.911,2.911-2.911c0.865,0,1.455,0.354,1.929,0.747   c1.571,1.339,3.225,2.049,5.389,2.049c2.281,0,3.895-1.301,3.895-3.343v-0.078c0-2.243-2.008-3.5-5.389-3.5h-0.943   c-1.424,0-2.598-1.184-2.598-2.596c0-0.826,0.354-1.534,1.301-2.478l5.35-5.394h-8.459c-1.418,0-2.596-1.18-2.596-2.594   c0-1.418,1.18-2.597,2.596-2.597h13.412c1.771,0,3.062,1.026,3.062,2.672c0,1.498-0.709,2.322-1.812,3.382l-5.391,5.151   c3.736,0.63,7.395,2.597,7.395,7.709v0.08H119.02z"/></g></svg>