<?xml version="1.0" ?><svg enable-background="new 0 0 32 31" viewBox="0 0 32 31" xmlns="http://www.w3.org/2000/svg"><style type="text/css">.st0{fill-rule:evenodd;clip-rule:evenodd;fill:#231F20;}</style><path class="st0" d="M29 0h-26c-1.7 0-3 1.3-3 3v25c0 1.7 1.3 3 3 3h26c1.7 0 3-1.3 3-3v-25c0-1.7-1.3-3-3-3zm-23 25.5c0 .8-.7 1.5-1.5 1.5s-1.5-.7-1.5-1.5v-2c0-.8.7-1.5 1.5-1.5s1.5.7 1.5 1.5v2zm0-9c0 .8-.7 1.5-1.5 1.5s-1.5-.7-1.5-1.5v-2c0-.8.7-1.5 1.5-1.5s1.5.7 1.5 1.5v2zm0-9c0 .8-.7 1.5-1.5 1.5s-1.5-.7-1.5-1.5v-2c0-.8.7-1.5 1.5-1.5s1.5.7 1.5 1.5v2zm17 17.5c0 1.1-.9 2-2 2h-10c-1.1 0-2-.9-2-2v-6c0-1.1.9-2 2-2h10c1.1 0 2 .9 2 2v6zm0-13c0 1.1-.9 2-2 2h-10c-1.1 0-2-.9-2-2v-6c0-1.1.9-2 2-2h10c1.1 0 2 .9 2 2v6zm6 13.5c0 .8-.7 1.5-1.5 1.5s-1.5-.7-1.5-1.5v-2c0-.8.7-1.5 1.5-1.5s1.5.7 1.5 1.5v2zm0-9c0 .8-.7 1.5-1.5 1.5s-1.5-.7-1.5-1.5v-2c0-.8.7-1.5 1.5-1.5s1.5.7 1.5 1.5v2zm0-9c0 .8-.7 1.5-1.5 1.5s-1.5-.7-1.5-1.5v-2c0-.8.7-1.5 1.5-1.5s1.5.7 1.5 1.5v2z"/></svg>