<svg viewBox="0 0 32 31" xmlns="http://www.w3.org/2000/svg">
  <path d="M29 0H3C1.3 0 0 1.3 0 3v25c0 1.7 1.3 3 3 3h26c1.7 0 3-1.3 3-3V3c0-1.7-1.3-3-3-3zM6 25.5c0 .8-.7 1.5-1.5 1.5S3 26.3 3 25.5v-2c0-.8.7-1.5 1.5-1.5s1.5.7 1.5 1.5v2zm0-9c0 .8-.7 1.5-1.5 1.5S3 17.3 3 16.5v-2c0-.8.7-1.5 1.5-1.5s1.5.7 1.5 1.5v2zm0-9C6 8.3 5.3 9 4.5 9S3 8.3 3 7.5v-2C3 4.7 3.7 4 4.5 4S6 4.7 6 5.5v2zM23 25c0 1.1-.9 2-2 2H11c-1.1 0-2-.9-2-2v-6c0-1.1.9-2 2-2h10c1.1 0 2 .9 2 2v6zm0-13c0 1.1-.9 2-2 2H11c-1.1 0-2-.9-2-2V6c0-1.1.9-2 2-2h10c1.1 0 2 .9 2 2v6zm6 13.5c0 .8-.7 1.5-1.5 1.5s-1.5-.7-1.5-1.5v-2c0-.8.7-1.5 1.5-1.5s1.5.7 1.5 1.5v2zm0-9c0 .8-.7 1.5-1.5 1.5s-1.5-.7-1.5-1.5v-2c0-.8.7-1.5 1.5-1.5s1.5.7 1.5 1.5v2zm0-9c0 .8-.7 1.5-1.5 1.5S26 8.3 26 7.5v-2c0-.8.7-1.5 1.5-1.5s1.5.7 1.5 1.5v2z" fill-rule="evenodd" clip-rule="evenodd" fill="red"/>
</svg>
