<svg viewBox="0 0 128 128" xmlns="http://www.w3.org/2000/svg" width="36" height="36">
  <path d="M117.782 93.805c-11.927-7.079-16.525-7.677-17.755-15.368-.385-2.418-.467-5.408-.399-7.794.116-.109 2.601.913 7.077.913s6.949-2.291 6.949-2.291-.883-1.319-2.404-5.104c-3.152-8.43-1.455-12.348-1.488-20.669-.035-8.273-2.896-12.367-6.115-15.493-3.787-3.676-9.086-6.118-13.797-3.463-4.166-2.734-9.223-.214-13.012 3.462-3.22 3.125-6.079 7.22-6.115 15.493-.035 8.323 1.664 12.24-1.486 20.67-1.522 3.783-2.407 5.104-2.407 5.104s2.474 2.291 6.948 2.291c4.479 0 6.182-1.021 6.291-.913.068 2.386-.014 5.374-.399 7.794-.608 3.826-2.002 5.895-4.711 7.884 2.438 2.163 4.634 4.712 6.577 7.717 3.646 5.638 4.615 13.305 3.441 17.96h4.871l.002.002h34.584c2.823 0 3.521-.759 3.562-3.639.036-2.706.078-8.447-10.214-14.556z" fill="#ff0000"/>
  <path d="M76.494 97.291c-3.799-5.873-8.516-9.631-14.443-11.762-5.93-2.133-7.898-3.406-9.459-5.454-1.564-2.053-.906-10.799-.906-10.799s3.283-4.519 4.348-7.358c1.072-2.848 1.277-8.308 1.277-8.308s2.795-1.859 3.51-4.112c.705-2.252 1.301-6.079.828-7.75-.471-1.674-2.625-1.178-2.625-1.178s.004-3.032.09-5.436C59.221 31.92 58.294 16 39.72 16c-18.574 0-19.498 15.917-19.385 19.127.087 2.405.088 5.437.088 5.437s-2.157-.496-2.627 1.181c-.474 1.667.122 5.498.826 7.749.716 2.25 3.507 4.11 3.507 4.11s.215 5.463 1.281 8.308c1.068 2.844 4.349 7.359 4.349 7.359s.66 8.749-.907 10.803c-1.562 2.048-3.528 3.324-9.462 5.452-5.928 2.129-10.64 5.893-14.441 11.764-3.802 5.874-3.07 13.052-2.444 13.91.632.859 3.574.796 5.669.796 6.9-.01 17.182.012 33.549 0 16.366.014 26.65-.006 33.546 0 2.098 0 5.037.062 5.674-.796.619-.863 1.349-8.035-2.449-13.909z" fill="#ff0000"/>
</svg>