<svg viewBox="0 0 50 50" xmlns="http://www.w3.org/2000/svg">
  <path d="M37.3 49c-.3 0-.7-.1-1-.3-.8-.5-1.2-1.5-.9-2.4.6-1.7.9-3.4.9-5.1 0-7.9-5.9-14.4-13.5-15.4v5c0 .8-.5 1.5-1.2 1.8-.8.3-1.6.1-2.2-.4L5.5 18.3c-.8-.8-.8-2 0-2.8L19.4 1.6c.6-.6 1.4-.8 2.2-.4.7.3 1.2 1 1.2 1.8v4.8c12.5 1 22.3 11.5 22.3 24.2 0 6-2.2 11.8-6.3 16.3-.4.5-.9.7-1.5.7zM20.8 21.8c9.8 0 17.9 7.2 19.3 16.6.7-2 1-4.2 1-6.3 0-11.2-9.1-20.3-20.3-20.3-1.1 0-2-.9-2-2v-2l-9.1 9.1 9.1 9.1v-2.3c0-1 .9-1.9 2-1.9z" fill="#ff0000" />
</svg>
