<?xml version="1.0" ?><!DOCTYPE svg  PUBLIC '-//W3C//DTD SVG 1.1//EN'  'http://www.w3.org/Graphics/SVG/1.1/DTD/svg11.dtd'><svg enable-background="new 0 0 512 512" height="512px" id="Layer_1" version="1.1" viewBox="0 0 512 512" width="512px" xml:space="preserve" xmlns="http://www.w3.org/2000/svg" xmlns:xlink="http://www.w3.org/1999/xlink"><g><path d="M416,64H96c-26.5,0-48,21.492-48,48v320c0,26.516,21.5,48,48,48h320c26.5,0,48-21.484,48-48V112   C464,85.492,442.5,64,416,64z M416,426.75c0,2.906-2.344,5.25-5.25,5.25h-309.5c-2.898,0-5.25-2.344-5.25-5.25v-309.5   c0-2.898,2.352-5.25,5.25-5.25h309.5c2.906,0,5.25,2.352,5.25,5.25V426.75z M130.492,168.461l21.969-21.969   c3.305-3.305,8.664-3.305,11.969,0l47.117,47.117l5.328-5.328l26.016-26.016c2.195-2.195,5.5-2.852,8.367-1.664   c2.875,1.188,4.742,3.984,4.742,7.094v96.625c0,4.242-3.438,7.68-7.68,7.68h-96.625c-3.109,0-5.906-1.875-7.094-4.742   s-0.531-6.172,1.664-8.367l26.008-26.008l5.336-5.336l-47.117-47.117C127.188,177.125,127.188,171.766,130.492,168.461z    M256,376.305V279.68c0-4.242,3.438-7.68,7.688-7.68h96.625c3.125,0,5.906,1.875,7.095,4.742c1.18,2.867,0.53,6.172-1.656,8.367   l-26,26.008l-5.344,5.336l47.125,47.117c3.305,3.305,3.305,8.664,0,11.969l-21.97,21.969c-3.313,3.305-8.655,3.305-11.969,0   l-47.125-47.125l-5.344,5.336l-26,26.016c-2.219,2.195-5.5,2.853-8.375,1.664C257.875,382.211,256,379.414,256,376.305z" fill="#4D4D4D"/></g></svg>