<svg id="Layer_1" xmlns="http://www.w3.org/2000/svg" viewBox="0 0 512 512" width="36" height="36">
  <style>.st0{fill:#ff0000}</style>
  <path class="st0" d="M453 0H60C27.4 0 1 26.4 1 59v393c0 32.6 26.4 59 59 59h393c32.6 0 59-26.4 59-59V59c0-32.6-26.4-59-59-59zm0 445.6c0 3.6-2.9 6.4-6.4 6.4H66.4c-3.6 0-6.4-2.9-6.4-6.4V65.4c0-3.6 2.9-6.4 6.4-6.4h380.2c3.6 0 6.4 2.9 6.4 6.4v380.2zM102.3 128.3l27-27c4.1-4.1 10.6-4.1 14.7 0l57.9 57.9 6.5-6.5 32-32c2.7-2.7 6.8-3.5 10.3-2 3.5 1.5 5.8 4.9 5.8 8.7v118.7c0 5.2-4.2 9.4-9.4 9.4H128.4c-3.8 0-7.3-2.3-8.7-5.8s-.7-7.6 2-10.3l31.9-31.9 6.6-6.6-57.9-57.9c-4-4-4-10.6 0-14.7zm154.2 255.3V264.9c0-5.2 4.2-9.4 9.4-9.4h118.7c3.8 0 7.3 2.3 8.7 5.8 1.4 3.5.7 7.6-2 10.3l-31.9 31.9-6.6 6.6 57.9 57.9c4.1 4.1 4.1 10.6 0 14.7l-27 27c-4.1 4.1-10.6 4.1-14.7 0l-57.9-57.9-6.6 6.6-31.9 32c-2.7 2.7-6.8 3.5-10.3 2-3.5-1.5-5.8-5-5.8-8.8z"/>
</svg>