<?xml version="1.0" ?><!DOCTYPE svg  PUBLIC '-//W3C//DTD SVG 1.1//EN'  'http://www.w3.org/Graphics/SVG/1.1/DTD/svg11.dtd'><svg enable-background="new 0 0 56.693 56.693" height="56.693px" id="Layer_1" version="1.1" viewBox="0 0 56.693 56.693" width="56.693px" xml:space="preserve" xmlns="http://www.w3.org/2000/svg" xmlns:xlink="http://www.w3.org/1999/xlink"><g><path d="M44.006,37.337l-11.567,1.832c-0.382,0.061-0.698,0.332-0.817,0.699c-0.12,0.367-0.022,0.771,0.251,1.047   l2.713,2.711c-4.224,1.107-8.826,0.293-12.517-2.492c-1.059-0.801-2.564-0.592-3.364,0.467c-0.801,1.059-0.591,2.566,0.469,3.365   c3.499,2.645,7.616,3.957,11.727,3.957c2.54,0,5.074-0.518,7.462-1.52l3.244,3.244c0.197,0.197,0.46,0.301,0.729,0.301   c0.107,0,0.215-0.016,0.318-0.049c0.368-0.121,0.639-0.436,0.699-0.818l1.833-11.566c0.052-0.326-0.056-0.656-0.289-0.891   C44.662,37.392,44.332,37.284,44.006,37.337z" fill="#474A56"/><path d="M42.375,13.779l1.121-4.451c0.096-0.376-0.029-0.772-0.32-1.027s-0.701-0.324-1.061-0.181l-10.871,4.356   c-0.307,0.123-0.535,0.384-0.615,0.704c-0.08,0.319-0.004,0.658,0.208,0.911l7.505,8.991c0.197,0.238,0.488,0.369,0.79,0.369   c0.075,0,0.153-0.008,0.229-0.024c0.378-0.087,0.675-0.378,0.77-0.753l0.937-3.711c3.074,3.024,4.74,7.33,4.294,11.862   c-0.13,1.318,0.835,2.496,2.156,2.625c0.08,0.008,0.159,0.012,0.237,0.012c1.221,0,2.267-0.928,2.389-2.168   C50.827,24.327,47.76,17.764,42.375,13.779z" fill="#474A56"/><path d="M21.412,24.818c-0.264-0.284-0.664-0.398-1.036-0.294l-3.692,1.035c1.102-4.213,4.053-7.819,8.271-9.675   c1.215-0.534,1.768-1.951,1.233-3.166c-0.534-1.214-1.952-1.768-3.166-1.232c-6.479,2.847-10.705,8.802-11.483,15.517l-4.418,1.24   c-0.373,0.104-0.656,0.408-0.732,0.789c-0.076,0.379,0.067,0.77,0.371,1.008l9.188,7.268c0.184,0.145,0.408,0.221,0.638,0.221   c0.093,0,0.187-0.014,0.278-0.039c0.316-0.09,0.573-0.324,0.688-0.633l4.068-10.983C21.754,25.51,21.674,25.102,21.412,24.818z" fill="#474A56"/></g></svg>