<svg xmlns="http://www.w3.org/2000/svg" viewBox="0 0 56.7 56.7" width="36" height="36">
  <path d="M48.6 38.6L33.7 41c-.5.1-.9.4-1.1.9-.2.5 0 1 .3 1.4l3.5 3.5c-5.5 1.4-11.4.4-16.2-3.2-1.4-1-3.3-.8-4.3.6s-.8 3.3.6 4.3c4.5 3.4 9.8 5.1 15.2 5.1 3.3 0 6.6-.7 9.6-2l4.2 4.2c.3.3.6.4.9.4.1 0 .3 0 .4-.1.5-.2.8-.6.9-1.1l2.4-14.9c.1-.4-.1-.8-.4-1.2-.2-.2-.6-.4-1.1-.3zM46.5 8.1L48 2.4c.1-.5 0-1-.4-1.3-.4-.3-.9-.4-1.4-.2l-14 5.6c-.4.2-.7.5-.8.9-.1.4 0 .9.3 1.2l9.7 11.6c.3.3.6.5 1 .5h.3c.5-.1.9-.5 1-1l1.2-4.8c4 3.9 6.1 9.5 5.5 15.3-.2 1.7 1.1 3.2 2.8 3.4h.3c1.6 0 2.9-1.2 3.1-2.8.9-9-3.1-17.5-10.1-22.7zM19.4 22.4c-.3-.4-.9-.5-1.3-.4l-4.8 1.3c1.4-5.4 5.2-10.1 10.7-12.5 1.6-.7 2.3-2.5 1.6-4.1-.7-1.6-2.5-2.3-4.1-1.6C13.1 8.9 7.7 16.6 6.7 25.2L1 26.8c-.5.1-.8.5-.9 1-.1.5.1 1 .5 1.3l11.9 9.4c.2.2.5.3.8.3.1 0 .2 0 .4-.1.4-.1.7-.4.9-.8l5.3-14.2c0-.4-.1-.9-.5-1.3z" fill="red"/>
</svg>
