<?xml version="1.0" ?><!DOCTYPE svg  PUBLIC '-//W3C//DTD SVG 1.1//EN'  'http://www.w3.org/Graphics/SVG/1.1/DTD/svg11.dtd'><svg enable-background="new 0 0 72 72" id="Layer_1" version="1.1" viewBox="0 0 72 72" xml:space="preserve" xmlns="http://www.w3.org/2000/svg" xmlns:xlink="http://www.w3.org/1999/xlink"><g><g><path d="M14.7,0.5c-1.1,0-2,0.9-2,2v15.1c0,1.1,0.9,2,2,2s2-0.9,2-2V2.5C16.7,1.4,15.8,0.5,14.7,0.5z" fill="#010101"/><path d="M57.3,0.5c-1.1,0-2,0.9-2,2v15.1c0,1.1,0.9,2,2,2s2-0.9,2-2V2.5C59.3,1.4,58.4,0.5,57.3,0.5z" fill="#010101"/></g><path d="M69,9.6h-5.1c-0.6,0-1.1,0.5-1.1,1.1v7.1c0,2.9-2.1,5.4-4.9,5.7c-3.3,0.3-6.1-2.3-6.1-5.5v-7.3   c0-0.6-0.5-1.1-1.1-1.1H21.2c-0.6,0-1.1,0.5-1.1,1.1v7.1c0,2.9-2.1,5.4-4.9,5.7C12,23.8,9.2,21.2,9.2,18v-7.3   c0-0.6-0.5-1.1-1.1-1.1H3c-1.4,0-2.5,1.1-2.5,2.5V69c0,1.4,1.1,2.5,2.5,2.5H69c1.4,0,2.5-1.1,2.5-2.5V12.1   C71.5,10.7,70.4,9.6,69,9.6z M36,63.1C25.9,63.1,17.6,55,17.6,45S25.9,26.9,36,26.9S54.4,35,54.4,45S46.1,63.1,36,63.1z" fill="#010101"/><g><path d="M42.6,55.4c-0.6,0-1.2-0.3-1.6-0.8l-6.6-8.4c-0.6-0.7-0.6-1.7,0-2.4l8.7-11.9c0.6-0.8,1.7-1.1,2.6-0.7    c1.1,0.6,1.4,2,0.7,3l-7.2,9.9c-0.4,0.5-0.4,1.3,0,1.8l4.9,6.2c0.6,0.8,0.7,2,0,2.7C43.7,55.2,43.1,55.4,42.6,55.4z" fill="#010101"/></g></g></svg>