<svg id="Layer_1" xmlns="http://www.w3.org/2000/svg" viewBox="0 0 512 512" width="36" height="36">
  <style>.st0{fill:#ff0000}</style>
  <path class="st0" d="M396.3 328.4c-6.3-6.2-7.5-17.4-3.4-25.2 14.8-28.5 23.1-60.9 23.1-95.2C416 93.1 322.9 0 208 0S0 93.1 0 208s93.1 208 208 208c34.3 0 66.7-8.3 95.2-23.1 7.8-4.1 19-2.8 25.2 3.4L430.1 498c9.3 9.4 21.6 14.1 33.9 14.1 12.3 0 24.6-4.6 33.9-14.1 18.7-18.7 18.7-49.1 0-67.8L396.3 328.4zm-138.2-2.5c-15.5 6.5-32.5 10.1-50.1 10.1-70.7 0-128-57.3-128-128S137.3 80 208 80s128 57.3 128 128c0 17.8-3.7 34.7-10.1 50.1-12.9 30.4-37.4 54.9-67.8 67.8z"/>
</svg>