<?xml version="1.0" ?><!DOCTYPE svg  PUBLIC '-//W3C//DTD SVG 1.1//EN'  'http://www.w3.org/Graphics/SVG/1.1/DTD/svg11.dtd'><svg enable-background="new -240 -240 512 512" height="512px" id="Layer_1" version="1.1" viewBox="-240 -240 512 512" width="512px" xml:space="preserve" xmlns="http://www.w3.org/2000/svg" xmlns:xlink="http://www.w3.org/1999/xlink"><g><path fill="#ff0000" d="M156.312,88.428c-6.266-6.25-7.5-17.374-3.438-25.217c14.812-28.5,23.139-60.929,23.139-95.217   c0-114.879-93.105-207.993-207.993-207.993c-114.879,0-207.994,93.114-207.994,207.993c0,114.871,93.115,207.994,207.994,207.994   c34.304,0,66.717-8.344,95.216-23.125c7.828-4.078,18.984-2.844,25.203,3.406l101.652,101.653   C199.373,267.36,211.717,272,224.013,272c12.297,0,24.64-4.64,33.921-14.077c18.719-18.718,18.719-49.124,0-67.841L156.312,88.428z    M18.098,85.912C2.582,92.459-14.363,95.99-31.979,95.99c-70.716,0-127.996-57.279-127.996-127.996   c0-70.716,57.28-127.996,127.996-127.996c70.717,0,127.996,57.28,127.996,127.996c0,17.757-3.671,34.718-10.077,50.076   C73.002,48.461,48.471,72.96,18.098,85.912z"/></g></svg>
