<svg xmlns="http://www.w3.org/2000/svg" viewBox="0 0 24 24" width="36" height="36">
  <g stroke="red" stroke-linecap="round" stroke-linejoin="round" stroke-miterlimit="10" fill="none">
    <path d="M20.254 13.5H23.5v-3h-3.247c-.209-.867-.551-2.181-1.003-2.922l2.296-2.295-2.829-2.829L16.42 4.75c-.74-.452-2.053-.793-2.92-1.002V.5h-3v3.248c-.867.209-2.181.55-2.921 1.002L5.282 2.454 2.453 5.283 4.75 7.579c-.452.74-.794 2.054-1.004 2.921H.5v3h3.246c.21.867.552 2.181 1.004 2.921l-2.297 2.297 2.829 2.828 2.296-2.297c.741.454 2.055.795 2.922 1.005V23.5h3v-3.246c.867-.21 2.181-.552 2.92-1.004l2.298 2.296 2.828-2.828-2.296-2.297c.452-.74.794-2.054 1.004-2.921z"/>
    <circle cx="12" cy="12" r="4.5"/>
  </g>
</svg>
