<svg height="56.693" viewBox="0 0 56.693 56.693" width="56.693" xmlns="http://www.w3.org/2000/svg">
  <g fill="#474A56">
    <path d="M52.761 17.336L40.122 6.251a1.659 1.659 0 0 0-1.726-.135 1.654 1.654 0 0 0-.397.288c-.009.006-.016.009-.024.016a1.651 1.651 0 0 0-.223.284c-.018.025-.03.055-.045.083a1.797 1.797 0 0 0-.128.29l-.032.11c-.034.13-.057.266-.057.404v2.483l-.001 2.438c-.034 0-.063-.014-.096-.01-14.953 1.51-25.806 8.906-25.806 17.59 0 6.182 5.445 11.823 14.566 15.089a.954.954 0 0 0 .73-1.762c-4.483-2.114-7.054-5.151-7.054-8.331 0-5.369 7.424-9.746 17.661-10.42l-.001 5.095c0 .623.35 1.194.906 1.476.113.058.232.096.353.122.108.028.217.038.328.043h.002c.367.015.736-.074 1.044-.299l12.64-11.088c.428-.312.682-.809.684-1.34a1.673 1.673 0 0 0-.685-1.341z"/>
    <path d="M49.869 28.956c-.962 0-1.743.78-1.743 1.743v17.112H6.983V16.428h8.646a1.742 1.742 0 1 0 0-3.485H5.24c-.963 0-1.743.781-1.743 1.743v34.867c0 .963.78 1.743 1.743 1.743h44.629c.962 0 1.743-.78 1.743-1.743V30.699c0-.963-.78-1.743-1.743-1.743z"/>
  </g>
</svg>
