<?xml version="1.0" ?><!DOCTYPE svg  PUBLIC '-//W3C//DTD SVG 1.1//EN'  'http://www.w3.org/Graphics/SVG/1.1/DTD/svg11.dtd'><svg enable-background="new 0 0 512 512" height="512px" id="Layer_1" version="1.1" viewBox="0 0 512 512" width="512px" xml:space="preserve" xmlns="http://www.w3.org/2000/svg" xmlns:xlink="http://www.w3.org/1999/xlink"><g><path d="M447.5,511.5h-384c-35.375,0-64-28.625-64-64v-384c0-35.344,28.625-64,64-64h192v64h-192v384h384v-96   c36.438-36.438,64-64,64-64v160C511.5,482.875,482.875,511.5,447.5,511.5z M343.25,312.875   c-9.313,9.313-23.563,9.313-23.563-10.125v-79.031c-82.75,1.188-154.188,77.344-193.125,183.406c0-0.188-0.063-0.438-0.063-0.625   c0-169.656,86.438-309.156,193.188-309.875v-78.25c0-19.469,14.25-19.469,23.563-10.094L504,137c9.313,9.344,9.313,37.813,0,47.156   L343.25,312.875z"/></g></svg>