<?xml version="1.0" ?><!DOCTYPE svg  PUBLIC '-//W3C//DTD SVG 1.1//EN'  'http://www.w3.org/Graphics/SVG/1.1/DTD/svg11.dtd'><svg height="512px" id="Слой_1" style="enable-background:new 0 0 512 512;" version="1.1" viewBox="0 0 512 512" width="512px" xml:space="preserve" xmlns="http://www.w3.org/2000/svg" xmlns:xlink="http://www.w3.org/1999/xlink"><path d="M55.984,5.929H495.07v468.1h-36.734v31.9h-41.727v-31.9H143.777  v31.9h-41.728v-31.9H55.984v-57.692H18.176v-92.546h37.808V152.005H18.176V59.472h37.808V5.929L55.984,5.929z M239.209,141.277  c-29.106,0-55.476,11.802-74.594,30.88c-19.078,19.132-30.894,45.475-30.894,74.609c0,29.122,11.815,55.517,30.894,74.595  c19.118,19.132,45.488,30.947,74.594,30.947c29.135,0,55.531-11.815,74.609-30.947c19.065-19.078,30.92-45.474,30.92-74.595  c0-29.134-11.855-55.477-30.92-74.609C294.739,153.078,268.344,141.277,239.209,141.277L239.209,141.277z M401.799,179.368  c-16.783,0-30.382,13.627-30.382,30.382c0,11.573,6.497,21.63,16.03,26.731l-9.412,88.907l23.053,3.076l23.038-3.076l-9.317-88.221  c10.218-4.874,17.32-15.333,17.32-27.417C432.129,192.995,418.541,179.368,401.799,179.368L401.799,179.368z M263.685,166.304  l-1.933,7.222l-5.411-1.423l1.934-7.277c-3.935-0.885-7.935-1.53-12.057-1.866v15.735h-14.016v-15.735  c-4.082,0.335-8.122,0.98-12.03,1.866l1.919,7.277l-5.384,1.423l-1.947-7.222c-5.289,1.598-10.351,3.705-15.131,6.255l3.733,6.471  l-4.846,2.834l-3.76-6.471c-4.644,2.9-8.994,6.243-12.996,9.989l5.318,5.289l-3.975,3.921l-5.304-5.277  c-2.765,3.007-5.316,6.122-7.652,9.478l13.641,7.882l-6.995,12.097l-13.667-7.841c-1.706,3.638-3.183,7.438-4.391,11.357  l7.237,1.933l-1.437,5.451l-7.237-1.933c-1.221,5.223-1.933,10.674-2.121,16.245h7.493v5.613h-7.493  c0.188,5.571,0.901,10.955,2.121,16.245l7.237-1.987l1.437,5.437l-7.237,1.933c1.208,3.92,2.685,7.72,4.391,11.359l13.667-7.841  l6.995,12.096l-13.641,7.896c2.336,3.342,4.887,6.525,7.652,9.478l5.304-5.277l3.975,3.975l-5.318,5.277  c4.002,3.691,8.352,7.089,12.996,9.988l3.76-6.525l4.846,2.833l-3.733,6.471c4.78,2.618,9.842,4.658,15.131,6.31l1.947-7.265  l5.384,1.424l-1.919,7.249c3.907,0.913,7.948,1.598,12.03,1.933v-15.775h14.016v15.775c4.122-0.335,8.123-1.02,12.057-1.933  l-1.934-7.249l5.411-1.424l1.933,7.265c5.29-1.653,10.365-3.693,15.131-6.31l-3.746-6.471l4.861-2.833l3.731,6.525  c4.659-2.9,9.049-6.297,13.01-9.988l-5.289-5.277l3.947-3.975l5.33,5.277c2.765-2.953,5.316-6.136,7.652-9.478l-13.655-7.896  l7.009-12.096l13.655,7.841c1.732-3.639,3.182-7.439,4.376-11.359l-7.249-1.933l1.463-5.437l7.237,1.987  c1.222-5.29,1.947-10.674,2.121-16.245h-7.491v-5.613h7.491c-0.174-5.571-0.899-11.022-2.121-16.245l-7.237,1.933l-1.463-5.451  l7.249-1.933c-1.195-3.92-2.644-7.72-4.376-11.357l-13.655,7.841l-7.009-12.097l13.655-7.882c-2.336-3.356-4.888-6.471-7.652-9.478  l-5.33,5.277l-3.947-3.921l5.289-5.289c-3.961-3.746-8.351-7.09-13.01-9.989l-3.731,6.471l-4.861-2.834l3.746-6.471  C274.05,170.009,268.975,167.902,263.685,166.304L263.685,166.304z M239.209,209.857c-10.19,0-19.414,4.135-26.086,10.849  c-6.66,6.7-10.795,15.896-10.795,26.06c0,10.164,4.135,19.414,10.795,26.1c6.672,6.646,15.896,10.795,26.086,10.795  c10.192,0,19.428-4.149,26.087-10.795c6.686-6.686,10.821-15.936,10.821-26.1c0-10.164-4.136-19.36-10.821-26.06  C258.636,213.993,249.4,209.857,239.209,209.857L239.209,209.857z M260.033,225.983c-5.303-5.344-12.701-8.634-20.825-8.634  c-8.122,0-15.467,3.29-20.796,8.634c-5.304,5.277-8.593,12.661-8.593,20.783c0,8.109,3.289,15.493,8.593,20.823  c5.329,5.344,12.673,8.58,20.796,8.58c8.124,0,15.522-3.236,20.825-8.58c5.303-5.33,8.593-12.714,8.593-20.823  C268.626,238.644,265.336,231.259,260.033,225.983z" style="fill-rule:evenodd;clip-rule:evenodd;fill:#ff0000;"/></svg>
