<svg height="24" viewBox="0 0 24 24" width="24" xmlns="http://www.w3.org/2000/svg">
  <path d="M9 13h2.142A3.993 3.993 0 0 0 14 15.858V16a1 1 0 1 0 2 0v-.142A3.993 3.993 0 0 0 18.858 13H19a1 1 0 1 0 0-2h-.142A3.993 3.993 0 0 0 16 8.142V8a1 1 0 1 0-2 0v.142A3.993 3.993 0 0 0 11.142 11H9a1 1 0 1 0 0 2zm6-3a2 2 0 1 1-.001 4.001A2 2 0 0 1 15 10zm0 3a1 1 0 1 0 0-2 1 1 0 1 0 0 2zM5 8a1 1 0 0 0 1-1V5a1 1 0 1 0-2 0v2a1 1 0 0 0 1 1zm0 12a1 1 0 0 0 1-1v-2a1 1 0 1 0-2 0v2a1 1 0 0 0 1 1zM23 0H1a1 1 0 0 0-1 1v22a1 1 0 0 0 1 1h22a1 1 0 0 0 1-1V1a1 1 0 0 0-1-1zm-1 22H2V2h20v20z" fill="#ff0000"/>
</svg>
