<svg viewBox="0 0 512 512" xmlns="http://www.w3.org/2000/svg" width="36" height="36">
  <g clip-rule="evenodd" fill-rule="evenodd" fill="red">
    <path d="M0 0h435.207L512 76.793V512H76.793L0 435.211z"/>
    <path d="M435.207 0L512 76.793h-76.793zM435.207 76.793L512 153.584V76.793zM76.793 512L0 435.211h76.793z"/>
    <path d="M153.588 512l-76.795-76.789V512zM237.029 276.332v-74.826c0-10.432 8.463-19.051 18.896-19.051 10.578 0 19.047 8.619 19.047 19.051v20.707l23.43 11.035 34.766-10.73v-21.012c0-42.631-34.613-77.096-77.242-77.096-42.479 0-77.096 34.465-77.096 77.096v108.99c0 10.43-8.465 19.043-19.047 19.043-10.432 0-19.045-8.613-19.045-19.043v-49.129h-58.05v49.129c0 42.477 34.467 77.094 77.096 77.094s77.246-34.617 77.246-77.094v-34.164zm37.944 0v34.164c0 42.477 34.617 77.094 77.246 77.094s77.09-34.617 77.09-77.094v-49.129h-58.043v49.129c0 10.43-8.617 19.043-19.047 19.043-10.582 0-19.051-8.613-19.051-19.043v-48.98l-34.766 10.887-23.43-11.035v14.964z"/>
    <path d="M227.355 347.832c-13.154 23.738-38.547 39.758-67.572 39.758a76.75 76.75 0 0 1-53.814-21.918L252.297 512H512V343.902l-82.691-82.535v49.129c0 42.477-34.461 77.094-77.09 77.094s-77.246-34.617-77.246-77.094v-49.129l23.43 11.035 34.766-10.887v48.98c0 10.43 8.469 19.043 19.051 19.043 10.43 0 19.047-8.613 19.047-19.043v-49.129h53.508L312.914 149.352c12.543 13.756 20.254 32.047 20.254 52.154v21.012l-34.766 10.73-23.43-11.035v-20.707c0-10.432-8.469-19.051-19.047-19.051-10.434 0-18.896 8.619-18.896 19.051v108.99c0 13.449-3.627 26.301-9.674 37.336zm-67.572-18.293c10.582 0 19.047-8.613 19.047-19.043v-11.188l-38.092-37.941v49.129c0 10.43 8.614 19.043 19.045 19.043z"/>
  </g>
</svg>
