<?xml version="1.0" ?><!DOCTYPE svg  PUBLIC '-//W3C//DTD SVG 1.1//EN'  'http://www.w3.org/Graphics/SVG/1.1/DTD/svg11.dtd'><svg enable-background="new 0 0 512 512" height="512px" id="Layer_1" version="1.1" viewBox="0 0 512 512" width="512px" xml:space="preserve" xmlns="http://www.w3.org/2000/svg" xmlns:xlink="http://www.w3.org/1999/xlink"><g><polygon clip-rule="evenodd" fill="#E7422B" fill-rule="evenodd" points="0,0 435.207,0 512,76.793 512,512 76.793,512 0,435.211     "/><polygon clip-rule="evenodd" fill="#EE6952" fill-rule="evenodd" points="435.207,0 512,76.793 435.207,76.793  "/><polygon clip-rule="evenodd" fill="#C32326" fill-rule="evenodd" points="435.207,76.793 512,153.584 512,76.793  "/><polygon clip-rule="evenodd" fill="#EE6952" fill-rule="evenodd" points="76.793,512 0,435.211 76.793,435.211  "/><polygon clip-rule="evenodd" fill="#C32326" fill-rule="evenodd" points="153.588,512 76.793,435.211 76.793,512  "/><path clip-rule="evenodd" d="M237.029,276.332v-74.826c0-10.432,8.463-19.051,18.896-19.051   c10.578,0,19.047,8.619,19.047,19.051v20.707l23.43,11.035l34.766-10.73v-20.412v-0.6c0-42.631-34.613-77.096-77.242-77.096   c-42.479,0-77.096,34.465-77.096,77.096v34.162v74.828c0,10.43-8.465,19.043-19.047,19.043c-10.432,0-19.045-8.613-19.045-19.043   v-49.129h-40.363H82.688v49.129c0,42.477,34.467,77.094,77.096,77.094s77.246-34.617,77.246-77.094V276.332z M274.973,276.332   v33.559v0.605c0,42.477,34.617,77.094,77.246,77.094s77.09-34.617,77.09-77.094v-49.129h-58.043v49.129   c0,10.43-8.617,19.043-19.047,19.043c-10.582,0-19.051-8.613-19.051-19.043v-48.98l-34.766,10.887l-23.43-11.035V276.332z" fill="#FFFFFF" fill-rule="evenodd"/><path clip-rule="evenodd" d="M227.355,347.832c-13.154,23.738-38.547,39.758-67.572,39.758   c-20.859,0-39.908-8.309-53.814-21.918L252.297,512H391.52H512V348.586v-4.684l-82.691-82.535v4.535v44.594   c0,42.477-34.461,77.094-77.09,77.094s-77.246-34.617-77.246-77.094v-0.605v-33.559v-14.965l23.43,11.035l34.766-10.887v48.98   c0,10.43,8.469,19.043,19.051,19.043c10.43,0,19.047-8.613,19.047-19.043v-49.129h53.508L312.914,149.352   c12.543,13.756,20.254,32.047,20.254,52.154v0.6v20.412l-34.766,10.73l-23.43-11.035v-20.707c0-10.432-8.469-19.051-19.047-19.051   c-10.434,0-18.896,8.619-18.896,19.051v74.826v34.164C237.029,323.945,233.402,336.797,227.355,347.832L227.355,347.832z    M159.783,329.539c10.582,0,19.047-8.613,19.047-19.043v-11.188l-38.092-37.941v49.129   C140.738,320.926,149.352,329.539,159.783,329.539L159.783,329.539z" fill="#C32326" fill-rule="evenodd"/></g></svg>