<svg height="100" width="100" xmlns="http://www.w3.org/2000/svg">
  <path d="M51.165 74.886v7.774c2.333-.155 4.306-1.454 4.306-3.682 0-1.759-.937-3.007-4.306-4.092zM44.944 65.293c0 1.973 1.608 3.009 4.25 3.682V61.77c-2.903.207-4.25 1.813-4.25 3.523z"/>
  <path d="M82.786 5H17.214a2.57 2.57 0 0 0-2.571 2.571v84.857a2.57 2.57 0 0 0 2.571 2.571h65.572a2.57 2.57 0 0 0 2.571-2.571V7.571A2.57 2.57 0 0 0 82.786 5zM51.165 84.576v3.994h-1.971v-3.941c-3.834-.053-6.946-1.296-7.983-1.863-.362-.986-.984-3.318-1.554-6.533l1.711-.361c1.089 2.541 3.524 6.373 7.826 6.84v-8.347l-1.501-.409c-4.302-1.193-7.154-3.063-7.154-6.748 0-3.779 3.111-6.843 8.656-7.305V56.43h1.971v3.369c1.921.051 4.043.361 6.428 1.192.362 1.502.778 3.108 1.141 5.962l-1.657.411c-.882-2.544-2.386-5.134-5.91-5.595v7.725l.983.256c4.979 1.35 8.191 3.164 8.191 7.363-.001 4.2-3.733 7.001-9.177 7.463zM72.5 50h-45v-6.429h45V50zm0-12.857h-45v-6.429h45v6.429zm0-12.857h-45v-6.429h45v6.429z"/>
</svg>
