<svg height="16" viewBox="0 0 16 16" width="16" xmlns="http://www.w3.org/2000/svg">
  <path d="M15 10h-3.908l.857-4H15a1 1 0 1 0 0-2h-2.622l.567-2.729C12.971 1.183 13 1.096 13 1a1 1 0 0 0-1-1 .987.987 0 0 0-.945.729L10.337 4H7.378l.567-2.729C7.971 1.183 8 1.096 8 1a1 1 0 0 0-1-1c-.835 0-.962.726-.962.726L5.337 4H1a1 1 0 1 0 0 2h3.908l-.857 4H1a1 1 0 1 0 0 2h2.622l-.584 2.726S3 14.804 3 15a1 1 0 0 0 1 1 .987.987 0 0 0 .945-.729L5.663 12h2.959l-.567 2.729C8.029 14.817 8 14.904 8 15a1 1 0 0 0 1 1 .987.987 0 0 0 .945-.729L10.663 12H15a1 1 0 1 0 0-2zm-5.949 0H6.092l.857-4h2.959l-.857 4z" fill="#ff0000"/>
</svg>
