<svg height="512" width="512" xmlns="http://www.w3.org/2000/svg">
  <g fill="#414751">
    <path d="M191.674 366.826c-5.749-6.515-12.011-18.22-42.505-23.548-29.645-5.082-24.77-23.83-24.981-24.955.053-2.842.378-14.887.378-14.887s10.14-9.494 14.881-25H152.984l37.306.166c-29.007-29.617-30.023-78.14-41.727-97.158-5.518-10.603-13.697-19.834-25.592-26.158 0 0-9.946-6.383-24.685-6.274l-.08-.003c-.042.001-.085.006-.127.007a50.167 50.167 0 0 0-6.453.486c-70.581 18.808-34.888 85.923-82.297 129.1-1.46 1.33 35.705-.166 35.705-.166H59.64c4.676 15.783 16.89 24.131 16.89 24.131s.062 9.742.247 16.951c-1-.591 3.412 18.422-27.083 23.758-30.495 5.33-36.333 17.034-42.082 23.55-5.071 5.749-5.496 30.996-5.525 36.87a3.623 3.623 0 0 0-.259 1.338c0 1.746 1.197 3.162 2.673 3.162h191.713c1.469 0 2.658-1.403 2.67-3.139h.001s0-.014.001-.012v-.007c0-.013-.003-.02-.003-.033-.054-1.089-1.563-31.777-7.209-38.179z"/>
    <path d="M334.688 335.284c-2.361-.463-4.842-.93-7.461-1.398-43.322-9.646-40.532-35.719-40.843-37.115.079-3.535.553-18.523.553-18.523s15.255-12.049 22.146-31.689c19.821-.041 12.837-12.179 17.38-19.427 0 0 5.539-22.195-4.997-26.078 0 0-7.522.753-5.969-6.241 1.552-6.992 1.036-28.826.26-36.593-.777-7.769.393-29.973-15.91-33.081-11.129-2.072-6.627-9.836-12.061-10.613-5.435-.777-16.8-8.522-26.892-8.522l-25.387-2.733c-8.279 0-8.05 7.285-15.263 8.315-5.434.775 2.133 3.97-14.172 7.075-16.301 3.109-18.279 25.574-19.054 33.344-.774 7.768-.972 29.604-.454 41.256 1.552 6.99-5.68 7.273-5.68 7.273-9.77-.629-3.577 29.548-3.577 29.548 1.404 7.506-2.261 20.052 13.961 17.06 6.889 19.642 24.888 30.025 24.888 30.025s.092 12.12.362 21.091c-1.472-.734 5.03 22.926-39.906 29.563-7.237 1.067-13.52 2.346-19.023 3.765 9.71 2.312 20.711 5.577 27.402 9.64 0 0 17.105 9.057 21.633 29.181 0 0 6.826 21.633 4.336 38.197h77.476c-6.747-51.701 22.695-67.835 46.252-73.32z"/>
    <path d="M510.169 405.379c-.057-1.146-1.642-33.391-7.573-40.118-6.042-6.841-12.623-19.141-44.664-24.742-31.148-5.342-26.026-25.039-26.248-26.221.056-2.986.396-15.643.396-15.643s10.653-9.978 15.637-26.269H470.841c6.571-50.246-1.25-81.93-13.548-101.912-5.798-11.14-14.392-20.841-26.891-27.486 0 0-10.451-6.708-25.938-6.593l-.082-.003c-.048.001-.09.006-.137.007a53.039 53.039 0 0 0-6.779.511c-79.756 9.312-58.703 135.475-58.703 135.475h25.093c4.914 16.585 17.75 25.355 17.75 25.355s.064 10.232.257 17.81c-1.049-.617 3.586 19.36-28.456 24.966-32.042 5.6-38.177 17.899-44.216 24.746-5.328 6.04-5.776 32.565-5.806 38.74-.17.427-.271.898-.271 1.406 0 1.834 1.258 3.321 2.811 3.321h201.438c1.542 0 2.794-1.477 2.806-3.3h.002s0-.015.003-.015v-.009c-.002-.007-.005-.014-.005-.026z"/>
  </g>
</svg>
