<svg overflow="visible" viewBox="0 0 25.600005 25.600001" xmlns="http://www.w3.org/2000/svg" fill-rule="evenodd" stroke-width=".501" stroke-linejoin="bevel" width="36" height="36">
  <g fill="#ff0000">
    <path d="M0 12.8C0 5.734 5.734 0 12.8 0c7.066 0 12.8 5.734 12.8 12.8 0 7.065-5.734 12.8-12.8 12.8C5.734 25.6 0 19.865 0 12.8zm24 0c0-6.182-5.018-11.2-11.2-11.2-6.182 0-11.2 5.018-11.2 11.2C1.6 18.982 6.618 24 12.8 24 18.982 24 24 18.982 24 12.8z"/>
    <path d="M5.164 22.158a22.751 22.745 0 0 1 2.736-.633c1.123-.206 2.054-1.47 2.568-2.718-1.205-.785-2.181-2.202-3.016-4.096-.377-.288-.718-.863-.872-1.523-.219-.948.038-1.717.573-1.716.01-.001.02 0 .068.004a.373.373 0 0 1 .067.01c-.184-1.238-.306-2.426-.08-3.588.032-.21.091-.43.179-.657.429-1.48 2.283-3.24 5.414-3.24 3.13 0 4.984 1.76 5.414 3.24.087.226.147.447.18.657.224 1.162.102 2.35-.082 3.589.038-.009.08-.015.066-.01.058-.005.064-.006.068-.005.537-.001.794.768.574 1.716-.152.66-.494 1.235-.872 1.523-.834 1.894-1.812 3.31-3.017 4.098.513 1.246 1.444 2.51 2.568 2.716a22.9 22.9 0 0 1 2.735.633A12.227 12.227 0 0 1 12.8 24.8c-2.9 0-5.56-.991-7.636-2.642z"/>
  </g>
</svg>