<svg viewBox="0 0 500 500" xmlns="http://www.w3.org/2000/svg">
  <g fill="#ff0000">
    <path d="M89.823 194.447c-29.815 0-54.072 24.257-54.072 54.072s24.257 54.072 54.072 54.072 54.072-24.257 54.072-54.072-24.256-54.072-54.072-54.072zm0 88.145c-18.787 0-34.072-15.285-34.072-34.072s15.285-34.072 34.072-34.072 34.072 15.285 34.072 34.072-15.285 34.072-34.072 34.072zM253.149 194.447c-29.815 0-54.072 24.257-54.072 54.072s24.257 54.072 54.072 54.072 54.072-24.257 54.072-54.072-24.256-54.072-54.072-54.072zm0 88.145c-18.787 0-34.072-15.285-34.072-34.072s15.285-34.072 34.072-34.072 34.072 15.285 34.072 34.072-15.284 34.072-34.072 34.072zM416.476 194.447c-29.815 0-54.072 24.257-54.072 54.072s24.257 54.072 54.072 54.072 54.072-24.257 54.072-54.072-24.257-54.072-54.072-54.072zm0 88.145c-18.787 0-34.072-15.285-34.072-34.072s15.285-34.072 34.072-34.072 34.072 15.285 34.072 34.072-15.285 34.072-34.072 34.072z"/>
  </g>
</svg>
