<svg height="62" width="62" xmlns="http://www.w3.org/2000/svg">
  <path d="M31 41.5c-5.799 0-10.5-4.701-10.5-10.5S25.201 20.5 31 20.5 41.5 25.201 41.5 31 36.799 41.5 31 41.5zm0-5a5.5 5.5 0 1 0 0-11 5.5 5.5 0 0 0 0 11zm0 14c-9.016 0-16.663-3.302-22.79-8.772C4.023 37.99.5 32.927.5 31c0-1.937 3.416-6.995 7.538-10.718C14.104 14.802 21.796 11.5 31 11.5c9.207 0 16.903 3.284 22.958 8.735C58.103 23.965 61.5 29.01 61.5 31c0 1.979-3.503 7.03-7.713 10.775C47.67 47.215 40.019 50.5 31 50.5zM6.755 32.636c1.249 1.794 2.872 3.654 4.785 5.362C16.8 42.694 23.297 45.5 31 45.5c7.712 0 14.214-2.79 19.463-7.46 1.916-1.705 3.54-3.563 4.78-5.35a18.64 18.64 0 0 0 1.066-1.71c-.25-.48-.6-1.067-1.026-1.698-1.201-1.785-2.784-3.634-4.67-5.33C45.434 19.287 38.9 16.5 31 16.5c-7.89 0-14.418 2.803-19.61 7.492-1.883 1.701-3.466 3.552-4.676 5.343-.41.608-.752 1.174-1.004 1.645.262.473.619 1.043 1.045 1.656z" fill="#000" fill-rule="nonzero"/>
</svg>
