<?xml version="1.0" ?><!DOCTYPE svg  PUBLIC '-//W3C//DTD SVG 1.1//EN'  'http://www.w3.org/Graphics/SVG/1.1/DTD/svg11.dtd'><svg height="40px" id="el_x5F_education_1_x5C_2" style="enable-background:new 0 0 40 40;" version="1.1" viewBox="0 0 40 40" width="40px" xml:space="preserve" xmlns="http://www.w3.org/2000/svg" xmlns:xlink="http://www.w3.org/1999/xlink"><path d="M14.689,14.469c1.92,3.59,4.403,9.164,5.164,15.084  c1.776-4.645,4.688-8.603,6.529-10.824c-1.723,0.991-3.006,1.605-3.382,1.275c-0.469-0.412,0.177-3.684,2.558-5.108  c0.21-0.126,0.423-0.243,0.637-0.353c-0.67,0.139-1.446,0.42-2.178,0.844c-1.617-0.146-2.764-0.519-2.825-0.947  c-0.071-0.49,1.318-1.59,3.265-2.235c0.346,0.106,0.73,0.21,1.139,0.308c0.471,0.112,0.917,0.203,1.315,0.268l-0.157-0.061  c-2.21-0.855-4.052-2.096-3.53-2.5c0.521-0.404,2.354-1.023,4.564-0.168c0.274,0.107,0.54,0.221,0.792,0.339  c-0.48-0.675-0.759-1.237-0.594-1.392c0.224-0.209,1.542,0.197,2.345,1.168c0.215,0.261,0.399,0.523,0.549,0.774  c0.658-0.765,1.556-1.131,1.797-0.989c0.229,0.134-0.027,0.785-0.464,1.594c0.324-0.083,0.698-0.145,1.1-0.172  c1.258-0.084,2.398,0.611,2.421,0.945c0.017,0.243-0.558,0.393-1.359,0.487c0.254,0.101,0.512,0.212,0.771,0.335  c2.141,1.016,2.917,3.092,2.867,3.567c-0.033,0.317-0.894,0.225-2.098-0.174c-0.377-0.519-0.911-1.055-1.631-1.464  c0.348,0.39,0.665,0.768,0.923,1.09c1.193,1.491,1.635,3.657,1.422,5.625s-2.876-1.086-4.514-3.647  c-0.162-0.253-0.315-0.507-0.457-0.757c0.131,0.528,0.411,1.305,0.786,2.146l0.087,0.189c-0.068,2.252-0.629,4.059-1.257,4  c-0.787-0.072-2.116-2.341-2.646-5.248c-1.293,1.566-5.325,6.54-5.104,13.16c3.485,0.521,5.915,1.688,5.915,3.042  c0,1.839-4.476,3.331-9.994,3.331c-5.52,0-9.995-1.492-9.995-3.331c0-1.354,2.427-2.521,5.912-3.042  c0.924-4.346-0.265-10-1.91-14.75c0.007-0.189,0.011-0.383,0.014-0.58c0.011-1.066-0.048-2.022-0.148-2.665  c-0.44,3.387-1.799,6.063-2.708,6.208c-0.742,0.119-1.549-1.971-1.812-4.634c0.215-0.463,0.44-1.007,0.657-1.595  c0.384-1.039,0.657-1.99,0.771-2.632c-0.279,0.726-0.635,1.493-1.062,2.267c-1.753,3.187-4.691,7.045-5.1,4.712  c-0.394-2.245-0.079-4.757,1.111-6.614c-1.745,0.793-3.09,1.096-3.165,0.662C1.912,11.444,2.675,8.904,5.15,7.521  c0.3-0.168,0.599-0.32,0.892-0.46c-0.964-0.051-1.661-0.183-1.66-0.476c0-0.399,1.307-1.32,2.815-1.318  c0.867,0.001,1.64,0.139,2.141,0.35c0.015-0.016,0.03-0.031,0.046-0.046C9.48,5.484,9.597,5.422,9.73,5.383  c0.146-0.51,0.471-1.152,0.932-1.793c0.881-1.223,2.422-1.813,2.707-1.58c0.21,0.172-0.079,0.865-0.601,1.709  c0.293-0.161,0.601-0.317,0.921-0.467c2.571-1.197,4.809-0.603,5.462-0.162c0.654,0.442-1.446,2.069-4.018,3.266l-0.184,0.084  c0.47-0.108,0.998-0.252,1.551-0.424c0.36-0.111,0.704-0.227,1.024-0.342c3.146,0.689,5.61,2.619,5.477,3.336  c-0.142,0.75-3.095,1.244-6.487,0.908c2.239,2.764,3.203,5.854,2.46,6.193C18.394,16.375,16.623,15.863,14.689,14.469z" style="fill-rule:evenodd;clip-rule:evenodd;"/></svg>