<?xml version="1.0" ?><!DOCTYPE svg  PUBLIC '-//W3C//DTD SVG 1.1//EN'  'http://www.w3.org/Graphics/SVG/1.1/DTD/svg11.dtd'><svg height="96" version="1.1" viewBox="0 0 96 96" width="96" xmlns="http://www.w3.org/2000/svg" xmlns:xlink="http://www.w3.org/1999/xlink"><path d="M66 86h-20c-1.104 0-2-0.9-2-2v-20c0-1.1 0.896-2 2-2h7.2l-3.016-8.856c-0.28-0.832 0.008-1.752 0.724-2.264 0.716-0.516 1.672-0.504 2.38 0.028l13.916 10.5c0.5 0.376 0.796 0.964 0.796 1.592v21c0 1.1-0.896 2-2 2z" fill="#000000"/><path d="M94 86h-20c-1.1 0-2-0.9-2-2v-20c0-1.1 0.9-2 2-2h7.204l-3.016-8.856c-0.28-0.832 0.008-1.752 0.724-2.264 0.716-0.516 1.672-0.504 2.38 0.028l13.916 10.5c0.496 0.376 0.792 0.964 0.792 1.592v21c0 1.1-0.896 2-2 2z" fill="#000000"/><path d="M43.916 45c-0.44 0-0.876-0.144-1.24-0.428l-13.916-11c-0.48-0.384-0.76-0.96-0.76-1.572v-20c0-1.1 0.896-2 2-2h20c1.104 0 2 0.9 2 2v20c0 1.1-0.896 2-2 2h-7.164l2.968 8.328c0.3 0.84 0.004 1.776-0.72 2.296-0.344 0.252-0.752 0.376-1.168 0.376z" fill="#000000"/><path d="M15.916 45c-0.44 0-0.876-0.144-1.24-0.428l-13.916-11c-0.48-0.384-0.76-0.96-0.76-1.572v-20c0-1.1 0.896-2 2-2h20c1.104 0 2 0.9 2 2v20c0 1.1-0.896 2-2 2h-7.164l2.968 8.328c0.3 0.84 0.004 1.776-0.72 2.296-0.344 0.252-0.752 0.376-1.168 0.376z" fill="#000000"/></svg>