<?xml version="1.0" ?><!DOCTYPE svg  PUBLIC '-//W3C//DTD SVG 1.1//EN'  'http://www.w3.org/Graphics/SVG/1.1/DTD/svg11.dtd'><svg enable-background="new 0 0 256 256" height="256px" id="Layer_1" version="1.1" viewBox="0 0 256 256" width="256px" xml:space="preserve" xmlns="http://www.w3.org/2000/svg" xmlns:xlink="http://www.w3.org/1999/xlink"><g><g><path d="M101.521,124.737l34.422,15.199c3.033,1.336,5.084,3.979,5.783,6.977l11.395,44.093     c3.301,12.765-15.159,17.685-19.548,5.273l-13.443-38.036l-34.332-10.558c-1.276,0.371-2.604,0.644-3.968,0.812l-4.849,25.989     c-0.4,2.143-1.504,4.111-3.07,5.598l-36.397,34.557c-9.567,9.084-23.672-4.416-14.618-14.031l29.35-31.175l2.349-43.977     l6.846-45.052l-14.038,2.361l-3.388,32.351c-1.422,13.582-21.062,11.99-20.234-1.851l2.341-39.189     c0.35-5.86,4.053-8.477,9.092-10.014l42.048-12.822c8.002-2.441,17.258-1.011,23.939,3.954c3.196,2.376,5.36,5.179,7.22,8.605     l14.994,27.634l34.32,0.28c14.659,0.119,14.038,19.258,0.799,20.226l-39.226,2.871c-3.886,0.508-7.881-1.278-10.013-4.859     l-4.41-7.358L101.521,124.737L101.521,124.737z M104.878,0.254c-12.097-1.838-23.392,6.478-25.23,18.573     c-1.838,12.097,6.478,23.392,18.574,25.229c12.097,1.838,23.393-6.478,25.231-18.573C125.291,13.387,116.975,2.092,104.878,0.254     L104.878,0.254z" fill="#373737"/><path d="M8.861,255.938C4.21,255.936,0,252.909,0,247.993c-0.001-4.021,3.032-7.405,7.111-7.931L239.997,210     l0.002-68.832c0-6.604-2.697-12.604-7.047-16.953c-3.373-3.372-7.737-5.75-12.604-6.649l-12.241,21.198     c-2.192,3.814-7.061,5.129-10.876,2.938c-3.815-2.191-5.129-7.061-2.938-10.875c9.866-17.086,19.73-34.168,29.593-51.254     c2.192-3.814,7.061-5.129,10.876-2.937c3.815,2.191,5.129,7.061,2.938,10.875l-9.069,15.707     c5.953,1.988,11.29,5.342,15.634,9.686c7.243,7.243,11.735,17.244,11.735,28.266c0,35.61,0,71.221,0,106.832c0,4.418-3.582,8-8,8     L8.861,255.938L8.861,255.938z" fill="#373737"/></g></g></svg>