<?xml version="1.0" ?><!DOCTYPE svg  PUBLIC '-//W3C//DTD SVG 1.1//EN'  'http://www.w3.org/Graphics/SVG/1.1/DTD/svg11.dtd'><svg enable-background="new 0 0 512 512" height="512px" id="Layer_1" version="1.1" viewBox="0 0 512 512" width="512px" xml:space="preserve" xmlns="http://www.w3.org/2000/svg" xmlns:xlink="http://www.w3.org/1999/xlink"><g><path d="M147.703,288.718c-84.062,0-111.109,20.97-126.266,63.782H274   C258.828,309.688,231.797,288.718,147.703,288.718z M147.703,479.781c84.094,0,111.125-20.969,126.297-63.782H21.438   C36.594,458.812,63.641,479.781,147.703,479.781z M285.047,373.469H10.375C4.641,373.469,0,378.122,0,383.844   c0,5.719,4.641,10.375,10.375,10.375h274.672c5.734,0,10.359-4.656,10.359-10.375C295.406,378.122,290.781,373.469,285.047,373.469   z M392.594,160.187L349.688,31.938l-30.344,10.156l39.5,118.093L320,160.062l32,320h128l32-320L392.594,160.187z" fill="#1D1D1B"/></g></svg>