<?xml version="1.0" ?><!DOCTYPE svg  PUBLIC '-//W3C//DTD SVG 1.1//EN'  'http://www.w3.org/Graphics/SVG/1.1/DTD/svg11.dtd'><svg enable-background="new 0 -59.254 512 512" height="512px" version="1.1" viewBox="0 -59.254 512 512" width="512px" xml:space="preserve" xmlns="http://www.w3.org/2000/svg" xmlns:xlink="http://www.w3.org/1999/xlink"><defs/><path d="M280.078,348.182c-21.104-34.808-15.87-60.537-12.049-79.324c1.468-7.213,5.617-26.146-2.423-32.085  c-1.174-0.538-18.734-6.173-27.222-19.28c-9.122-13.527-6.088-42.892-6.088-42.892s16.788-3.407,18.072-3.826  c1.059-0.569,1.719-1.366,3.781-4.57c-29.408-23.979-57.54-41.765-70.462-74.921c-12.422-31.877-29.063-65.964-38.438-84.507  c-8.035-15.75-14.239,0.889-14.239,0.889l-18.808,39.837L72.505,58.713L55.145,78.77L0.238,87.073c0,0-6.636,65.008,50.174,64.206  c1.916-0.027,38.537,2.309,38.537,2.309l33.436,98.845l-41.946,94.778c0,0-33.954,0-40.952,33.399  c-0.317,9.422,6.288,12.883,16.249,12.883c13.979,0,32.727,0,42.118,0c18.096,0,22.894-12.817,22.894-12.817l37.257-65.807  c-14.57-49.306-6.883-94.28,41.524-104.081c0.016,0.019,0.032,0.035,0.049,0.053c-50.275,14.89-33.886,83.215-28.002,100.666  l16.137,35.704c0,0-33.45,0-40.788,32.659c-3.312,13.448,17.82,13.623,17.82,13.623h71.428c18.167,0,12.132-25.538,12.132-25.538  l-16.854-41.146c0,0,10.854,21.94,30.672,40.558c6.194-4.981,13.833-8.165,16.859-11.894  C282.119,351.605,280.078,348.182,280.078,348.182z"/><path d="M245.691,187.659c0,0,8.423-1.634,11.01-2.868c6.901-3.298,8.941-8.396,13.526-15.112  c5.942-8.705,25.117-12.637,25.117-12.637l0.567-30.198c0,0,36.367,29.477,42.602,39.817c10.635,17.642,15.989,47.528,15.989,47.528  s1.544,13.422,19.754,31.229c17.173,16.792,80.501,21.521,87.663,96.606c5.922-1.146,12.154-3.547,15.698-8.29  c7.03-9.414,2.469-26.473-2.595-39.127c-18.497-46.21-20.204-78.085-4.937-92.18c8.806-8.129,21.631-9.009,35.194-2.415  c5.938,2.886,8.402,10.02,5.502,15.932c-2.901,5.911-10.065,8.365-16.005,5.475c-4.324-2.103-7.51-2.357-8.415-1.524  c-3.143,2.903-7.314,20.4,10.896,65.896c10.683,26.688,10.503,47.644-0.532,62.289c-9.397,12.47-24.287,16.73-35.371,18.088  c-5.55,20.506-28.47,26.259-41.295,26.259c-7.442,0-84.913,0-91.765,0c0.094,0.094-8.101-0.432-7.166-5.63  c1.699-9.474,9.766-12.449,19.772-12.493c10.008-0.044,12.815,0.145,19.412,0.259c3.311,0.056-31.879-8.819-29.091-35.506  c7.456-53.049,64.583-31.224,64.583-31.224c-56.328-27.699-68.126,17.786-68.126,17.786c-0.083,0.211-13.196,55.46-13.196,55.46  s-2.968,12.404-13.948,12.404c-7.441,0-19.268,0-26.119,0c0.093,0.094-8.101-0.431-7.167-5.63  c2.722-15.157,12.774-8.965,23.772-22.828c10.998-13.865,2.199-24.813,2.199-24.813c-25.661-42.324-6.304-65.603-7.331-91.217  c-0.733-18.243-12.464-25.54-12.464-25.54c-12.465-5.839-18.657-6.991-25.282-18.529  C244.003,197.717,245.691,187.659,245.691,187.659z"/></svg>