<?xml version="1.0" ?><!DOCTYPE svg  PUBLIC '-//W3C//DTD SVG 1.1//EN'  'http://www.w3.org/Graphics/SVG/1.1/DTD/svg11.dtd'><svg enable-background="new 0 0 64 64" height="64px" id="Layer_1" version="1.1" viewBox="0 0 64 64" width="64px" xml:space="preserve" xmlns="http://www.w3.org/2000/svg" xmlns:xlink="http://www.w3.org/1999/xlink"><g><g><g><g><path d="M63.112,27.63l-7.911-15.287c-0.348-0.673-1.174-0.934-1.847-0.586l-5.148,2.663      c-0.568,0.294-0.839,0.934-0.698,1.53c-0.243,0.051-0.455,0.128-0.637,0.194c-0.179,0.067-0.368,0.136-0.611,0.187      c-0.013,0.003-0.036,0.008-0.072,0.008H46.16c-0.256,0-0.617-0.107-0.752-0.148c-0.632-0.192-1.254-0.54-1.975-0.944      c-0.34-0.192-0.696-0.391-1.064-0.578c-1.315-0.668-2.679-0.98-4.053-0.924c-1.348,0.054-2.681,0.45-4.073,1.205l-0.125,0.069      l-0.166,0.125c-0.77-0.522-1.817-1.231-1.888-1.269c-1.41-0.773-3.357-1.566-4.654-1.701c-1.497-0.156-3.024,0.095-4.508,0.745      c-0.42,0.187-0.816,0.376-1.236,0.573c-0.773,0.379-1.507,0.734-2.205,0.901c-0.138,0.031-0.494,0.115-0.775,0.115l-0.177-0.01      c-0.274-0.074-0.484-0.166-0.681-0.261c-0.21-0.087-0.453-0.192-0.734-0.264c-0.11-0.197-0.266-0.374-0.471-0.501l-4.899-3.001      c-0.64-0.394-1.476-0.192-1.868,0.448l-8.921,14.55c-0.391,0.64-0.192,1.476,0.448,1.868l4.899,3.004      c0.266,0.164,0.565,0.217,0.855,0.187c1.323,2.5,3.628,5.081,5.716,6.701c-0.038,0.205-0.059,0.417-0.059,0.632      c0,1.484,0.913,2.763,2.216,3.3c-0.417,1.026-0.264,2.241,0.499,3.144c0.586,0.698,1.443,1.098,2.351,1.1      c0,0.701,0.235,1.402,0.721,1.978c0.588,0.698,1.448,1.1,2.364,1.1c0.166,0,0.333-0.015,0.496-0.041      c0.097,0.345,0.269,0.681,0.504,0.98c0.555,0.701,1.387,1.105,2.28,1.105c0.65,0,1.287-0.223,1.799-0.624l0.269-0.212      c1.087,0.916,3.331,2.825,3.659,3.057c0.921,0.66,1.893,0.985,2.876,0.985c1.318,0,2.553-0.596,3.556-1.727      c0.159-0.166,0.294-0.345,0.45-0.565c1.371,0.65,2.584,0.806,3.817,0.494c1.297-0.335,2.303-1.182,3.004-2.512      c0.732,0.179,1.778,0.345,1.87,0.345c0.796,0.043,1.602-0.082,2.282-0.376c0.826-0.345,1.538-0.982,1.985-1.735l0.24-0.264      l-0.02-0.082c0.084-0.148,0.169-0.284,0.251-0.44c0.732,0.177,1.778,0.345,1.863,0.345c0.105,0,0.21,0.01,0.304,0.01      c0.711,0,1.379-0.136,1.985-0.386c1.957-0.826,3.065-3.18,2.438-5.137c-0.146-0.438-0.376-0.867-0.691-1.297      c-0.376-0.522-0.816-0.952-1.338-1.453l-2.763-3.155c1.504-1.141,2.689-2.489,3.582-4.076c0.391,0.542,1.126,0.737,1.737,0.42      l5.148-2.663C63.199,29.129,63.46,28.303,63.112,27.63z M35.64,17.393c0.985-0.527,1.898-0.801,2.791-0.837      c0.885-0.036,1.781,0.171,2.661,0.619c0.32,0.164,0.647,0.345,0.967,0.527c0.791,0.443,1.609,0.903,2.538,1.182      c0.45,0.136,1.057,0.294,1.709,0.266c0.171-0.008,0.34-0.026,0.512-0.061c0.466-0.095,0.808-0.223,1.036-0.307      c0.02-0.008,0.041-0.015,0.061-0.023c0.141,0.177,0.333,0.468,0.417,0.599c0.747,1.149,1.407,2.395,2.049,3.597l0.256,0.484      c0.379,0.711,0.757,1.438,1.123,2.141l0.026,0.049c0.177,0.343,0.356,0.683,0.532,1.023c0.069,0.133,0.182,0.312,0.422,0.693      c0.223,0.351,0.849,1.336,1.041,1.773c-0.77,1.868-1.965,3.377-3.633,4.592c-2.551-3.149-5.887-6.583-10.172-10.467      c-1.364-1.384-2.648-2.039-3.912-1.983c-0.573,0.023-1.131,0.197-1.653,0.514c-0.166,0.102-5.516,3.316-5.59,3.359      c-0.427,0.258-0.972,0.555-1.389,0.573h-0.036c-0.123,0-0.22-0.026-0.312-0.084c-0.069-0.046-0.143-0.113-0.212-0.197      c-0.194-0.243-0.274-0.489-0.24-0.75c0.044-0.351,0.302-0.732,0.696-1.026L35.64,17.393z M16.29,39.611      c-0.939-0.046-1.683-0.816-1.683-1.753c0-0.972,0.798-1.76,1.781-1.76c0.985,0,1.786,0.788,1.786,1.76      c0,0.059-0.003,0.12-0.01,0.179v0.003c-0.09,0.883-0.852,1.579-1.776,1.579C16.356,39.619,16.323,39.619,16.29,39.611z       M18.7,43.275c-0.008,0.005-0.01,0.013-0.018,0.018c-0.519,0.438-1.353,0.361-1.788-0.156c-0.44-0.519-0.386-1.3,0.118-1.758      c0.013-0.01,0.023-0.02,0.038-0.033l2.735-2.303l1.614-1.361c0.294-0.248,0.606-0.299,0.816-0.299      c0.379,0,0.734,0.164,0.977,0.455c0.217,0.256,0.322,0.586,0.294,0.924c-0.023,0.256-0.115,0.486-0.271,0.683l-0.013,0.01      l-4.25,3.579C18.864,43.111,18.779,43.19,18.7,43.275z M21.76,46.365c-0.069,0.054-0.143,0.105-0.217,0.141      c-0.512,0.274-1.192,0.161-1.573-0.292c-0.402-0.484-0.391-1.179,0.005-1.643l4.232-3.559c0.09-0.077,0.174-0.154,0.251-0.235      l0.02-0.018c0.294-0.248,0.606-0.302,0.816-0.302c0.379,0,0.729,0.166,0.972,0.453c0.22,0.261,0.325,0.588,0.294,0.926      c-0.02,0.258-0.118,0.496-0.279,0.693c-0.046,0.061-0.105,0.12-0.166,0.169L21.76,46.365z M28.251,45.419      c-0.031,0.289-0.177,0.548-0.404,0.729l-2.947,2.326c-0.461,0.363-1.169,0.276-1.533-0.177      c-0.159-0.207-0.243-0.461-0.228-0.719l4.009-3.375h0.023c0.333,0,0.645,0.151,0.855,0.412      C28.205,44.846,28.284,45.132,28.251,45.419z M52.981,41.325c0.335,0.325,0.681,0.66,0.901,1.036      c0.325,0.532,0.292,0.972-0.095,1.423c-0.356,0.407-0.867,0.617-1.348,0.542c-0.86-0.146-1.663-0.491-2.208-0.952      c-0.407-0.343-0.806-0.688-1.162-1.003c-0.251-0.292-0.532-0.555-0.857-0.867l-6.161-5.849c-0.24-0.217-0.522-0.491-0.921-0.627      c-0.563-0.2-1.233-0.02-1.579,0.44c-0.292,0.386-0.335,0.962-0.105,1.443c0.156,0.356,0.409,0.606,0.617,0.806l3.075,3.001      c0.261,0.261,0.545,0.545,0.911,0.89l2.31,2.249c0.345,0.333,0.691,0.668,0.921,1.054c0.356,0.596,0.189,0.995,0.031,1.236      c-0.031,0.061-0.082,0.125-0.136,0.187c-0.356,0.409-0.847,0.619-1.348,0.535c-0.847-0.136-1.653-0.481-2.208-0.942      c-1.139-0.962-2.205-1.978-3.492-3.201c-0.617-0.596-1.131-1.087-1.663-1.579c-0.136-0.125-0.335-0.315-0.514-0.45      c-0.668-0.512-1.41-0.586-2.08,0.031c-0.409,0.461-0.42,1.412,0.21,2.072c0.711,0.752,1.463,1.453,2.205,2.134      c0.471,0.437,0.952,0.888,1.412,1.338c0.42,0.417,0.847,0.921,1.266,1.494c0.031,0.043,0.061,0.095,0.084,0.148      c0.041,0.095,0.125,0.271-0.23,0.647c-0.847,0.89-2.144,0.826-3.285-0.125c-0.491-0.407-0.962-0.847-1.318-1.182l-0.701-0.658      c-0.315-0.294-0.627-0.586-0.931-0.88l-0.105-0.095c-0.261-0.251-0.658-0.627-1.202-0.627c-0.261,0-0.647,0.084-1.026,0.501      c-0.952,1.057-0.031,1.947,0.274,2.239l0.095,0.095c0.261,0.261,0.522,0.522,0.783,0.775c0.284,0.261,0.565,0.542,0.847,0.826      c0.136,0.136,0.21,0.261,0.21,0.343c0,0.074-0.084,0.23-0.292,0.43c-0.711,0.637-1.32,0.816-1.893,0.491      c-0.361-0.2-2.313-1.814-3.618-2.878l0.315-0.248c0.611-0.478,0.995-1.169,1.085-1.942c0.092-0.77-0.125-1.527-0.604-2.136      c-0.32-0.404-0.734-0.709-1.195-0.89c0.054-0.194,0.095-0.399,0.113-0.609c0.072-0.821-0.182-1.62-0.711-2.251      c-0.586-0.693-1.44-1.095-2.351-1.098c-0.005-0.727-0.258-1.42-0.727-1.98c-0.588-0.696-1.448-1.095-2.364-1.095      c-0.721,0-1.428,0.258-1.983,0.727l-0.448,0.376c-0.494-1.389-1.829-2.387-3.398-2.387c-0.627,0-1.218,0.161-1.732,0.445      c-1.996-1.576-4.416-4.331-5.186-6.447c0.985-1.934,5.575-9.297,6.55-10.615c0.251-0.335,0.407-0.535,0.512-0.64      c0.02,0.01,0.041,0.02,0.061,0.033c0.251,0.102,0.619,0.271,1.131,0.407c0.177,0.051,0.366,0.084,0.555,0.105      c0.711,0.072,1.399-0.064,1.88-0.189c1.036-0.24,1.927-0.668,2.888-1.139c0.356-0.169,0.721-0.345,1.077-0.504      c1.003-0.427,2.008-0.606,2.981-0.501c0.752,0.077,1.502,0.299,2.277,0.693c0.049,0.026,1.105,0.742,1.86,1.251l-5.6,4.214      c-0.391,0.292-0.732,0.632-1.005,1.003c-0.432,0.583-0.711,1.246-0.798,1.924c-0.128,1.013,0.171,2.031,0.842,2.865      c0.258,0.32,0.553,0.588,0.878,0.798c0.008,0.005,0.013,0.008,0.02,0.013c0.586,0.371,1.241,0.55,1.97,0.519      c1.046-0.043,1.965-0.517,2.72-0.97c0.049-0.028,5.178-3.111,5.608-3.369h0.003c0.143-0.09,0.233-0.105,0.32-0.107      c0.092,0,0.338,0.031,0.75,0.289c0.2,0.174,0.402,0.366,0.609,0.576l0.023,0.023c4.649,4.211,8.266,7.926,11.019,11.324      l0.059,0.072l0.872,1.115l0.023-0.015L52.981,41.325z" fill="#3D3C42"/></g></g></g></g></svg>