<?xml version="1.0" ?><!DOCTYPE svg  PUBLIC '-//W3C//DTD SVG 1.1//EN'  'http://www.w3.org/Graphics/SVG/1.1/DTD/svg11.dtd'><svg enable-background="new 0 0 309.234 360.652" height="360.652px" id="Layer_1" version="1.1" viewBox="0 0 309.234 360.652" width="309.234px" xml:space="preserve" xmlns="http://www.w3.org/2000/svg" xmlns:xlink="http://www.w3.org/1999/xlink"><path d="M92.336,93.68c-24.445,0-44.227-19.703-44.227-44.242c0-24.547,19.781-44.227,44.227-44.227  c24.461,0,44.258,19.68,44.258,44.227C136.594,73.977,116.797,93.68,92.336,93.68z M267.5,162.539  c4.594-9.641,8.063-17.742,8.063-17.742s-37.789-16.082-60.703-2.949c-7.758-7.348-14.391-13.152-14.391-13.152  s-9.016,10.371-15.578,24.109l-28.969-16.148v32.055l22.406,12.488c0.109,1.449,0.289,2.895,0.586,4.32  c-9.383,5.098-16.961,9.613-16.961,9.613s21.125,35.227,47.383,38.07c1.953,10.5,3.906,19.094,3.906,19.094  s40.031-9.199,50.844-33.301c10.586,1.387,19.367,2.184,19.367,2.184S287.07,180.273,267.5,162.539z M309.234,40.813  c0,0-30.008-28.039-56.039-23.535C248.422,7.723,244.172,0,244.172,0s-35.93,19.871-39.688,46.016  c-10.563,1.582-19.227,3.234-19.227,3.234s2.648,13.629,9.508,27.328L97.234,111.68c-0.023,0.004-0.047,0.004-0.07,0.008  c-19.266,6.215-26.797,19.621-24.086,41.68l8.953,58.281c0,0-35.133,20.219-38.805,22.027c8.57,8.621,20.023,16.434,32.383,22.527  l-5.641,16.867H18c-9.938,0-18,8.059-18,18s8.063,18,18,18h64.922c8.297,0,15.211-6.43,17.07-12.285l9.719-29.035  c2.281,0.43,4.586,0.801,6.914,1.113l15.641,77.352c1.727,8.543,9.234,14.438,17.625,14.438c1.18,0,2.383-0.117,3.586-0.359  c9.742-1.973,16.047-11.469,14.078-21.211l-14.188-70.148c9.5-1.324,18.32-3.738,25.656-7.309  c-4.148-6.707-29.086-37.441-37.102-47.211v-89.059l71.805-25.84c0.984,0.621,1.992,1.203,3.039,1.719  c-1.758,10.535-2.859,19.281-2.859,19.281s40.758,5.043,59.164-13.906c9.477,4.926,17.453,8.68,17.453,8.68  s17.391-37.211,5.063-60.57C303.203,47.234,309.234,40.813,309.234,40.813z"/></svg>