<?xml version="1.0" ?><svg id="Layer_1" style="enable-background:new 0 0 512 512;" version="1.1" viewBox="0 0 512 512" xml:space="preserve" xmlns="http://www.w3.org/2000/svg" xmlns:xlink="http://www.w3.org/1999/xlink"><g id="XMLID_271_"><path d="M163.4,136.9c-11.1,6.8-21.5,14.4-31.2,22.5c-27.1,22.9-16.5,66.5,17.9,74.6l89.8-128.3   C213.8,111.5,187.9,121.8,163.4,136.9z" id="XMLID_281_"/><path d="M455.1,186.5c-33-53.7-91.4-83.6-155.2-86.3L199.1,261.6c3.6,4,6.9,8.3,9.8,13   c28,45.6,8.5,108.6-43.6,140.6c-0.8,0.5-1.6,1-2.4,1.5c-31.6,18.5-27.8,65.4,6.7,77.6c60.4,21.3,134,14.3,197.9-24.9   C472.2,404.9,511.5,278.3,455.1,186.5z M330.2,148.8c12.4-10.6,30.9-9.1,41.5,3.2c10.6,12.4,9.1,30.9-3.2,41.5   c-12.4,10.6-30.9,9.1-41.5-3.2C316.4,178,317.8,159.4,330.2,148.8z M306.6,442.7c-5.4,15.3-22.2,23.4-37.5,18   c-15.3-5.4-23.4-22.2-18-37.5c5.4-15.3,22.2-23.4,37.5-18C303.9,410.6,312,427.4,306.6,442.7z M337.2,316   c-20.9,17.8-52.2,15.4-70-5.5c-17.8-20.9-15.4-52.2,5.5-70c20.9-17.8,52.2-15.4,70,5.5C360.5,266.9,358.1,298.2,337.2,316z    M396,389.5c-14,8.3-32,3.6-40.3-10.4s-3.6-32,10.4-40.3c14-8.3,32-3.6,40.3,10.4C414.6,363.2,410,381.3,396,389.5z M442.2,266.2   c-2.7,16-17.8,26.9-33.9,24.2c-16-2.7-26.9-17.8-24.2-33.9c2.7-16,17.8-26.9,33.9-24.2C434,235,444.8,250.2,442.2,266.2z" id="XMLID_274_"/><path d="M150.6,321.7l-34.7-23L317.5,11c3.6-5.2,10.7-6.5,15.9-3l0,0c5.3,3.5,6.8,10.5,3.4,15.9L150.6,321.7z" id="XMLID_273_"/><path d="M131,329.9l0.5,0.3c4.4,2.9,10.3,1.7,13.1-2.7l2.3-3.5l-32.7-21.6l-2.3,3.5c-2.9,4.4-1.7,10.3,2.7,13.1   l0,0c-17.2,4.7-40.3,13.1-57.3,34.6c-27.6,35-29.2,95.1-23.7,86.6c10.4-16.2,21.1-32.6,61.4-48.6   C125.4,379.5,130.5,348.2,131,329.9z" id="XMLID_272_"/></g></svg>