<?xml version="1.0" ?><!DOCTYPE svg  PUBLIC '-//W3C//DTD SVG 1.1//EN'  'http://www.w3.org/Graphics/SVG/1.1/DTD/svg11.dtd'><svg enable-background="new 0 0 64 64" height="64px" id="Layer_1" version="1.1" viewBox="0 0 64 64" width="64px" xml:space="preserve" xmlns="http://www.w3.org/2000/svg" xmlns:xlink="http://www.w3.org/1999/xlink"><g><path d="M45.304,36.361c0,0,11.215,3.556,3.967,6.564c0,0-6.428,1.095-14.361-12.172C26.977,17.487,11.521,2.989,9.881,2.579   c0,0-10.805,9.847-7.111,22.293c3.692,12.446,8.205,11.216,7.795,35.97c0,0,0.957,1.095,2.188,0.274c0,0,1.23-19.968,3.009-22.293   s7.111-6.839,13.129,1.094c6.019,7.933,10.669,14.635,12.993,15.045c2.326,0.41,19.695-2.872,20.105-9.848   S51.731,37.456,45.304,36.361z"/><path d="M21.231,37.182c2.463,1.505,8.617,13.677,8.617,13.677l8.617,3.283C24.104,34.584,21.231,37.182,21.231,37.182z"/></g></svg>