<?xml version="1.0" ?><!DOCTYPE svg  PUBLIC '-//W3C//DTD SVG 1.1//EN'  'http://www.w3.org/Graphics/SVG/1.1/DTD/svg11.dtd'><svg enable-background="new 0 0 565.564 540.118" height="540.118px" id="Layer_1" version="1.1" viewBox="0 0 565.564 540.118" width="565.564px" xml:space="preserve" xmlns="http://www.w3.org/2000/svg" xmlns:xlink="http://www.w3.org/1999/xlink"><g><g><path clip-rule="evenodd" d="M452.456,32.245c13.386,0,24.236,10.828,24.236,24.185     c0,13.357-10.851,24.185-24.236,24.185s-24.24-10.828-24.24-24.185C428.215,43.073,439.07,32.245,452.456,32.245z" fill-rule="evenodd"/><path clip-rule="evenodd" d="M468.615,338.581c13.386,0,24.236,10.828,24.236,24.184     c0,13.359-10.851,24.187-24.236,24.187c-13.387,0-24.241-10.827-24.241-24.187C444.374,349.409,455.228,338.581,468.615,338.581z     " fill-rule="evenodd"/><path clip-rule="evenodd" d="M302.982,499.81c11.157,0,20.201,9.025,20.201,20.156     c0,11.126-9.044,20.151-20.201,20.151c-11.153,0-20.198-9.025-20.198-20.151C282.784,508.835,291.829,499.81,302.982,499.81z" fill-rule="evenodd"/><path clip-rule="evenodd" d="M24.239,128.984c13.386,0,24.238,10.828,24.238,24.183     c0,13.357-10.853,24.185-24.238,24.185C10.853,177.352,0,166.524,0,153.167C0,139.812,10.853,128.984,24.239,128.984z" fill-rule="evenodd"/><path clip-rule="evenodd" d="M8.08,217.659l193.91,48.37L0,274.091L8.08,217.659z" fill-rule="evenodd"/><path clip-rule="evenodd" d="M274.705,193.474L242.387,8.062L298.943,0L274.705,193.474z" fill-rule="evenodd"/><path clip-rule="evenodd" d="M315.102,209.599l40.399-104.8l32.318,16.123L315.102,209.599z" fill-rule="evenodd"/><path clip-rule="evenodd" d="M324.261,251.906L484.773,112.86l32.318,48.369L324.261,251.906z" fill-rule="evenodd"/><path clip-rule="evenodd" d="M339.342,298.274l105.031-8.062v32.245L339.342,298.274z" fill-rule="evenodd"/><path clip-rule="evenodd" d="M298.943,314.398l137.354,161.229l-40.399,32.245L298.943,314.398z" fill-rule="evenodd"/><path clip-rule="evenodd" d="M242.387,322.457L177.75,507.873l-56.558-16.124L242.387,322.457z" fill-rule="evenodd"/><path clip-rule="evenodd" d="M226.228,306.336l-80.795,72.552l-16.161-24.183L226.228,306.336z" fill-rule="evenodd"/><path clip-rule="evenodd" d="M153.512,161.229l80.795,80.615l-96.956-48.37L153.512,161.229z" fill-rule="evenodd"/><path clip-rule="evenodd" d="M274.705,322.457l-8.08,120.922h24.237L274.705,322.457z" fill-rule="evenodd"/><path clip-rule="evenodd" d="M44.097,333.192l-0.815,20.01l14.5,12.765l-18.834,6.218l-7.995,18.595     l-10.824-16.167l-19.444-1.27l12.145-16.205l-4.021-19.385l18.33,6.148L44.097,333.192" fill-rule="evenodd"/><path clip-rule="evenodd" d="M147.715,27.153l1.951,25.671l20.426,14.141l-23.121,10.744l-7.431,24.94     L123.3,83.616l-25.02,1.271l13.085-22.505l-8.033-24.152l24.327,5.122L147.715,27.153" fill-rule="evenodd"/><path clip-rule="evenodd" d="M533.25,225.721l10.651,20.267l21.662,4.367l-15.081,16.892l2.739,22.965     l-19.972-9.83l-19.972,9.83l2.738-22.965l-15.081-16.892l21.663-4.367L533.25,225.721" fill-rule="evenodd"/></g></g></svg>