<?xml version="1.0" ?><svg id="Layer_1" style="enable-background:new 0 0 153.358 148.647;" version="1.1" viewBox="0 0 153.358 148.647" xml:space="preserve" xmlns="http://www.w3.org/2000/svg" xmlns:xlink="http://www.w3.org/1999/xlink"><g><g><circle cx="117.839" cy="23.474" r="16"/><path d="M86.75,94.181c0.192,0.022,0.384,0.033,0.574,0.033c2.506,0,4.669-1.884,4.961-4.434    c1.465-12.826,4.347-21.157,7.256-26.555c-2.298,13.442-4.952,31.606-4.952,43.786c0,1.07,3.237,1.858,8,2.364v32.771    c0,3.59,2.909,6.5,6.5,6.5c3.59,0,6.5-2.91,6.5-6.5v-32.104c1.496,0.017,3.004,0.017,4.5,0v32.104c0,3.59,2.909,6.5,6.5,6.5    c3.59,0,6.5-2.91,6.5-6.5v-32.771c4.763-0.506,8-1.294,8-2.364c0-12.185-2.657-30.357-4.956-43.8    c2.907,5.394,5.793,13.747,7.257,26.568c0.291,2.55,2.453,4.434,4.961,4.434c0.189,0,0.38-0.011,0.573-0.033    c2.743-0.313,4.713-2.791,4.401-5.533c-2.198-19.297-7.559-30.493-12.893-36.96c-4.788-5.833-9.478-7.6-10.996-8.014    c-2.265-0.754-5.892-1.46-11.599-1.46c-5.699,0-9.323,0.704-11.59,1.457c-1.505,0.409-6.208,2.168-11.009,8.017    c-5.332,6.468-10.694,17.664-12.891,36.959C82.036,91.389,84.006,93.867,86.75,94.181z"/></g><g><circle cx="34.413" cy="17.5" r="17.5"/><path d="M4.747,93.693c0.087,0.004,0.173,0.006,0.258,0.006c2.646,0,4.853-2.076,4.989-4.747    c0.924-18.521,4.129-28.674,6.919-33.938V94.5v46c0,4.418,3.582,8,8,8c4.418,0,8-3.582,8-8v-41h3v41c0,4.418,3.582,8,8,8    c4.418,0,8-3.582,8-8v-46V55.031c0.098,0.183,0.195,0.36,0.294,0.555c2.723,5.401,5.732,15.499,6.628,33.366    c0.134,2.67,2.343,4.747,4.987,4.747c0.085,0,0.171-0.002,0.258-0.006c2.759-0.139,4.881-2.488,4.742-5.245    c-1.099-21.445-5.016-33.283-9.247-40.167c-4.184-6.896-9.053-8.531-10.318-8.683c-0.505-0.087-0.999-0.072-1.481-0.01    c-0.282-0.049-0.567-0.087-0.863-0.087h-25c-0.298,0-0.586,0.038-0.869,0.087c-0.48-0.06-0.972-0.075-1.474,0.012v-0.002    c-1.265,0.152-6.134,1.788-10.318,8.683C5.022,55.164,1.105,67,0.007,88.446C-0.134,91.205,1.989,93.552,4.747,93.693z"/></g></g></svg>