<?xml version="1.0" ?><!DOCTYPE svg  PUBLIC '-//W3C//DTD SVG 1.1//EN'  'http://www.w3.org/Graphics/SVG/1.1/DTD/svg11.dtd'><svg height="512px" style="enable-background:new 0 0 512 512;" version="1.1" viewBox="0 0 512 512" width="512px" xml:space="preserve" xmlns="http://www.w3.org/2000/svg" xmlns:xlink="http://www.w3.org/1999/xlink"><g id="compass_divider_geometry_arquitecture"><g><path d="M399.371,443.392l-41.67-127.058H388.5c6.627,0,12-5.373,12-12c0-6.628-5.373-12-12-12h-38.671l-48.168-146.877    c8.624-10.354,13.817-23.669,13.817-38.198c0-26.566-17.35-49.07-41.332-56.83V18.146c0-10.022-8.125-18.146-18.146-18.146    s-18.146,8.124-18.146,18.146v32.112c-24.246,7.604-41.838,30.247-41.838,57.001c0,14.731,5.344,28.208,14.184,38.623    L162.17,292.334H123.5c-6.627,0-12,5.372-12,12c0,6.627,5.373,12,12,12h30.799l-41.67,127.058    c-2.897,8.899-0.818,18.22,4.699,24.965c-2.073,6.493-7.837,41.499-1.56,43.542c6.206,2.021,21.233-26.997,23.65-33.902    c10.521-0.65,20.073-7.589,23.535-18.219l47.044-143.443h33.004v21.371c0,7.18,5.82,13,13,13c7.179,0,13-5.82,13-13v-21.371h33    l47.045,143.443c3.461,10.63,13.013,17.568,23.535,18.219c2.416,6.905,17.443,35.923,23.65,33.902    c6.277-2.043,0.514-37.049-1.561-43.542C400.189,461.611,402.27,452.291,399.371,443.392z M255.746,78.772    c15.733,0,28.487,12.753,28.487,28.487c0,15.733-12.754,28.487-28.487,28.487c-15.732,0-28.486-12.754-28.486-28.487    C227.26,91.525,240.014,78.772,255.746,78.772z M269.002,292.334v-21.295c0-7.18-5.821-13-13-13c-7.18,0-13,5.82-13,13v21.295    h-25.133L256,176.067l38.131,116.267H269.002z"/></g></g><g id="Capa_1"/></svg>