<?xml version="1.0" ?><!DOCTYPE svg  PUBLIC '-//W3C//DTD SVG 1.1//EN'  'http://www.w3.org/Graphics/SVG/1.1/DTD/svg11.dtd'><svg enable-background="new 0 0 100 100" id="Layer_1" version="1.1" viewBox="0 0 100 100" xml:space="preserve" xmlns="http://www.w3.org/2000/svg" xmlns:xlink="http://www.w3.org/1999/xlink"><g><path d="M77.3,38.3C77.3,23.3,65,11,50,11c-15,0-27.3,12.2-27.3,27.3c0,15,12.2,27.3,27.3,27.3C65,65.6,77.3,53.4,77.3,38.3z    M25.5,39.7H35c0.1,3.9,0.8,7.2,1.7,10.1c-2.7,1.4-4.7,3-5.8,4C27.8,49.9,25.8,45,25.5,39.7z M30.8,23.1c0.7,0.6,1.7,1.5,3,2.4   c0,0.3-0.1,0.5-0.1,0.8c0,1.6,0.8,3.1,2,4c-0.4,2-0.7,4.3-0.8,6.7h-9.5C25.8,31.7,27.8,26.9,30.8,23.1z M74.5,36.9h-5   c-0.5-1.7-1.9-3-3.7-3.4c-0.3-2.5-0.8-4.8-1.5-6.9c2.3-1.3,4-2.7,4.9-3.6C72.2,26.9,74.2,31.7,74.5,36.9z M59.9,36.9h-8.6v-6.7   c4.1-0.2,7.6-1.2,10.3-2.4c0.6,1.7,1,3.7,1.3,5.8C61.5,34.2,60.4,35.4,59.9,36.9z M51.4,27.5V14.2c1.9,1.2,6.4,4.5,9.3,11.1   C58.2,26.4,55.1,27.3,51.4,27.5z M48.6,14.9v12.6c-1.8-0.1-3.4-0.3-4.9-0.7c0-0.2,0-0.3,0-0.5c0-1.6-0.7-3-1.9-3.9   C44.1,18.6,46.8,16.2,48.6,14.9z M38.8,24.7c0.9,0,1.6,0.7,1.6,1.6c0,0.9-0.7,1.6-1.6,1.6s-1.6-0.7-1.6-1.6   C37.2,25.4,37.9,24.7,38.8,24.7z M38.8,31.2c1.5,0,2.9-0.7,3.8-1.8c1.8,0.5,3.8,0.8,6,0.9v6.6H37.8c0.1-2.1,0.3-4,0.7-5.7   C38.6,31.2,38.7,31.2,38.8,31.2z M48.6,39.7v7c-3.6,0.2-6.7,0.9-9.3,1.9c-0.8-2.6-1.4-5.5-1.5-8.9H48.6z M48.6,49.5v12.2   c-2.2-1.6-5.8-4.9-8.3-10.4C42.6,50.4,45.4,49.7,48.6,49.5z M51.4,49.5c3.7,0.2,6.7,1.1,9.2,2.2c-2.9,6.4-7.3,9.6-9.2,10.8V49.5z    M51.4,46.7v-7h8.6c0.4,1.5,1.6,2.7,3.1,3.3c-0.3,2.3-0.8,4.3-1.4,6.1C58.9,47.9,55.5,46.9,51.4,46.7z M64.7,39.9   c-0.9,0-1.6-0.7-1.6-1.6s0.7-1.6,1.6-1.6c0.9,0,1.6,0.7,1.6,1.6S65.6,39.9,64.7,39.9z M63.2,24c-1.9-4.2-4.4-7.2-6.6-9.2   c4.1,1.2,7.7,3.3,10.6,6.2C66.5,21.7,65.2,22.8,63.2,24z M39.2,21.3c-0.1,0-0.3,0-0.4,0c-1.4,0-2.7,0.6-3.6,1.6   c-1.1-0.8-1.9-1.5-2.4-1.9c3.3-3.3,7.5-5.6,12.1-6.6C43,16,41,18.3,39.2,21.3z M37.8,52.4c2,4.6,4.7,7.8,7.1,9.8   c-4.6-1-8.7-3.3-11.9-6.4C33.8,55,35.4,53.7,37.8,52.4z M63.1,52.9c1.9,1.1,3.2,2.2,4,2.9c-2.9,2.8-6.4,4.9-10.4,6   C58.8,59.9,61.2,57,63.1,52.9z M64.2,50.3c0.7-2.1,1.3-4.5,1.6-7.2c1.7-0.4,3.1-1.7,3.7-3.4h5C74.2,45,72.2,49.9,69,53.8   C68,52.9,66.4,51.6,64.2,50.3z"/><path d="M31.9,65.1c-3.7-3.9-9.8-13.6-13.6-12.3c-3.8,1.3-1.2,6.3-1.2,6.3l-1.9-2.5c-1.9-3.4-2.8-5.2-2.8-9.1l-0.1-8.9   c0-10.2-7.4-9.1-7.4-9.1v25.6c0,2.9,1.1,5.7,3.2,7.8L23,78c2,2,3.1,4.7,3.1,7.5c0,1.9,1.5,3.4,3.4,3.4h6.8c1.9,0,3.4-1.5,3.4-3.4   v-5.9C39.6,71.6,35.6,68.9,31.9,65.1z"/><path d="M87.6,38.7l-0.1,8.9c0,3.9-0.9,5.7-2.8,9.1l-1.9,2.5c0,0,2.5-5-1.2-6.3c-3.8-1.3-9.8,8.4-13.6,12.3   c-3.7,3.8-7.7,6.5-7.9,14.5v5.9c0,1.9,1.5,3.4,3.4,3.4h6.8c1.9,0,3.4-1.5,3.4-3.4c0-2.8,1.1-5.5,3.1-7.5l14.8-15.1   c2-2.1,3.2-4.9,3.2-7.8V29.6C95,29.6,87.6,28.5,87.6,38.7z"/></g></svg>