<?xml version="1.0" ?><!DOCTYPE svg  PUBLIC '-//W3C//DTD SVG 1.1//EN'  'http://www.w3.org/Graphics/SVG/1.1/DTD/svg11.dtd'><svg enable-background="new 0 0 128 128" height="128px" id="Layer_1" version="1.1" viewBox="0 0 128 128" width="128px" xml:space="preserve" xmlns="http://www.w3.org/2000/svg" xmlns:xlink="http://www.w3.org/1999/xlink"><g><path d="M23.653,65.256v16.281h0.018c0.074,1.805,1.126,3.938,2.938,6.147l2.454-19.825L23.653,65.256z" fill="#020202"/><path d="M64.004,83.625c-2.151,0-4.063-0.894-4.063-0.894L37.164,71.768l3.229,26   c6.582,3.128,14.62,5.348,23.354,5.348c21.937,0,39.752-13.84,40.074-21.578h0.024V65.461L68.077,82.717   C68.077,82.717,66.157,83.625,64.004,83.625z" fill="#020202"/><path d="M28.201,105.398c0,0,0.822,3.973,4.679,3.973s4.679-3.973,4.679-3.973L32.88,69.73L28.201,105.398z" fill="#020202"/><path d="M126.353,47.242l-58.36-27.828c-2.196-1.047-5.79-1.047-7.986,0L1.646,47.231   c-2.195,1.049-2.195,2.762,0,3.809l25.516,12.161c1.134,0.541,2.161,0.995,2.897,1.291c0.69,0.277,1.138,0.561,1.138,0.488   c0-0.671,0.312-1.103,0.537-1.284c0.099-0.082,0.554-0.345,1.205-0.7l3.767-1.957l20.485-10.644   c-0.183-0.385-0.306-0.786-0.306-1.211c0-2.455,3.184-4.444,7.111-4.444c3.926,0,7.111,1.99,7.111,4.444   c0,2.455-3.185,4.445-7.111,4.445c-1.207,0-2.325-0.207-3.316-0.539L35.929,65.95c0,0-0.358,0.265-0.358,0.671   c0,0.422,0.219,0.625,0.219,0.625c0.917,0.512,1.85,0.958,3.094,1.559L60.009,78.87c2.196,1.056,5.787,1.056,7.984,0l58.359-27.815   C128.549,50.002,128.549,48.289,126.353,47.242z" fill="#020202"/></g></svg>