<?xml version="1.0" ?><svg enable-background="new 0 0 100 100" height="100px" id="Your_Icon" version="1.1" viewBox="0 0 100 100" width="100px" xml:space="preserve" xmlns="http://www.w3.org/2000/svg" xmlns:xlink="http://www.w3.org/1999/xlink"><path d="M52.917,13.791L60.84,36.74c0.403,0.806,1.181,1.364,2.081,1.493l24.29,0.162  c2.668,0.383,3.734,3.621,1.803,5.479l-19.393,14.72c-0.651,0.627-0.949,1.531-0.795,2.416l7.088,22.675  c0.456,2.624-2.333,4.625-4.72,3.386L51.286,73.595c-0.805-0.418-1.767-0.418-2.573,0L28.805,87.072  c-2.387,1.239-5.176-0.762-4.72-3.386l7.088-22.675c0.154-0.885-0.143-1.789-0.795-2.416l-19.393-14.72  c-1.931-1.858-0.865-5.096,1.803-5.479l24.29-0.162c0.9-0.129,1.679-0.688,2.081-1.493l7.923-22.949  C48.276,11.403,51.724,11.403,52.917,13.791z" fill="#000000"/></svg>