<?xml version="1.0" ?><svg height="24px" id="Layer_1" style="enable-background:new 0 0 24 24;" version="1.1" viewBox="0 0 24 24" width="24px" xml:space="preserve" xmlns="http://www.w3.org/2000/svg" xmlns:xlink="http://www.w3.org/1999/xlink"><path d="M15,18v2H5V4h10v1.6355591c0.3258667-0.0549927,0.6593628-0.0863037,1-0.0863037  c0.3408203,0,0.6734009,0.0352783,1,0.0901489V3c0-1.1046143-0.8954468-2-2-2H5C3.8954468,1,3,1.8953857,3,3v18  c0,1.1045532,0.8954468,2,2,2h10c1.1045532,0,2-0.8954468,2-2v-3H15z"/><path d="M19.888855,10.5776367C19.4718628,8.8139038,17.8911133,7.5,16,7.5c-2.0559692,0-3.7477417,1.5518188-3.9727173,3.5476074  C10.8730469,11.2689209,10,12.281189,10,13.5c0,1.3806763,1.1192627,2.5,2.5,2.5H15v-2h-2l3-3l3,3h-2v2h2.25  c1.5187988,0,2.75-1.2312622,2.75-2.75C22,11.9515381,21.098999,10.8660278,19.888855,10.5776367z"/></svg>