<?xml version="1.0" ?><!DOCTYPE svg  PUBLIC '-//W3C//DTD SVG 1.1//EN'  'http://www.w3.org/Graphics/SVG/1.1/DTD/svg11.dtd'><svg enable-background="new 0 0 164 164" height="164px" id="Layer_1" version="1.1" viewBox="0 0 164 164" width="164px" xml:space="preserve" xmlns="http://www.w3.org/2000/svg" xmlns:xlink="http://www.w3.org/1999/xlink"><path clip-rule="evenodd" d="M0,69.545l10.128-0.004c-1.885,2.488-3.326,5.417-4.422,8.578  c16.26-3.19,32.05,2.462,31.636,25.276C16.6,100.641,10.833,92.222,3.408,87.778c-1.914,12.675-0.372,25.814-0.341,28.929v17.875  h34.349v-16.658h88.922v16.658h34.35v-17.875c-0.067-3.399,1.48-16.411-0.373-28.954c-7.445,4.437-13.194,12.882-33.977,15.643  c-0.415-22.853,15.428-28.486,31.717-25.261c-1.089-3.165-2.529-6.098-4.423-8.594l10.049,0.004  c-1.571-10.68-8.341-14.354-18.173-11.088c-18.558-38.294-108.778-38.294-127.335,0C8.34,55.192,1.57,58.866,0,69.545L0,69.545z   M23.632,64.477c13.35-39.67,103.066-39.67,116.417,0H23.632z" fill="#1A1A1A" fill-rule="evenodd"/></svg>