<svg version="1" viewBox="0 0 32 32" xmlns="http://www.w3.org/2000/svg" width="36" height="36">
  <path clip-rule="evenodd" d="M32 30a2 2 0 0 1-2 2H2a2 2 0 0 1-2-2V2a2 2 0 0 1 2-2h28a2 2 0 0 1 2 2v28z" fill="#ff0000A" fill-rule="evenodd"/>
  <path d="M19.435 23.547c-.64 0-1.206-.149-1.704-.447-.377-.223-.731-.694-.731-1.1v-8h5v-4h-5V5h-4v2a4 4 0 0 1-4 4v3h3v8c0 1.026-.031 1.828.15 2.284.216.541.485 1.022 1.041 1.503.558.478.998.765 1.787 1.023.863.285 1.775.39 2.72.39.903 0 1.744-.091 2.521-.272.777-.182 1.848-.544 2.781-1.128v-3.5c-1.108.86-2.43 1.247-3.565 1.247z" fill="red"/>
</svg>
