<svg viewBox="0 0 512 512" xmlns="http://www.w3.org/2000/svg" width="36" height="36">
  <path d="M512 396.203v18.328c0 9.656-7.813 17.469-17.5 17.469h-95.141c-4.47-51.172-33.953-64.078-65.095-77.578l-4.733-2.047c-9.688-4.234-21.642-7.406-33.203-10.484l-3.297-.875c-10.547-2.813-17.078-5.016-21.031-6.594v-3.828c3.953-5.531 7.469-11.734 10.75-18.313 13.719-5.547 21.25-12.094 21.25-21.109v-18.328h-1.922c23.313-12.563 28.578-41.391 31.438-57.906 1.345-7.844 5.484-31.75-9.469-49.719a44.72 44.72 0 0 0-5.906-5.875c1.595-35.25-11.547-60.047-23.125-74.844-8.969-11.453-20.108-20.703-32.141-28.281 2.352-4.484 5.031-8.781 8.469-12.797C287.125 24.969 310.906 16 343.984 16c33.094 0 56.844 8.969 72.655 27.438C435.172 65.078 432 80 432 128c0 37.438 30.203 69.875 41.344 76.859 3.203 1.984 5.484 5.297 6.313 9.125.828 3.844.155 7.844-1.892 11.156-9.578 15.203-39.844 38.484-90.547 47.703H384v18.328c0 12.642 14.656 20.453 40.609 27.375 12.358 3.297 24.938 6.484 33.578 10.25C494.5 344.656 512 349.938 512 396.203zm-195.25-14.5c-8.219-3.578-20.219-6.625-31.969-9.766C260.07 365.344 240 357.906 240 345.875v-26.5c16.148-17.734 24.469-43.094 30.398-73.016 1.602.422 4.836.672 6.586.672 14.108 0 19.828-7.719 24.983-37.531 4.625-26.813-6.594-28.859-19.188-29C304.219 93.891 222.055 64 181.609 64c-25.469 0-22.219 16.25-22.219 16.25-48.453 0-69.438 19.656-61.063 100.313-11.797.375-21.672 3.5-17.25 28.938 5.133 29.641 14.047 37.453 28 37.531C116 277.891 125.891 303.828 144 321.516v24.359c0 12.031-19.961 19.469-44.797 26.109-11.563 3.063-23.508 6.266-31.805 9.733C44.664 391.156 16 401.828 16 445.906v17.453C16 472.547 23.445 480 32.633 480h318.711c9.219 0 16.656-7.453 16.656-16.641v-17.453c0-44.062-16.656-49.093-51.25-64.203z" fill="red"/>
</svg>
