<svg id="Layer_1" xmlns="http://www.w3.org/2000/svg" viewBox="0 0 512 512" width="36" height="36">
  <style>.st0{fill:#ff0000}</style>
  <path class="st0" d="M-.1 510.6h512.5c0-5.8 0-11.5-.1-17v-2.9c0-.1 0-.2-.1-.5-1.2-40.3-8.9-68.2-50-94.1-54.6-34.4-115.7-64-115.7-64-8.6-4.4-13.7-17.1-16.6-32.5-.8-4.4-1.5-8.9-1.9-13.6 56.9-50 45.3-157.8 45.3-157.8C367.5 6.9 266.2 7.9 256.2 8.4c-10-.4-111.3-1.5-116.9 119.7 0 0-11.7 107.8 45.3 157.8-.5 4.6-1.2 9.2-1.9 13.6-2.9 15.4-8 28-16.6 32.5 0 0-61.1 29.6-115.7 64C9 421.9 1.3 449.9.3 490.2c0 .1-.1.2-.1.5v2.9c-.2 6.2-.2 12.7-.2 19.6v-2.7h-.1zm512-21c0-1 0-.9 0 0zM.5 489.5c0 .1 0 .1 0 0 0-.8 0-.9 0 0z" id="XMLID_1092_"/>
</svg>