<svg viewBox="0 0 512 512" xmlns="http://www.w3.org/2000/svg" width="36" height="36">
  <path d="M496 441.969V456c0 13.25-10.742 24-24 24H246.883c3.656-7.156 5.914-15.125 5.914-23.703V341.625c1.906-2.125 3.203-4.266 3.203-6.438v-28.781c-5.563-5.563-11.164-10.859-16.563-16.328-.195-.203-.328-.438-.531-.641l-1.57-1.531c-12.898-13.391-24.195-28.297-29.336-51.75-15.234-.094-24.953-8.813-30.547-41.875-4.836-28.375 5.945-31.844 18.813-32.266-9.141-89.953 23.023-111.891 75.882-111.891 0 0-3.547-18.125 24.25-18.125 44.103 0 136.867 33.344 113.509 129.938 13.75.156 25.953 2.438 20.938 32.344-5.641 33.25-11.875 41.875-27.266 41.875-1.906 0-5.438-.281-7.188-.75-6.453 33.375-26.75 48.813-44.391 68.594v31.188C352 352 416 368 434.859 375.141 453.718 382.282 496 392.813 496 441.969zM218.789 310.047l-50.023-48.844A17.817 17.817 0 0 0 156.18 256H55.703C42.609 256 32 266.609 32 279.703v176.594C32 469.391 42.609 480 55.703 480h144.594C213.391 480 224 469.391 224 456.297V322.625a17.8 17.8 0 0 0-5.211-12.578zM192 443.969a4.031 4.031 0 0 1-4.031 4.031H68.031A4.03 4.03 0 0 1 64 443.969V292.031A4.036 4.036 0 0 1 68.031 288H144v30.219c0 9.828 7.969 17.781 17.797 17.781H192v107.969zM176 432H80v-16h96v16zm0-32H80v-16h96v16zm0-32H80v-16h96v16zm-48-48H80v-16h48v16z" fill="#ff0000"/>
</svg>