<?xml version="1.0" ?><!DOCTYPE svg  PUBLIC '-//W3C//DTD SVG 1.1//EN'  'http://www.w3.org/Graphics/SVG/1.1/DTD/svg11.dtd'><svg enable-background="new 0 0 512 512" height="512px" id="Layer_1" version="1.1" viewBox="0 0 512 512" width="512px" xml:space="preserve" xmlns="http://www.w3.org/2000/svg" xmlns:xlink="http://www.w3.org/1999/xlink"><g><path d="M512,441.969V456c0,13.25-10.742,24-24,24H275.469c5.82-9.313,9.328-20.219,9.328-32V304   c0-32.828-26.195-59.484-58.758-60.594c-0.719-2.359-1.477-4.672-2.039-7.25c-15.234-0.094-24.953-8.813-30.547-41.875   c-4.836-28.375,5.945-31.844,18.813-32.266c-9.141-89.953,23.023-111.891,75.882-111.891c0,0-3.547-18.125,24.251-18.125   c44.102,0,136.866,33.344,113.508,129.938c13.75,0.156,25.953,2.438,20.938,32.344c-5.641,33.25-11.875,41.875-27.266,41.875   c-1.906,0-5.438-0.281-7.188-0.75C405.938,268.781,385.641,284.219,368,304v31.188C368,352,432,368,450.859,375.141   C469.718,382.282,512,392.813,512,441.969z M224,272H32c-17.672,0-32,14.328-32,32v144c0,17.672,14.328,32,32,32h192   c17.672,0,32-14.328,32-32V304C256,286.328,241.672,272,224,272z M228.031,435.125c-1.898,2.172-4.555,3.281-7.227,3.281   c-2.25,0-4.5-0.781-6.32-2.359l-55.555-48.578l-12.914,10.813c-5.086,4.25-11.336,6.391-17.578,6.391   c-6.211,0-12.414-2.108-17.484-6.313l-13.484-11.173L41.61,437.532c-1.836,1.655-4.133,2.469-6.43,2.469   c-2.625,0-5.234-1.063-7.133-3.172c-3.547-3.938-3.234-10,0.703-13.547l53.773-48.453l-53.445-44.25   c-4.078-3.375-4.648-9.422-1.273-13.517c3.367-4.094,9.414-4.672,13.523-1.266l81.875,67.781c3.039,2.5,7.453,2.516,10.492-0.016   l80.938-67.734c4.055-3.406,10.117-2.891,13.523,1.203c3.406,4.063,2.867,10.109-1.195,13.516L173.844,375l53.281,46.578   C231.117,425.078,231.523,431.141,228.031,435.125z" fill="#4D4D4D"/></g></svg>