<?xml version="1.0" ?><svg id="Layer_1" style="enable-background:new 0 0 512 512;" version="1.1" viewBox="0 0 512 512" xml:space="preserve" xmlns="http://www.w3.org/2000/svg" xmlns:xlink="http://www.w3.org/1999/xlink"><style type="text/css">
	.st0{fill:#ff0000;}
</style><g id="XMLID_1092_"><path class="st0" d="M44.9,461.7h422.1c0-4.8,0-9.5-0.1-14v-2.4c0-0.1,0-0.2-0.1-0.4c-1-33.2-7.3-56.2-41.2-77.5   c-45-28.3-95.3-52.7-95.3-52.7c-7.1-3.6-11.3-14.1-13.7-26.8c-0.7-3.6-1.2-7.3-1.6-11.2c46.9-41.2,37.3-130,37.3-130   c-4.6-99.8-88.1-99-96.3-98.6c-8.2-0.3-91.7-1.2-96.3,98.6c0,0-9.6,88.8,37.3,130c-0.4,3.8-1,7.6-1.6,11.2   c-2.4,12.7-6.6,23.1-13.7,26.8c0,0-50.3,24.4-95.3,52.7c-34,21.3-40.3,44.3-41.2,77.5c0,0.1-0.1,0.2-0.1,0.4v2.4   c-0.1,5.1-0.1,10.5-0.1,16.2V461.7z M466.6,444.4C466.6,444.4,466.6,444.4,466.6,444.4C466.6,443.6,466.6,443.7,466.6,444.4z    M45.4,444.3C45.4,444.4,45.4,444.4,45.4,444.3C45.4,443.7,45.4,443.6,45.4,444.3z"/></g></svg>