<svg height="512" width="512" xmlns="http://www.w3.org/2000/svg">
  <path d="M496 441.969V456c0 13.25-10.742 24-24 24H276.156c5.367-8.891 8.641-19.203 8.641-30.328v-67.344c0-21.492-11.602-40.234-28.797-50.586v-25.336-3.594c-3.695-40.695-35.336-74.454-72.961-86.672-2.18-5.719-4.055-12.805-5.586-21.859-4.836-28.375 5.945-31.844 18.813-32.266-9.141-89.953 23.023-111.891 75.882-111.891 0 0-3.547-18.125 24.25-18.125 44.103 0 136.867 33.344 113.509 129.938 13.75.156 25.953 2.438 20.938 32.344-5.641 33.25-11.875 41.875-27.266 41.875-1.906 0-5.438-.281-7.188-.75-6.453 33.375-26.75 48.813-44.391 68.594v31.188C352 352 416 368 434.859 375.141 453.718 382.282 496 392.813 496 441.969zM224 352v-40c0-39.766-32.234-72-72-72s-72 32.234-72 72v40h-1.668C61.58 352 48 365.58 48 382.332v67.336C48 466.42 61.58 480 78.332 480h147.336C242.42 480 256 466.42 256 449.668v-67.336C256 365.58 242.42 352 225.668 352H224zm-72 96c-13.258 0-24-10.75-24-24s10.742-24 24-24 24 10.75 24 24-10.742 24-24 24zm24-96h-48v-41.602c0-13.234 10.766-24 24-24s24 10.766 24 24V352z" fill="#4D4D4D"/>
</svg>
