<?xml version="1.0" ?><!DOCTYPE svg  PUBLIC '-//W3C//DTD SVG 1.1//EN'  'http://www.w3.org/Graphics/SVG/1.1/DTD/svg11.dtd'><svg enable-background="new 0 0 512 512" height="512px" id="Layer_1" version="1.1" viewBox="0 0 512 512" width="512px" xml:space="preserve" xmlns="http://www.w3.org/2000/svg" xmlns:xlink="http://www.w3.org/1999/xlink"><g><path d="M496,441.969V456c0,13.25-10.75,24-24,24H228.977c33.835-25.734,55.82-66.297,55.82-112   c0-53.734-30.273-100.5-74.641-124.219c-0.75-2.5-1.563-4.906-2.156-7.625c-15.234-0.094-24.953-8.813-30.547-41.875   c-4.836-28.375,5.945-31.844,18.813-32.266c-9.141-89.953,23.023-111.891,75.891-111.891c0,0-3.556-18.125,24.25-18.125   c44.094,0,136.858,33.344,113.5,129.938c13.75,0.156,25.953,2.438,20.938,32.344c-5.641,33.25-11.875,41.875-27.266,41.875   c-1.906,0-5.438-0.281-7.188-0.75C389.938,268.781,369.641,284.219,352,304v31.188C352,352,416,368,434.859,375.141   C453.718,382.282,496,392.813,496,441.969z M144,256c-61.852,0-112,50.156-112,112s50.148,112,112,112s112-50.156,112-112   S205.852,256,144,256z M192,374.625l-69.258,42.188c-2.297,1.156-5.031,1.031-7.219-0.327c-2.188-1.359-3.523-3.735-3.523-6.313   v-84.344c0-2.578,1.336-4.953,3.523-6.313c2.187-1.36,4.922-1.484,7.219-0.345L192,361.375c2.516,1.25,4.102,3.828,4.102,6.625   S194.516,373.375,192,374.625z" fill="#4D4D4D"/></g></svg>