<?xml version="1.0" ?><!DOCTYPE svg  PUBLIC '-//W3C//DTD SVG 1.1//EN'  'http://www.w3.org/Graphics/SVG/1.1/DTD/svg11.dtd'><svg enable-background="new 0 0 512 512" height="512px" id="Layer_1" version="1.1" viewBox="0 0 512 512" width="512px" xml:space="preserve" xmlns="http://www.w3.org/2000/svg" xmlns:xlink="http://www.w3.org/1999/xlink"><g><path d="M386.859,375.141C368,368,304,352,304,335.188V304c17.641-19.781,37.938-35.219,44.391-68.594   c1.75,0.469,5.281,0.75,7.188,0.75c15.391,0,21.625-8.625,27.266-41.875c5.017-29.906-7.188-32.188-20.938-32.344   C385.266,65.344,292.5,32,248.398,32c-27.797,0-24.25,18.125-24.25,18.125c-52.859,0-85.023,21.938-75.883,111.891   c-12.867,0.422-23.648,3.891-18.813,32.266c5.594,33.063,15.313,41.781,30.547,41.875c7.547,34.405,28.242,50.5,48,70.25v28.78   C208,352,144,368,125.141,375.141C106.282,382.282,64,392.813,64,441.969V456c0,13.25,10.742,24,24,24h336c13.258,0,24-10.75,24-24   v-14.031C448,392.813,405.719,382.281,386.859,375.141z" fill="#4D4D4D"/></g></svg>