<svg viewBox="0 0 512 512" xmlns="http://www.w3.org/2000/svg" width="36" height="36">
  <path d="M479.719 441.969V456c0 13.25-10.75 24-24 24H212.695c33.844-25.734 55.829-66.297 55.829-112 0-53.734-30.267-100.484-74.642-124.203-.75-2.5-1.563-4.922-2.156-7.641-15.234-.094-24.953-8.813-30.547-41.875-4.836-28.375 5.953-31.844 18.813-32.266-9.141-89.953 23.016-111.891 75.891-111.891 0 0-3.563-18.125 24.242-18.125 44.094 0 136.875 33.344 113.5 129.938 13.75.156 25.969 2.438 20.938 32.344-5.625 33.25-11.875 41.875-27.25 41.875-1.906 0-5.438-.281-7.188-.75-6.469 33.375-26.75 48.813-44.406 68.594v31.188c0 16.813 64 32.813 82.875 39.953 18.844 7.14 61.125 17.672 61.125 66.828zM240 368c0 61.859-50.148 112-112 112S16 429.859 16 368s50.148-112 112-112 112 50.141 112 112zm-96-8c0-4.422-3.578-8-8-8h-16c-4.422 0-8 3.578-8 8v64c0 4.422 3.578 8 8 8h16c4.422 0 8-3.578 8-8v-64zm2.398-40c0-10.172-8.234-18.391-18.398-18.391s-18.398 8.219-18.398 18.391 8.234 18.391 18.398 18.391 18.398-8.219 18.398-18.391z" fill="#ff0000"/>
</svg>