<svg viewBox="0 0 512 512" xmlns="http://www.w3.org/2000/svg" width="36" height="36">
  <path d="M496 441.969V456c0 13.25-10.742 24-24 24H287.063c6.148-9.156 9.281-19.875 8.906-31.078-.5-14.75-6.984-28.297-18.258-38.156l-.727-.641-22.853-16.938A127.315 127.315 0 0 0 264 344c0-53.305-32.781-99.063-79.219-118.289-2.953-9.328-5.406-20.055-7.328-31.422-4.836-28.375 5.945-31.859 18.813-32.273-9.141-89.961 23.023-111.891 75.882-111.891 0 0-3.547-18.125 24.25-18.125 44.103 0 136.867 33.336 113.509 129.945 13.75.148 25.953 2.438 20.938 32.344-5.641 33.25-11.875 41.859-27.266 41.859-1.906 0-5.438-.273-7.188-.742-6.452 33.367-26.75 48.82-44.391 68.594v26.398c0 13.422 21.031 21.719 48 29.069 12.828 3.5 25.891 6.898 34.859 10.892C472.594 387.211 496 392.82 496 441.969zm-232.68 29.344c-12.103 12.109-31.211 11.47-42.484-1.405l-30.867-37.125C174.219 442.375 155.789 448 136 448c-57.438 0-104-46.563-104-104 0-.297.039-.594.047-.891-.008-.297-.047-.594-.047-.892C32 285.781 77.766 240 134.219 240c.297 0 .594.047.891.047.297 0 .593-.047.89-.047 57.438 0 104 46.563 104 104 0 20.75-6.148 40.047-16.625 56.266l38.539 28.563c12.883 11.265 13.5 30.374 1.406 42.484zM193.602 344c0-31.813-25.789-57.594-57.602-57.594S78.398 312.188 78.398 344s25.789 57.594 57.602 57.594 57.602-25.781 57.602-57.594z" fill="#ff0000"/>
</svg>