<svg viewBox="0 0 512 512" xmlns="http://www.w3.org/2000/svg" width="36" height="36">
  <path d="M512 441.969V456c0 13.25-10.75 24-24 24H275.469c5.813-9.32 9.328-20.227 9.328-32V304c0-32.828-26.195-59.484-58.758-60.594-.719-2.359-1.477-4.672-2.039-7.25-15.234-.094-24.953-8.813-30.547-41.875-4.836-28.375 5.945-31.844 18.813-32.266-9.141-89.953 23.023-111.891 75.891-111.891 0 0-3.563-18.125 24.25-18.125 44.094 0 136.858 33.344 113.5 129.938 13.75.156 25.953 2.438 20.938 32.344-5.641 33.25-11.875 41.875-27.266 41.875-1.906 0-5.438-.281-7.188-.75-6.453 33.375-26.75 48.813-44.391 68.594v31.188C368 352 432 368 450.859 375.141 469.718 382.282 512 392.813 512 441.969zM256 304v144c0 17.672-14.328 32-32 32H32c-17.672 0-32-14.328-32-32V304c0-17.672 14.328-32 32-32h192c17.672 0 32 14.328 32 32zm-32 3.203a3.207 3.207 0 0 0-3.203-3.203H35.203A3.207 3.207 0 0 0 32 307.203v137.594A3.207 3.207 0 0 0 35.203 448h185.594a3.207 3.207 0 0 0 3.203-3.203V307.203zM208 432H48l48-112 48 80 23.992-32L208 432zm0-96c0 8.836-7.164 16-16 16s-16-7.164-16-16 7.164-16 16-16 16 7.164 16 16z" fill="red"/>
</svg>
