<svg viewBox="0 0 512 512" xmlns="http://www.w3.org/2000/svg" width="36" height="36">
  <path d="M496 441.969V456c0 13.25-10.742 24-24 24H228.977c33.835-25.734 55.82-66.297 55.82-112 0-53.734-30.273-100.492-74.641-124.211-.75-2.5-1.563-4.914-2.156-7.633-15.234-.094-24.953-8.813-30.547-41.875-4.836-28.375 5.945-31.844 18.813-32.266-9.141-89.953 23.023-111.891 75.882-111.891 0 0-3.547-18.125 24.25-18.125 44.103 0 136.867 33.344 113.509 129.938 13.75.156 25.953 2.438 20.938 32.344-5.641 33.25-11.875 41.875-27.266 41.875-1.906 0-5.438-.281-7.188-.75-6.453 33.375-26.75 48.813-44.391 68.594v31.188C352 352 416 368 434.859 375.141 453.718 382.282 496 392.813 496 441.969zM144 256c-61.852 0-112 50.148-112 112 0 61.859 50.148 112 112 112s112-50.141 112-112c0-61.852-50.148-112-112-112zm66.531 115.406l-59.469 47.641a4.357 4.357 0 0 1-4.602.516 4.315 4.315 0 0 1-2.46-3.906V384H88c-4.422 0-8-3.578-8-8v-16c0-4.422 3.578-8 8-8h56v-31.656c0-1.672.953-3.188 2.461-3.914a4.36 4.36 0 0 1 4.602.523l59.469 47.648a4.34 4.34 0 0 1 1.625 3.397 4.382 4.382 0 0 1-1.626 3.408z" fill="#ff0000"/>
</svg>