<?xml version="1.0" ?><!DOCTYPE svg  PUBLIC '-//W3C//DTD SVG 1.1//EN'  'http://www.w3.org/Graphics/SVG/1.1/DTD/svg11.dtd'><svg enable-background="new 0 0 512 512" height="512px" id="Layer_1" version="1.1" viewBox="0 0 512 512" width="512px" xml:space="preserve" xmlns="http://www.w3.org/2000/svg" xmlns:xlink="http://www.w3.org/1999/xlink"><g><path d="M480,441.969V456c0,13.25-10.742,24-24,24H212.977c33.836-25.734,55.82-66.297,55.82-112   c0-53.734-30.273-100.492-74.641-124.211c-0.75-2.5-1.563-4.914-2.156-7.633c-15.234-0.094-24.953-8.813-30.547-41.875   c-4.836-28.375,5.945-31.844,18.813-32.266c-9.141-89.953,23.023-111.891,75.883-111.891c0,0-3.547-18.125,24.25-18.125   c44.103,0,136.867,33.344,113.509,129.938c13.75,0.156,25.953,2.438,20.938,32.344c-5.641,33.25-11.875,41.875-27.266,41.875   c-1.906,0-5.438-0.281-7.188-0.75C373.938,268.781,353.641,284.219,336,304v31.188C336,352,400,368,418.859,375.141   C437.718,382.282,480,392.813,480,441.969z M240,368c0,61.859-50.148,112-112,112S16,429.859,16,368c0-61.852,50.148-112,112-112   S240,306.148,240,368z M192,360c0-4.422-3.578-8-8-8h-40v-40c0-4.422-3.578-8-8-8h-16c-4.422,0-8,3.578-8,8v40H72   c-4.422,0-8,3.578-8,8v16c0,4.422,3.578,8,8,8h40v40c0,4.422,3.578,8,8,8h16c4.422,0,8-3.578,8-8v-40h40c4.422,0,8-3.578,8-8V360z" fill="#4D4D4D"/></g></svg>