<svg viewBox="0 0 512 512" xmlns="http://www.w3.org/2000/svg" width="36" height="36">
  <path d="M255.5 347.781c-.023-1.945-.656-3.805-1.867-5.547a8.52 8.52 0 0 0-1.289-1.422c-.539-.453-1.641-1.406-3.859-2.273l-22.438-7.133c-1.672-5.188-3.75-10.195-6.227-14.93l10.906-20.961c1.719-3.586 1.258-7.673-1.203-10.681-.617-.819-1.68-2.133-3.656-4.555-2.984-3.32-6.297-6.617-10.234-10.164l-4.039-3.517c-1.859-1.555-4.195-2.43-6.586-2.43a9.79 9.79 0 0 0-4.508 1.094l-20.945 10.758c-4.961-2.522-9.969-4.569-14.992-6.125l-7-21.727c-.906-4.156-4.602-7.305-9.148-7.672l-5.344-.297c-2.477-.141-5-.203-7.547-.203-2.25 0-4.516.063-6.859.203l-5.665.449c-2.672.352-5.055 1.625-6.461 3.367-1.156 1.242-1.734 2.609-2.063 3.547l-7.063 22.469a97.135 97.135 0 0 0-14.977 6.133L71.6 265.477a10.065 10.065 0 0 0-4.617-1.134c-2.391 0-4.727.853-6.656 2.478l-4.07 3.547c-4.039 3.648-7.266 6.867-10.359 10.344-1.898 2.344-2.906 3.586-3.484 4.359-2.406 3.022-2.836 7.094-1.016 10.813l10.781 20.742c-2.461 4.719-4.539 9.727-6.219 14.93l-22.414 7.117c-.32.102-.641.219-.953.367a11.828 11.828 0 0 0-3.211 2.211 6.605 6.605 0 0 0-.828.922c-1.586 2.094-2 4.164-2.039 5.711l-.336 5.055c-.25 5.22-.242 9.906.047 14.431l.367 5.125c.188 4.063 2.828 7.616 7.063 9.141l22.391 6.992c1.617 5.108 3.695 10.078 6.18 14.906l-10.516 20.483c-2.281 3.672-1.789 8.547 1.156 11.781l3.453 3.859a99.932 99.932 0 0 0 10.148 10.108l4.43 3.97a10.23 10.23 0 0 0 6.195 2.063c1.344 0 2.68-.25 3.969-.75.242-.094.477-.203.711-.328l20.953-10.858c4.594 2.405 9.523 4.438 14.914 6.155l7.172 22.672c1.398 3.953 4.969 6.595 8.813 6.734l5.438.406c1.938.109 3.922.172 5.914.172 2.805 0 5.641-.094 8.578-.297l4.82-.375c3.086 0 5.875-1.406 7.703-3.875.906-1.172 1.367-2.406 1.602-3.266l7.156-22.328c5.086-1.656 9.82-3.656 14.477-6.156l21.539 11.141c1.336.531 2.719.813 4.102.813 2.25 0 4.375-.72 6.734-2.531l3.695-3.391c3.719-3.188 7.188-6.625 10.242-10.156l3.5-3.922c2.945-3.267 3.453-7.938 1.477-11.267l-10.813-21.03a95.056 95.056 0 0 0 6.172-14.867l22.906-7.164c3.805-1.492 6.375-5.022 6.539-8.82l.367-5.344c.297-4.556.305-9.392.039-14.5l-.312-4.885zm-119.508 52.196C113.898 399.977 96 382.094 96 360c0-22.102 17.898-40 39.992-40C158.094 320 176 337.898 176 360c0 22.094-17.906 39.977-40.008 39.977zM496 441.969V456c0 13.25-10.742 24-24 24H223.609c37.008-27.094 61.188-70.719 61.188-120 0-65.063-42.039-120.367-100.336-140.531-2.805-6.18-5.156-14.25-7.008-25.188-4.836-28.375 5.945-31.844 18.813-32.266-9.141-89.953 23.023-111.891 75.882-111.891 0 0-3.547-18.125 24.25-18.125 44.103 0 136.867 33.344 113.509 129.938 13.75.156 25.953 2.438 20.938 32.344-5.641 33.25-11.875 41.875-27.266 41.875-1.906 0-5.438-.281-7.188-.75-6.453 33.375-26.75 48.813-44.391 68.594v31.188C352 352 416 368 434.859 375.141 453.718 382.282 496 392.813 496 441.969z" fill="#ff0000"/>
</svg>