<svg viewBox="0 0 512 512" xmlns="http://www.w3.org/2000/svg" width="36" height="36">
  <path d="M496 441.969V456c0 13.25-10.75 24-24 24H228.977c33.835-25.734 55.82-66.297 55.82-112 0-53.734-30.273-100.5-74.641-124.219-.75-2.5-1.563-4.906-2.156-7.625-15.234-.094-24.953-8.813-30.547-41.875-4.836-28.375 5.945-31.844 18.813-32.266-9.141-89.953 23.023-111.891 75.891-111.891 0 0-3.556-18.125 24.25-18.125 44.094 0 136.858 33.344 113.5 129.938 13.75.156 25.953 2.438 20.938 32.344-5.641 33.25-11.875 41.875-27.266 41.875-1.906 0-5.438-.281-7.188-.75-6.453 33.375-26.75 48.813-44.391 68.594v31.188C352 352 416 368 434.859 375.141 453.718 382.282 496 392.813 496 441.969zM144 256c-61.852 0-112 50.156-112 112s50.148 112 112 112 112-50.156 112-112-50.148-112-112-112zm48 118.625l-69.258 42.188a7.39 7.39 0 0 1-7.219-.327 7.425 7.425 0 0 1-3.523-6.313v-84.344a7.429 7.429 0 0 1 3.523-6.313 7.43 7.43 0 0 1 7.219-.345L192 361.375c2.516 1.25 4.102 3.828 4.102 6.625s-1.586 5.375-4.102 6.625z" fill="#ff0000"/>
</svg>