<svg viewBox="0 0 512 512" xmlns="http://www.w3.org/2000/svg" width="36" height="36">
  <path d="M512 441.969V456c0 13.25-10.742 24-24 24H208.938c54.102-22.219 91.859-71.172 91.859-128 0-59.531-41.414-110.422-99.672-130.984-3.117-6.313-5.672-14.914-7.672-26.734-4.836-28.375 5.945-31.844 18.813-32.266-9.141-89.953 23.023-111.891 75.882-111.891 0 0-3.547-18.125 24.251-18.125 44.102 0 136.866 33.344 113.508 129.938 13.75.156 25.953 2.438 20.938 32.344-5.641 33.25-11.875 41.875-27.266 41.875-1.906 0-5.438-.281-7.188-.75-6.453 33.374-26.75 48.812-44.391 68.593v31.188C368 352 432 368 450.859 375.141 469.718 382.282 512 392.813 512 441.969zM272 352c0 61.859-57.305 112-128 112-11.703 0-22.992-1.5-33.766-4.063C76.688 475.328 51.156 480 46.375 480c-3.914 0-7.484-.313-10.625-.953-1.742-.328-3.141-1.656-3.594-3.375a4.669 4.669 0 0 1 1.453-4.719l3.672-3.125c9.82-8.266 15.531-21.016 15.352-37.453C30 410.172 16 382.531 16 352c0-61.859 57.305-112 128-112s128 50.141 128 112zm-171.203 0c0-11.484-9.313-20.797-20.797-20.797S59.203 340.516 59.203 352 68.516 372.797 80 372.797s20.797-9.313 20.797-20.797zm64 0c0-11.484-9.313-20.797-20.797-20.797s-20.797 9.313-20.797 20.797 9.313 20.797 20.797 20.797 20.797-9.313 20.797-20.797zm64 0c0-11.484-9.313-20.797-20.797-20.797s-20.797 9.313-20.797 20.797 9.313 20.797 20.797 20.797 20.797-9.313 20.797-20.797z" fill="red"/>
</svg>
