<svg viewBox="0 0 512 512" xmlns="http://www.w3.org/2000/svg" width="36" height="36">
  <path d="M512 441.969V456c0 13.25-10.742 24-24 24H275.469c5.82-9.313 9.328-20.219 9.328-32V304c0-32.828-26.195-59.484-58.758-60.594-.719-2.359-1.477-4.672-2.039-7.25-15.234-.094-24.953-8.813-30.547-41.875-4.836-28.375 5.945-31.844 18.813-32.266-9.141-89.953 23.023-111.891 75.882-111.891 0 0-3.547-18.125 24.251-18.125 44.102 0 136.866 33.344 113.508 129.938 13.75.156 25.953 2.438 20.938 32.344-5.641 33.25-11.875 41.875-27.266 41.875-1.906 0-5.438-.281-7.188-.75-6.453 33.375-26.75 48.813-44.391 68.594v31.188C368 352 432 368 450.859 375.141 469.718 382.282 512 392.813 512 441.969zM224 272H32c-17.672 0-32 14.328-32 32v144c0 17.672 14.328 32 32 32h192c17.672 0 32-14.328 32-32V304c0-17.672-14.328-32-32-32zm4.031 163.125a9.567 9.567 0 0 1-7.227 3.281c-2.25 0-4.5-.781-6.32-2.359l-55.555-48.578-12.914 10.813a27.385 27.385 0 0 1-17.578 6.391 27.333 27.333 0 0 1-17.484-6.313l-13.484-11.173-55.859 50.345a9.564 9.564 0 0 1-6.43 2.469 9.556 9.556 0 0 1-7.133-3.172c-3.547-3.938-3.234-10 .703-13.547l53.773-48.453-53.445-44.25c-4.078-3.375-4.648-9.422-1.273-13.517 3.367-4.094 9.414-4.672 13.523-1.266l81.875 67.781c3.039 2.5 7.453 2.516 10.492-.016l80.938-67.734c4.055-3.406 10.117-2.891 13.523 1.203 3.406 4.063 2.867 10.109-1.195 13.516L173.844 375l53.281 46.578c3.992 3.5 4.398 9.563.906 13.547z" fill="red"/>
</svg>
