<svg viewBox="0 0 512 512" xmlns="http://www.w3.org/2000/svg" width="36" height="36">
  <path d="M386.859 375.141C368 368 304 352 304 335.188V304c17.641-19.781 37.938-35.219 44.391-68.594 1.75.469 5.281.75 7.188.75 15.391 0 21.625-8.625 27.266-41.875 5.017-29.906-7.188-32.188-20.938-32.344C385.266 65.344 292.5 32 248.398 32c-27.797 0-24.25 18.125-24.25 18.125-52.859 0-85.023 21.938-75.883 111.891-12.867.422-23.648 3.891-18.813 32.266 5.594 33.063 15.313 41.781 30.547 41.875 7.547 34.405 28.242 50.5 48 70.25v28.78C208 352 144 368 125.141 375.141 106.282 382.282 64 392.813 64 441.969V456c0 13.25 10.742 24 24 24h336c13.258 0 24-10.75 24-24v-14.031c0-49.156-42.281-59.688-61.141-66.828z" fill="red"/>
</svg>
