<?xml version="1.0" ?><!DOCTYPE svg  PUBLIC '-//W3C//DTD SVG 1.1//EN'  'http://www.w3.org/Graphics/SVG/1.1/DTD/svg11.dtd'><svg enable-background="new 0 0 512 512" height="512px" id="Layer_1" version="1.1" viewBox="0 0 512 512" width="512px" xml:space="preserve" xmlns="http://www.w3.org/2000/svg" xmlns:xlink="http://www.w3.org/1999/xlink"><g><path d="M496,441.969V456c0,13.25-10.742,24-24,24H228.977c33.835-25.734,55.82-66.297,55.82-112   c0-53.734-30.273-100.5-74.641-124.219c-0.75-2.5-1.563-4.906-2.156-7.625c-15.234-0.094-24.953-8.813-30.547-41.875   c-4.836-28.375,5.945-31.844,18.813-32.266c-9.141-89.953,23.023-111.891,75.882-111.891c0,0-3.547-18.125,24.25-18.125   c44.103,0,136.867,33.344,113.509,129.938c13.75,0.156,25.953,2.438,20.938,32.344c-5.641,33.25-11.875,41.875-27.266,41.875   c-1.906,0-5.438-0.281-7.188-0.75C389.938,268.781,369.641,284.219,352,304v31.188C352,352,416,368,434.859,375.141   C453.718,382.282,496,392.813,496,441.969z M144,480c61.852,0,112-50.156,112-112c0-61.859-50.148-112-112-112S32,306.141,32,368   C32,429.844,82.148,480,144,480z M77.469,364.594l59.469-47.641c1.305-1.047,3.094-1.234,4.602-0.516   c1.508,0.718,2.461,2.233,2.461,3.905V352h56c4.422,0,8,3.578,8,8v16c0,4.422-3.578,8-8,8h-56v31.656   c0,1.672-0.953,3.188-2.461,3.906c-1.508,0.718-3.297,0.53-4.602-0.517l-59.469-47.641c-1.031-0.828-1.625-2.095-1.625-3.406   S76.438,365.422,77.469,364.594z" fill="#4D4D4D"/></g></svg>