<?xml version="1.0" ?><!DOCTYPE svg  PUBLIC '-//W3C//DTD SVG 1.1//EN'  'http://www.w3.org/Graphics/SVG/1.1/DTD/svg11.dtd'><svg enable-background="new 0 0 512 512" height="512px" id="Layer_1" version="1.1" viewBox="0 0 512 512" width="512px" xml:space="preserve" xmlns="http://www.w3.org/2000/svg" xmlns:xlink="http://www.w3.org/1999/xlink"><g><path d="M512,396.203v18.328c0,9.656-7.813,17.469-17.5,17.469h-95.141c-4.47-51.172-33.953-64.078-65.095-77.578   l-4.733-2.047c-9.688-4.234-21.642-7.406-33.203-10.484l-3.297-0.875c-10.547-2.813-17.078-5.016-21.031-6.594v-3.828   c3.953-5.531,7.469-11.734,10.75-18.313c13.719-5.547,21.25-12.094,21.25-21.109v-18.328h-1.922   c23.313-12.563,28.578-41.391,31.438-57.906c1.345-7.844,5.484-31.75-9.469-49.719c-1.797-2.156-3.766-4.109-5.906-5.875   c1.595-35.25-11.547-60.047-23.125-74.844c-8.969-11.453-20.108-20.703-32.141-28.281c2.352-4.484,5.031-8.781,8.469-12.797   C287.125,24.969,310.906,16,343.984,16c33.094,0,56.844,8.969,72.655,27.438C435.172,65.078,432,80,432,128   c0,37.438,30.203,69.875,41.344,76.859c3.203,1.984,5.484,5.297,6.313,9.125c0.828,3.844,0.155,7.844-1.892,11.156   c-9.578,15.203-39.844,38.484-90.547,47.703H384v18.328c0,12.642,14.656,20.453,40.609,27.375   c12.358,3.297,24.938,6.484,33.578,10.25C494.5,344.656,512,349.938,512,396.203z M316.75,381.703   c-8.219-3.578-20.219-6.625-31.969-9.766C260.07,365.344,240,357.906,240,345.875v-26.5c16.148-17.734,24.469-43.094,30.398-73.016   c1.602,0.422,4.836,0.672,6.586,0.672c14.108,0,19.828-7.719,24.983-37.531c4.625-26.813-6.594-28.859-19.188-29   C304.219,93.891,222.055,64,181.609,64c-25.469,0-22.219,16.25-22.219,16.25c-48.453,0-69.438,19.656-61.063,100.313   c-11.797,0.375-21.672,3.5-17.25,28.938c5.133,29.641,14.047,37.453,28,37.531C116,277.891,125.891,303.828,144,321.516v24.359   c0,12.031-19.961,19.469-44.797,26.109c-11.563,3.063-23.508,6.266-31.805,9.733C44.664,391.156,16,401.828,16,445.906v17.453   C16,472.547,23.445,480,32.633,480h318.711c9.219,0,16.656-7.453,16.656-16.641v-17.453   C368,401.844,351.344,396.813,316.75,381.703z" fill="#4D4D4D"/></g></svg>