<svg viewBox="0 0 512 512" xmlns="http://www.w3.org/2000/svg" width="36" height="36">
  <path d="M512 357.125v12.906c0 7.703-6.328 13.969-14.133 13.969H406.93c-9.227-5.844-18.633-9.594-25.891-12.453l-4.289-1.703c-1.602-.625-4.703-1.656-8.82-2.938-24.133-7.563-34.172-12.625-38.328-15.641v-4.172c12.953-12.719 21.422-24.594 27.453-42.875 26.844-7.484 32.117-36.984 35.141-53.875 1.203-6.781 4.859-27.359-7.766-42.594a36.326 36.326 0 0 0-6.914-6.438c2.063-31.375-9-53.688-19.922-67.734-11.836-15.234-27.922-26.391-45.008-34.109 5.242-29.328 22.977-37.813 52.32-37.813 0 0-2.758-13.656 18.891-13.656 34.375 0 103.586 25.109 85.367 97.859 10.703.109 17.039 1.828 13.109 24.359-4.391 25.031-9.242 31.531-21.234 31.531-1.484 0-1.484 0-2.781 1.25-5.039 25.125-12.531 31.188-26.258 46.063v22.281c0 18.563 29.258 30.859 36.313 33.766C487.641 313.047 512 320.094 512 357.125zm-365.039 14.422l4.305-1.703c1.586-.625 4.688-1.656 8.805-2.938 24.133-7.563 34.172-12.625 38.328-15.641v-3.016c-14.438-12.438-24.344-25.422-31.375-46.484-23.977-10.984-29.219-40.328-31.203-51.391-1.195-6.703-4.852-27.094 7.492-42.313 2.164-2.656 4.539-4.844 7.008-6.594-1.82-37.031 4.172-60.719 19.07-77.313 12.359-13.75 28.641-19.188 43.734-21.359C201.047 62.938 154.211 48 127.797 48c-21.648 0-18.891 13.656-18.891 13.656-41.18 0-59.648 16.5-52.523 84.25-10.031.313-18.422 2.938-14.664 24.313 4.359 24.906 11.938 31.469 23.805 31.531 5.875 25.922 15.086 34.266 30.477 49.125v20.469c0 18.563-29.258 30.859-36.313 33.766C40.359 313.047 16 320.094 16 357.125v12.906C16 377.734 22.328 384 30.133 384h90.938c9.226-5.844 18.632-9.594 25.89-12.453zm220.211 22.047C359.289 390.406 304 376.953 304 356.609V336c20-18 27.367-28.703 33.008-56.234 1.508.391 4.586.625 6.25.625 13.406 0 18.828-7.109 23.734-34.531 4.383-24.672-6.258-26.547-18.227-26.672C369.117 139.5 293.25 112 254.828 112c-24.195 0-21.109 14.938-21.109 14.938-46.023 0-64.266 18.094-56.305 92.313-11.211.328-20.586 3.203-16.391 26.609 4.875 27.266 13.344 34.453 26.602 34.531C194.195 308.781 203 320 224 336v20.609c0 20.344-55.289 33.797-63.172 36.984C139.219 402.297 112 410 112 450.563v14.141c0 8.438 7.07 15.297 15.789 15.297h272.422c8.719 0 15.789-6.859 15.789-15.297v-14.141c0-40.563-27.219-48.266-48.828-56.969z" fill="#ff0000"/>
</svg>