<svg viewBox="0 0 512 512" xmlns="http://www.w3.org/2000/svg" width="36" height="36">
  <rect height="512" rx="64" ry="64" width="512" fill="red"/>
  <path d="M454.008 165.244C431.645 291.21 306.772 397.808 269.22 422.174c-37.6 24.315-71.855-9.792-84.275-35.558-14.226-29.414-56.883-188.833-68.025-202.048-11.176-13.242-44.673 13.217-44.673 13.217L56 176.449s68.03-81.232 119.806-91.425c54.885-10.723 54.79 84.304 68.026 137.098 12.758 51.07 21.326 80.24 32.48 80.24 11.177 0 32.51-28.454 55.855-72.114 23.382-43.69-1.015-82.284-46.733-54.833 18.3-109.64 190.919-136.024 168.574-10.171z" fill="red"/>
</svg>
