<?xml version="1.0" ?><svg height="512" id="Layer_1" version="1.1" viewBox="0 0 512 512" width="512" xml:space="preserve" xmlns="http://www.w3.org/2000/svg" xmlns:cc="http://creativecommons.org/ns#" xmlns:dc="http://purl.org/dc/elements/1.1/" xmlns:inkscape="http://www.inkscape.org/namespaces/inkscape" xmlns:rdf="http://www.w3.org/1999/02/22-rdf-syntax-ns#" xmlns:sodipodi="http://sodipodi.sourceforge.net/DTD/sodipodi-0.dtd" xmlns:svg="http://www.w3.org/2000/svg"><defs id="defs12"/><g id="g5771"><rect height="512" id="rect2987" rx="64" ry="64" style="fill:#1bb7ea;fill-opacity:1;fill-rule:nonzero;stroke:none" width="512" x="0" y="0"/><path d="m 454.00791,165.24367 c -22.3633,125.96706 -147.2362,232.56453 -184.7883,256.92983 -37.6002,24.3156 -71.8544,-9.7912 -84.2745,-35.5579 -14.2265,-29.41371 -56.8829,-188.83262 -68.0256,-202.04731 -11.1756,-13.24261 -44.672398,13.21625 -44.672398,13.21625 l -16.2471,-21.33594 c 0,0 68.030298,-81.231123 119.805798,-91.424203 54.8856,-10.72385 54.7894,84.303943 68.0257,137.097503 12.7585,51.07092 21.3267,80.23945 32.4805,80.23945 11.1769,0 32.5098,-28.45309 55.8554,-72.11354 23.3814,-43.68994 -1.015,-82.28334 -46.7332,-54.83279 18.3003,-109.640763 190.9184,-136.023583 168.5737,-10.17135 z" id="path9-1" style="fill:#ffffff"/></g></svg>