<svg id="Layer_1" xmlns="http://www.w3.org/2000/svg" viewBox="0 0 512 512" width="36" height="36">
  <style>.st0{fill:url(#SVGID_1_)}</style>
  <linearGradient id="SVGID_1_" gradientUnits="userSpaceOnUse" x1="458.024" y1="53.976" x2="65.58" y2="446.42" gradientTransform="matrix(1 0 0 -1 0 512)">
    <stop offset="0" stop-color="#ff0000"/>
    <stop offset="1" stop-color="#ff0000"/>
  </linearGradient>
  <path class="st0" d="M256 0C114.6 0 0 114.6 0 256s114.6 256 256 256 256-114.6 256-256S397.4 0 256 0zm118.2 288.6c-4.1 1-8.2 1.9-12.4 2.6-7.2 1.2-14.4 2.1-21.6 2.1-3.2.1-4.6 1.2-6 4-17.4 34.3-40.6 64.3-69 90.2-2.6 2.4-5.5 4.6-8.5 6.7-10.4 7.2-20.9 7.7-31.7.7-9.2-5.8-17.2-13.2-24.5-21.3-22.5-24.9-37.9-54-50.3-84.8-16.8-42.2-26.2-86-32.5-130.6l-.4-2.9h49.5l.4 5c1.9 14.4 4.1 28.6 7 42.8 10.3 51.9 28.6 100.4 61.7 142.3 6.6 8.3 6.6 8.3 13.6.6 16.2-17.9 29.7-37.8 40.9-59.2 1.4-2.6 1.2-3.9-1.5-5.5-27.6-16-42.2-41.1-47.6-71.8-3.4-18.4-3-36.7 3.5-54.5 11.3-31 38.3-45.9 70.8-42.7 36.3 3.7 51.5 28.5 54.4 57 2.1 20-.7 39.2-7.6 58-.5 1.4-1.7 4.6-1.7 4.6s-2.7.2-4.7.4c-12.8 1-24.5-1.1-34-10.7-1.4-1.4-3.2-3.5-3.2-3.5s.7-3 1.1-4.4c3.9-13.7 6.1-27.7 2.9-41.9-2.6-11.1-9-16.8-18.2-16.4-6.5.2-10.8 3.7-14.1 9-3.4 5.7-4.6 12.1-5 18.5-.9 16.2 1.5 31.8 10.2 45.8 14.6 23.3 36.7 31 62.9 28.5 5.4-.5 10.6-1.4 15.7-2.7h0l-.1 34.1z"/>
</svg>