<?xml version="1.0" ?><!DOCTYPE svg  PUBLIC '-//W3C//DTD SVG 1.1//EN'  'http://www.w3.org/Graphics/SVG/1.1/DTD/svg11.dtd'><svg enable-background="new 0 0 56.693 56.693" height="56.693px" id="Layer_1" version="1.1" viewBox="0 0 56.693 56.693" width="56.693px" xml:space="preserve" xmlns="http://www.w3.org/2000/svg" xmlns:xlink="http://www.w3.org/1999/xlink"><path d="M28.324,4.006c-13.613,0-24.688,11.076-24.688,24.689c0,13.612,11.074,24.686,24.688,24.686  c13.612,0,24.688-11.074,24.688-24.686C53.012,15.083,41.937,4.006,28.324,4.006z M31.376,49.649  c-0.657,0.096-1.323,0.162-1.998,0.195v-9.41h7.796C35.826,44.782,33.768,48.116,31.376,49.649z M19.529,40.435h7.741v9.41  c-0.651-0.031-1.294-0.098-1.929-0.188C22.945,48.13,20.881,44.792,19.529,40.435z M7.174,29.749h8.578  c0.064,3.055,0.416,5.945,1.004,8.578H9.475C8.143,35.729,7.326,32.825,7.174,29.749z M25.342,7.733  c0.635-0.09,1.277-0.156,1.929-0.188v9.562h-7.788C20.834,12.676,22.916,9.278,25.342,7.733z M37.221,17.108h-7.843V7.545  c0.675,0.033,1.341,0.102,1.998,0.197C33.795,9.291,35.873,12.685,37.221,17.108z M37.79,19.213c0.61,2.586,0.983,5.439,1.056,8.428  h-9.468v-8.428H37.79z M27.271,19.213v8.428h-9.412c0.071-2.988,0.444-5.842,1.055-8.428H27.271z M15.752,27.641H7.174  c0.149-3.018,0.938-5.869,2.224-8.428h7.323C16.153,21.807,15.816,24.645,15.752,27.641z M17.858,29.749h9.412v8.578h-8.319  C18.318,35.704,17.932,32.796,17.858,29.749z M29.378,38.327v-8.578h9.468c-0.074,3.047-0.461,5.955-1.093,8.578H29.378z   M40.952,29.749h8.522c-0.153,3.076-0.969,5.98-2.303,8.578h-7.224C40.535,35.694,40.887,32.804,40.952,29.749z M40.952,27.641  c-0.063-2.996-0.402-5.834-0.97-8.428h7.269c1.287,2.559,2.074,5.41,2.224,8.428H40.952z M46.035,17.108h-6.579  c-0.948-3.361-2.302-6.214-3.946-8.332C39.854,10.348,43.539,13.303,46.035,17.108z M21.213,8.75  c-1.653,2.12-3.014,4.982-3.965,8.357h-6.635C13.123,13.282,16.836,10.316,21.213,8.75z M10.711,40.435h6.581  c0.95,3.307,2.293,6.115,3.921,8.205C16.894,47.093,13.219,44.187,10.711,40.435z M35.51,48.614c1.618-2.086,2.956-4.887,3.902-8.18  h6.525C43.443,44.165,39.797,47.063,35.51,48.614z" fill="#474A56"/></svg>