<svg height="128" width="128" xmlns="http://www.w3.org/2000/svg">
  <path d="M124 31.998H94.761c5.063-2.34 9.265-5.404 11.85-8.976 3.559-4.917 3.957-10.547 1.122-15.855-2.847-5.331-8.287-7.88-14.938-6.991C82.99 1.485 70.538 10.468 64 22.128 57.461 10.468 45.01 1.485 35.205.176c-6.644-.888-12.09 1.661-14.937 6.991-2.834 5.308-2.436 10.938 1.122 15.855 2.585 3.572 6.785 6.636 11.849 8.976H4a4 4 0 0 0-4 4v24a4 4 0 0 0 4 4h4v60a4 4 0 0 0 4 4h104a4 4 0 0 0 4-4v-60h4a4 4 0 0 0 4-4v-24a4 4 0 0 0-4-4zm-52 88H56V39.831h16v80.167zM27.871 18.333c-1.765-2.439-1.939-4.79-.546-7.397.699-1.309 1.989-2.94 5.26-2.94.477 0 .996.035 1.562.11C42.35 9.202 53.821 18.24 58.438 28.874c-12.019.498-25.868-4.048-30.567-10.541zM93.854 8.105c4.438-.591 6.02 1.332 6.821 2.831 1.393 2.607 1.219 4.958-.546 7.396-4.7 6.496-18.541 11.044-30.567 10.541C74.18 18.239 85.651 9.201 93.854 8.105zM8 39.998h40v16H8v-16zm8 80v-56h32v56H16zm96 0H80v-56h32v56zm8-64H80v-16h40v16z" fill="red"/>
</svg>
