<?xml version="1.0" ?><!DOCTYPE svg  PUBLIC '-//W3C//DTD SVG 1.1//EN'  'http://www.w3.org/Graphics/SVG/1.1/DTD/svg11.dtd'><svg enable-background="new 0 0 72 72" id="Layer_1" version="1.1" viewBox="0 0 72 72" xml:space="preserve" xmlns="http://www.w3.org/2000/svg" xmlns:xlink="http://www.w3.org/1999/xlink"><g><g><path d="M31.5,30.6H6.3c-0.2,0-0.4,0.2-0.4,0.4v39.6C5.8,70.8,6,71,6.3,71h25.2c0.2,0,0.4-0.2,0.4-0.4V31    C32,30.8,31.8,30.6,31.5,30.6z" fill="#ff0000"/><path d="M40,31v39.6c0,0.2,0.2,0.4,0.4,0.4h25.3c0.2,0,0.4-0.2,0.4-0.4V31c0-0.2-0.2-0.4-0.4-0.4H40.5    C40.2,30.6,40,30.8,40,31z" fill="#ff0000"/></g><path d="M70.6,16.6H50.5c-0.2,0-0.2-0.3,0-0.3C52,16,53.5,15.6,55,15c1.8-0.6,3.8-1.6,4.5-3.4   c0.4-1.1,0.3-2.4-0.1-3.5c-0.5-1.4-1.3-2.7-2.5-3.7c-1.1-1-2.4-1.7-3.8-2.2c-2.4-1-5.2-1.7-7.6-0.8c-2.2,0.8-3.6,2.7-5,4.5   c-0.9,1.2-1.9,2.5-2.8,3.7c-0.3,0.4-0.6,0.8-0.9,1.1c-0.2,0.2-0.5,0.4-0.8,0.7c-0.3-0.2-0.5-0.4-0.8-0.7c-0.3-0.3-0.6-0.7-0.9-1.1   c-0.9-1.2-1.9-2.5-2.8-3.7c-1.4-1.8-2.9-3.7-5-4.5c-2.4-0.9-5.2-0.2-7.6,0.8c-1.4,0.6-2.7,1.3-3.8,2.2c-1.1,1-2,2.3-2.5,3.7   c-0.4,1.1-0.5,2.4-0.1,3.5c0.7,1.8,2.7,2.7,4.5,3.4c1.5,0.5,3,0.9,4.5,1.3c0.2,0,0.2,0.3,0,0.3H1.4c-0.2,0-0.4,0.2-0.4,0.4v9.4   c0,0.2,0.2,0.4,0.4,0.4h30.1c0.2,0,0.4-0.2,0.4-0.4v-9.1c0,0,0,0,0-0.1c0.2,0,0.5,0,0.7,0c1,0,2-0.1,2.9-0.4h0.7   c0.9,0.3,1.9,0.4,2.9,0.4c0.2,0,0.5,0,0.7,0c0,0,0,0,0,0.1v9.1c0,0.2,0.2,0.4,0.4,0.4h30.1c0.2,0,0.4-0.2,0.4-0.4v-9.4   C71,16.8,70.8,16.6,70.6,16.6z M38.4,13.6c0.2-0.3,0.4-0.7,0.7-1c1.7-2.5,3.4-5.2,6.2-6.5c0.4-0.2,0.8-0.4,1.3-0.5   c1.1-0.4,2.3-0.8,3.5-0.6c1,0.1,1.9,0.6,2.8,1.1c0.7,0.4,1.4,0.9,1.7,1.6c0.4,0.8,0.4,1.8,0,2.6c-0.3,0.8-0.9,1.6-1.5,2.3   c-0.4,0.4-1.2,0.6-1.7,0.9c-0.5,0.3-1.1,0.5-1.7,0.6c-3.7,0.9-7.2,1.1-10.9,0.5c-0.2,0-0.5-0.1-0.6-0.3   C38.2,14,38.3,13.8,38.4,13.6z M20.6,13.5c-0.5-0.3-1.3-0.5-1.7-0.9c-0.6-0.7-1.2-1.4-1.5-2.3c-0.3-0.8-0.4-1.8,0-2.6   c0.4-0.7,1-1.2,1.7-1.6c0.9-0.5,1.8-1,2.8-1.1c1.2-0.1,2.4,0.2,3.5,0.6c0.4,0.2,0.8,0.3,1.3,0.5c2.8,1.3,4.6,4,6.2,6.5   c0.2,0.3,0.4,0.7,0.7,1c0.1,0.2,0.2,0.4,0.2,0.6c-0.1,0.2-0.3,0.3-0.6,0.3c-3.7,0.6-7.2,0.4-10.9-0.5   C21.7,13.9,21.1,13.7,20.6,13.5z" fill="#ff0000"/></g></svg>
