<?xml version="1.0" ?><!DOCTYPE svg  PUBLIC '-//W3C//DTD SVG 1.1//EN'  'http://www.w3.org/Graphics/SVG/1.1/DTD/svg11.dtd'><svg enable-background="new 0 0 128 128" height="128px" id="Layer_1" version="1.1" viewBox="0 0 128 128" width="128px" xml:space="preserve" xmlns="http://www.w3.org/2000/svg" xmlns:xlink="http://www.w3.org/1999/xlink"><path d="M124,31.998H94.761c5.063-2.34,9.265-5.404,11.85-8.976c3.559-4.917,3.957-10.547,1.122-15.855  c-2.847-5.331-8.287-7.88-14.938-6.991C82.99,1.485,70.538,10.468,64,22.128C57.461,10.468,45.01,1.485,35.205,0.176  c-6.644-0.888-12.09,1.661-14.937,6.991c-2.834,5.308-2.436,10.938,1.122,15.855c2.585,3.572,6.785,6.636,11.849,8.976H4  c-2.209,0-4,1.791-4,4v24c0,2.209,1.791,4,4,4h4v60c0,2.209,1.791,4,4,4h104c2.209,0,4-1.791,4-4v-60h4c2.209,0,4-1.791,4-4v-24  C128,33.789,126.209,31.998,124,31.998z M72,119.998H56v-80v-0.167h16v0.167V119.998z M27.871,18.333  c-1.765-2.439-1.939-4.79-0.546-7.397c0.699-1.309,1.989-2.94,5.26-2.94c0.477,0,0.996,0.035,1.562,0.11  c8.203,1.096,19.674,10.134,24.291,20.768C46.419,29.372,32.57,24.826,27.871,18.333z M93.854,8.105  c4.438-0.591,6.02,1.332,6.821,2.831c1.393,2.607,1.219,4.958-0.546,7.396c-4.7,6.496-18.541,11.044-30.567,10.541  C74.18,18.239,85.651,9.201,93.854,8.105z M8,39.998h40v16H8V39.998z M16,119.998v-56h32v56H16z M112,119.998H80v-56h32V119.998z   M120,55.998H80v-16h40V55.998z"/></svg>