<svg version="1" viewBox="0 0 32 32" xmlns="http://www.w3.org/2000/svg" width="36" height="36">
  <path d="M16 0C7.178 0 0 7.178 0 16s7.178 16.001 16 16.001S32 24.822 32 16 24.822 0 16 0zM1.615 16c0-2.086.447-4.065 1.246-5.854l6.861 18.8C4.924 26.615 1.615 21.694 1.615 16zM16 30.386a14.37 14.37 0 0 1-4.063-.585l4.316-12.542 4.422 12.114c.029.07.064.136.103.197a14.32 14.32 0 0 1-4.778.816zm1.982-21.131c.866-.045 1.646-.136 1.646-.136.775-.092.684-1.231-.092-1.186 0 0-2.329.183-3.834.183-1.414 0-3.789-.183-3.789-.183-.775-.046-.866 1.139-.091 1.186 0 0 .734.091 1.509.136l2.241 6.142-3.148 9.441L7.187 9.255c.867-.045 1.646-.136 1.646-.136.773-.092.684-1.231-.092-1.186 0 0-2.33.183-3.835.183-.27 0-.588-.006-.926-.018C6.554 4.193 10.975 1.615 16 1.615a14.33 14.33 0 0 1 9.715 3.777c-.062-.005-.123-.013-.187-.013-1.413 0-2.416 1.231-2.416 2.554 0 1.186.684 2.188 1.413 3.374.547.957 1.187 2.188 1.187 3.968 0 1.23-.474 2.659-1.095 4.65l-1.436 4.793-5.199-15.463zm10.641-.156A14.316 14.316 0 0 1 30.385 16c0 5.308-2.876 9.94-7.152 12.435l4.394-12.704c.82-2.052 1.094-3.693 1.094-5.151a11.022 11.022 0 0 0-.098-1.481z" fill="#ff0000B"/>
</svg>
