<?xml version="1.0" ?><!DOCTYPE svg  PUBLIC '-//W3C//DTD SVG 1.1//EN'  'http://www.w3.org/Graphics/SVG/1.1/DTD/svg11.dtd'><svg height="43.3492mm" style="shape-rendering:geometricPrecision; text-rendering:geometricPrecision; image-rendering:optimizeQuality; fill-rule:evenodd; clip-rule:evenodd" version="1.1" viewBox="0 0 4335 4335" width="43.3492mm" xml:space="preserve" xmlns="http://www.w3.org/2000/svg" xmlns:xlink="http://www.w3.org/1999/xlink"><defs><style type="text/css">
   <![CDATA[
    .fil0 {fill:black}
   ]]>
  </style></defs><g id="Layer_x0020_1"><path class="fil0" d="M3764 2246c-80,27 -224,72 -251,80 -103,33 -203,66 -307,99 -203,64 -409,129 -610,196 -101,34 -204,66 -307,98 -116,37 -208,84 -308,-3 -71,-62 -87,-204 -58,-321 25,-97 81,-152 124,-184l30 -20c14,-9 23,-14 27,-18l67 -23c5,0 11,-1 19,-3 61,-19 120,-39 180,-58 266,-83 536,-173 804,-259l267 -85 1 0 1 0c5,-2 12,-4 21,-7l291 -94 10 -3m-1458 1532c8,-2 17,-5 28,-9l0 0c16,-5 35,-12 60,-19 349,-101 705,-200 1051,-304 28,-8 301,-89 417,-121l0 601c-78,24 -197,56 -257,73l-934 270c-59,17 -424,130 -469,129 -199,-5 -237,-215 -187,-379 17,-56 43,-93 72,-129 20,-24 53,-49 82,-66 3,-2 6,-3 9,-5l128 -42zm1563 -1124l0 -441c18,-6 39,-11 57,-16 13,-4 22,-6 35,-10 14,-4 23,-5 32,-15 35,-11 53,-90 -10,-118 -110,-49 -291,-117 -408,-164l-1561 -627c-13,-5 -22,-10 -34,-15 -12,-5 -27,-6 -37,-11l-49 0 -1592 413c-15,5 -30,16 -43,21l-50 36 -23 21c-2,2 -4,3 -6,5 -110,104 -106,214 -121,253l0 91c6,13 15,81 21,104 16,59 47,121 84,166 42,51 161,114 223,152l157 97c-13,9 -53,13 -93,24l0 0 0 0c-22,6 -44,14 -61,27l-48 34c-6,1 -14,7 -27,19 -85,81 -135,169 -136,301 -1,133 31,230 105,328 27,36 79,62 124,92 44,30 88,57 133,86 144,92 1389,913 1445,940 98,47 126,34 168,49l64 0 971 -281c162,-49 321,-94 483,-141 139,-41 228,-67 367,-102 84,-21 64,-11 101,-60l0 -38 -3 -5c-10,-17 -12,-24 -30,-35 -26,-15 -135,-72 -138,-83l0 -454c17,-10 77,-21 100,-27 54,-14 47,-15 72,-55l0 -34c-18,-25 -8,-28 -40,-44 -48,-24 -374,-156 -389,-174 50,-15 100,-33 153,-48 31,-9 135,-34 153,-48 33,-25 51,-84 -20,-123 -28,-15 -108,-52 -127,-69l-1 -22z"/></g></svg>