<?xml version="1.0" ?><!DOCTYPE svg  PUBLIC '-//W3C//DTD SVG 1.1//EN'  'http://www.w3.org/Graphics/SVG/1.1/DTD/svg11.dtd'><svg enable-background="new 0 0 128 128" height="128px" id="Layer_1" version="1.1" viewBox="0 0 128 128" width="128px" xml:space="preserve" xmlns="http://www.w3.org/2000/svg" xmlns:xlink="http://www.w3.org/1999/xlink"><g><path fill="#ff0000" d="M124,100H8V24c0-2.209-1.791-4-4-4s-4,1.791-4,4v84h124c2.209,0,4-1.791,4-4S126.209,100,124,100z"/><path d="M20,92.654c1.023,0,2.047-0.391,2.829-1.172L52.75,61.561l19.172,19.172c0.75,0.75,1.768,1.172,2.828,1.172   s2.078-0.422,2.828-1.172l33.507-33.507l9.806,9.805l7.109-32l-32,7.111l9.429,9.428L74.75,72.247L55.579,53.075   c-0.75-0.75-1.768-1.171-2.829-1.171s-2.078,0.421-2.829,1.171l-32.75,32.751c-1.562,1.562-1.562,4.095,0,5.656   C17.953,92.264,18.976,92.654,20,92.654z" fill="#ff0000" /></g></svg>
