<?xml version="1.0" ?><svg data-name="Layer 1" id="Layer_1" viewBox="0 0 100 100" xmlns="http://www.w3.org/2000/svg"><defs><style>.cls-1{fill:#303030;}</style></defs><title/><path class="cls-1" d="M32,73.11a34.39,34.39,0,0,1-15.13-21,3.86,3.86,0,0,0-7.51,1.8A42.17,42.17,0,0,0,27.88,79.66,3.86,3.86,0,1,0,32,73.11Z"/><path class="cls-1" d="M35.2,13.42a34.19,34.19,0,0,1,29.6,0,3.86,3.86,0,1,0,3.36-7,41.92,41.92,0,0,0-36.32,0,3.86,3.86,0,1,0,3.36,7Z"/><path class="cls-1" d="M87.93,49.29a3.86,3.86,0,0,0-4.66,2.85,34.39,34.39,0,0,1-15.13,21,3.86,3.86,0,1,0,4.09,6.55A42.17,42.17,0,0,0,90.78,54,3.86,3.86,0,0,0,87.93,49.29Z"/><path class="cls-1" d="M83.86,23.52a8.8,8.8,0,1,0-8.8-8.8A8.81,8.81,0,0,0,83.86,23.52Z"/><path class="cls-1" d="M97.3,28.39a7.54,7.54,0,0,0-5.62-2.52H89a.9.9,0,0,0-.71.34L84,31.54c-.15.19-.29.18-.44,0l-4.26-5.32a.9.9,0,0,0-.71-.34H76a7.51,7.51,0,0,0-7.52,7.37h0V41a2.19,2.19,0,0,0,2.19,2.19H97A2.19,2.19,0,0,0,99.21,41V33.25h0A7.53,7.53,0,0,0,97.3,28.39Z"/><path class="cls-1" d="M16.13,23.52a8.8,8.8,0,1,0-8.8-8.8A8.81,8.81,0,0,0,16.13,23.52Z"/><path class="cls-1" d="M3,43.22H29.29A2.19,2.19,0,0,0,31.48,41V33.25h0A7.52,7.52,0,0,0,24,25.88H21.26a.9.9,0,0,0-.71.34l-4.26,5.33c-.15.19-.29.18-.44,0l-4.26-5.32a.9.9,0,0,0-.71-.34H8.32A7.51,7.51,0,0,0,.8,33.25h0V41A2.19,2.19,0,0,0,3,43.22Z"/><path class="cls-1" d="M50.05,78a8.8,8.8,0,1,0-8.8-8.8A8.81,8.81,0,0,0,50.05,78Z"/><path class="cls-1" d="M36.62,82.85a7.52,7.52,0,0,0-1.9,4.86h0v7.78a2.19,2.19,0,0,0,2.19,2.19H63.21a2.19,2.19,0,0,0,2.19-2.19V87.71h0a7.52,7.52,0,0,0-7.52-7.37H55.18a.9.9,0,0,0-.71.34L50.21,86c-.15.19-.29.18-.44,0l-4.26-5.32a.9.9,0,0,0-.71-.34H42.24A7.54,7.54,0,0,0,36.62,82.85Z"/></svg>