<?xml version="1.0" ?><svg id="Layer_1" style="enable-background:new 0 0 100 100;" version="1.1" viewBox="0 0 100 100" xml:space="preserve" xmlns="http://www.w3.org/2000/svg" xmlns:xlink="http://www.w3.org/1999/xlink"><path fill="#ff0000" d="M53.7,27c-0.5-1.5-1.6-2.7-3.1-3.5l0,0l0,0c-2-1-4.3-0.8-5.9,0.2c-0.3-0.4-0.7-0.8-1.1-1.1  c-1.4-0.9-3.2-1.3-5-0.9c-3.3,0.7-5.6,3.7-5.3,6.6c0.1,1.2,1.6,1.2,1.6,1.2c0.8-0.1,1.3-0.8,1.2-1.6c-0.2-1.5,1.2-3,3-3.4  c0,0,0,0,0,0c1-0.2,2-0.1,2.7,0.4c0.5,0.3,0.9,1.6,0.9,1.6c0,0.1,1,2.3,2.7,0.2c0.7-1,2.4-1.3,3.8-0.6c0,0,0,0,0,0  c0.8,0.4,1.4,1,1.6,1.7c0.1,0.3,0.2,0.8-0.1,1.3c-0.4,0.7-0.2,1.6,0.5,2c0.2,0.1,1.1,0.3,2-0.5C54.2,29.8,54.1,28.3,53.7,27z" id="XMLID_6_"/><path fill="#ff0000" d="M65.4,18.4c-1-1.2-2.5-1.9-4.2-2l0,0l0,0c-3.2-0.1-6,2-6.3,4.7c-0.1,0.8,0.5,1.5,1.3,1.6  c0.1,0,1.3,0.1,1.6-1.3c0.3-1.2,1.7-2.2,3.3-2.2c0,0,0,0,0,0c0,0,0,0,0,0c0.9,0,1.7,0.4,2.2,0.9c0.2,0.3,0.5,0.7,0.4,1.3  c-0.1,0.8,0.5,1.5,1.3,1.6c0.1,0,1.5,0.1,1.6-1.3C66.5,20.6,66.2,19.4,65.4,18.4z" id="XMLID_5_"/><path fill="#ff0000" d="M77.9,24.9c1-1.7,1.1-3.9,0.2-5.8c0-0.1-1.5-2.9-4.8-3.3c0.6-1.9-0.5-4.3-1.6-5.5c0,0,0,0,0,0c-1.7-1.7-4.1-2.3-6.3-1.6  c-0.2-0.7-0.4-1.4-0.8-2.1c-0.9-1.5-2.4-2.6-4.2-3c0,0,0,0,0,0c-1.8-0.4-3.6-0.1-5.1,0.8c-0.5,0.3-1,0.7-1.4,1.2  c-0.4-0.6-2.3-1.1-2.4-1.1c-1-0.1-2,0.1-2.9,0.6c-0.2-0.3-0.4-0.6-0.6-0.8c-1.3-1.4-3.2-2.3-5.2-2.4l0,0c0,0,0,0,0,0  c-3.3-0.2-6.2,1.8-7.2,4.5c-0.6-0.1-1.3,0-2,0.1c-2.1,0.3-3.9,3.1-3.9,3.1c-0.9,1.6-1.1,3.5-0.6,5c-2.5,0.3-4.2,3.6-4.2,3.6  c-0.9,1.8-0.5,5.6-0.5,5.7c-1.7,0.5-3.1,1.8-4,3.5c0,0,0,0,0,0c-1.6,3.2-0.7,7.2,2,8.8c0.2,0.1,0.3,0.1,0.5,0.2L30,96.6  c0.1,0.8,0.8,1.4,1.6,1.4h36.3c0.8,0,1.5-0.6,1.6-1.4l7.6-60.2c2.5-0.8,4.3-3.2,4.3-6C81.4,28,80,25.9,77.9,24.9z M48.4,94.8h-5.6  l-3.5-57.8h9.1V94.8z M51.6,94.8V36.9h10l-3.5,57.8H51.6z M75.2,33.6c-0.1,0-50.9,0-50.9,0c-0.1,0-0.3-0.1-0.4-0.2  c-1.3-0.8-1.7-2.9-0.8-4.7c0.5-1,1.2-1.7,2.1-1.9c0.3-0.1,0.9-0.2,1.4-0.1c1.9,0.5,2.1,0.1,2.4-0.4c0.2-0.4,0.3-2.1-0.5-2.2  c-1.5-0.2-1.7-2.9-0.8-4.7v0l0,0c0.5-1,1.2-1.7,2.1-1.9c0.4-0.1,0.9,0,1.6,0.2c1.5,0.4,1.9-0.2,2.2-0.5c0.5-0.7,0.2-1.8-0.5-2.3  c-1.1-0.7-1.4-2.4-0.6-3.9c0,0,0,0,0,0c0.5-0.8,1.2-1.4,1.9-1.6c0.4-0.1,1-0.2,1.6,0.2c0.4,0.2,1.3,0.3,1.7,0.1  c1.1-0.6,0.7-1.7,0.7-1.7c0.1-1.8,2-3.2,4.2-3.1c1.2,0.1,2.3,0.5,3,1.3c0.5,0.6,0.8,1.3,0.8,2.1c-0.1,0.9,0.6,1.6,1.5,1.7  c0,0,0.8,0.1,1.3-0.6c0.2-0.2,0.7-1.4,1-1.6c0.3-0.2,0.6-0.3,1-0.2c0.3,0.1,0.6,0.3,0.8,0.5c0.2,0.3,0.6,2.6,1.4,2.8  c0.1,0,1.8,0.4,1.9-1.6c0.1-1,0.8-1.7,1.6-2.3c0.8-0.5,1.8-0.7,2.7-0.4c0,0,0,0,0.1,0c0.9,0.2,1.7,0.8,2.2,1.6  c0.5,0.8,0.6,1.8,0.4,2.7c-0.2,1.3,0.8,1.8,1.2,1.9c0.1,0,1.1,0.3,1.6-0.5c0.4-0.7,1.4-0.9,2.2-0.9c0.8,0,1.6,0.3,2.2,0.9  c1.2,1.2,1.1,3.2-0.1,4.4c-0.6,0.6-0.6,1.6,0,2.2c0.3,0.3,1.3,0.8,2.1,0.3c0.6-0.4,3.1-0.2,3.9,1.1c0.8,1.4,0.3,3.2-1.1,4  c-0.8,0.4-0.8,1.3-0.6,2.2c0.2,0.8,1.5,0.8,1.5,0.8c1.7,0,3.2,1.4,3.2,3.1C78.3,32.2,77,33.6,75.2,33.6z"/></svg>
