<?xml version="1.0" ?><!DOCTYPE svg  PUBLIC '-//W3C//DTD SVG 1.1//EN'  'http://www.w3.org/Graphics/SVG/1.1/DTD/svg11.dtd'><svg enable-background="new 0 0 64 64" height="64px" id="Layer_1" version="1.1" viewBox="0 0 64 64" width="64px" xml:space="preserve" xmlns="http://www.w3.org/2000/svg" xmlns:xlink="http://www.w3.org/1999/xlink"><g><path d="M12.395,32.479c1.561,1.058,3.443,1.678,5.465,1.678c5.385,0,9.766-4.378,9.771-9.762h-8.174L12.395,32.479   z" fill="#ff0000"/><path d="M8.092,24.396c0.004,2.373,0.891,4.522,2.303,6.216l5.43-6.216H8.092z" fill="#ff0000"/><path d="M36.26,24.396c0.004,2.412,0.916,4.595,2.369,6.299l5.58-6.299H36.26z" fill="#ff0000"/><path d="M30.365,24.396c0,1.012-0.154,1.979-0.381,2.922c0.193-0.109,0.408-0.187,0.648-0.187h2.734   c0.182,0,0.355,0.039,0.516,0.104c-0.217-0.916-0.355-1.859-0.357-2.84H30.365z" fill="#ff0000"/><path d="M40.656,32.533c1.541,1.021,3.387,1.624,5.371,1.624c5.385,0,9.766-4.378,9.768-9.762h-7.932L40.656,32.533   z" fill="#ff0000"/><path d="M32,2C15.457,2,2,15.458,2,32s13.457,30,30,30s30-13.458,30-30S48.543,2,32,2z M45.08,45.229   c-2.418,3.628-6.088,6.176-10.332,7.173c-1.309,0.309-2.631,0.46-3.947,0.46c-3.037,0-6.033-0.812-8.705-2.395   c-0.648-0.384-0.865-1.223-0.48-1.873c0.385-0.649,1.223-0.863,1.875-0.479c3.217,1.904,6.992,2.486,10.631,1.624   c3.568-0.838,6.65-2.977,8.684-6.027c0.416-0.629,1.262-0.797,1.896-0.379C45.328,43.751,45.498,44.601,45.08,45.229z    M58.533,24.388c0,6.896-5.609,12.504-12.506,12.504c-5.182,0-9.633-3.169-11.527-7.671c-0.242,0.38-0.646,0.646-1.133,0.646   h-2.734c-0.535,0-0.982-0.312-1.207-0.756c-1.871,4.557-6.342,7.781-11.566,7.781c-6.893,0-12.502-5.608-12.502-12.504   c0-0.058,0.027-0.106,0.031-0.163c-0.436-0.229-0.738-0.67-0.738-1.196c0-0.756,0.611-1.367,1.367-1.367h51.965   c0.756,0,1.367,0.611,1.367,1.367c0,0.569-0.346,1.055-0.838,1.261C58.514,24.323,58.533,24.354,58.533,24.388z" fill="#ff0000"/></g></svg>
