<?xml version="1.0" ?><!DOCTYPE svg  PUBLIC '-//W3C//DTD SVG 1.1//EN'  'http://www.w3.org/Graphics/SVG/1.1/DTD/svg11.dtd'><svg enable-background="new 0 0 200 200" id="Layer_1" version="1.1" viewBox="0 0 200 200" xml:space="preserve" xmlns="http://www.w3.org/2000/svg" xmlns:xlink="http://www.w3.org/1999/xlink"><g><path d="M136.7,41c12.5,2,35.8,3.9,58.3,38.8c0,0-10.5-37.8-58.6-52.9c-5.3-1.7-10.8-1.9-16.3-1c-17.1,2.9-73,12.3-109.6,28.7   c-5.4,2.4-7.3,9.3-3.6,13.9c2.7,3.3,6.4,6,11.5,5.5C30.2,72.5,124.2,39,136.7,41z"/><path d="M163.8,118.1c-0.6-0.4-1.1-0.8-1.7-1.2c15.4-6.8,17.1-16.6,17.1-16.6c-4,8-16.1,11.3-23.3,12.7c-1.5-0.9-2.9-1.7-4.4-2.5   c4-3,6.9-5.9,8.9-8.6c5.8,3.4,9.1,5.9,9.1,5.9c-2.5-2.8-5.2-5.3-7.9-7.6c4.4-6.7,3.9-11.8,3.9-11.8c-0.8,3.8-3.2,7.1-6.2,9.9   c-3.7-2.9-7.6-5.4-11.5-7.6c2.6-6.7,1.9-12.3,1.9-12.3c-1.1,4-3.2,7.4-5.6,10.3c-5.6-2.8-11.3-4.9-17-6.5c0.2-4.2-0.6-7.4-0.6-7.4   c-0.5,2.5-1.2,4.8-2,6.7c-7.5-1.9-14.9-2.9-21.9-3.2c0-1.5-0.1-3.1-0.2-4.8c0,0-0.6,2-1.7,4.7c-8.5-0.3-16.2,0.3-22.4,1.3   c-20.4,3.2-52.1,19.1-52.1,19.1c39.4-13.5,50.4-14.1,50.4-14.1c7.6-1.1,14.9-1.3,21.9-1c-2.5,5.4-5.8,11.2-9.1,12.2   c-16.8,1-27.9,5.6-37.4,10.8c0,0,0,0,0,0c-4.9,2.6-16,8.4-20.5,10.2c-0.7,0.2-1.3,0.5-2,0.8l0,0h0c-2,0.9-3.8,2.1-5.5,3.6   c-2.6,2.4-4,4.9-3.1,7.7c1.9,5.9,8.7,7,15.9,8.7c3.4,0.8,9,2.5,11.5,4.9c16.3,15.3,35.9,18.8,45.8,19.6c1.5,2.3,4,6.8,4.3,12.9   c0,0,1.1-8.2,0-12.7c1.4,0,2.1,0,2.1,0c4.3,0,8.3-0.3,12.1-0.8c1.5,2.5,3.3,6.6,3.6,11.7c0,0,1-7.8,0.1-12.3   c4.5-0.8,8.6-2,12.4-3.4c2.1,2,4.8,5.3,6.4,9.9c0,0-1.1-7.1-3.1-11.3c4-1.8,7.6-4,10.6-6.3c2.6,1.2,6.5,3.6,9.7,7.8   c0,0-3.4-7-6.7-10.2c3.9-3.4,7-7,9.5-10.5c2.7,0.7,7.5,2.4,11.8,6.6c0,0-5.6-8.1-9.5-10c1.7-2.6,3-5.1,4-7.2c0,0,0,0,0-0.1   c0.4-0.8,0.8-1.5,1.1-2.1c20.5-1.6,25.4-12.3,25.4-12.3C182.6,117.9,171.2,118.5,163.8,118.1z M157.5,100.1   c-4.1,3.3-8.9,5.8-12.1,7.3c-2.7-1.2-5.4-2.4-8.1-3.4c4.1-2.9,6.9-6.2,8.8-9.5C150.5,96.4,154.2,98.3,157.5,100.1z M140.8,92.4   c-5.5,5-11.5,7.7-13.1,8.4c-3-0.9-5.9-1.7-8.7-2.3c4.2-3,6.4-6.9,7.4-10.7C131.6,89.1,136.4,90.7,140.8,92.4z M98.6,117.1   c0,3.7-3,6.8-6.8,6.8s-6.8-3-6.8-6.8c0-3.7,3-6.8,6.8-6.8S98.6,113.4,98.6,117.1z M121.9,86.6c-6.2,8.9-15.3,9.5-15.3,9.5   c-1.1-0.1-2.1-0.3-3-0.3c-0.3,0-0.6,0-0.8-0.1c-1.4-0.1-2.2-0.2-2.4-0.2c0.9-2.4,1.9-6.4,2.3-11.9   C109.5,84.2,115.9,85.2,121.9,86.6z M35.9,123.4l5-2.4c-0.6,3.3-0.5,7.4,1.8,11.8c-1.8-0.7-3.5-1.3-4.9-1.9   C37.7,130.9,32.6,128.2,35.9,123.4z M101.3,155.9c-26.3-0.8-38.9-9-47.4-15.8c-1.2-0.9-2.2-2-3.3-3l0.1-0.1   c-7.6-7.3-6.7-14.3-5.1-18.1l9.1-4.3l0,0c5.2-1.8,11.3-4.1,18.8-6c-2,3.8-3.1,8.2-3.1,12.8c0,15.9,13.2,28.7,29.5,28.7   s29.5-12.9,29.5-28.7c0-4.3-1-8.3-2.7-12c13.4,4.4,24.2,10.9,29.3,12.8C155.9,122.1,142,157.2,101.3,155.9z"/></g></svg>