<?xml version="1.0" ?><svg height="52px" version="1.1" viewBox="0 0 60 52" width="60px" xmlns="http://www.w3.org/2000/svg" xmlns:xlink="http://www.w3.org/1999/xlink"><title/><desc/><defs/><g fill="none" fill-rule="evenodd" id="Page-1" stroke="none" stroke-width="1"><g fill="#000000" id="007-Train"><path d="M59,50 L47,50 L36,50 L25,50 L14,50 L1,50 C0.447,50 0,50.448 0,51 C0,51.552 0.447,52 1,52 L59,52 C59.553,52 60,51.552 60,51 C60,50.448 59.553,50 59,50" id="Fill-138"/><path d="M18,46 L21,46 C21,48.206 22.794,50 25,50 C27.206,50 29,48.206 29,46 L32,46 C32,48.206 33.794,50 36,50 C38.206,50 40,48.206 40,46 L43,46 C43,48.206 44.794,50 47,50 C49.206,50 51,48.206 51,46 L56,46 C56.553,46 57,45.552 57,45 L57,43 C57,42.448 56.553,42 56,42 L22,42 L22,27 C22,26.448 21.553,26 21,26 L7,26 C6.447,26 6,26.448 6,27 L6,30 C6,30.027 6.013,30.05 6.015,30.076 C6.021,30.146 6.036,30.209 6.055,30.275 C6.073,30.335 6.09,30.393 6.118,30.448 C6.148,30.506 6.185,30.555 6.224,30.606 C6.264,30.656 6.303,30.704 6.351,30.746 C6.398,30.787 6.45,30.818 6.504,30.85 C6.563,30.884 6.622,30.915 6.688,30.937 C6.713,30.945 6.732,30.964 6.758,30.97 L10,31.781 L10,42 L5,42 C4.447,42 4,42.448 4,43 L4,45 C4,45.552 4.447,46 5,46 L10,46 C10,48.206 11.794,50 14,50 C16.206,50 18,48.206 18,46" id="Fill-139"/><path d="M48,24 C46.897,24 46,24.897 46,26 L46,29 L39,29 C39,27.897 37.654,27 36,27 C34.346,27 33,27.897 33,29 L24,29 L24,39.998 L56.001,40 L54.067,37.101 L54.023,37.011 L56,37 C57.235,37 58,34.924 58,33 C58,31.076 57.235,29 56,29 L50,29 L50,26 C50,24.897 49.103,24 48,24" id="Fill-140"/><path d="M29.3487,15.0328 L29.4467,15.0198 C29.4527,15.0568 29.4617,15.0928 29.4727,15.1278 C29.5917,15.9588 30.3377,16.8248 31.4117,17.3618 C32.1617,17.7368 34.1217,18.4468 36.3097,17.0958 L36.4437,17.0288 L36.4177,17.1358 L36.4197,17.1658 C36.1197,18.5618 36.6507,19.4528 37.1607,19.9598 C38.5287,21.3148 41.5827,21.7548 44.4297,21.0098 L44.4387,21.0078 C44.4697,21.0338 44.5007,21.0588 44.5357,21.0828 C45.1237,21.6788 46.2267,22.1468 47.3797,22.1468 C47.7457,22.1468 48.1187,22.0998 48.4807,21.9938 C49.0617,21.7978 49.4867,21.2108 49.5877,20.4608 C49.6887,19.7148 49.4627,18.7038 48.5447,18.0598 C48.5277,18.0418 48.5067,18.0218 48.4807,17.9968 C48.4907,17.9688 48.4987,17.9388 48.5067,17.9078 C48.9097,17.0888 49.0047,15.8008 48.3977,14.9258 C48.0207,14.3828 47.2267,13.7848 45.5907,13.9838 L45.5707,13.9818 L45.4867,13.9898 L45.5107,13.8618 C46.3657,11.4478 44.8097,9.8848 44.3047,9.4568 C43.0167,8.3658 40.6917,7.7528 38.5777,8.9318 L38.4667,8.9848 L38.4577,8.9738 C38.4567,8.9658 38.4567,8.9578 38.4557,8.9498 L38.4597,8.9478 L38.4527,8.9088 C38.3957,8.1428 38.1617,7.6108 37.7417,7.2828 C37.2607,6.9098 36.5547,6.8108 35.5867,6.9778 L35.5737,6.9768 L35.4817,6.9888 C35.4797,6.9878 35.4777,6.9858 35.4757,6.9848 L35.5007,6.8898 C36.1147,5.2168 35.9247,3.4918 34.9767,2.1438 C34.0177,0.7778 32.4237,-0.0002 30.5857,-0.0002 C28.5487,-0.0132 26.4127,1.0818 25.4407,2.7108 C24.6637,4.0058 24.6597,5.4658 25.4207,6.9288 L25.4407,6.9938 C25.4177,7.0148 25.3967,7.0358 25.3747,7.0588 C22.9247,8.7508 22.5987,11.1608 23.3707,12.8138 C24.1727,14.5308 26.3297,15.8678 29.3487,15.0328" id="Fill-141"/></g></g></svg>