<?xml version="1.0" ?><!DOCTYPE svg  PUBLIC '-//W3C//DTD SVG 1.1//EN'  'http://www.w3.org/Graphics/SVG/1.1/DTD/svg11.dtd'><svg height="40px" id="el_x5F_baby" style="enable-background:new 0 0 40 40;" version="1.1" viewBox="0 0 40 40" width="40px" xml:space="preserve" xmlns="http://www.w3.org/2000/svg" xmlns:xlink="http://www.w3.org/1999/xlink"><path fill="#ff0000" d="M37.037,27.34c-0.599-0.573-1.548-0.552-2.121,0.046c-0.758,0.792-1.637,1.5-2.588,2.142L26.42,15.049  c-0.237-0.593,0.02-1.269,0.591-1.554l0.02-0.01c0.554-0.277,1.227-0.098,1.571,0.417L30,16v0.912C30,17.513,30.487,18,31.088,18  h0.02c0.519,0,0.965-0.366,1.067-0.875l0.698-5.182c0.082-0.607-0.065-1.223-0.41-1.728c0,0-0.399-0.745-1.03-1.518l1.679-1.679  l-0.138-0.138c-0.829-0.829-2.496-0.507-3.325,0.322l0,0C29.37,7.079,29.082,7,28.786,7h-1.193c-4.535,0-8.561,2.902-9.995,7.204  L17.333,15h-6.636c-2,0-3.808,1.192-4.596,3.03l-1.075,2.507C4.73,21.23,5.238,22,5.991,22H7.69c0.429,0,0.815-0.261,0.974-0.66  l1.527-3.818C10.317,17.207,10.623,17,10.962,17h0.018c0.587,0,0.989,0.592,0.772,1.138L7.324,29.277  c-0.813-0.579-1.578-1.199-2.241-1.891c-0.573-0.599-1.522-0.619-2.121-0.046c-0.599,0.573-0.62,1.522-0.046,2.121  C6.881,33.604,13.267,36.077,20,36.077c6.733,0,13.119-2.473,17.083-6.616C37.657,28.862,37.636,27.913,37.037,27.34z M9.382,30.551  l2.776-3.26c0.202-0.15,0.396-0.293,0.598-0.443l1.852-0.805c0.221-0.172,0.431-0.336,0.651-0.509l0.869-1.133  c3.123,0.549,6.259,0.543,9.196-0.206l4.809,6.613c-2.962,1.454-6.478,2.268-10.134,2.268C16.14,33.077,12.443,32.163,9.382,30.551z  "/></svg>
