<?xml version="1.0" ?><!DOCTYPE svg  PUBLIC '-//W3C//DTD SVG 1.1//EN'  'http://www.w3.org/Graphics/SVG/1.1/DTD/svg11.dtd'><svg enable-background="new 0 0 600 600" height="600px" id="Calque_1" version="1.1" viewBox="0 0 600 600" width="600px" xml:space="preserve" xmlns="http://www.w3.org/2000/svg" xmlns:xlink="http://www.w3.org/1999/xlink"><path fill="#ff0000" d="M591.476,284.018l-79.913-69.662v-97.369c0-7.201-5.838-13.038-13.039-13.038h-61.324c-7.203,0-13.04,5.837-13.04,13.038  v21.181l-77.681-67.714l-42.264-36.84l-42.265,36.84L16.953,284.018c-11.563,10.08-12.767,27.621-2.688,39.183  c10.077,11.563,27.62,12.764,39.182,2.684l250.768-218.588l250.766,218.588c11.563,10.08,29.104,8.879,39.184-2.684  C604.24,311.639,603.038,294.098,591.476,284.018z"/><path fill="#ff0000" d="M304.215,148.076L80.661,340.342V597h447.109V340.342L304.215,148.076z M395.736,403.154  c-20.436,59.679-25.977,86.131-60.355,99.337c-50.477,19.396-75.147-11.298-75.147-11.298s-16.402,19.648-23.31,42.913  c-6.905,23.241-9.124,41.901-21.798,36.229c-9.606-4.294,1.499-21.021,1.499-21.021s-0.404-10.499-2.772-20.889  c-2.361-10.408-4.136-16.856-4.136-16.856s-19.67,15.466-41.699-7.458c-17.826-18.562-4.411-34.809-17.412-62.415  c-13.016-27.622-31.646-37.193-31.646-37.193s50.112,2.705,78.8,25.55c28.695,22.834,33.498,33.407,32.279,52.137  c-1.229,18.721-12.516,22.293-12.516,22.293s-9.657-26.764-23.608-44.556c-13.956-17.798-29.238-26.526-29.238-26.526  s33.517,30.01,43.934,60.059c10.416,30.048,12.86,44.565,12.86,44.565s9.342-21.646,32.467-55.933  c24.397-36.176,45.721-57.096,64.03-74.892c18.285-17.789,70.08-50.55,70.08-50.55s-48.64,16.162-97.118,65.618  c-33.233,33.913-44.387,54.127-44.38,54.128c-10.948-10.9-26.409-62.035,9.203-96.336c40.244-38.735,83.012-48.627,141.52-52.738  c58.505-4.121,83.771,4.281,83.771,4.281S416.173,343.475,395.736,403.154z"/></svg>
