<?xml version="1.0" ?><svg height="44px" version="1.1" viewBox="0 0 44 44" width="44px" xmlns="http://www.w3.org/2000/svg" xmlns:xlink="http://www.w3.org/1999/xlink"><title/><desc/><defs/><g fill="none" fill-rule="evenodd" id="Page-1" stroke="none" stroke-width="1"><g fill="#070707" id="Icons" transform="translate(-128.000000, -440.000000)"><g id="Happy" transform="translate(128.000000, 440.000000)"><path d="M22,0 C9.869,0 0,9.869 0,22 C0,34.131 9.869,44 22,44 C34.131,44 44,34.131 44,22 C44,9.869 34.131,0 22,0 L22,0 Z M29.5,11 C31.433,11 33,12.567 33,14.5 C33,16.433 31.433,18 29.5,18 C27.567,18 26,16.433 26,14.5 C26,12.567 27.567,11 29.5,11 L29.5,11 Z M13.5,11 C15.433,11 17,12.567 17,14.5 C17,16.433 15.433,18 13.5,18 C11.567,18 10,16.433 10,14.5 C10,12.567 11.567,11 13.5,11 L13.5,11 Z M22,37 C15.383,37 10,31.617 10,25 C10,24.448 10.448,24 11,24 C11.552,24 12,24.448 12,25 C12,30.514 16.486,35 22,35 C27.514,35 32,30.514 32,25 C32,24.448 32.448,24 33,24 C33.552,24 34,24.448 34,25 C34,31.617 28.617,37 22,37 L22,37 Z" id="Fill-12"/></g></g></g></svg>