<?xml version="1.0" ?><svg height="512" id="Layer_1" version="1.1" viewBox="0 0 512 512" width="512" xml:space="preserve" xmlns="http://www.w3.org/2000/svg" xmlns:cc="http://creativecommons.org/ns#" xmlns:dc="http://purl.org/dc/elements/1.1/" xmlns:rdf="http://www.w3.org/1999/02/22-rdf-syntax-ns#" xmlns:svg="http://www.w3.org/2000/svg"><defs id="defs7"/><path d="m 73.74159,0 0,512 353.30029,0 c 6.19786,0 11.21653,-5.01835 11.21653,-11.21664 l 0,-489.516693 C 438.25841,5.0307733 433.23974,0 427.04188,0 L 73.74159,0 z m 217.05016,61.100053 c 2.6768,0.01493 5.12534,0.211307 7.36694,0.583307 2.2416,0.372107 4.288,0.832747 6.11626,1.383307 1.78774,0.593493 3.40267,1.261546 4.86667,2 1.464,0.738613 2.76533,1.472746 3.88373,2.2 1.11947,0.716266 1.75627,1.538506 1.91627,2.466666 0.16,0.928374 -0.1888,1.948747 -1.03307,3.066667 l -4.81653,6.700043 c -0.672,1.030613 -1.472,1.645386 -2.4,1.849973 -0.92853,0.204693 -1.97067,-0.01739 -3.13333,-0.68336 -1.62614,-0.976533 -3.5328,-1.841013 -5.7168,-2.583296 -2.184,-0.742187 -4.5312,-1.127573 -7.05014,-1.166667 -1.6032,0.01301 -2.98186,0.157974 -4.1168,0.450027 -1.1344,0.292107 -2.056,0.65184 -2.7664,1.066667 -0.7088,0.414869 -1.24853,0.846016 -1.6336,1.316629 -0.38506,0.470667 -0.63786,0.896533 -0.7664,1.266667 -0.3424,0.887413 -0.36053,1.663797 -0.032,2.31665 0.32747,0.653014 0.89814,1.21456 1.7168,1.700054 0.8112,0.48368 1.7984,0.900266 2.96694,1.249973 1.168,0.34976 2.48053,0.678293 3.91626,0.983307 6.9184,1.389653 12.36747,2.9808 16.3504,4.78336 3.9824,1.802613 6.7776,3.7848 8.38294,5.933333 1.7264,2.28816 2.84586,4.74373 3.36693,7.36667 0.52107,2.62298 0.52267,5.34282 0.016,8.16666 -0.30507,2.16534 -1.02987,4.26864 -2.18347,6.3 -1.15306,2.03142 -2.77546,3.85376 -4.86666,5.48336 -2.09067,1.67232 -4.72054,2.99744 -7.8832,3.96662 -3.16214,0.96922 -6.89334,1.46288 -11.21654,1.48336 l -1.61653,0 c -0.3088,0.002 -0.5968,-0.007 -0.88373,-0.0166 -0.2864,-0.01 -0.59094,-0.0239 -0.89974,-0.0667 -3.43946,-0.12459 -7.136,-0.68256 -11.10026,-1.66667 -3.96374,-0.98405 -8.18347,-2.72576 -12.6496,-5.21664 -1.20539,-0.68645 -1.90512,-1.51221 -2.08379,-2.5 -0.17813,-0.98778 0.16853,-2.02842 1.01707,-3.11664 l 5.98298,-7.50005 c 0.75947,-1.02309 1.59627,-1.61408 2.53334,-1.76661 0.9376,-0.15254 1.96746,0.10992 3.08373,0.7833 2.26773,1.36544 4.42773,2.39862 6.4832,3.11664 2.05547,0.71808 4.32587,1.22278 6.81653,1.5167 2.5856,0.30512 4.9056,0.34736 6.93334,0.11669 2.02773,-0.23067 3.5216,-0.68955 4.50026,-1.36672 0.53387,-0.36085 0.9392,-0.77744 1.21654,-1.24997 0.27733,-0.47248 0.44053,-0.97718 0.4832,-1.51664 0.0427,-0.49483 0,-0.95547 -0.13334,-1.38336 -0.13386,-0.42784 -0.35413,-0.80043 -0.66666,-1.1167 -0.26774,-0.25296 -0.62027,-0.54101 -1.06667,-0.8833 -0.47627,-0.31808 -1.17707,-0.69808 -2.09973,-1.1167 -0.92267,-0.4185 -2.16907,-0.84789 -3.7168,-1.29994 -1.59254,-0.44646 -3.5872,-0.88688 -5.98347,-1.33334 -4.94827,-1.03616 -9.35627,-2.47136 -13.23307,-4.30005 -3.8768,-1.828587 -6.72693,-4.007147 -8.5504,-6.51664 -0.88906,-1.391413 -1.56805,-2.797173 -2.03312,-4.233333 -0.46506,-1.436054 -0.7312,-2.858507 -0.81653,-4.250027 -0.0896,-1.391413 -0.0672,-2.709077 0.0667,-3.966624 0.13386,-1.257483 0.376,-2.398976 0.73333,-3.433376 0.73659,-2.32896 1.94245,-4.434027 3.61659,-6.31664 1.67413,-1.882507 3.6896,-3.503093 6.03306,-4.849973 2.33494,-1.346774 4.9136,-2.378187 7.7504,-3.100054 2.8368,-0.721706 5.85014,-1.09248 9.03307,-1.099946 z m 68.18347,0 c 2.6768,0.01493 5.14187,0.211307 7.38347,0.583307 2.2416,0.372107 4.27093,0.832747 6.09973,1.383307 1.78773,0.593493 3.4192,1.261546 4.8832,2 1.464,0.738613 2.7488,1.472746 3.86667,2.2 1.12,0.716266 1.7568,1.538506 1.9168,2.466666 0.16,0.928374 -0.17227,1.948747 -1.01654,3.066667 l -4.8336,6.700043 c -0.67146,1.030613 -1.47146,1.645386 -2.4,1.849973 -0.928,0.204693 -1.97066,-0.01739 -3.13333,-0.68336 -1.6256,-0.976533 -3.53227,-1.841013 -5.71627,-2.583296 -2.184,-0.742187 -4.5312,-1.127573 -7.05013,-1.166667 -1.60373,0.01301 -2.96533,0.157974 -4.10027,0.450027 -1.1344,0.292107 -2.056,0.65184 -2.7664,1.066667 -0.7088,0.414869 -1.26506,0.846016 -1.65013,1.316629 -0.38507,0.470667 -0.6384,0.896533 -0.7664,1.266667 -0.3424,0.887413 -0.344,1.663797 -0.016,2.31665 0.32747,0.653014 0.89813,1.21456 1.7168,1.700054 0.8112,0.48368 1.7984,0.900266 2.96693,1.249973 1.168,0.34976 2.46347,0.678293 3.89974,0.983307 6.9184,1.389653 12.36746,2.9808 16.34986,4.78336 3.98294,1.802613 6.77814,3.7848 8.38347,5.933333 1.7264,2.28816 2.8624,4.74373 3.38347,7.36667 0.52106,2.62298 0.52266,5.34282 0.016,8.16666 -0.30507,2.16534 -1.02987,4.26864 -2.18347,6.3 -1.15307,2.03142 -2.77547,3.85376 -4.86667,5.48336 -2.09066,1.67232 -4.72053,2.99744 -7.8832,3.96662 -3.16213,0.96922 -6.90986,1.46288 -11.23306,1.48336 l -1.6,0 c -0.3088,0.002 -0.61387,-0.007 -0.90027,-0.0166 -0.2864,-0.01 -0.5744,-0.0239 -0.8832,-0.0667 -3.43947,-0.12459 -7.15253,-0.68256 -11.1168,-1.66667 -3.96427,-0.98405 -8.18347,-2.72576 -12.65013,-5.21664 -1.20534,-0.68645 -1.888,-1.51221 -2.06667,-2.5 -0.17813,-0.98778 0.152,-2.02842 1,-3.11664 l 5.98347,-7.50005 c 0.75893,-1.02309 1.6128,-1.61408 2.54986,-1.76661 0.9376,-0.15254 1.96747,0.10992 3.08374,0.7833 2.26773,1.36544 4.42773,2.39862 6.4832,3.11664 2.05546,0.71808 4.32586,1.22278 6.81653,1.5167 2.5856,0.30512 4.88907,0.34736 6.9168,0.11669 2.02773,-0.23067 3.53813,-0.68955 4.5168,-1.36672 0.53387,-0.36085 0.9392,-0.77744 1.21653,-1.24997 0.27734,-0.47248 0.424,-0.97718 0.46667,-1.51664 0.0427,-0.49483 0,-0.95547 -0.13333,-1.38336 -0.13387,-0.42784 -0.35414,-0.80043 -0.66667,-1.1167 -0.26773,-0.25296 -0.62027,-0.54101 -1.06667,-0.8833 -0.47626,-0.31808 -1.1776,-0.69808 -2.10026,-1.1167 -0.92267,-0.4185 -2.152,-0.84789 -3.69974,-1.29994 -1.59253,-0.44646 -3.5872,-0.88688 -5.98346,-1.33334 -4.94827,-1.03616 -9.35627,-2.47136 -13.23307,-4.30005 -3.8768,-1.828587 -6.72693,-4.007147 -8.5504,-6.51664 -0.88907,-1.391413 -1.568,-2.797173 -2.03307,-4.233333 -0.46506,-1.436054 -0.74773,-2.858507 -0.8336,-4.250027 -0.0891,-1.391413 -0.0672,-2.709077 0.0667,-3.966624 0.1344,-1.257483 0.37653,-2.398976 0.73333,-3.433376 0.73707,-2.32896 1.94294,-4.434027 3.61707,-6.31664 1.67413,-1.882507 3.68907,-3.503093 6.03307,-4.849973 2.33493,-1.346774 4.91306,-2.378187 7.74986,-3.100054 2.83734,-0.721706 5.85067,-1.09248 9.0336,-1.099946 z m -230.10031,1.783307 27.13334,0 c 5.70026,0.01493 10.45866,1.681387 14.28373,5 0.72907,0.673493 1.4928,1.547147 2.26667,2.6 0.77386,1.05296 1.4768,2.262293 2.11626,3.649973 0.63627,1.434347 1.14294,3.042134 1.53334,4.79999 0.39093,1.758026 0.60586,3.635424 0.61706,5.650037 -0.005,3.322453 -0.65013,6.501173 -1.9168,9.533333 -1.26666,3.032267 -3.12213,5.550347 -5.58346,7.533337 -1.9792,1.56821 -4.23467,2.76298 -6.74987,3.58336 -2.5152,0.82037 -5.2112,1.22773 -8.0832,1.23328 l -12.76693,0 0,18.48336 c 0,2.67877 -1.3376,4.01669 -4.01654,4.01669 l -8.8336,0 c -2.6784,0 -4.03306,-1.33792 -4.03306,-4.01669 l 0,-58.033337 c 0,-2.67872 1.35466,-4.03328 4.03306,-4.033333 z m 85.36694,0 10.18346,0 c 1.11947,5.3e-5 2.06454,0.28096 2.8496,0.816693 0.78507,0.535787 1.37814,1.328534 1.78347,2.4 l 20.36693,58.216637 c 0.48694,1.44358 0.4448,2.5815 -0.1168,3.4 -0.5616,0.81851 -1.61706,1.2351 -3.18346,1.25003 l -9.5664,0 c -2.3216,0.0149 -3.83574,-1.08261 -4.5504,-3.30005 l -2.7664,-8.13334 -19.6336,0 -2.78294,8.13334 c -0.7888,2.21744 -2.32693,3.31493 -4.6336,3.30005 l -9.65013,0 c -1.56587,-0.0149 -2.62133,-0.43152 -3.18293,-1.25003 -0.56214,-0.8185 -0.60427,-1.95642 -0.1168,-3.4 l 20.45013,-58.216637 c 0.80373,-2.142986 2.31733,-3.21664 4.54987,-3.216693 z m -72.5168,16.249963 0,11.08337 12.76693,0 c 1.62027,-0.01664 3.03147,-0.528853 4.21653,-1.51664 1.18507,-0.987786 1.80907,-2.35872 1.86667,-4.116693 0,-1.594187 -0.48107,-2.880597 -1.4,-3.883317 -0.91893,-1.002667 -2.26027,-1.53504 -4.05013,-1.56672 l -13.4,0 z m 77.6,5.450037 -5.61654,18.31669 11.78347,0 -6.16693,-18.31669 z m 14.76693,145.78336 c -8.9952,5.82016 -16.88853,15.03609 -23.2,26.44995 -1.3984,2.53219 -2.7152,5.21987 -4,8.01667 -8.54187,-2.15429 -16.36693,-4.88421 -23.28373,-7.98333 13.83306,-13.03902 31.17066,-22.40164 50.48373,-26.48329 z m 43.81657,0 c 19.31254,4.08165 36.65067,13.44427 50.4832,26.48329 -6.91626,3.09912 -14.74186,5.81683 -23.2832,7.93331 -1.2848,-2.75899 -2.6016,-5.43446 -4,-7.96665 -6.31146,-11.41386 -14.20533,-20.62979 -23.2,-26.44995 z m -26.16697,2.06667 0,38.13329 c -12.8496,-0.22672 -25.08693,-1.62016 -36.34987,-3.85003 0.94507,-2.04091 1.92534,-3.92709 2.98347,-5.81664 9.10827,-16.47832 20.85707,-26.57708 33.3664,-28.46662 z m 8.46665,0 c 12.51046,1.88954 24.30832,11.9883 33.41712,28.46662 1.02027,1.88955 2.00054,3.77573 2.98294,5.81664 -11.2624,2.22987 -23.512,3.62331 -36.40006,3.85003 l 0,-38.13329 z m -82.91625,30.88326 c 7.7856,3.74165 16.6624,6.95557 26.29973,9.45003 -6.16053,16.3648 -9.86773,35.75418 -10.2832,56.61669 l -42.76693,0 c 1.0208,-25.36005 10.952,-48.37899 26.7504,-66.06672 z m 157.41657,0 c 15.79787,17.68773 25.7296,40.70667 26.74987,66.06672 l -42.78347,0 c -0.41546,-20.86251 -4.10613,-40.25189 -10.26666,-56.61669 9.63786,-2.49446 18.51466,-5.70838 26.30026,-9.45003 z m -122.76697,11.41664 c 12.32107,2.57003 25.70293,4.08549 39.8,4.35003 l 0,50.30005 -49.9664,0 c 0.4912,-20.37115 4.1952,-39.1544 10.1664,-54.65008 z m 88.10031,0 c 5.93333,15.49568 9.64213,34.27893 10.13333,54.65008 l -49.96699,0 0,-50.30005 c 14.09766,-0.26454 27.51259,-1.78 39.83366,-4.35003 z m -149.50031,63.18336 42.76693,0 c 0.41547,20.86251 4.12267,40.25184 10.2832,56.61663 -9.63733,2.4944 -18.48106,5.70389 -26.26666,9.48336 -15.83574,-17.72554 -25.76267,-40.73999 -26.78347,-66.09999 z m 51.2336,0 49.9664,0 0,50.26667 c -14.09707,0.26453 -27.47893,1.81338 -39.8,4.38336 -5.9712,-15.49568 -9.6752,-34.31664 -10.1664,-54.65003 z m 58.43305,0 49.96699,0 c -0.45333,20.33339 -4.2,39.15435 -10.13333,54.65003 -12.32107,-2.56998 -25.736,-4.11883 -39.83366,-4.38336 l 0,-50.26667 z m 58.46672,0 42.78347,0 c -1.02027,25.32224 -10.9472,48.37445 -26.78347,66.09999 -7.78506,-3.77947 -16.59573,-6.98896 -26.23306,-9.48336 6.16053,-16.36479 9.8176,-35.75412 10.23306,-56.61663 z m -66.93337,58.81663 0,38.10011 c -12.50933,-1.8519 -24.25813,-11.95504 -33.3664,-28.43344 -1.02027,-1.85174 -2.0384,-3.81355 -2.98347,-5.81664 11.26294,-2.26768 23.50027,-3.58544 36.34987,-3.85003 z m 8.46665,0 c 12.88806,0.26459 25.13766,1.58235 36.40006,3.85003 -0.94454,2.00309 -1.96267,3.9649 -2.98294,5.81664 -9.1088,16.4784 -20.90666,26.58154 -33.41712,28.43344 l 0,-38.10011 z m -53.31625,5.73333 c 1.2848,2.7968 2.6016,5.48448 4,8.01675 6.31147,11.41387 14.2048,20.63413 23.2,26.41669 -19.31307,-4.08181 -36.65067,-13.41098 -50.48373,-26.45002 6.87893,-3.13696 14.74186,-5.82912 23.28373,-7.98342 z m 98.21657,0 c 8.5792,2.1543 16.4048,4.84646 23.2832,7.98342 -13.83253,13.03904 -31.17066,22.36821 -50.4832,26.45002 8.99467,-5.78256 16.88854,-15.00282 23.2,-26.41669 1.3984,-2.53227 2.75307,-5.21995 4,-8.01675 z" id="path4265" style="fill:#000000;fill-opacity:1;fill-rule:nonzero;stroke:none"/></svg>