<?xml version="1.0" ?><!DOCTYPE svg  PUBLIC '-//W3C//DTD SVG 1.1//EN'  'http://www.w3.org/Graphics/SVG/1.1/DTD/svg11.dtd'><svg height="100%" style="shape-rendering:geometricPrecision; text-rendering:geometricPrecision; image-rendering:optimizeQuality; fill-rule:evenodd; clip-rule:evenodd" viewBox="0 0 4.74132 4.74132" width="100%" xml:space="preserve" xmlns="http://www.w3.org/2000/svg" xmlns:xlink="http://www.w3.org/1999/xlink"><defs><style type="text/css">
   <![CDATA[
    .fil0 {fill:none}
    .fil1 {fill:#191919}
   ]]>
  </style></defs><g id="图层_x0020_1"><rect class="fil0" height="4.74133" width="4.74133"/><g id="_398338656"><polygon class="fil1" id="_398339736" points="0.91235,0.58568 1.17448,1.03975 1.43669,1.49386 0.91235,1.49386 0.38801,1.49386 0.65022,1.03975 "/><polygon class="fil1" id="_253802640" points="1.64352,1.49389 1.90566,1.03983 2.16786,0.58571 1.64352,0.58571 1.11918,0.58571 1.38139,1.03983 "/><polygon class="fil1" id="_397721256" points="2.37502,0.58568 2.63715,1.03975 2.89935,1.49386 2.37502,1.49386 1.85068,1.49386 2.11288,1.03975 "/><polygon class="fil1" id="_253809480" points="3.0991,1.49389 3.36123,1.03983 3.62342,0.58571 3.0991,0.58571 2.57476,0.58571 2.83697,1.03983 "/><polygon class="fil1" id="_398336400" points="3.83111,0.58568 4.09324,1.03975 4.35545,1.49386 3.83111,1.49386 3.30677,1.49386 3.56899,1.03975 "/><polygon class="fil1" id="_253808232" points="2.1621,1.47662 2.16385,1.48243 2.1656,1.47662 2.16404,1.4787 2.1643,1.47954 2.16385,1.47895 2.1634,1.47954 2.16366,1.4787 "/><polygon class="fil1" id="_397709544" points="3.02217,1.65934 2.36615,1.65934 1.71034,1.65934 2.36626,3.82683 "/><polygon class="fil1" id="_398336448" points="2.45578,4.15473 3.21094,1.65933 4.34682,1.65933 2.45597,4.15538 2.45578,4.15563 "/><polygon class="fil1" id="_253806864" points="0.38589,1.65933 1.52176,1.65933 2.27692,4.1547 2.27692,4.15562 2.27673,4.15538 "/></g></g></svg>