<?xml version="1.0" ?><!DOCTYPE svg  PUBLIC '-//W3C//DTD SVG 1.1//EN'  'http://www.w3.org/Graphics/SVG/1.1/DTD/svg11.dtd'><svg enable-background="new 0 0 64 64" height="64px" id="Layer_1" version="1.1" viewBox="0 0 64 64" width="64px" xml:space="preserve" xmlns="http://www.w3.org/2000/svg" xmlns:xlink="http://www.w3.org/1999/xlink"><g><path d="M62.946,52.176c-2.818,0-10.736-0.615-16.902-7.015c-2.689-2.792-5.621-3.931-8.17-3.931   s-4.715,1.139-5.875,2.905c-1.158-1.767-3.324-2.905-5.873-2.905s-5.48,1.139-8.169,3.931c-6.164,6.398-14.084,7.015-16.903,7.015   C0.382,52.176,0,52.141,0,52.141c3.682,3.705,8.418,4.963,13.126,4.963c8.517,0,16.943-4.116,18.873-5.309   c1.932,1.192,10.357,5.309,18.875,5.309c4.707,0,9.443-1.258,13.125-4.963C63.999,52.141,63.618,52.176,62.946,52.176z" fill="#231F20"/><path d="M5.866,28.942c1.631,1.161,4.735,1.698,7.901,1.698c3.347,0,6.762-0.601,8.572-1.698   c3.121-1.893,5.814-9.393,5.689-14.478h7.943c-0.125,5.085,2.568,12.585,5.689,14.478c1.811,1.098,5.225,1.698,8.572,1.698   c3.166,0,6.271-0.537,7.9-1.698c3.793-2.7,7.73-14.269,4.904-17.97c-2.031-2.661-7.947-4.076-13.703-4.076   c-5.539,0-10.93,1.309-12.578,4.076c-0.248,0.417-0.42,0.931-0.551,1.492h-8.412c-0.131-0.562-0.303-1.075-0.551-1.492   c-1.648-2.768-7.04-4.076-12.578-4.076c-5.756,0-11.671,1.415-13.703,4.076C-1.865,14.674,2.073,26.242,5.866,28.942z" fill="#231F20"/></g></svg>