<?xml version="1.0" ?><svg height="64px" version="1.1" viewBox="0 0 64 64" width="64px" xmlns="http://www.w3.org/2000/svg" xmlns:xlink="http://www.w3.org/1999/xlink"><title/><desc/><defs/><g fill="none" fill-rule="evenodd" id="Apple-Watch-Icons" stroke="none" stroke-width="1"><g fill="#000000" id="music_note"><path d="M55,17.034 L55,7 C55,6.405 54.735,5.841 54.277,5.461 C53.818,5.081 53.213,4.925 52.632,5.034 L22.632,11.034 C21.685,11.211 21,12.037 21,13 L21,42 C21,42.551 20.552,43 20,43 L15,43 C9.112,43 5,46.289 5,51 C5,55.711 9.112,59 15,59 C20.888,59 25,55.711 25,51 L25,23.66 L51,18.41 L51,36 C51,36.551 50.552,37 50,37 L45,37 C39.112,37 35,40.289 35,45 C35,49.711 39.112,53 45,53 C50.888,53 55,49.711 55,45 L55,17.036 L55,17.034" id="Fill-48"/></g></g></svg>