<?xml version="1.0" ?><!DOCTYPE svg  PUBLIC '-//W3C//DTD SVG 1.1//EN'  'http://www.w3.org/Graphics/SVG/1.1/DTD/svg11.dtd'><svg enable-background="new 0 0 512 512" height="512px" id="Layer_1" version="1.1" viewBox="0 0 512 512" width="512px" xml:space="preserve" xmlns="http://www.w3.org/2000/svg" xmlns:xlink="http://www.w3.org/1999/xlink"><g><path d="M510.314,464.344L367.189,246.156c-2.563-3.875-6.595-6.156-10.906-6.156   c-4.297,0-8.344,2.281-10.875,6.156l-97,147.859c-1.844,2.813-4.906,4.327-8.031,4.327c-1.813,0-3.641-0.5-5.266-1.563   c-4.422-2.906-5.672-8.859-2.766-13.298l52.703-80.327l-87.156-167.266c-2.547-4.859-7.406-7.891-12.703-7.891   s-10.156,3.031-12.703,7.891L1.221,464.609c-1.688,3.219-1.625,7.125,0.172,10.28c1.796,3.173,5.046,5.11,8.546,5.11h182.063   H377.19h125.53c3.47,0,6.625-2.063,8.22-5.359C512.549,471.344,512.299,467.375,510.314,464.344z M181.502,304l-25-33l-49.5,33   l78.188-150.938L256.002,289l-48-24.438L181.502,304z M374.002,343.5l-18.969,19.188L332.689,343l-40.672,19.531l64.266-97.969   l64.375,98.125L374.002,343.5z M317.252,77.109c-0.625-0.828-0.688-1.969-0.156-2.844c0.531-0.891,1.563-1.344,2.563-1.172   l38.594,6.766c-8.375,7.266-14.75,16.563-18.469,27.234L317.252,77.109z M305.939,142.453c-1-0.234-1.75-1.063-1.906-2.078   c-0.156-1.031,0.313-2.047,1.219-2.563l31.625-18.609c-0.406,2.906-0.875,5.781-0.875,8.797c0,7.891,1.625,15.344,4.219,22.313   L305.939,142.453z M437.502,76.359c-9.156-6.672-20.156-10.797-32.094-11.813l27.656-30.234c0.688-0.75,1.78-1.016,2.75-0.641   c0.938,0.391,1.563,1.313,1.563,2.344L437.502,76.359z M461.283,110.5c-3.156-11.031-9-20.875-17.063-28.594l39.156-5.016   c1.031-0.125,2,0.391,2.5,1.281c0.5,0.922,0.375,2.047-0.281,2.844L461.283,110.5z M397.971,64.203   c-11.938,0.375-23,3.969-32.438,10.016l1.906-39.813c0.063-1.047,0.75-1.938,1.719-2.266c0.969-0.344,2.031-0.047,2.688,0.75   L397.971,64.203z M369.471,183.922l-30.655,15.938c-0.906,0.469-2,0.344-2.781-0.359c-0.781-0.688-1.063-1.75-0.719-2.734   l11.719-32.844C352.752,172.313,360.533,179.031,369.471,183.922z M463.346,121.688l31.5,20.516   c0.875,0.563,1.313,1.594,1.095,2.609c-0.188,1.016-0.97,1.797-2,2l-35.125,6.375c3.313-7.734,5.188-16.234,5.188-25.188   C464.002,125.844,463.564,123.797,463.346,121.688z M451.658,165.5l10.469,34.203c0.313,0.969-0.031,2.063-0.844,2.703   c-0.781,0.656-1.906,0.75-2.781,0.234l-30.188-17.516C437.596,180.516,445.596,173.813,451.658,165.5z M400.002,192   c4.75,0,9.344-0.594,13.813-1.578l-13.313,32.047c-0.406,0.953-1.344,1.563-2.375,1.531c-1-0.016-1.906-0.672-2.281-1.656   l-11.844-32.609C389.158,191.063,394.439,192,400.002,192z M400.002,80c26.5,0,48,21.5,48,48s-21.5,48-48,48s-48-21.5-48-48   S373.502,80,400.002,80z" fill="#4D4D4D"/></g></svg>