<?xml version="1.0" ?><!DOCTYPE svg  PUBLIC '-//W3C//DTD SVG 1.1//EN'  'http://www.w3.org/Graphics/SVG/1.1/DTD/svg11.dtd'><svg enable-background="new 0 0 164 164" height="164px" id="Layer_1" version="1.1" viewBox="0 0 164 164" width="164px" xml:space="preserve" xmlns="http://www.w3.org/2000/svg" xmlns:xlink="http://www.w3.org/1999/xlink"><path clip-rule="evenodd" d="M6.391,42.294h9.297c-0.129-7.377,2.536-9.172,10.456-9.172h5.83  c7.92,0,10.39,1.698,10.456,9.172h7.141c0-14.633,5.24-27.134,22.716-27.134h19.106c17.475,0,22.716,12.502,22.716,27.134h43.181  c3.515,0,6.391,2.879,6.391,6.392v94.083c0,3.516-2.876,6.391-6.391,6.391H6.391c-3.515,0-6.39-2.875-6.39-6.391V48.686  C0,45.17,2.876,42.294,6.391,42.294L6.391,42.294z M81.922,69.151c-14.661,0-26.546,11.459-26.546,25.594  c0,14.135,11.885,25.592,26.546,25.592s26.548-11.457,26.548-25.592C108.47,80.611,96.583,69.151,81.922,69.151L81.922,69.151z   M128.539,51.489c-8.549,0-8.547,13.866,0,13.866h19.217c8.547,0,8.548-13.866,0-13.866H128.539L128.539,51.489z M81.924,52.947  c-23.114,0-41.851,18.737-41.851,41.85s18.737,41.85,41.851,41.85c23.113,0,41.849-18.736,41.849-41.85  S105.037,52.947,81.924,52.947z" fill="#ff0000" fill-rule="evenodd"/></svg>
