<?xml version="1.0" ?><svg height="512" id="Layer_1" version="1.1" viewBox="0 0 512 512" width="512" xml:space="preserve" xmlns="http://www.w3.org/2000/svg" xmlns:cc="http://creativecommons.org/ns#" xmlns:dc="http://purl.org/dc/elements/1.1/" xmlns:rdf="http://www.w3.org/1999/02/22-rdf-syntax-ns#" xmlns:svg="http://www.w3.org/2000/svg"><defs id="defs7"/><g id="g4259" transform="matrix(0.99018392,0,0,0.99018392,97.046246,5.9649139)"><path d="m 239.95275,0.03543307 c -44.82283,0 -81.17716,36.31889793 -81.17716,81.14173193 0,44.822835 36.35433,81.141735 81.17716,81.141735 44.7874,0 81.1063,-36.3189 81.1063,-81.141735 0,-44.822834 -36.3189,-81.14173193 -81.1063,-81.14173193 z M 117.92126,182.16142 44.397637,307.55906 c -31.322834,53.43307 42.129921,93.79133 90.496063,123.76771 l -98.716535,0 C 16.122047,431.32677 0,447.48425 0,468.17717 c 0,20.69291 16.122047,36.81496 36.177165,36.81496 l 222.165355,0 c 20.05511,0 35.92913,-16.15748 36.17716,-36.17717 0.3189,-22.03937 -15.05906,-35.7874 -25.26378,-42.76772 -39.15354,-26.71653 -77.10236,-55.16929 -115.65354,-82.73622 l 36.07086,-61.61811 10.38189,13.67717 c 10.41733,13.7126 27.88583,18.88583 43.33465,14.06693 7.68898,-2.40945 14.84646,-6.55512 18.95669,-11.72835 l 44.61024,-56.30315 c 11.23228,-14.13779 8.85826,-34.54724 -5.27953,-45.74409 -14.1378,-11.23229 -34.54724,-8.85827 -45.77953,5.27953 l -14.10236,17.82283 -31.32283,-41.31496 c -6.48425,-8.50394 -15.23622,-16.68898 -23.4567,-21.47244 -22.0748,-12.82677 -56.58661,4.85433 -69.09448,26.18504 z" id="path4261" style="fill:#333333;fill-opacity:1;fill-rule:nonzero;stroke:none"/></g></svg>