<?xml version="1.0" ?><!DOCTYPE svg  PUBLIC '-//W3C//DTD SVG 1.1//EN'  'http://www.w3.org/Graphics/SVG/1.1/DTD/svg11.dtd'><svg enable-background="new 0 0 438.25 438.262" height="438.262px" id="Layer_1" version="1.1" viewBox="0 0 438.25 438.262" width="438.25px" xml:space="preserve" xmlns="http://www.w3.org/2000/svg" xmlns:xlink="http://www.w3.org/1999/xlink"><path fill="#ff0000" d="M182.957,167.564c9.133-20.139,15.031-47.127,15.398-77.357c-41.516,6.662-76.527,32.967-95.23,69.049  C132.789,168.254,160.902,170.631,182.957,167.564z M141.777,155.408c-4.672-0.596-9.406-1.393-14.18-2.35  c14.063-19.424,34.125-34.223,57.469-41.621c-0.523,4.828-1.18,9.564-2,14.166C166.859,131.875,152.66,142.219,141.777,155.408z   M216.207,285.348c-18.422,10.461-38.133,27.727-55.637,50.463c17.625,8.881,37.504,13.914,58.551,13.914  c19.844,0,38.656-4.467,55.516-12.416C256.238,313.434,235.402,295.594,216.207,285.348z M219.121,332.08  c-12.188,0-23.918-1.965-34.922-5.551c3.391-3.607,6.859-6.98,10.352-10.195c7.867,1.988,16.094,3.055,24.57,3.055  c7.129,0,14.078-0.76,20.789-2.18c3.598,3.271,7.164,6.705,10.652,10.387C240.574,330.494,230.031,332.08,219.121,332.08z   M310.348,312.471c24.273-23.725,39.383-56.787,39.383-93.328c0-5.447-0.375-10.807-1.023-16.08  c-29.352,10.152-53.555,24.777-69.625,40.246C283.383,264.248,293.875,288.586,310.348,312.471z M332,222.732  c-0.766,24.299-9.227,46.68-23.047,64.783c-2.363-4.246-4.5-8.492-6.477-12.723c8.883-13.256,14.699-28.732,16.398-45.412  C323.082,227.053,327.461,224.834,332,222.732z M88.527,219.143c0,35.318,14.117,67.385,36.977,90.914  c16.984-24.84,27.484-50.127,31.289-71.521c-15.973-14.588-39.133-28.254-66.93-37.912C89,206.676,88.527,212.854,88.527,219.143z   M119.18,226.711c1.223,16.281,6.324,31.492,14.422,44.691c-1.98,4.354-4.121,8.727-6.508,13.102  c-12.977-18.213-20.695-40.408-20.902-64.375C110.691,222.207,115.012,224.412,119.18,226.711z M219.129,0  C98.301,0,0,98.303,0,219.131s98.301,219.131,219.129,219.131c120.824,0,219.121-98.303,219.121-219.131S339.953,0,219.129,0z   M219.121,363.725c-79.73,0-144.594-64.859-144.594-144.582c0-79.736,64.863-144.605,144.594-144.605  c79.738,0,144.609,64.869,144.609,144.605C363.73,298.865,298.859,363.725,219.121,363.725z M241.75,90.539  c0.426,31.594,6.902,59.631,16.785,79.977c21.824,2.449,49.086-0.223,77.723-9.064C318.125,124.789,283.289,97.828,241.75,90.539z   M298.281,157.703c-10.668-13.717-24.809-24.6-41.102-31.309c-0.848-4.641-1.512-9.432-2.055-14.297  c23.398,7.891,43.391,23.229,57.129,43.207C307.551,156.283,302.891,157.072,298.281,157.703z M238.699,219.131  c0,10.809-8.766,19.57-19.578,19.57c-10.805,0-19.57-8.762-19.57-19.57s8.766-19.57,19.57-19.57  C229.934,199.561,238.699,208.322,238.699,219.131z M226.582,174.561c0,4.121-3.336,7.457-7.461,7.457  c-4.117,0-7.453-3.336-7.453-7.457c0-4.117,3.336-7.453,7.453-7.453C223.246,167.107,226.582,170.443,226.582,174.561z   M184.254,190.393c3.57,2.055,4.789,6.613,2.727,10.18c-2.055,3.57-6.617,4.789-10.18,2.73s-4.789-6.617-2.734-10.188  C176.129,189.553,180.691,188.33,184.254,190.393z M176.801,234.959c3.563-2.059,8.125-0.84,10.18,2.727  c2.063,3.57,0.836,8.125-2.727,10.184c-3.563,2.063-8.125,0.84-10.188-2.727C172.012,241.576,173.238,237.018,176.801,234.959z   M211.668,263.697c0-4.117,3.336-7.453,7.453-7.453c4.125,0,7.461,3.336,7.461,7.453c0,4.121-3.336,7.457-7.461,7.461  C215.004,271.158,211.668,267.818,211.668,263.697z M253.996,247.869c-3.57-2.059-4.789-6.613-2.727-10.18  c2.055-3.57,6.617-4.789,10.18-2.73s4.789,6.617,2.727,10.188C262.121,248.709,257.559,249.932,253.996,247.869z M261.449,203.303  c-3.563,2.059-8.125,0.84-10.18-2.73c-2.063-3.566-0.844-8.125,2.727-10.18c3.563-2.063,8.125-0.84,10.18,2.727  C266.238,196.686,265.012,201.244,261.449,203.303z"/></svg>
