<?xml version="1.0" ?><!DOCTYPE svg  PUBLIC '-//W3C//DTD SVG 1.1//EN'  'http://www.w3.org/Graphics/SVG/1.1/DTD/svg11.dtd'><svg enable-background="new 0 0 49 49" id="Layer_1" version="1.1" viewBox="0 0 49 49" xml:space="preserve" xmlns="http://www.w3.org/2000/svg" xmlns:xlink="http://www.w3.org/1999/xlink"><g><rect fill="#ff0000" height="22" transform="matrix(0.8122 0.5834 -0.5834 0.8122 14.6462 -13.8374)" width="10.7" x="23.5" y="4.8"/><rect fill="#ff0000" height="4" transform="matrix(0.8043 0.5943 -0.5943 0.8043 20.5503 -6.6408)" width="4" x="18.4" y="25.9"/><path fill="#ff0000" d="M21,36.4l1.9,0.6c0.1,0,0.2,0,0.3,0c0.4,0,0.9-0.3,1-0.7c0.2-0.6-0.1-1.1-0.7-1.3l-11.3-3.4c-0.5-0.2-1.1,0.1-1.3,0.7   c-0.2,0.6,0.1,1.1,0.7,1.3l7.2,2.2v5.4H3.1v7.3h42v-7.3H21V36.4z"/><rect fill="#ff0000" height="3.6" transform="matrix(0.8122 0.5834 -0.5834 0.8122 9.217 -21.1849)" width="6" x="34.5" y="1.9"/><path fill="#ff0000" d="M37.4,16.6l-2.7,3.8c4.5,2,7.3,6.9,6.4,12c-0.5,2.7-1.9,5.1-3.9,6.7h6.1c1.1-1.7,2-3.7,2.3-5.9   C46.8,26.3,43.3,19.7,37.4,16.6z"/></g></svg>
