<?xml version="1.0" ?><svg id="Layer_1" style="enable-background:new 0 0 193.336 210.957;" version="1.1" viewBox="0 0 193.336 210.957" xml:space="preserve" xmlns="http://www.w3.org/2000/svg" xmlns:xlink="http://www.w3.org/1999/xlink"><g><path fill="#ff0000" d="M122.102,205.692c2.437,3.434,6.29,5.265,10.203,5.265c2.502,0,5.029-0.75,7.225-2.308   c5.63-3.996,6.954-11.799,2.957-17.429l-30.139-42.456l-20.567,14.214L122.102,205.692z"/><polygon fill="#ff0000" points="89.465,159.717 110.032,145.503 89.961,117.229 79.392,145.528  "/><circle fill="#ff0000" cx="173.336" cy="186.966" r="20"/><path fill="#ff0000" d="M7.853,159.934l42.878,17.184c1.494,0.599,3.072,0.897,4.65,0.897c1.723,0,3.445-0.356,5.053-1.066   c3.079-1.361,5.479-3.906,6.657-7.06l5.795-15.516l-23.03-9.792l-1.707,4.57l-30.996-12.422c-6.41-2.567-13.685,0.545-16.253,6.953   S1.445,157.366,7.853,159.934z"/><path fill="#ff0000" d="M90.007,108.531c7.38-17,9.659-29.385,9.642-48.521c-0.075-11.135-5.398-18.574-11.644-22.137   c-0.632-0.5-1.35-0.913-2.145-1.212L22.129,12.7c-4.139-1.555-8.749,0.538-10.304,4.673c-1.555,4.136,0.537,8.749,4.673,10.304   l49.555,18.631c-0.521,1.18-0.95,2.416-1.289,3.684l9.565-4.193c1.302-0.57,2.678-0.859,4.09-0.859c4.051,0,7.72,2.397,9.347,6.106   c2.258,5.151-0.096,11.179-5.247,13.437l-21.028,9.218c-1.655,10.718-4.145,22.207-8.868,31.795   c-4.866,12.063-2.119,14.834,5.256,17.605l-6.621,17.728l23.03,9.792L90.007,108.531z"/><path fill="#ff0000" d="M81.636,62.468c4.047-1.774,5.889-6.493,4.115-10.539c-1.774-4.046-6.493-5.888-10.539-4.115l-60.681,26.6   c-4.047,1.774-5.889,6.493-4.115,10.539c1.316,3.001,4.251,4.79,7.331,4.79c1.072,0,2.163-0.217,3.208-0.675L81.636,62.468z"/><ellipse fill="#ff0000" cx="111.648" cy="22.501" rx="22.5" ry="22.5" transform="matrix(0.0742 -0.9972 0.9972 0.0742 80.9262 132.1724)"/></g></svg>
