<?xml version="1.0" ?><svg enable-background="new 0 0 48 48" id="Layer_1" version="1.1" viewBox="0 0 48 48" xml:space="preserve" xmlns="http://www.w3.org/2000/svg" xmlns:xlink="http://www.w3.org/1999/xlink"><g><polygon fill="#010101" points="40.4,20.7 38.9,16.3 28.4,20.6 29.8,25.1  "/><path d="M28.2,26.9c-0.1-0.1-0.1-0.3-0.1-0.4l-3.7-11.5c-1.5-4.8-5.8-8-10.7-8c-1.1,0-2.2,0.2-3.3,0.5   c-6,1.9-9.4,8.5-7.5,14.7c1.5,4.9,5.8,8.2,10.7,8.2c1.2,0,2.5-0.2,3.7-0.6l3-1.1c0.1,0,0.2-0.1,0.3-0.1c0.2,0,0.3,0,0.4,0.1   c0.2,0.1,0.4,0.3,0.5,0.6l5.1,16.1l6.7-2.6l-5-15.6C28.3,27.1,28.3,27,28.2,26.9z" fill="#010101"/><polygon fill="#010101" points="30.4,27.1 35.3,41.9 45.5,36.2 41,22.6  "/><path d="M26.3,14.3l1.4,4.3l10.5-4.3l-1.3-3.9c-1.9-5.8-8-9.1-13.6-7.3c0,0,0,0,0,0l-6.5,2.2   C21.2,6.4,24.9,9.7,26.3,14.3z" fill="#010101"/></g></svg>