<?xml version="1.0" ?><!DOCTYPE svg  PUBLIC '-//W3C//DTD SVG 1.1//EN'  'http://www.w3.org/Graphics/SVG/1.1/DTD/svg11.dtd'><svg enable-background="new 0 0 512 512" height="512px" id="Layer_1" version="1.1" viewBox="0 0 512 512" width="512px" xml:space="preserve" xmlns="http://www.w3.org/2000/svg" xmlns:xlink="http://www.w3.org/1999/xlink"><g><path d="M512,441.969V456c0,13.25-10.75,24-24,24H275.469c5.813-9.32,9.328-20.227,9.328-32V304   c0-32.828-26.195-59.484-58.758-60.594c-0.719-2.359-1.477-4.672-2.039-7.25c-15.234-0.094-24.953-8.813-30.547-41.875   c-4.836-28.375,5.945-31.844,18.813-32.266c-9.141-89.953,23.023-111.891,75.891-111.891c0,0-3.563-18.125,24.25-18.125   c44.094,0,136.858,33.344,113.5,129.938c13.75,0.156,25.953,2.438,20.938,32.344c-5.641,33.25-11.875,41.875-27.266,41.875   c-1.906,0-5.438-0.281-7.188-0.75C405.938,268.781,385.641,284.219,368,304v31.188C368,352,432,368,450.859,375.141   C469.718,382.282,512,392.813,512,441.969z M256,304v144c0,17.672-14.328,32-32,32H32c-17.672,0-32-14.328-32-32V304   c0-17.672,14.328-32,32-32h192C241.672,272,256,286.328,256,304z M224,307.203c0-1.766-1.438-3.203-3.203-3.203H35.203   c-1.766,0-3.203,1.438-3.203,3.203v137.594c0,1.766,1.438,3.203,3.203,3.203h185.594c1.766,0,3.203-1.438,3.203-3.203V307.203z    M208,432H48l48-112l48,80l23.992-32L208,432z M208,336c0,8.836-7.164,16-16,16s-16-7.164-16-16s7.164-16,16-16   S208,327.164,208,336z" fill="#4D4D4D"/></g></svg>