<?xml version="1.0" ?><!DOCTYPE svg  PUBLIC '-//W3C//DTD SVG 1.1//EN'  'http://www.w3.org/Graphics/SVG/1.1/DTD/svg11.dtd'><svg enable-background="new 0 0 512 512" height="512px" id="Layer_1" version="1.1" viewBox="0 0 512 512" width="512px" xml:space="preserve" xmlns="http://www.w3.org/2000/svg" xmlns:xlink="http://www.w3.org/1999/xlink"><g><path d="M479.719,441.969V456c0,13.25-10.75,24-24,24H212.695c33.844-25.734,55.829-66.297,55.829-112   c0-53.734-30.267-100.484-74.642-124.203c-0.75-2.5-1.563-4.922-2.156-7.641c-15.234-0.094-24.953-8.813-30.547-41.875   c-4.836-28.375,5.953-31.844,18.813-32.266c-9.141-89.953,23.016-111.891,75.891-111.891c0,0-3.563-18.125,24.242-18.125   c44.094,0,136.875,33.344,113.5,129.938c13.75,0.156,25.969,2.438,20.938,32.344c-5.625,33.25-11.875,41.875-27.25,41.875   c-1.906,0-5.438-0.281-7.188-0.75c-6.469,33.375-26.75,48.813-44.406,68.594v31.188c0,16.813,64,32.813,82.875,39.953   C437.438,382.281,479.719,392.813,479.719,441.969z M240,368c0,61.859-50.148,112-112,112S16,429.859,16,368s50.148-112,112-112   S240,306.141,240,368z M144,360c0-4.422-3.578-8-8-8h-16c-4.422,0-8,3.578-8,8v64c0,4.422,3.578,8,8,8h16c4.422,0,8-3.578,8-8V360z    M146.398,320c0-10.172-8.234-18.391-18.398-18.391s-18.398,8.219-18.398,18.391s8.234,18.391,18.398,18.391   S146.398,330.172,146.398,320z" fill="#4D4D4D"/></g></svg>