<?xml version="1.0" ?><!DOCTYPE svg  PUBLIC '-//W3C//DTD SVG 1.1//EN'  'http://www.w3.org/Graphics/SVG/1.1/DTD/svg11.dtd'><svg enable-background="new 0 0 512 512" height="512px" id="Layer_1" version="1.1" viewBox="0 0 512 512" width="512px" xml:space="preserve" xmlns="http://www.w3.org/2000/svg" xmlns:xlink="http://www.w3.org/1999/xlink"><g><path d="M496,441.969V456c0,13.25-10.742,24-24,24H246.883c3.656-7.156,5.914-15.125,5.914-23.703V341.625   c1.906-2.125,3.203-4.266,3.203-6.438v-28.781c-5.563-5.563-11.164-10.859-16.563-16.328c-0.195-0.203-0.328-0.438-0.531-0.641   l-1.57-1.531c-12.898-13.391-24.195-28.297-29.336-51.75c-15.234-0.094-24.953-8.813-30.547-41.875   c-4.836-28.375,5.945-31.844,18.813-32.266c-9.141-89.953,23.023-111.891,75.882-111.891c0,0-3.547-18.125,24.25-18.125   c44.103,0,136.867,33.344,113.509,129.938c13.75,0.156,25.953,2.438,20.938,32.344c-5.641,33.25-11.875,41.875-27.266,41.875   c-1.906,0-5.438-0.281-7.188-0.75C389.938,268.781,369.641,284.219,352,304v31.188C352,352,416,368,434.859,375.141   C453.718,382.282,496,392.813,496,441.969z M218.789,310.047l-50.023-48.844c-3.336-3.328-7.859-5.203-12.586-5.203H55.703   C42.609,256,32,266.609,32,279.703v176.594C32,469.391,42.609,480,55.703,480h144.594C213.391,480,224,469.391,224,456.297V322.625   C224,317.906,222.125,313.391,218.789,310.047z M192,443.969c0,2.234-1.813,4.031-4.031,4.031H68.031   c-2.219,0-4.031-1.797-4.031-4.031V292.031c0-2.219,1.805-4.031,4.031-4.031H144v30.219c0,9.828,7.969,17.781,17.797,17.781H192   V443.969z M176,432H80v-16h96V432z M176,400H80v-16h96V400z M176,368H80v-16h96V368z M128,320H80v-16h48V320z" fill="#4D4D4D"/></g></svg>