<?xml version="1.0" ?><!DOCTYPE svg  PUBLIC '-//W3C//DTD SVG 1.1//EN'  'http://www.w3.org/Graphics/SVG/1.1/DTD/svg11.dtd'><svg enable-background="new 0 0 512 512" height="512px" id="Layer_1" version="1.1" viewBox="0 0 512 512" width="512px" xml:space="preserve" xmlns="http://www.w3.org/2000/svg" xmlns:xlink="http://www.w3.org/1999/xlink"><g><path d="M495.719,441.969V456c0,13.25-10.733,24-24,24H228.703c33.836-25.734,55.828-66.297,55.828-112   c0-53.734-30.281-100.492-74.648-124.211c-0.75-2.5-1.563-4.914-2.156-7.633c-15.234-0.094-24.953-8.813-30.547-41.875   c-4.836-28.375,5.945-31.844,18.813-32.266c-9.141-89.953,23.023-111.891,75.883-111.891c0,0-3.547-18.125,24.25-18.125   c44.094,0,136.875,33.344,113.5,129.938c13.75,0.156,25.969,2.438,20.938,32.344c-5.625,33.25-11.875,41.875-27.25,41.875   c-1.906,0-5.438-0.281-7.188-0.75c-6.469,33.375-26.75,48.813-44.406,68.594v31.188c0,16.813,64,32.813,82.875,39.953   C453.438,382.281,495.719,392.813,495.719,441.969z M256,368c0,61.859-50.148,112-112,112S32,429.859,32,368   c0-61.852,50.148-112,112-112S256,306.148,256,368z M170.875,368l32.992-32.984c3.375-3.383,3.375-8.844,0-12.219l-14.664-14.664   c-3.375-3.375-8.836-3.375-12.219,0L144,341.125l-32.984-32.992c-3.375-3.375-8.844-3.375-12.219,0l-14.656,14.664   c-3.383,3.375-3.383,8.836,0,12.219L117.125,368l-32.984,32.984c-3.383,3.375-3.383,8.844,0,12.219l14.656,14.656   c3.375,3.383,8.844,3.383,12.219,0L144,394.875l32.984,32.984c3.383,3.383,8.844,3.383,12.219,0l14.664-14.656   c3.375-3.375,3.375-8.844,0-12.219L170.875,368z" fill="#4D4D4D"/></g></svg>