<?xml version="1.0" ?><!DOCTYPE svg  PUBLIC '-//W3C//DTD SVG 1.1//EN'  'http://www.w3.org/Graphics/SVG/1.1/DTD/svg11.dtd'><svg enable-background="new 0 0 512 512" height="512px" id="Layer_1" version="1.1" viewBox="0 0 512 512" width="512px" xml:space="preserve" xmlns="http://www.w3.org/2000/svg" xmlns:xlink="http://www.w3.org/1999/xlink"><g><path d="M495.711,441.969V456c0,13.25-10.75,24-24,24H228.68c33.843-25.734,55.843-66.297,55.843-112   c0-53.734-30.28-100.5-74.655-124.219c-0.75-2.5-1.563-4.906-2.156-7.625c-15.219-0.094-24.938-8.813-30.531-41.875   c-4.844-28.375,5.938-31.844,18.813-32.266c-9.156-89.953,23-111.891,75.875-111.891c0,0-3.563-18.125,24.25-18.125   c44.094,0,136.875,33.344,113.5,129.938c13.75,0.156,25.969,2.438,20.938,32.344c-5.625,33.25-11.875,41.875-27.25,41.875   c-1.905,0-5.438-0.281-7.188-0.75c-6.469,33.375-26.75,48.813-44.406,68.594v31.188c0,16.813,64,32.813,82.875,39.953   C453.43,382.281,495.711,392.813,495.711,441.969z M256,368c0,61.859-50.148,112-112,112S32,429.859,32,368   c0-61.852,50.148-112,112-112S256,306.148,256,368z M211.328,333.82l-15.945-16.258c-3.031-3.556-7.938-3.556-10.961,0   l-51.789,63.655l-30.758-29.68c-3.016-3.539-7.93-3.539-10.953,0l-14.25,17.313c-3.031,3.555-3.031,9.28,0,12.828l50.523,49.569   c3.016,3.563,7.93,3.563,10.945,0l73.188-84.617C214.359,343.102,214.359,337.352,211.328,333.82z" fill="#4D4D4D"/></g></svg>