<?xml version="1.0" ?><!DOCTYPE svg  PUBLIC '-//W3C//DTD SVG 1.1//EN'  'http://www.w3.org/Graphics/SVG/1.1/DTD/svg11.dtd'><svg enable-background="new 0 0 512 512" height="512px" id="Layer_1" version="1.1" viewBox="0 0 512 512" width="512px" xml:space="preserve" xmlns="http://www.w3.org/2000/svg" xmlns:xlink="http://www.w3.org/1999/xlink"><g><path d="M255.5,347.781c-0.023-1.945-0.656-3.805-1.867-5.547c-0.352-0.5-0.828-1.017-1.289-1.422   c-0.539-0.453-1.641-1.406-3.859-2.273l-22.438-7.133c-1.672-5.188-3.75-10.195-6.227-14.93l10.906-20.961   c1.719-3.586,1.258-7.673-1.203-10.681c-0.617-0.819-1.68-2.133-3.656-4.555c-2.984-3.32-6.297-6.617-10.234-10.164l-4.039-3.517   c-1.859-1.555-4.195-2.43-6.586-2.43c-1.555,0-3.109,0.367-4.508,1.094l-20.945,10.758c-4.961-2.522-9.969-4.569-14.992-6.125   l-7-21.727c-0.906-4.156-4.602-7.305-9.148-7.672l-5.344-0.297c-2.477-0.141-5-0.203-7.547-0.203c-2.25,0-4.516,0.063-6.859,0.203   L123,240.648c-2.672,0.352-5.055,1.625-6.461,3.367c-1.156,1.242-1.734,2.609-2.063,3.547l-7.063,22.469   c-5.023,1.578-10.039,3.617-14.977,6.133L71.6,265.477c-1.414-0.734-3.008-1.134-4.617-1.134c-2.391,0-4.727,0.853-6.656,2.478   l-4.07,3.547c-4.039,3.648-7.266,6.867-10.359,10.344c-1.898,2.344-2.906,3.586-3.484,4.359c-2.406,3.022-2.836,7.094-1.016,10.813   l10.781,20.742c-2.461,4.719-4.539,9.727-6.219,14.93l-22.414,7.117c-0.32,0.102-0.641,0.219-0.953,0.367   c-1.203,0.57-2.234,1.273-3.211,2.211c-0.305,0.281-0.578,0.586-0.828,0.922c-1.586,2.094-2,4.164-2.039,5.711l-0.336,5.055   c-0.25,5.22-0.242,9.906,0.047,14.431l0.367,5.125c0.188,4.063,2.828,7.616,7.063,9.141l22.391,6.992   c1.617,5.108,3.695,10.078,6.18,14.906l-10.516,20.483c-2.281,3.672-1.789,8.547,1.156,11.781l3.453,3.859   c3.102,3.578,6.563,7.016,10.148,10.108l4.43,3.97c1.805,1.358,3.953,2.063,6.195,2.063c1.344,0,2.68-0.25,3.969-0.75   c0.242-0.094,0.477-0.203,0.711-0.328l20.953-10.858c4.594,2.405,9.523,4.438,14.914,6.155l7.172,22.672   c1.398,3.953,4.969,6.595,8.813,6.734l5.438,0.406c1.938,0.109,3.922,0.172,5.914,0.172c2.805,0,5.641-0.094,8.578-0.297   l4.82-0.375c3.086,0,5.875-1.406,7.703-3.875c0.906-1.172,1.367-2.406,1.602-3.266l7.156-22.328   c5.086-1.656,9.82-3.656,14.477-6.156l21.539,11.141c1.336,0.531,2.719,0.813,4.102,0.813c2.25,0,4.375-0.72,6.734-2.531   l3.695-3.391c3.719-3.188,7.188-6.625,10.242-10.156l3.5-3.922c2.945-3.267,3.453-7.938,1.477-11.267l-10.813-21.03   c2.484-4.781,4.547-9.781,6.172-14.867l22.906-7.164c3.805-1.492,6.375-5.022,6.539-8.82l0.367-5.344   c0.297-4.556,0.305-9.392,0.039-14.5L255.5,347.781z M135.992,399.977C113.898,399.977,96,382.094,96,360   c0-22.102,17.898-40,39.992-40C158.094,320,176,337.898,176,360C176,382.094,158.094,399.977,135.992,399.977z M496,441.969V456   c0,13.25-10.742,24-24,24H223.609c37.008-27.094,61.188-70.719,61.188-120c0-65.063-42.039-120.367-100.336-140.531   c-2.805-6.18-5.156-14.25-7.008-25.188c-4.836-28.375,5.945-31.844,18.813-32.266c-9.141-89.953,23.023-111.891,75.882-111.891   c0,0-3.547-18.125,24.25-18.125c44.103,0,136.867,33.344,113.509,129.938c13.75,0.156,25.953,2.438,20.938,32.344   c-5.641,33.25-11.875,41.875-27.266,41.875c-1.906,0-5.438-0.281-7.188-0.75C389.938,268.781,369.641,284.219,352,304v31.188   C352,352,416,368,434.859,375.141C453.718,382.282,496,392.813,496,441.969z" fill="#4D4D4D"/></g></svg>