<?xml version="1.0" ?><!DOCTYPE svg  PUBLIC '-//W3C//DTD SVG 1.1//EN'  'http://www.w3.org/Graphics/SVG/1.1/DTD/svg11.dtd'><svg enable-background="new 0 0 512 512" height="512px" id="Layer_1" version="1.1" viewBox="0 0 512 512" width="512px" xml:space="preserve" xmlns="http://www.w3.org/2000/svg" xmlns:xlink="http://www.w3.org/1999/xlink"><g><path d="M512,441.969V456c0,13.25-10.742,24-24,24H208.938c54.102-22.219,91.859-71.172,91.859-128   c0-59.531-41.414-110.422-99.672-130.984c-3.117-6.313-5.672-14.914-7.672-26.734c-4.836-28.375,5.945-31.844,18.813-32.266   c-9.141-89.953,23.023-111.891,75.882-111.891c0,0-3.547-18.125,24.251-18.125c44.102,0,136.866,33.344,113.508,129.938   c13.75,0.156,25.953,2.438,20.938,32.344c-5.641,33.25-11.875,41.875-27.266,41.875c-1.906,0-5.438-0.281-7.188-0.75   C405.938,268.781,385.641,284.219,368,304v31.188C368,352,432,368,450.859,375.141C469.718,382.282,512,392.813,512,441.969z    M272,352c0,61.859-57.305,112-128,112c-11.703,0-22.992-1.5-33.766-4.063C76.688,475.328,51.156,480,46.375,480   c-3.914,0-7.484-0.313-10.625-0.953c-1.742-0.328-3.141-1.656-3.594-3.375c-0.453-1.719,0.109-3.563,1.453-4.719l3.672-3.125   c9.82-8.266,15.531-21.016,15.352-37.453C30,410.172,16,382.531,16,352c0-61.859,57.305-112,128-112S272,290.141,272,352z    M100.797,352c0-11.484-9.313-20.797-20.797-20.797S59.203,340.516,59.203,352S68.516,372.797,80,372.797   S100.797,363.484,100.797,352z M164.797,352c0-11.484-9.313-20.797-20.797-20.797s-20.797,9.313-20.797,20.797   s9.313,20.797,20.797,20.797S164.797,363.484,164.797,352z M228.797,352c0-11.484-9.313-20.797-20.797-20.797   s-20.797,9.313-20.797,20.797s9.313,20.797,20.797,20.797S228.797,363.484,228.797,352z" fill="#4D4D4D"/></g></svg>