<?xml version="1.0" ?><!DOCTYPE svg  PUBLIC '-//W3C//DTD SVG 1.1//EN'  'http://www.w3.org/Graphics/SVG/1.1/DTD/svg11.dtd'><svg enable-background="new 0 0 512 512" height="512px" id="Layer_1" version="1.1" viewBox="0 0 512 512" width="512px" xml:space="preserve" xmlns="http://www.w3.org/2000/svg" xmlns:xlink="http://www.w3.org/1999/xlink"><g><path d="M496,441.969V456c0,13.25-10.742,24-24,24H287.063c6.148-9.156,9.281-19.875,8.906-31.078   c-0.5-14.75-6.984-28.297-18.258-38.156l-0.727-0.641l-22.853-16.938C260.625,377.664,264,360.984,264,344   c0-53.305-32.781-99.063-79.219-118.289c-2.953-9.328-5.406-20.055-7.328-31.422c-4.836-28.375,5.945-31.859,18.813-32.273   c-9.141-89.961,23.023-111.891,75.882-111.891c0,0-3.547-18.125,24.25-18.125c44.103,0,136.867,33.336,113.509,129.945   c13.75,0.148,25.953,2.438,20.938,32.344c-5.641,33.25-11.875,41.859-27.266,41.859c-1.906,0-5.438-0.273-7.188-0.742   c-6.452,33.367-26.75,48.82-44.391,68.594v26.398c0,13.422,21.031,21.719,48,29.069c12.828,3.5,25.891,6.898,34.859,10.892   C472.594,387.211,496,392.82,496,441.969z M263.32,471.313c-12.103,12.109-31.211,11.47-42.484-1.405l-30.867-37.125   C174.219,442.375,155.789,448,136,448c-57.438,0-104-46.563-104-104c0-0.297,0.039-0.594,0.047-0.891   c-0.008-0.297-0.047-0.594-0.047-0.892C32,285.781,77.766,240,134.219,240c0.297,0,0.594,0.047,0.891,0.047   c0.297,0,0.593-0.047,0.89-0.047c57.438,0,104,46.563,104,104c0,20.75-6.148,40.047-16.625,56.266l38.539,28.563   C274.797,440.094,275.414,459.203,263.32,471.313z M193.602,344c0-31.813-25.789-57.594-57.602-57.594S78.398,312.188,78.398,344   s25.789,57.594,57.602,57.594S193.602,375.813,193.602,344z" fill="#4D4D4D"/></g></svg>